<?xml version="1.0" encoding="UTF-8"?><svg id="Layer_1" xmlns="http://www.w3.org/2000/svg" width="520" height="520" viewBox="0 0 520 520"><defs><style>.cls-1{opacity:.55;}.cls-1,.cls-2{fill:none;}.cls-2,.cls-3{opacity:.75;}.cls-4,.cls-5,.cls-6,.cls-3,.cls-7,.cls-8{fill:#231f20;}.cls-5{opacity:.6;}.cls-6{opacity:.7;}.cls-7{opacity:.10;}.cls-8{opacity:.10;}</style></defs><path class="cls-4" d="m365.77,367.25s45.73,8.38,58.67,32.89c0,0,2.26.37,3.81,9.15l-35.57.16s4-4.19,3.45-9.03c-.55-4.84-3.4-14.49-3.4-14.49l14.25,9.16s.71-1.83-4.57-6.74c-3.91-3.64-13.27-4.75-13.27-4.75l-23.37-4.51v-11.85Z"/><path class="cls-6" d="m206.6,338.55s4.08,2.47,4.54,3.43-20.29,1.76-20.29,1.76l-4.55-4.19,15.8-.52,4.5-.47Z"/><path class="cls-6" d="m186.3,344.46s-1.47-.22-.72,3.73c.76,3.95.72,27.98.72,27.98l4.6-.92-.46-30.86-4.14-4.16v4.24Z"/><path class="cls-6" d="m186.3,402.73c-.53.83,0,8.4,0,8.4l4.6-.24.04-8.16h-4.64Z"/><path class="cls-4" d="m152.67,408.53s.01,7.03-1.34,5.16c-.22-.3-4.56-3.99-1.44-5.16,3.12-1.16,2.78,0,2.78,0Z"/><path class="cls-8" d="m167.41,156.65s-.06-7.95-2.74-9.48c-2.68-1.53-12.33-2.57-12.33,4.21,0,3.01-1.22,12.43,12.33,13.58,0,0,1.61,17.94,1.16,18.04s-4.35-.35-3.6,1.76,6.75,21.42,26.41,21.22c19.66-.2,29.96-12.45,34.34-21.22,4.38-8.77,5.53-31.13,5.53-31.13,0,0-17.25-7.45-16.12-18.24l-.92-2.15s-3.34,6.47-10.74,7.28-23.03.03-23.03.03c0,0-4.35,8.34-4.49,14.97-.14,6.63-2.49,5.33-3.33,3.72-.84-1.62-2.46-2.59-2.46-2.59Z"/><path class="cls-8" d="m100.14,286.96s5.93-2.97,8.59-4.41c2.66-1.44,15.09-17.33,18.21-18.46,3.12-1.13,17.62-5.42,22.87-2.5,5.25,2.92,0,4.38,0,4.38,0,0,8.43-.63,8.53,2.34s-4.32,3.35-4.32,3.35c0,0,4.8-.57,4.2,1.67s-9.04,6.48-11.43,7.07c-2.39.59-11.14,2.06-11.14,2.06,0,0,16.2,5.18,17.48,7.3s-2.75,4.15-6.34,3.67c-3.59-.48-14.25-2.17-14.25-2.17,0,0-12.24,9.44-18.15,9.68-5.91.24-11.29,0-11.29,0l-2.96-13.98Z"/><path class="cls-4" d="m411.9,267.01l2.03,3.27s20.29-50.57,22.93-49.47-2.53-6.14-2.53-6.14l-23.71,50.77,1.29,1.57Z"/><path class="cls-4" d="m408.48,272.7c-.45-.92-.42-1.55-2.64-2.74-2.22-1.19-41.97-16.61-41.97-16.61l5.85,7.27,38.76,12.09Z"/><path class="cls-4" d="m380.74,200.73c.87-1.55,1.8-3.02,2.84-4.57.08-.12.27-.4.44-.61.48-.65,1.41-.96,2.1-1,1.46-.06,2.58.24,3.73.52,1.14.29,2.23.69,3.3,1.09.95.35,1.92.66,2.87.99,1.21.43,2.42.94,3.44,1.85.32.29.2.37-.21.45-.28.06-.56.12-.82.17-.17.03-.34.06-.53.09-.09.02-.18.01-.28.04l-.27-.04c-.63-.13-1.27-.23-1.89-.37l-1.82-.54c-1.21-.37-2.43-.72-3.62-1.15-.71-.26-1.46-.42-2.19-.5-.37-.04-.72-.05-1.05-.05-.16,0-.32.02-.44.03-.09,0-.14.02-.21.04-.07.02-.14.06-.19.12l-.08.1s-.09.14-.14.2l-.3.46-.59.96-1.17,1.97c-.55.93-1.1,1.86-1.62,2.81-.79,1.44-1.6,2.87-2.28,4.35-.52,1.15-.92,2.33-1.37,3.48l-.29.76c-.4.93-.65,1.16-1.25,1.17-.14,0-.28.02-.41,0-.43-.05-.62-.58-.48-1.36.21-1.16.53-2.29.89-3.43.4-1.12.89-2.21,1.4-3.29.75-1.61,1.59-3.19,2.42-4.77l.06.03Z"/><path class="cls-4" d="m369.03,228.65l.41-.61.22-.31.29-.38c.25-.33.53-.64.83-.89.31-.23.69-.4,1.06-.44.4.01.8.02,1.17.12l.8.15c.22.03.42.1.62.18,1.41.56,2.76,1.14,4.15,1.6.61.21,1.25.35,1.87.47.81.11,1.58.34,2.36.59.24.08.22.26,0,.48-.23.23-.68.56-1.2.64-.46.08-.9.06-1.33.01-.44-.04-.87-.09-1.29-.16-.85-.14-1.69-.33-2.5-.6-.97-.33-2.05-.41-3.04-.6-.55-.13-.66-.18-.85-.23-.14-.04-.25.06-.34.15-.05.05-.09.09-.15.16l-.25.37c-.36.55-.72,1.16-1.05,1.77-.52.93-1.07,1.86-1.54,2.84-.38.76-.62,1.57-1.09,2.38-.1.18-.2.37-.34.55-.53.67-1.22.78-1.63.14-.09-.14-.18-.29-.22-.44-.07-.26-.06-.54-.14-.73-.06-.2-.13-.34-.09-.48.12-.45.36-1.1.62-1.74.25-.65.58-1.31.92-1.98.5-1,1.06-2.01,1.69-3.04l.06.03Z"/><path class="cls-4" d="m413.02,212.24c-.95.97-1.99,1.86-3.1,2.63-.4.28-.77.59-1.18.84-1.46.88-3,1.67-4.72,2.11-.76.17-1.54.41-2.37.32-.52-.06-1.07-.15-1.54-.46-.46-.3-.84-.7-1.04-1.17-.14-.29-.02-.29.26-.21.27.1.76.19,1.18.23.38.03.71.05,1.08-.02.17,0,.37-.09.55-.11.18-.01.38-.06.57-.08.79-.15,1.62-.44,2.47-.75,1.03-.36,1.97-1.06,2.91-1.69,1.04-.7,2.01-1.45,2.9-2.32.55-.53,1.07-1.1,1.55-1.71.73-.91,1.44-1.88,2.07-2.89.49-.79.9-1.61,1.38-2.4.11-.17.21-.35.33-.51.45-.62.7-.74,1.13-.63.1.02.2.04.29.07.29.12.33.53.13,1.05-.58,1.57-1.31,3.11-2.33,4.56-.73,1.09-1.57,2.17-2.5,3.18l-.04-.03Z"/><path class="cls-4" d="m438.45,158.52s19.6-15.83,24.17-17.52c4.57-1.69-3.55,8.96.22,11.58s11.74,3.05,11.32,7.86c-.42,4.81,5.05,11.29,10.52,11.38,0,0-24.94,10.57-27.77,14.32,0,0,.6-5.17-2.24-8.9-1.13-1.49-2.99-5.79-5.96-9.19-4.47-5.13-10.26-9.52-10.26-9.52Z"/><path class="cls-7" d="m406.03,201.84c-1.32,5.53-7.54,9.11-6.74,12.8.8,3.69,6.96.75,11.27-2.73,4.31-3.47,6.76-11.1,7.66-11.29s11.28-6.36,13.56-8.69c2.28-2.33,2.53-5.75,3.87-9.27,1.35-3.51,14.91-9.87,14.91-9.87l-12.12-14.28-11.08,8.92s-19.92,11.5-25.08,15.61c-5.16,4.1-5.7,14.67-5.7,14.67l9.45,4.13Z"/><path class="cls-3" d="m456.26,187.34c-4.13,2.61-14.34-9.62-14.34-9.62l9.36-5.05s4.08,6.92,5.19,11.03c1.11,4.11-.21,3.64-.21,3.64Z"/><path class="cls-4" d="m347.49,404.23c-.61-.14-1.04-.29-1.6-.47-.53-.19-1.11-.41-1.66-.77-.4-.26-.81-.54-1.1-.9-.55-.65-.87-1.46-1.01-2.28-.06-.41-.07-.85.02-1.28.02-.11.05-.22.08-.32l.05-.08c.04-.07.09-.13.14-.2.02-.03.05-.06.08-.09.01-.01.03-.03.04-.04h-.05c-.07-.02-.14-.05-.21-.07l-.19-.08c-.08-.05-.06-.03-.22-.13-.36-.28-.64-.66-.83-1.07-.1-.2-.16-.42-.2-.64-.04-.22.03-.46.08-.67.1-.27.18-.22.43-.06.12.08.32.17.54.23.2.07.36.15.49.24.19.15.41.26.62.32.05.02.08.06.13.07,0,0,.11.07.17.11.09.02.23.02.35.03l.37.02h.47s1.04,0,1.04,0l-.45,1.02c-.15.3-.3.59-.45.89l-.26.53c-.09.28-.09.22-.13.29-.05.09-.11.2-.14.33-.09.29-.02.64.14.94.16.29.39.54.65.78.51.51,1.37.8,2.34,1.04l.45.11c.14.02.24.06.38.07.27.04.57.06.87.06.91.02,1.86.02,2.79-.1.72-.09,1.42-.33,2.13-.51.16-.04.31-.1.47-.13.6-.05.82.1.99.72.04.14.08.27.11.39.07.42-.12.89-.53,1.08-1.22.59-2.6.72-4.01.8-1.07.04-2.06.06-3.37-.13v-.06Z"/><path class="cls-4" d="m369.56,407.39c-1.63.31-3.29.55-4.97.7-.61.05-1.22.16-1.84.18-2.19.06-4.35-.12-6.49-.55-.95-.21-1.91-.43-2.85-.83-.6-.27-1.24-.61-1.69-1.27-.21-.33-.41-.74-.38-1.16,0-.21.05-.41.13-.59.06-.19.15-.35.26-.49.27-.36.37-.19.55.19.07.18.23.42.41.59.24.16.41.2.49.29.18.17.51.38.93.6.43.2.92.4,1.45.54,1.05.3,2.2.51,3.36.69,1.41.22,2.88.08,4.32-.05,1.59-.14,3.2-.38,4.8-.67.99-.18,1.97-.38,2.95-.61,1.49-.34,2.99-.69,4.45-1.12,1.14-.34,2.22-.79,3.37-1.09.25-.07.49-.15.75-.21.96-.16,1.31-.06,1.6.3.07.08.15.16.19.25.15.28-.17.64-.81.98-.47.26-.96.48-1.45.69-.5.21-.98.45-1.5.61-1.03.33-2.09.64-3.16.92-1.59.43-3.22.8-4.86,1.15v-.05Z"/><path class="cls-4" d="m338.05,330.25s-.08,0-.11,0c-.01.03-.02.07-.03.11v.04s.01.24.01.24l.03.5.07,1.02c.09,1.36.17,2.74.21,4.12.03,1.01.12,2.02.08,3.05-.03.9-.09,1.81-.24,2.75-.02.23-.09.47-.14.71-.04.2-.11.57-.26.9-.07.16-.14.32-.21.48l-.12.23-.03.06c-.07-.04-.04.02-.07.02l-.08.1c-.24.25-.6.32-.94.4-.76.13-1.13.13-1.6.15-.45.02-.9.01-1.35,0-.89-.01-1.77-.05-2.65-.08-1.56-.07-3.13-.1-4.67-.14-1.98-.04-3.98-.16-5.93-.75-.6-.42-.5-.26.04-.54.28-.16.65-.28,1.11-.45.23-.08.47-.16.73-.23.13-.04.26-.06.4-.1.14-.01.28-.02.42-.03l1.51-.07.75-.04.75.02,3.01.09c2,.06,4.02.14,5.96.16h.69c.1-.01.2,0,.28-.06.04-.09.07-.15.1-.28.04-.23.12-.52.14-.8.15-1.14.15-2.37.14-3.59,0-1.34-.06-2.69-.14-4.05l-.13-2.04-.07-1.03-.04-.52c-.03-.26-.01-.52-.02-.78-.03-.33.05-.6.1-.88l.06-.2c.06-.04.12-.09.18-.12l.36-.21c.27-.11.59-.18.9-.25l.44-.08.32-.05c.85-.13,1.69-.24,2.53-.35,2.55-.32,5.12-.52,7.67-.72,1.98-.15,3.92-.42,5.92-.43.44,0,.87-.02,1.33.02,1.67.13,2.23.46,2.42,1.1.05.15.11.3.12.43,0,.46-.65.62-1.75.65-3.31.18-6.92.4-10.54.72-1.34.12-2.69.25-4.03.4l-2.01.25-1.63.24-.02-.05Z"/><polygon class="cls-6" points="330.28 324.49 335.58 327.97 335.16 343.12 330.72 343.12 330.28 324.49"/><path class="cls-6" d="m331.5,322.15l4.08,4.41,27.7,1.24s-2.55-5.63-6.06-6.58c-3.51-.94-25.72.92-25.72.92Z"/><path class="cls-4" d="m199.01,404.36c1.02,0,2.05.01,3.08-.04.38-.01.74-.1,1.12-.13,1.33-.05,2.64-.22,3.96-.4.58-.11,1.15-.26,1.69-.45.34-.13.69-.27,1.05-.38.17-.07.34-.13.52-.18.17-.06.36-.1.58-.07.27.02.33.19.29.55-.02.4-.2.94-.61,1.19-.72.43-1.48.77-2.26,1-.78.27-1.58.41-2.4.46-.98.05-1.94.33-2.92.44-1.08.12-2.15.19-3.23.22h-1.99c-1.01.01-2.01-.04-3.01-.06-.78-.01-1.55.1-2.39.05-.19-.02-.36.02-.57-.04-.19-.04-.34-.1-.46-.16-.12-.07-.21-.11-.29-.26-.13-.28-.11-.51-.02-.74.04-.11.07-.21.12-.29.09-.14.24-.22.41-.35.08-.06.17-.13.25-.21.05-.05.05-.07.09-.08.05-.02.09-.03.14-.03,1.07-.12,2.46-.09,3.8-.09,1.01.01,2.04.03,3.07-.01v.06Z"/><path class="cls-4" d="m205.1,394.61c1.02-.03,2.05-.1,3.07-.23.37-.05.73-.16,1.11-.21,1.32-.18,2.62-.44,3.92-.74.58-.14,1.11-.39,1.65-.59.68-.27,1.42-.5,1.94-1,.15-.17.16-.16.14.07-.03.21-.15.69-.47,1.09-.57.68-1.21,1.3-1.98,1.61-.75.35-1.51.66-2.31.81-.96.17-1.91.53-2.87.73-1.06.22-2.14.39-3.22.51-.66.07-1.33.13-2,.18-1.01.08-2.03.07-3.04.09-.79.02-1.57.15-2.38.15-.18,0-.36.03-.54,0-.66-.14-.83-.4-.83-.97,0-.13,0-.26,0-.39.05-.42.38-.72.82-.83.66-.19,1.28-.16,1.94-.21.66-.02,1.32-.03,1.99-.05,1-.04,2.02,0,3.05-.09v.05Z"/><path class="cls-4" d="m193.39,346.73c-.32.91-.48,2.16-.61,3.33-.12,1.19-.2,2.4-.26,3.62-.04.89,0,1.78-.03,2.67-.1,3.14-.11,6.3-.11,9.46,0,1.4.06,2.81.14,4.2.06.89.12,1.79.13,2.68,0,.45.03.9-.02,1.35-.06.45-.13.9-.2,1.36-.1.56-.18.5-.44.04-.18-.3-.37-.63-.56-.94-.11-.2-.26-.41-.35-.64-.07-.23-.14-.48-.18-.73-.33-1.82-.4-3.65-.52-5.48-.05-.92-.08-1.84-.09-2.76,0-.92.04-1.85.09-2.78.11-2.22-.02-4.52.04-6.79.08-2.5.18-5,.59-7.54.16-.8.26-1.55.76-2.46.08-.12.17-.23.26-.34.09-.09.2-.17.29-.24.19-.16.38-.29.56-.38.37-.23.75-.39,1.12-.55,2.27-.88,4.57-1.39,6.91-1.67,1.81-.22,3.61-.46,5.47-.29.41.02.82.1,1.23.18,1.53.42,1.87,1.02,1.99,1.46.03.11.07.22.07.31-.02.31-.64.23-1.64.24-2.88-.16-6.03.03-9.15.66-1.16.17-2.33.41-3.39.81-.27.1-.54.19-.78.3-.26.11-.49.22-.69.34-.23.11-.35.25-.42.28.01-.02-.08.1-.15.34h-.05Z"/><path class="cls-4" d="m191.68,407.61c.08-.37.16-.74.23-1.11.02-.13,0-.27.04-.4.1-.47.23-.94.38-1.4.06-.21.08-.41.11-.62.03-.26.05-.53.17-.78.04-.08.16-.06.3.02.13.08.31.21.35.36.13.54.26,1.07.18,1.6-.08.32,0,.65-.01.97-.01.35-.03.72-.04,1.07,0,.22-.02.44-.02.66,0,.33-.02.67.04,1,.04.26.25.49.31.74.02.05.05.11.06.16.04.21-.13.29-.6.38l-.31.06c-.33.05-.69,0-.85-.15-.5-.43-.51-.93-.49-1.44.01-.37.08-.75.12-1.13h.04Z"/><path class="cls-4" d="m254.48,355.4l.25,22.55s13.52-3.45,15.17.97,0,29.61,0,29.61l50.4.77v-22.73s-15.92,1.31-15.8-4.22c.13-5.53,0-28.41,0-28.41,0,0-5.46-1.35-9.19.19-3.72,1.54-4.27,9.72-11.87,9.72-17.83,0-27.41-10.42-27.41-10.42l-1.55,1.98Z"/><path class="cls-4" d="m149.66,391.01s2.43-3.02-1.85-2.16c-13.06,2.61-19.01,8.82-14.87,7.48s16.36-5.06,15.8-2.29c-.56,2.77-2.93,13.12.93,17.73,3.86,4.61,7.8,2.19,7.8,2.19,0,0,.44,3.4-6.13,5.97-4.84,1.9-27.31,13.7-41.17,5.24-6.62-4.05-9.9-8.14-7.06-15.87,8.37-22.73,65.2-48.56,82.23-48.56v10.66s-4.83-3.11-16.41,10.18c-11.58,13.3-19.28,9.43-19.28,9.43Z"/><path class="cls-4" d="m88.34,413.36c-1.91-.12-3.84-.22-5.77-.26-.7-.01-1.41.04-2.11,0-2.5-.11-5-.21-7.5-.32-1.11-.06-2.22-.03-3.32-.03-.71,0-1.41.04-2.12.03-.71-.03-1.42-.12-2.12-.24-.44-.08-.38-.37-.01-.72.37-.34,1.05-.81,1.85-.97,2.86-.28,5.71-.59,8.62-.39,1.74.1,3.54-.14,5.31-.2,1.96-.05,3.92-.02,5.89.02l3.63.11c1.83.06,3.67.2,5.49.24,1.41.01,2.81-.1,4.22-.15.31,0,.61-.04.93-.03,1.15.04,1.5.29,1.67,1.18.04.2.09.41.11.61.05.68-.47,1.2-1.31,1.33-2.5.37-5.07.32-7.66.16-1.92-.1-3.84-.24-5.77-.3v-.08Z"/><path class="cls-4" d="m127.11,385.15c-3.54,2.41-6.98,4.96-10.22,7.72-3.23,2.77-6.32,5.72-8.88,9.04-1.86,2.44-3.33,5.05-4.03,7.93-.68,2.53-.91,5.18-.15,7.57.72,2.39,2.45,4.39,4.66,5.76,2.21,1.39,4.81,2.22,7.46,2.75,2.66.52,5.39.74,8.13.78,4.86.05,9.73-.77,14.34-2.21,2.96-.94,5.85-2.1,8.65-3.46,1.41-.66,2.77-1.41,4.16-2.14.7-.35,1.39-.72,2.07-1.1.69-.37,1.37-.76,2.04-1.16,1.69-.98,1.59-.69.4.52-.59.62-1.47,1.43-2.58,2.39-.56.47-1.17.97-1.85,1.47-.69.48-1.46.92-2.26,1.38-5.72,3.2-12.1,5.31-18.68,6.14-3.29.43-6.62.46-9.92.21-3.3-.26-6.63-.85-9.81-2.12-1.9-.72-3.75-1.77-5.35-3.19-.84-.67-1.5-1.54-2.17-2.4l-.81-1.43c-.28-.47-.4-1.02-.6-1.53-.66-2.08-.81-4.3-.48-6.38.09-1.06.37-2.07.63-3.07l.2-.76.28-.74c.2-.49.35-1,.6-1.46,1.99-4.16,4.95-7.56,8.08-10.68,3.15-3.11,6.55-5.92,10.06-8.55,4.34-3.22,8.85-6.18,13.46-8.97,6.98-4.22,14.26-8,21.6-11.4,5.71-2.64,11.37-5.11,17.26-7.19,1.29-.46,2.58-.88,3.9-1.29,4.94-1.44,6.62-1.55,7.8-1.28.27.07.62.11.78.2.28.15-.07.42-.93.79-.86.35-2.23.83-3.99,1.39-5.21,1.74-10.47,3.76-15.74,6-5.25,2.26-10.51,4.74-15.7,7.36-7.69,3.94-15.23,8.26-22.35,13.16l-.04-.05Z"/><path class="cls-4" d="m314.43,297.82c12.09-1.89,35.04-15.71,21.29-34.9-6.83-9.54-22.68-7.91-22.68-7.91,0,0-10.5-13.13-30.09-3.15-10.5,5.35-10.09,9.58-10.09,9.58,0,0-13.75-5.1-21.03-3.57-7.28,1.53-18.94,7-23.04,13.12-4.09,6.12-9.22,14.3-8.66,21.63.56,7.33,5.6,16.6,5.6,16.6,0,0,3.48-5.46,8.26-5.49s9.01,3.62,8.78,5.03c-.22,1.41,4.27,19.27,8.79,18.49,4.52-.78,2.97-6.76,2.3-9.06-.67-2.3-.84-6.76-.79-9.44.05-2.68,7.05-7.84,7.05-11.05,0-3.21,0-7.17,0-7.17,0,0,10.28,4.25,18.79,7.17,13.63,4.68,35.51.1,35.51.1Z"/><path class="cls-6" d="m125.29,297.07s8.31,28.15,10.71,28c2.4-.14,3.81-5.65,3.81-5.65l-9.89-26.03-4.64,3.67Z"/><path class="cls-4" d="m130.02,292.71l.76-.69.29-.27c.12-.1.23-.24.37-.31.26-.17.52-.34.79-.48.26,0,.52.01.79.05.26.02.53.05.79.14l.92.28,1.72.5c.66.18,1.34.28,2,.45,2.34.58,4.7,1.1,7.09,1.29,1.06.08,2.13.08,3.18,0l1-.11c.34-.02.65-.14,1-.14.68-.02,1.35-.1,2.07-.1.45,0,.4.02.11.29-.29.24-.79,1.04-1.59,1.37-.69.4-1.45.45-2.18.6-.74.16-1.48.19-2.23.26-1.49.04-2.97-.1-4.42-.38-1.73-.31-3.54-.51-5.28-.9-.81-.19-1.62-.39-2.42-.61l-1.84-.51c-.11.06-.19.15-.29.23-.79.76-1.74,1.64-2.68,2.39-1.44,1.17-3.04,2.17-4.73,2.96-1.31.62-2.66,1.17-4.14,1.48-.33.05-.65.08-.98.1-1.24,0-1.62-.3-1.79-.89-.04-.14-.1-.28-.11-.42-.04-.45.45-.82,1.2-.97,2.18-.57,4.27-1.15,6.3-2.39,1.5-.88,2.93-1.97,4.26-3.24l.05.04Z"/><path class="cls-4" d="m156.6,318.49c-3.2.3-6.42.46-9.65.61-1.18.05-2.36.15-3.56.14-.43,0-.86-.02-1.32-.05l-.18-.02c-.08,0-.17-.02-.26-.03-.18-.02-.35-.05-.52-.1-.35-.08-.6-.33-.81-.59l-.27-.46-.16-.31-.29-.57-.55-1.13-1.05-2.26c-.69-1.51-1.35-3.02-2-4.54-.72-1.69-1.45-3.39-2.16-5.06-.46-1.08-.87-2.18-1.24-3.3-.19-.56-.36-1.12-.52-1.69l-.23-.85c-.06-.29-.07-.6-.1-.89-.05-.74-.04-.64.32-.11.42.52,1.08,1.48,1.62,2.69,1.95,4.3,3.9,8.58,5.87,12.94.34.73.7,1.47,1.08,2.19l.59,1.08.5.84c.03.11.16.12.26.13h.36s.45,0,.45,0c.61-.01,1.24-.05,1.86-.09,3.18-.19,6.39-.53,9.6-.84,1.97-.19,3.95-.38,5.92-.61,2.98-.34,5.99-.67,8.94-1.13,2.29-.34,4.52-.83,6.76-1.27.49-.1.97-.22,1.47-.31,1.85-.33,2.46-.28,2.97.27.12.12.26.24.34.37.27.44-.42.99-1.77,1.39-4,1.13-8.26,1.98-12.59,2.51-3.21.42-6.44.75-9.67,1.09v-.06Z"/><path class="cls-4" d="m128.54,257.77c-.97.36-1.92.74-2.84,1.19-.33.16-.63.39-.95.56-.53.29-1.2.67-1.27.74-.09.1-.04.24-.05.38.03.32.07.67.12,1.01.08.6.23,1.19.38,1.77.24.73.34,1.5.37,2.28,0,.24-.22.29-.54.17-.31-.12-.78-.38-1.02-.79-.45-.7-.63-1.48-.87-2.24-.11-.38-.21-.77-.29-1.17l-.11-.61c-.06-.36-.16-.72-.12-1.04,0-.2.08-.37.15-.56.1-.17.22-.34.35-.49.15-.14.27-.32.41-.44.11-.1.21-.2.33-.28.44-.34.87-.63,1.32-.88.98-.54,1.99-.99,3-1.41.62-.26,1.25-.5,1.88-.74.95-.37,1.93-.66,2.88-1.01.74-.27,1.44-.65,2.23-.9.17-.05.34-.13.53-.17.68-.13.96.03,1.11.64.04.14.08.27.09.41.05.48-.17.85-.53,1.04-1.1.57-2.36,1.04-3.65,1.5-.95.35-1.93.69-2.89,1.1l-.03-.05Z"/><path class="cls-4" d="m176.57,265.18c.22,1.11.42,2.25.52,3.4.03.43.12.84.13,1.27,0,.57,0,1.13-.06,1.72-.07.58-.18,1.21-.58,1.8-.13.24-.45.41-.64.49-.2.08-.38.15-.57.21-.64.19-1.27.35-1.89.49-.8.19-1.6.35-2.42.39-.26.01-.24-.1-.05-.26.19-.16.53-.41.96-.58.68-.24,1.35-.51,2-.77.33-.13.65-.27.95-.41.15-.07.3-.13.42-.19.14-.05.06-.04.17-.03-.02-.13.07-.23.13-.35.24-.75,0-1.8-.15-2.73-.18-1.06-.44-2.13-.66-3.21-.16-.66-.31-1.33-.5-1.99-.27-1-.55-2.01-.9-2.98-.27-.76-.65-1.46-.98-2.2-.07-.16-.16-.31-.22-.49-.23-.63-.15-.92.34-1.18.11-.06.22-.13.33-.17.4-.14.78,0,1.03.4.76,1.2,1.39,2.59,1.82,4.05.32,1.08.59,2.2.85,3.32h-.05Z"/><path class="cls-4" d="m187.92,307.7c-.04.75-.09,1.43-.22,2.23-.05.29-.1.61-.24.92-.24.56-.74,1.02-1.21,1.24-.47.24-.92.37-1.38.51-.4.11-.8.23-1.21.31-.51.14-1.06.14-1.58.02-.16-.04-.14-.15,0-.31.13-.14.35-.38.61-.49.92-.31,1.8-.6,2.64-.97.51-.23.71-.56.82-1.02.14-.51.15-1.23.15-1.9,0-.42-.01-.84-.04-1.25-.05-.63-.11-1.28-.22-1.9-.1-.49-.3-.95-.46-1.42-.04-.1-.09-.2-.11-.31-.1-.39-.01-.54.42-.72.1-.04.19-.09.29-.12.34-.11.65,0,.82.28.48.81.72,1.74.87,2.7.08.72.09,1.45.1,2.19h-.04Z"/><path class="cls-6" d="m115.67,266.08s1.41,5.66,2.26,5.57,4.79-5.57,4.79-5.57l-2.51-6.75-4.53,6.75Z"/><path class="cls-4" d="m37.1,318.66c-.95-1.66-1.78-3.38-2.37-5.19-.22-.66-.52-1.29-.65-1.97-.63-2.37-.71-4.83-.63-7.22.03-.53.05-1.06.06-1.59.01-.53.09-1.05.13-1.58.15-1.34.3-2.7,1.04-3.9.2-.38.29-.3.46.1.12.27.25.55.36.8.07.16.16.34.2.52.02.18.03.36.02.54-.07.65-.07,1.3-.07,1.95,0,.64-.16,1.28-.13,1.92-.01.64-.04,1.28-.08,1.93.02.64.03,1.29.02,1.94,0,.78.19,1.55.31,2.34.18.77.43,1.54.63,2.3.57,1.65,1.18,3.31,2.07,4.83.25.48.52.95.83,1.41.31.45.57.93.92,1.36.99,1.33,2.05,2.64,3.27,3.77.94.89,2,1.61,3.05,2.34.23.16.46.31.69.48.84.64.99.98.77,1.63-.05.15-.09.31-.16.44-.23.46-.83.51-1.55.14-2.14-1.1-4.05-2.8-5.79-4.68-1.28-1.4-2.42-2.97-3.45-4.6l.05-.03Z"/><path class="cls-4" d="m100.14,286.96s-1.48-1.42-5.22-1.84c-4.66-.53-12.36.05-19.63,1.84,0,0,24.4-6.92,25.97-3.39l-1.12,3.39Z"/><path class="cls-4" d="m103.11,300.94s6.32,21.27,12.85,19.68c1.49-.36,4.25,0-1.55-19.68,0,0-10.07.6-11.29,0Z"/><path class="cls-4" d="m195.77,225.65c1.13,1.94,2.23,3.9,3.25,5.9.38.72.81,1.42,1.15,2.16.63,1.3,1.2,2.62,1.76,3.95.52,1.34,1.04,2.68,1.52,4.03.45,1.19.91,2.38,1.36,3.56.51,1.54,1.11,3.05,1.27,4.7.07.51-.06.48-.4.14-.17-.17-.41-.41-.68-.7-.28-.29-.55-.64-.73-1.07l-1.06-2.21c-.33-.74-.64-1.49-.95-2.24-.63-1.5-1.24-3-1.85-4.53-.71-1.83-1.72-3.61-2.65-5.38-1.04-1.94-2.09-3.88-3.25-5.77-.69-1.17-1.43-2.31-2.18-3.46-1.16-1.71-2.31-3.44-3.58-5.05-.99-1.25-2.1-2.37-3.17-3.53-.24-.26-.47-.5-.69-.77-.81-1.01-.93-1.45-.65-2.05.06-.14.11-.29.19-.4.27-.39.9-.22,1.66.39,1.16.89,2.17,1.96,3.15,3.09.97,1.14,1.92,2.32,2.81,3.54,1.36,1.8,2.56,3.73,3.77,5.64l-.05.04Z"/><path class="cls-4" d="m98.16,217.32c4.65-2.71,9.5-5.07,14.39-7.28,1.8-.79,3.6-1.56,5.42-2.3,6.48-2.44,13.15-4.36,19.96-5.58l4.56-.68c1.52-.21,3.06-.28,4.57-.44,3.89-.35,7.88-.25,11.71.66,1.19.25,1.02.3-.03.48-.52.1-1.26.24-2.14.43-.88.18-1.89.21-2.98.35-7.75.47-15.37,1.65-23.04,3.41-2.28.58-4.61,1.19-6.86,2.07-1.14.41-2.28.83-3.42,1.24-1.12.47-2.24.93-3.35,1.4-4.93,1.97-9.69,4.38-14.38,6.89-1.44.79-2.84,1.64-4.26,2.46l-2.12,1.24-2.06,1.34c-2.08,1.36-4.19,2.68-6.19,4.16-1.01.73-2.02,1.45-3.03,2.17-1.01.72-1.95,1.53-2.92,2.29-1.48,1.22-2.98,2.39-4.35,3.71-1.38,1.3-2.77,2.57-4.17,3.84-.61.57-1.16,1.17-1.78,1.75-2.25,2.15-3.15,2.65-4.12,2.61-.22,0-.48.02-.65-.04-.59-.17.03-1.37,1.57-3.11,2.29-2.58,4.82-5.05,7.5-7.43,1.32-1.21,2.77-2.3,4.17-3.45l2.13-1.7c.72-.56,1.47-1.08,2.2-1.62,2.19-1.59,4.39-3.19,6.69-4.63l3.42-2.22,3.51-2.07.04.06Z"/><path class="cls-4" d="m163.32,180.7c.11.08.14,0,.16-.09v-.04s.02-.02.01-.13v-.49s-.05-.99-.05-.99c-.02-.48-.1-.96-.11-1.44-.07-1.7-.1-3.41-.11-5.12-.01-.76-.06-1.52-.11-2.27-.02-.48-.08-.97-.06-1.45.03-.49.08-.98.17-1.46.06-.3.2-.26.39,0,.18.25.48.71.62,1.25.3,1.92.51,3.85.59,5.82,0,1.18.22,2.4.34,3.6l.17,1.99.09,1.3c0,.25.04.54-.02.74-.04.22-.12.39-.18.57-.02.06-.04.11-.07.17-.03.05-.12.04-.18.06l-.37.05c-.28,0-.54.04-.84,0l-.87-.13-.61-.11c-1.23-.21-2.45-.51-3.67-.65-.48-.05-.96-.07-1.44-.07-.48,0-.97,0-1.44-.06-.21-.02-.42-.02-.63-.06-.78-.14-1.03-.39-1.03-1.06,0-.15,0-.3.04-.45.14-.47.44-.8,1.01-.84.84-.03,1.73-.11,2.57.12.85.17,1.7.46,2.58.58l1.95.37.97.19c.11.02.09.02.09.02h.01s.03.02.03.02l.03.05Z"/><path class="cls-4" d="m249.19,117.02s-12.24-11.05-21.84-9.43c-9.6,1.63-17.6,3.58-17.6,3.58,0,0-5.94-9.78-10.37-12.64-4.43-2.87-17.68-11.5-38.41-3.23s-45.2,28.91-58.09,43.72c-12.9,14.81-20.94,26.1-20.38,31.18.57,5.09,11.79,22.29,17.9,27.42,6.1,5.14,13.63,8.96,16.15,9.97s30.35-11.17,42.05-4.63c0,0,5.94,9.99,12.99,14.52,7.05,4.54,15.41,3.27,16.88.72,1.47-2.54,1.66-.61,1.66-.61l8.47,12.84s15.27,4.29,24.94-.76c9.66-5.04,12.71-8.78,12.71-8.78,0,0-6.48-25.67-4.23-36.13s6.17-31.28,6.17-31.28l-9.61-.94-5.61-3.44c15.22,9.95,40.38-5.53,26.22-32.08Zm-26.01,33.02c8.02,4.61,5.44,8.31,4.03,17.77-1.41,9.45-6.5,22.3-10.59,26.68-4.1,4.37-14.65,9.96-19.25,11.19-4.61,1.23-22.29.66-29.33-9.15-7.04-9.81-5.87-13.95-5.87-13.95,0,0-16.45-4.08-14.43-5.83,2.02-1.75,15.66-10.77,15.66-10.77,0,0-10.55-2.13-11.07-8.9-.51-6.78.22-10.17,4.86-11.44,4.65-1.27,9.44,1.61,10.22,3.77.79,2.16,1.49,11.54,5.42,10.54,0,0,1.77.39,1.58-5.54-.18-5.93.21-12.04,3.28-13.86,3.07-1.83,17.58,3.87,27.48-1.8,0,0,4.86-2.06,6.53-4.64,0,0,3.46,11.33,11.48,15.93Z"/><path class="cls-4" d="m213.9,148.62c.63-.24,1.29-.41,1.96-.5l-.4.05c.76-.1,1.53-.1,2.29,0l-.4-.05c.23.03.46.07.69.12.76.17,1.66-.23,1.85-1.05.17-.76-.23-1.67-1.05-1.85-1.9-.41-3.92-.32-5.74.38-.37.14-.69.33-.9.69-.19.32-.27.8-.15,1.16.23.71,1.06,1.35,1.85,1.05h0Z"/><path class="cls-4" d="m203.56,144.58c-2.05-2.15-5.51-2.53-8.32-2.51-3.1.02-6.13.78-8.91,2.13-.73.36-.93,1.39-.54,2.05.43.74,1.32.89,2.05.54,2.21-1.08,4.66-1.67,7.12-1.72,2.06-.04,4.95.03,6.47,1.63,1.33,1.4,3.45-.72,2.12-2.12h0Z"/><path class="cls-4" d="m187.17,405.51c-.05.49-.09.98-.11,1.48,0,.18.06.36.05.54-.07.66-.17,1.33-.21,1.99-.01.29-.02.59.01.88.01.37.17.74-.13,1.13-.11.12-.37.12-.74.05-.41-.07-.86-.21-.93-.4-.14-.35-.26-.69-.34-1.04-.08-.35-.02-.73.05-1.11.1-.46-.1-.9-.13-1.37-.02-.51-.02-1.03-.02-1.55,0-.32,0-.65,0-.96,0-.49.04-.98-.01-1.46-.03-.38-.23-.75-.32-1.15-.01-.09-.05-.17-.04-.26,0-.32.32-.4.9-.4h.4c.43.02.83.18,1.09.4.12.16.23.31.33.46.07.15.1.3.14.45.07.3.08.6.08.91,0,.46-.03.93-.03,1.42h-.06Z"/><path class="cls-4" d="m212.32,386.54c.79.08,1.49.18,2.37.32,1.24.19,2.61.56,3.43,1.1l.3.21.23.24c.16.15.26.35.36.55.07.21.12.46.17.71-.01.26-.1.47-.17.67-.25.76-1.18,1.43-2.39,1.93-.42.19-.86.36-1.33.52-.3.11-.55.18-.82.27-.54.17-1.07.33-1.61.46-3.81.91-7.62,1.43-11.43,1.96-1.69.25-3.38.5-5.06.75-1.07.18-2.16.3-3.24.4-1.08.13-2.18.11-3.29-.03-.69-.09-.6-.17-.06-.49.27-.15.65-.41,1.12-.66.23-.12.48-.28.75-.39.27-.09.56-.18.87-.24,2.15-.48,4.32-.79,6.5-1.12,2.17-.32,4.35-.63,6.55-.96,2.62-.38,5.3-1.06,7.84-1.8l1.44-.45c.25-.1.56-.19.77-.43.12-.13.05-.3-.07-.38-.11-.09-.25-.14-.38-.19-.31-.1-.5-.15-1.1-.22-1.77-.18-3.6-.29-5.42-.32-2.77-.04-5.57,0-8.32.21-2.14.17-4.22.52-6.31.86-.46.08-.91.15-1.37.2-1.72.2-2.28.11-2.75-.43-.11-.12-.24-.24-.31-.36-.25-.42.4-.94,1.67-1.31,1.88-.57,3.84-.91,5.83-1.15,1.99-.25,4.02-.41,6.06-.52,3.03-.15,6.08-.18,9.18,0v.07Z"/><path class="cls-4" d="m198.77,404.72c-2.17-.16-4.32-.37-6.47-.59l-3.22-.34-1.6-.17-.75-.08c-.1,0-.16-.04-.21.01h-.01s0,0-.08.05l-.26.16-.51.31c-.34.22-.69.4-1.03.6-.69.41-1.4.77-2.12,1.11-5.16,2.44-10.88,3.69-16.56,3.54-2.52-.05-5.04-.4-7.44-1.05-.81-.2-1.46-.41-2.17-.44-.71-.04-1.43.04-2.16.2-.73.15-1.45.41-2.19.62-.76.21-1.51.43-2.27.64-.96.23-.85.12-.15-.35.41-.29.9-.64,1.42-1.02.3-.21.62-.46.99-.67.38-.2.79-.39,1.24-.56.8-.29,1.67-.51,2.59-.59.46-.04.93-.03,1.39.02.46.04.97.16,1.31.22.76.13,1.5.31,2.27.38l1.14.15,1.14.08c3.04.32,6.12.16,9.19-.32,1.83-.31,3.68-.81,5.47-1.48,1.79-.68,3.54-1.51,5.23-2.41l1.21-.67,1.33-.82c.16-.04.29-.19.48-.15.16-.03.33-.07.49-.08l.48.03.32.03,1.27.12,2.53.25,5.04.45c2.65.21,5.3.38,7.93.41h1.49s1.2-.04,1.2-.04c.55-.04,1.13-.06,1.67-.28.13-.06.26-.15.3-.29.05-.14-.03-.28-.11-.39-.18-.21-.43-.37-.68-.5-.25-.13-.51-.25-.78-.35l-.4-.15-.68-.23c-2.91-.92-5.92-1.4-8.93-1.84-.66-.08-1.31-.16-1.98-.24-2.48-.26-3.19-.75-3.69-1.36-.11-.14-.27-.28-.34-.41-.11-.22.09-.4.58-.58.49-.17,1.26-.37,2.21-.35,2.83.12,5.68.51,8.55,1.11,1.44.3,2.88.66,4.34,1.12l.55.18.79.28c.65.27,1.36.53,1.92.87,1.22.64,1.95,1.41,2.23,2.19.07.3.19.62.1,1l-.03.29v.07s0,.05,0,.07l-.05.13c-.05.19-.16.31-.24.45-.24.55-.77.95-1.52,1.28-1.53.6-4.5.66-5.12.66-2.25.02-4.45-.09-6.64-.23v-.07Z"/><path class="cls-4" d="m419.68,173.38c-2.72,1.57-5.45,3.11-8.09,4.75-.98.58-1.87,1.27-2.84,1.86l-2.49,1.62c-.78.58-1.62,1.12-2.35,1.74l-1.1.92-.94.98c-.61.71-1.18,1.49-1.67,2.32-.88,1.46-1.5,3.1-1.92,4.76-.27,1.07-.44,2.16-.62,3.25-.17,1.1-.28,2.2-.61,3.32-.31.7-.35.61-.77,0-.22-.31-.45-.75-.7-1.29-.21-.54-.32-1.19-.3-1.88.04-2.46.57-4.93,1.47-7.28.46-1.17,1.04-2.31,1.73-3.38.35-.54.69-1.05,1.14-1.55.47-.47.92-1.01,1.42-1.4,2.32-1.95,4.65-3.75,7.09-5.36,2.68-1.76,5.43-3.35,8.16-4.96l5.04-2.96c2.53-1.51,5.08-3,7.49-4.64,1.87-1.28,3.57-2.71,5.24-4.15.36-.32.69-.66,1.06-.97,1.37-1.16,1.85-1.41,2.74-1.06.2.08.42.14.59.24.59.34.39,1.24-.55,2.34-2.84,3.15-6.43,5.57-10.03,7.9-2.69,1.72-5.44,3.32-8.15,4.96l-.04-.06Z"/><path class="cls-4" d="m385.09,225.23c.63-1.18,1.22-2.42,1.74-3.66.26-.62.51-1.25.72-1.87l.18-.53c.02-.05.04-.11.05-.17.03-.08-.07-.07-.11-.1l-.09-.03-.04-.02-.13-.04-2.06-.56c-1.38-.38-2.75-.8-4.11-1.28-.87-.31-1.75-.62-2.62-.98-.93-.38-1.49-.64-3.16-1.44l-.25-.19-.17-.21-.17-.21-.08-.11-.04-.05h-.01s0-.02,0-.02h0s0,0,0,0h0s.07-.03.07-.03h0s0,0,0,0l-.02-.03c-.32-.59,0-1.42.21-2.15l.26-.76.23-.65.97-2.56c.66-1.7,1.35-3.38,2.06-5.05.71-1.68,1.44-3.34,2.23-5,.4-.83.8-1.66,1.28-2.49.21-.32.61-1.13,1.19-1.43.55-.37,1.39-.35,1.93-.31,1.79.18,3.33.65,4.91,1.1,1.56.47,3.1.99,4.61,1.55,1.94.71,3.85,1.51,5.73,2.39,1.87.89,3.72,1.88,5.27,3.35.94.95.75.85-.32.54-.54-.15-1.35-.25-2.26-.47-.46-.11-.96-.19-1.47-.34-.5-.16-1.02-.35-1.56-.57-1.89-.78-3.83-1.48-5.76-2.15-1.92-.7-3.86-1.37-5.79-1.91-.96-.27-1.93-.51-2.84-.66-.22-.03-.45-.07-.64-.08h-.15s-.02-.02-.04-.02h-.04c-.06-.02-.1,0-.16.07-.93,1.58-1.87,3.54-2.75,5.4-.95,2.02-1.82,4.14-2.63,6.29-.41,1.07-.8,2.16-1.17,3.24l-.43,1.3c-.03.09-.05.18-.07.27,0,.09.13.11.21.16.06.04.15.09.25.15.02,0,.17.1.27.14l.34.16c2.46,1.14,5.13,1.97,7.82,2.7l2.27.59c.54.14,1.15.26,1.39.62l.22.23.03.04s.19-.11.1-.06h0s0,.02,0,.02v.02s.03.09.03.09l.04.17c.08.22.06.48.04.74.02.51-.21,1.07-.3,1.6-.12.38-.22.72-.34,1.07-.24.69-.49,1.38-.76,2.05-.56,1.37-1.16,2.72-1.85,4.04-.35.66-.71,1.31-1.14,1.96-.2.33-.44.64-.7.98-.34.38-.76.76-1.23.98-.41.13-.88.16-1.29.14-.36-.02-.68-.06-1-.12-2.77-.54-5.23-1.52-7.73-2.43l-1.62-.61-.53-.19c-.09-.02-.19-.08-.27-.04-.05.08-.09.16-.13.25l-.56,1.23-.79,1.8c-1.62,3.73-3.03,7.48-4.56,11.21-.34.82-.64,1.64-1,2.46-1.33,3.04-1.97,3.92-3.04,4.2-.24.07-.5.18-.7.19-.68.03-.65-1.44.2-3.71,1.23-3.38,2.57-6.82,4-10.29.73-1.73,1.46-3.47,2.2-5.22l1.23-2.82c.18-.44.44-.81.65-1.22.21-.44.48-.71.74-1.01.06-.09.13-.15.21-.17l.12-.06h.03s.01-.02.01-.02c.02.04-.03-.09.05.08h0s.07-.02.07-.02l.52-.14c.34-.13.78-.1,1.23.03.47.14.94.32,1.41.49l.85.33,1.39.54c.92.36,1.84.71,2.75,1.04.91.33,1.82.64,2.71.88.44.12.87.22,1.26.29.17.03.42.06.46.06h.03s.01,0,.02,0c.02-.02-.02.04.1-.12.19-.22.39-.53.6-.83.4-.64.79-1.32,1.15-2.02l.07.03Z"/><path class="cls-4" d="m359,405.29c2.91.03,5.94-.34,8.93-.79,1.1-.17,2.18-.42,3.27-.61l5.82-1.03c.97-.18,1.95-.35,2.93-.5,1-.15,1.95-.32,3.07-.37.13,0,.3.01.45.02.13.02.23.04.34.05l.66.11,1.31.23c.88.15,1.74.33,2.59.57,1.09.29,2.19.58,3.25,1.01,1.06.42,2.06.98,3.03,1.56.6.38.51.34-.09.25-.3-.05-.73-.09-1.26-.12-.53-.02-1.13-.05-1.76-.14-1.12-.13-2.19-.41-3.3-.54l-1.65-.23-1.64-.3-1.65-.27c-.15-.05-.8.02-1.3.09-1.11.17-2.22.34-3.34.51-2.71.4-5.49,1.13-8.28,1.63-3.06.55-6.15,1.02-9.3,1.22-1.94.1-3.91.16-5.96-.34-.39-.11-.78-.23-1.17-.43-.2-.08-.38-.21-.58-.36-.23-.13-.4-.34-.56-.54-.08-.1-.17-.2-.24-.3l-.16-.35c-.05-.12-.11-.23-.15-.35l-.07-.38c-.03-.51.18-1.01.49-1.42.14-.21.35-.39.52-.56.17-.14.33-.27.5-.38.33-.24.67-.42,1.01-.6.68-.36,1.37-.63,2.06-.89,2.15-.78,4.26-1.44,6.45-1.95.48-.11.95-.23,1.45-.31.46-.07.84-.12,1.17-.14.33,0,.6.07.82.12.44.12.71.28.91.51.09.1.21.2.27.3.17.31-.53.64-1.76,1.14-1.86.45-3.77.96-5.65,1.55-.94.31-1.87.65-2.75,1.03-.88.38-1.75.79-2.42,1.21-.11.08-.24.16-.32.23-.12.09-.06.04-.08.06h0s0,0,0,.01c0,0,0,0,.02.01.05.05.14.1.26.15.42.21,1.06.36,1.73.44.67.09,1.39.11,2.11.12v.06Z"/><path class="cls-4" d="m352.09,402.29c-1.35.08-2.71.14-4.13.07-.72-.05-1.44-.11-2.22-.29l-.6-.18c-.1-.03-.21-.08-.31-.13l-.41-.19c-.25-.15-.47-.34-.69-.52-.17-.22-.36-.44-.49-.68l-.2-.41c-.21-.71-.11-1.49.27-2.14.17-.32.47-.64.69-.86.21-.19.43-.37.65-.51.85-.56,1.69-.92,2.53-1.24.84-.31,1.69-.57,2.54-.78,1.7-.41,3.4-.72,5.1-.98,1.51-.25,3.03-.45,4.53-.59.97-.11,1.94-.19,2.92-.17.98-.02,1.96.11,2.93.3.6.13.51.2,0,.41-.33.14-.68.3-1.03.45-.42.21-.91.4-1.45.5-1.89.46-3.79.71-5.67,1.11-1.9.27-3.8.58-5.69.94-1.13.22-2.25.55-3.32.96-.54.2-1.04.45-1.51.7-.23.13-.45.27-.65.41-.11.07-.18.14-.27.21-.09.07-.08.08-.13.12-.11.12-.2.3-.14.47.06.19.19.31.42.41.37.14.82.26,1.31.31.98.12,2.03.11,3.08.06,1.6-.07,3.22-.23,4.84-.41,2.47-.29,4.95-.58,7.4-.86,1.91-.22,3.79-.56,5.75-.65.43-.03.86-.06,1.3-.02,1.64.15,2.16.52,2.36,1.15.05.15.11.29.13.43.02.47-.64.66-1.71.74-1.6.2-3.24.26-4.95.46-1.72.19-3.46.39-5.21.58-2.62.31-5.27.63-7.99.86v-.06Z"/><path class="cls-4" d="m349.45,397.2c-1.42.23-2.86.4-4.46.31-.4-.02-.82-.07-1.25-.16-.18-.05-.58-.12-.83-.26-.27-.13-.58-.23-.78-.44-.49-.34-.82-.82-1.02-1.35-.15-.56-.06-1.13.17-1.65.37-.74,1.17-1.46,1.54-1.72.46-.35.93-.64,1.41-.89,3.37-1.71,6.83-2.68,10.32-3.63,1.55-.41,3.11-.8,4.66-1.15,1.98-.44,4.03-.9,6.12-.6.65.14.55.17.03.42-.52.3-1.43.77-2.53,1.06-3.93.91-7.85,2.03-11.77,3.21-2.32.73-4.71,1.81-6.63,3.13-.13.09-.26.18-.37.28l-.28.22c-.09.08-.19.17-.24.28-.16.23.02.53.26.63.11.1.85.2,1.45.19.64-.02,1.3-.07,1.97-.16,1.65-.2,3.33-.52,5.01-.87,2.56-.55,5.13-1.1,7.67-1.65,1.99-.42,3.94-.93,6.01-1.16.46-.05.91-.11,1.38-.11.87.03,1.46.14,1.85.34.38.23.57.52.69.82.05.14.13.28.15.39.03.2-.14.34-.45.49-.31.13-.77.34-1.31.36-3.27.33-6.83,1.11-10.46,1.93-2.7.61-5.43,1.27-8.28,1.79l-.02-.06Z"/><path class="cls-4" d="m393.63,372.03c1.8.92,3.59,1.83,5.34,2.85l2.63,1.49,2.58,1.59c.63.39,1.27.76,1.9,1.12.63.38,1.24.8,1.85,1.21,4.28,2.95,8.41,6.21,11.93,10.1.74.9,1.5,1.78,2.27,2.66.71.92,1.39,1.88,2.08,2.8.42.62.77,1.28,1.15,1.92l.56.97c.17.33.3.69.45,1.03.28.7.6,1.37.81,2.09.17.74.3,1.48.37,2.22.09.93-.04.82-.6.19-.59-.63-1.6-1.71-2.4-3.08-1.35-2.47-3.07-4.71-4.88-6.88-.96-1.05-1.87-2.14-2.93-3.12l-1.5-1.56-1.6-1.49c-2.52-2.43-5.67-4.36-8.67-6.33-1.69-1.04-3.38-2.08-5.1-3.08-1.75-.95-3.47-1.96-5.25-2.87-2.19-1.1-4.36-2.27-6.61-3.26-3.37-1.59-6.82-3.07-10.26-4.42-2.71-.98-5.4-1.84-8.13-2.65-.6-.18-1.2-.33-1.8-.53-2.22-.74-2.86-1.16-3.07-2.1-.05-.21-.14-.42-.14-.61-.03-.61,1.06-.84,2.75-.41,2.5.61,5.05,1.31,7.58,2.2,2.54.86,5.08,1.81,7.6,2.86,1.88.75,3.74,1.55,5.59,2.41,1.85.84,3.7,1.68,5.52,2.6l-.03.07Z"/><path class="cls-4" d="m332.27,326.22c-.22-.41-.45-.82-.7-1.22-.09-.14-.23-.25-.32-.39-.33-.51-.6-1.09-.94-1.59-.15-.23-.34-.42-.5-.63-.21-.27-.42-.55-.54-.9-.04-.11.06-.18.24-.23.18-.04.46-.1.66-.02.74.24,1.23.7,1.65,1.27.24.34.63.57.93.88.33.34.64.7.94,1.07.19.23.38.46.56.68.29.34.55.71.87,1.02.25.24.6.39.91.59.07.04.15.07.21.13.2.21.08.41-.41.85l-.34.3c-.4.32-.81.49-1.08.45-.72-.16-1.14-.56-1.46-1.07-.25-.37-.47-.77-.72-1.15l.04-.04Z"/><path class="cls-4" d="m341.49,319.69l4.76.28c.58.03,1.16-.02,1.74.02,2.04.14,4.09.25,6.13.42.91.06,1.82.06,2.72.05,1.16.04,2.32-.01,3.47.46.36.13.31.22,0,.46-.22.17-.44.34-.63.5-.13.1-.27.22-.42.3-.15.06-.31.12-.48.15-.59.1-1.18.23-1.77.29-.59.02-1.18.04-1.77.05-1.18,0-2.36,0-3.55-.16-1.42-.18-2.9-.04-4.36-.07l-4.8-.13-2.96-.09c-1.49-.03-2.99-.1-4.48-.06-1.15.02-2.28.2-3.43.3-.25.02-.5.07-.75.08-.94.04-1.24-.17-1.43-.88-.04-.16-.1-.32-.12-.48-.08-.53.31-1,.99-1.16,2.03-.45,4.17-.57,6.31-.54,1.59.02,3.2.1,4.8.15v.07Z"/><path class="cls-4" d="m331.15,328.45c-.07.93-.15,1.86-.2,2.79-.02.34.04.68,0,1.02-.14,1.2-.28,2.4-.33,3.6-.02.53-.01,1.07-.01,1.6,0,.34.04.68,0,1.02-.05.34-.13.69-.2,1.04-.05.22-.08.19-.21.02-.12-.17-.43-.48-.65-.85-.3-.68-.39-1.37-.53-2.07-.06-.7-.08-1.4-.02-2.11.07-.85-.11-1.71-.12-2.58,0-.95.05-1.89.08-2.84.02-.58.04-1.16.06-1.74.02-.88.08-1.76.03-2.64-.03-.68-.21-1.34-.3-2.01-.01-.15-.04-.29-.04-.44-.02-.28.15-.46.26-.59.13-.13.3-.2.53-.26.11-.03.21-.06.3-.08.32-.05.63.17.93.57.21.3.26.6.38.91.06.31.1.61.13.93.06.62.07,1.25.07,1.88,0,.94-.07,1.88-.09,2.82h-.05Z"/><path class="cls-4" d="m162.91,389.27c-3.68,2.01-7.7,3-11.54,3.75l-.8.18c-.09.02-.18.05-.19.16l-.17.55c-.07.31-.17.61-.23.93-.53,2.3-.81,4.76-.87,7.19-.04,2.44.08,4.89.78,7.15.59,1.99,1.64,4,3.22,5.1,1.02.72,2.17.73,3.02-.09.85-.82,1.52-2.06,1.97-3.37.29-.82.46-.68.56.12.05.4.08.98,0,1.68-.03.35-.11.74-.23,1.15-.07.2-.14.41-.23.63-.12.2-.22.42-.39.61-.52.71-1.32,1.42-2.38,1.67-1.05.27-2.15.04-2.98-.38-1.7-.85-2.78-2.2-3.63-3.58-1.76-2.78-2.1-6.1-2.12-9.08,0-1.82.04-3.65.19-5.5.07-.92.17-1.85.33-2.78.16-.95.33-1.8.68-2.85.07-.22.16-.44.24-.66.25-.76,1.08-1,1.83-1.17l1.43-.3c.92-.19,1.83-.39,2.73-.61,1.8-.45,3.56-1,5.25-1.71,2.15-.91,4.18-2.1,5.84-3.67,1.22-1.22,2.44-2.67,3.68-4.02,1.24-1.36,2.51-2.71,3.83-4.01,2.06-1.99,4.11-4.02,6.89-5.36.62-.27,1.25-.55,1.97-.68,1.33-.25,2.31-.05,2.9.22.59.31.84.65.91,1.08.04.19.1.39.07.56-.04.27-.32.39-.72.41-.4.02-.93,0-1.57.05-1.93.19-3.95,1.49-5.83,3.02-1.89,1.55-3.69,3.38-5.44,5.28-1.31,1.46-2.62,2.92-3.93,4.39-1.43,1.61-3.23,2.95-5.06,3.98l-.04-.05Z"/><path class="cls-4" d="m184.46,363.49l.17-5.98c.02-.73-.03-1.46,0-2.18.12-2.57.23-5.14.35-7.71.05-1.14.04-2.29.06-3.42l.06-2.18c.02-.36.05-.73.08-1.09.02-.36.18-.72.27-1.08.14-.45.26-.38.52,0,.17.27.35.55.51.81.17.33.25.72.28,1.13.23,2.95.14,5.89-.04,8.87-.13,1.78.03,3.64.02,5.46l-.05,6.03-.04,3.71c0,1.87-.06,3.76-.03,5.62.02,1.45.19,2.87.26,4.3.01.32.04.63.03.94-.02.59-.05.98-.19,1.25-.18.27-.38.42-.65.54-.12.05-.24.13-.35.15-.19.05-.35-.05-.54-.27-.18-.22-.41-.56-.44-.99-.1-.64-.19-1.28-.26-1.93-.05-.65-.08-1.31-.1-1.97-.05-1.32-.04-2.66-.04-4.01.03-2,.05-4.01.08-6.02h.06Z"/><path class="cls-4" d="m289.1,358.25c3.61-2.78,6.22-6.97,8.25-11.36.74-1.61,1.32-3.31,1.93-4.99,2.16-5.94,3.63-12.18,4.94-18.46.57-2.79,1.02-5.63,1.46-8.43.64-3.58,1.14-7.27,2.83-10.7.67-1.02.69-.77.69.24.01.57.03,1.27.05,2.04-.01.82.1,1.81-.07,2.83-.24,1.81-.41,3.66-.64,5.5-.3,1.84-.59,3.68-.89,5.52-.63,3.68-1.34,7.39-2.36,11.05-1.18,4.38-2.24,9-3.9,13.38-1.83,4.8-4.22,9.53-7.81,13.43-2.22,2.37-4.97,4.35-8.1,5.46-2.37.8-4.86,1.09-7.31,1.04-2.45-.04-4.86-.42-7.19-1.06-3.62-.94-7.07-2.32-10.26-4.3-.71-.42-1.39-.87-2.05-1.38-2.44-1.93-2.9-2.94-2.68-3.98.05-.24.07-.51.17-.71.17-.32.56-.36,1.1-.15.54.21,1.18.68,2.02,1.28,4.81,3.64,10.82,6.37,17.04,7.02,2.29.22,4.6.14,6.77-.39,2.17-.51,4.16-1.51,5.95-2.94l.05.06Z"/><path class="cls-4" d="m229.72,308.35c-1.3,1.57-2.09,3.49-2.09,5.52,0,.74.19,1.46.35,2.18.54,2.58,2.27,4.98,4.66,6.44,1.06.66,2.31,1.02,3.54,1.14,1.61.11,3.18-.07,4.95-.18.55-.04.56.13.23.59-.17.22-.4.57-.75.91-.17.17-.36.37-.58.53-.22.16-.48.27-.74.38-.48.18-.97.34-1.48.42-.51.04-1.03.11-1.55.08-1.04,0-2.09-.17-3.1-.46-2.02-.58-3.89-1.76-5.17-3.41-1.55-1.91-2.97-4.12-3.37-6.65-.45-2.75.2-5.63,1.61-7.92.46-.71.88-1.34,1.52-1.99l.52-.49.55-.37c.36-.27.76-.42,1.14-.61,2.35-.98,4.84-1.1,7.25-.71,1.85.3,3.81.92,5.3,2.44.29.35.67.65.9,1.05.45.74.59,1.32.52,1.73-.05.42-.23.69-.56.93-.15.11-.29.23-.45.31-.54.23-1.16-.21-1.67-.87-.76-.99-1.61-1.69-2.74-2.15-1.11-.47-2.44-.71-3.8-.64-1.98.07-4.14.71-4.93,1.87l-.06-.04Z"/><path class="cls-4" d="m151.63,271.33c.72-.04,1.44-.07,2.17-.09l1.1-.02h.56s.91.03.91.03c1.29.05,2.45.3,3.02,1.04.54.89.59,2.04.14,3.02-.23.35-.36.73-.68,1.04l-.42.49-.49.42c-.36.33-.58.47-.82.63-.24.17-.49.3-.74.44-1.75.93-3.54,1.51-5.32,2.01-1.78.51-3.57.91-5.37,1.27-1.59.32-3.18.69-4.77.93-1.02.16-2.04.33-3.07.44-1.04.05-2.09.02-3.14-.14-.66-.12-.56-.21-.04-.5.52-.3,1.44-.91,2.54-1.34l2.99-.73c1-.25,1.98-.53,2.99-.71,2.01-.41,4.02-.84,6.02-1.31,2.37-.57,4.8-1.6,6.66-2.85.3-.2.44-.32.6-.55.08-.11.12-.24.13-.38,0-.13,0-.31-.14-.34-.24-.1-.52-.11-.81-.13-.04,0-.22,0-.4,0h-.51s-1.03.04-1.03.04c-1.71.08-3.43.23-5.15.42-2.6.29-5.23.61-7.79,1.1-1.99.38-3.9.96-5.82,1.51-.42.12-.83.27-1.25.38-1.57.43-2.08.39-2.64-.24-.13-.14-.28-.28-.38-.43-.34-.51.19-1.2,1.36-1.68,3.45-1.4,7.21-2.18,11.01-2.82,2.82-.46,5.67-.82,8.56-1.04v.07Z"/><path class="cls-4" d="m155.71,268.75l.22-.08h.03s.07-.02.07-.02c.05-.01.1-.03.14-.07.09-.09.01-.21-.07-.28-.02-.02-.05-.04-.08-.06-.02-.01-.02-.02-.05-.03l-.19-.08c-.27-.13-.6-.21-.92-.3-.66-.16-1.36-.28-2.09-.35-1.05-.11-2.14-.07-3.23-.07-3.85,0-7.78.46-11.63,1.17-1.71.33-3.42.74-5.07,1.22-2.14.61-4.17,1.46-6.33,1.99-.68.16-.67.03-.28-.52.37-.57,1.19-1.55,2.41-2.1,2.17-.91,4.39-1.63,6.64-2.22,2.26-.57,4.56-.96,6.89-1.22,2.79-.29,5.67-.77,8.58-.79,1.6,0,3.22.07,4.89.48.42.09.82.23,1.27.4.53.25,1.1.54,1.51.94.45.37.73.86.91,1.36.18.51.05,1.1-.26,1.52-.38.53-.96.96-1.62,1.28-.15.08-.34.18-.47.23l-.36.15c-.24.1-.48.18-.71.27-.95.33-1.89.59-2.83.83-2.86.71-5.74,1.16-8.57,1.7-2.2.41-4.33.97-6.5,1.42-.48.09-.94.2-1.42.28-1.79.28-2.38.18-2.88-.43-.11-.14-.25-.27-.33-.41-.26-.48.4-1.04,1.69-1.45.95-.3,1.92-.59,2.9-.86.98-.24,1.98-.45,2.98-.66,2-.39,4.03-.79,6.06-1.19,1.5-.3,3-.6,4.47-.93,1.46-.32,2.95-.68,4.2-1.17l.03.06Z"/><path class="cls-4" d="m33.05,296.38c1.83-6.93,4.65-13.46,7.97-19.66,3.29-6.22,7.12-12.11,11.22-17.78,3.01-4.13,6.13-8.17,9.49-12.01,5.92-6.77,12.36-13.08,19.23-18.87,6.91-5.74,14.24-11.02,22.15-15.34,1.73-1.01,3.54-1.86,5.31-2.78,1.79-.89,3.63-1.69,5.45-2.51,3.7-1.52,7.44-2.94,11.28-3.99,2.44-.76,4.94-1.28,7.44-1.85l3.78-.67c1.26-.24,2.54-.32,3.81-.49l1.91-.2,1.92-.08c1.28-.03,2.56-.12,3.83-.09l3.83.12c.64-.01,1.27.13,1.9.22.63.11,1.26.17,1.89.31,3.12.67,2.68.57,0,.99-.67.13-1.48.23-2.4.39-.92.2-1.95.32-3.08.48-2.25.23-4.85.66-7.67.93-5,.55-9.94,1.46-14.79,2.77-4.86,1.29-9.57,3.1-14.2,5.09-1.15.53-2.32.99-3.45,1.57l-3.4,1.69c-2.22,1.22-4.46,2.41-6.62,3.76-4.34,2.64-8.58,5.5-12.64,8.64-9.79,7.43-18.77,16.7-26.72,26.44-8.68,10.74-16.4,22.45-21.54,35.25-1.55,3.94-2.82,7.99-3.55,12.12-.4,2.06-.56,4.14-.62,6.21.01,2.07.24,4.11.76,6.07.84,2.91,2.64,5.52,4.85,7.71,2.23,2.18,4.91,3.9,7.77,5.25,5.75,2.72,12.14,4,18.47,4.68,9.9.97,19.73.28,29.42-1.22,2.13-.35,4.21-.75,6.34-1.2,7.89-1.69,10.23-2.53,12.18-2.3.43.03.99,0,1.29.08.49.13.03.66-1.29,1.48-1.32.8-3.55,1.71-6.47,2.56-4.34,1.26-8.82,2.15-13.37,2.85-4.56.69-9.2,1.13-13.89,1.29-4.69.16-9.45.08-14.21-.38-4.76-.45-9.55-1.3-14.22-2.77-3.46-1.1-6.88-2.56-10.03-4.61-3.14-2.04-6-4.75-8.01-8.07-.28-.39-.5-.85-.72-1.3-.21-.45-.47-.9-.63-1.36-.32-.94-.69-1.87-.86-2.82-.1-.47-.22-.95-.3-1.42l-.17-1.42c-.15-.95-.11-1.89-.16-2.83-.03-3.76.58-7.4,1.45-10.91h.08Z"/><path class="cls-4" d="m234.47,221.24s.02-.06.03-.09v-.04s0-.03,0-.03l-.03-.13-.12-.52-.49-2.13c-.33-1.43-.64-2.87-.92-4.32-.57-2.89-1.04-5.8-1.41-8.72-.27-2.13-.56-4.26-.71-6.41-.51-7.56-.15-15.16.88-22.64.5-3.31,1.11-6.62,1.86-9.86.48-2.08,1-4.15,1.63-6.19.63-2.04,1.31-4.07,2.3-5.97.78-1.13.62-.99.6.19,0,.59-.07,1.4-.15,2.38-.1.97-.31,2.06-.6,3.23-1.04,4.14-1.82,8.33-2.4,12.55-.28,2.11-.55,4.22-.83,6.34-.26,2.12-.47,4.25-.64,6.39-.4,5.13-.07,10.5.4,15.74.53,5.77,1.49,11.5,2.83,17.17l.46,2,.14.63c.05.25.1.51.12.76.08.51-.16.96-.53,1.28-.69.67-1,.94-1.47,1.34-.45.36-.88.74-1.34,1.09-.95.65-1.87,1.33-2.86,1.91-4.75,2.95-10.1,4.97-15.59,5.84-4.26.69-8.59.76-12.85-.06-.47-.08-.94-.16-1.4-.25-.46-.13-.91-.26-1.37-.39-.85-.26-1.56-.48-2.13-.73-.55-.28-.99-.53-1.33-.77-.69-.47-1.01-.9-1.19-1.4-.08-.22-.21-.46-.23-.65-.07-.59,1.46-.58,3.75.15,3.47.9,7.05,1.53,10.7,1.52,3.64,0,7.33-.57,10.88-1.7,2.6-.8,5.12-1.91,7.51-3.26.61-.31,1.19-.69,1.77-1.05.59-.35,1.16-.74,1.72-1.14l2.97-2.09c-.08-.06-.01-.02-.02-.03l.07.03Z"/><path class="cls-4" d="m216.68,195.72c-3.99,4.65-9.22,8.42-15.07,10.28-2.12.69-4.3,1.24-6.52,1.48-7.8.87-15.87-1.02-22.27-5.47-2.82-1.99-5.35-4.45-7.26-7.31-1.25-1.82-2.22-3.84-2.9-5.94-.15-.53-.33-1.05-.46-1.59l-.34-1.61c-.16-1.09-.24-2.18-.2-3.27.13-1.37.21-1.17.73-.1.15.27.27.59.44.95.18.37.38.77.59,1.2.12.21.19.45.28.68.1.24.2.48.31.72.19.5.39,1.02.6,1.57,1.46,3.85,3.64,7.36,6.61,10.18,2.96,2.82,6.62,4.93,10.6,6.27,2.38.8,4.95,1.25,7.53,1.35,2.59.1,5.2-.15,7.73-.66,5.6-1.06,10.74-3.88,14.86-7.82,2.5-2.48,4.65-5.32,6.45-8.39,2.67-4.69,4.66-9.82,6.01-15.05,1.06-4.07,1.63-8.16,2.04-12.29.11-.91.15-1.8.23-2.72.18-1.7.31-2.82.51-3.59.23-.78.52-1.21.94-1.55.19-.15.39-.36.57-.45.6-.29,1.05,1.15,1.03,3.72-.11,3.8-.5,7.71-1.16,11.63-.71,3.92-1.72,7.86-3.04,11.73-2.01,5.72-4.86,11.27-8.79,16.09l-.06-.04Z"/><path class="cls-4" d="m285.25,245.91c2.69-1.48,5.61-2.55,8.62-3.13.55-.1,1.1-.22,1.64-.34.55-.07,1.11-.13,1.67-.16.98-.1,1.97,0,2.94.01.98.03,1.98.18,2.94.36,1.93.39,3.8.99,5.57,1.89,1.54.83,3.05,1.84,4.22,3.23.37.44.71.93.99,1.44.23.54.52,1.06.61,1.64l.19.85.04.86c.06.57-.14,1.13-.25,1.67-.18.67-.36.53-.7-.03-.31-.58-1-1.48-1.38-2.37-.76-1.59-1.87-2.82-3.43-3.79-1.53-.96-3.33-1.72-5.24-2.3-1.15-.33-2.36-.5-3.59-.47l-1.87.06c-.62.08-1.24.16-1.85.22-2.7.34-5.37,1.1-7.87,2.29-1.55.71-3.02,1.62-4.43,2.6-2.1,1.54-4.07,3.34-5.7,5.38-1.29,1.57-2.22,3.36-3.14,5.12-.19.4-.35.8-.56,1.19-.75,1.45-1.17,1.81-2.1,1.77-.21-.01-.43,0-.63-.03-.66-.13-.83-.98-.45-2.24,1.21-3.68,3.57-7.12,6.41-10.11,2.13-2.21,4.61-4.13,7.29-5.68l.04.07Z"/><path class="cls-4" d="m224.75,273.92c1.35-2.09,2.91-4.02,4.64-5.78,1.72-1.76,3.57-3.39,5.56-4.8,1.44-1.06,2.91-2.07,4.46-2.95,5.51-3,11.69-4.83,17.97-4.9,2.78-.04,5.6.24,8.28,1.03,1.73.45,3.39,1.2,4.97,2.06.39.23.73.53,1.09.8.36.26.7.57,1.01.89l.95.94c.28.35.58.67.83,1.04.58.96.42.88-.52.56-1.09-.38-2.59-.91-4.28-1.51-2.81-1.56-5.96-2.3-9.16-2.63-3.22-.32-6.55-.11-9.86.51-1.98.4-3.95,1.06-5.86,1.88-1.9.87-3.74,1.87-5.51,2.97-1.93,1.23-3.77,2.6-5.5,4.11-1.71,1.53-3.28,3.2-4.7,5-1.73,2.22-3.21,4.66-4.3,7.26-.82,1.97-1.42,4.03-1.83,6.13-.37,2.1-.48,4.25-.35,6.38.2,3.31,1.07,6.49,2.22,9.54.25.68.55,1.31.81,1.98,1,2.49,1.16,3.35.72,4.23-.1.2-.18.44-.3.59-.39.5-1.4-.26-2.5-2.08-3.04-5.46-4.62-12.26-3.98-19.08.51-5.08,2.34-9.98,5.06-14.2l.07.04Z"/><path class="cls-4" d="m256.41,319.77c.16,1.13.28,2.28.27,3.53-.03.63-.06,1.27-.23,1.98-.15.68-.42,1.47-1.03,2.18-.58.71-1.5,1.23-2.32,1.36-.4.07-.8.11-1.16.09l-1.06-.11c-1.42-.27-2.7-1.03-3.64-1.96-1.34-1.38-2.21-2.93-2.83-4.49-1.05-2.77-1.65-5.56-2.14-8.32l-.35-2.07-.17-1.03c-.08-.45-.04-.42-.2-.72l-.4-.86c-.13-.29-.34-.52-.5-.79-.31-.55-.78-.95-1.18-1.42-.84-.68-1.77-1.3-2.84-1.53-1.05-.24-2.16-.31-3.23-.06-1.38.27-2.67.94-3.78,1.83-1.15.85-2.15,1.95-2.91,3.25-.5.79-.74.61-.75-.32,0-.23,0-.52.04-.84.04-.32.14-.67.25-1.06.1-.39.25-.81.49-1.21.23-.41.46-.87.83-1.23,1.26-1.35,2.9-2.39,4.74-2.92,1.84-.56,3.9-.48,5.75.18,1.86.66,3.45,1.93,4.57,3.44.26.39.54.77.78,1.17l.6,1.24c.08.2.29.52.32.9l.1.63.18,1.19c.6,3.77,1.5,7.72,3.17,10.93.91,1.74,2.19,3.15,3.83,3.27.42.07.81.05,1.08-.04.26-.1.44-.23.61-.49.35-.55.47-1.55.45-2.53-.07-2.48-.68-5.11-1.25-7.71-.41-2-.93-3.96-1-6.2.01-.56.01-1.19.34-1.89.31-.53.58-1.02.96-1.44.72-.87,1.57-1.56,2.36-2.18,1.24-.97,2.31-1.93,2.99-3.12.69-1.18,1.03-2.51,1.14-3.93.04-.62.01-1.25.03-1.89-.08-2.4-.07-3.2.6-3.83.15-.14.29-.33.44-.43.5-.33,1.12.64,1.5,2.57.22,1.44.37,2.95.18,4.55-.05.79-.27,1.61-.48,2.42l-.48,1.2c-.18.4-.42.77-.64,1.15-.95,1.5-2.29,2.64-3.4,3.54-1.13.92-1.96,1.7-2.43,2.56l-.07.1s0,.01,0,.01c0,0-.01,0-.01.05-.02.06-.03.25-.04.42,0,.37.04.84.1,1.32.12.96.34,2,.56,3.05.44,2.1.96,4.25,1.33,6.52l-.07.02Z"/><path class="cls-4" d="m256.47,362.02l-.2,7.63-.09,3.79-.04,2.67c0,.06,0,.12.02.17.05.01.11,0,.16,0l.39-.02c.93-.04,1.87-.08,2.81-.07,1.65,0,3.31.04,4.99.15.84.06,1.68.13,2.54.25.43.06.87.13,1.31.23.19.04.53.12.85.23.32.09.62.23.9.38.28.16.52.36.72.59l.16.18.04.22.09.45c.09.28.04.63.04.97l-.04.77c-.06.82-.08,1.63-.1,2.45l-.12,4.9c-.07,2.9-.04,5.81-.04,8.68,0,3.69.12,7.4-.57,11.09-.38,1.15-.22,1-.59.02-.2-.49-.42-1.18-.72-2.01-.26-.84-.45-1.82-.57-2.88-.3-3.77-.33-7.54-.3-11.32.03-1.89.06-3.78.1-5.67l.09-2.84.05-1.42c0-.45-.01-1.01,0-1.37.03-.07.06-.15.06-.23.03-.08.01-.17-.07-.21-.06-.05-.13-.08-.21-.11-.04-.02-.07-.03-.13-.04-.12-.03-.23-.06-.36-.08-1.01-.2-2.14-.28-3.27-.33-2.27-.09-4.59-.03-6.89.02l-1.11.03c-.52,0-1.08.07-1.57.02-.25-.01-.46-.08-.65-.15-.1-.04-.18-.08-.26-.12l-.06-.03h0c.16-.19.04-.06.08-.1h0s-.02-.02-.02-.02l-.03-.02-.12-.1-.21-.21c-.04-.1-.09-.2-.12-.31-.07-.22-.11-.46-.15-.71-.05-.5-.07-1.06-.07-1.53v-1.05s.01-1.93.01-1.93l.16-7.68c.06-3.14.12-6.29.1-9.42-.02-2.34-.04-4.69-.16-7.01-.06-1.16-.14-2.32-.28-3.45-.07-.56-.16-1.12-.27-1.66-.14-.61-.19-.8-.37-1.12-.02-.03-.04-.06-.07-.08-.11-.07-.24-.09-.37-.11l-.44-.07c-.43-.06-.88-.11-1.32-.16-.89-.09-1.79-.14-2.68-.19-1.79-.08-3.59-.11-5.37-.09-.78.03-1.55.05-2.34.08-1.45.04-2.39.07-3.04-.03-.66-.1-1.05-.33-1.44-.68-.17-.15-.4-.27-.54-.41-.5-.38.73-1.59,3.04-1.85,2.59-.33,5.17-.37,7.8-.29,1.31.04,2.63.13,3.96.25.67.06,1.34.14,2.03.24l.53.08.42.08.48.1c.31.09.62.17.88.33.14.07.24.17.37.26l.09.07c.08-.04.07.04.11.05l.17.16c.49.57.77,1.34.99,2.1.13.51.21.93.3,1.38.15.88.24,1.73.32,2.57.44,5.27.35,10.41.32,15.56h-.08Z"/><path class="cls-4" d="m192.61,405.87c-.11.41-.21.82-.28,1.24-.03.15.02.3,0,.45-.1.54-.2,1.09-.22,1.63-.01.24.04.47.11.7.09.29.19.57.05.92-.05.11-.42.19-.83.21-.41.02-.88-.03-.99-.2-.21-.29-.29-.61-.33-.94-.05-.33-.05-.67.02-1.01.08-.41-.1-.8-.13-1.21-.03-.44-.03-.89-.01-1.34,0-.27.02-.55.03-.82,0-.41.08-.83.02-1.23-.04-.32-.25-.63-.38-.95-.03-.07-.09-.14-.1-.21-.02-.26.19-.34.97-.35h.53c.6,0,1.1.13,1.28.31.53.54.52,1.06.51,1.6,0,.4-.12.8-.18,1.21h-.07Z"/><path class="cls-4" d="m188.41,343.72c-.24-.31-.5-.62-.78-.92-.1-.11-.25-.17-.35-.29-.18-.21-.35-.43-.52-.66-.16-.24-.31-.48-.47-.71-.13-.21-.33-.35-.46-.55-.19-.24-.43-.43-.43-.83.01-.14.11-.21.34-.32.25-.13.59-.27.76-.22.65.14,1.06.44,1.38.92.2.29.52.43.8.65.3.25.6.51.91.79.19.17.38.35.57.52.29.26.55.57.86.8.24.18.6.24.84.43.05.04.12.07.17.12.17.19.1.36-.28.79l-.26.29c-.3.31-.64.49-.87.5-.18,0-.34,0-.49,0-.16,0-.31-.02-.4-.08-.22-.1-.4-.25-.59-.39-.27-.21-.51-.49-.77-.77l.03-.05Z"/><path class="cls-4" d="m195.44,337.56l3.92.08c.48,0,.95-.05,1.43-.04,1.68.03,3.38.17,5.07.26.75.03,1.5.03,2.25.02.48,0,.97.02,1.45.08.49.07.98.16,1.45.44.29.16.19.29-.1.5-.3.2-.75.61-1.27.67-.92.18-1.87.2-2.82.21-.96.03-1.92.01-2.89-.05-1.16-.07-2.37.08-3.56.12l-3.94.08-2.43.05c-1.22.04-2.46.06-3.67.13-.95.04-1.86.33-2.81.35-.21.01-.41.04-.62.04-.79-.03-1.04-.23-1.2-.74-.04-.12-.09-.23-.11-.35-.07-.38.24-.72.79-.94,1.62-.68,3.35-.83,5.11-.92,1.31-.05,2.62-.03,3.94-.06v.06Z"/><path class="cls-4" d="m195.55,341.03c4.9-.38,9.73-.43,14.72.16l.81.12c.31.06.49.09.92.18.86.2,1.7.59,2.09,1.37.13.28.23.59.31.9l.1.46.06.31c.06.41.11.8.14,1.19.11,1.48.12,2.89.14,4.29,0,.64.03,1.59.02,1.65,0,.12,0,.24.02.36,0,.08.07.09.13.09l.17.03.22.02.46.03,1.23.04c.83.02,1.65.03,2.49.03,1.66,0,3.34-.05,5.01-.1l3.41-.14,1.7-.09.85-.04h.26s.19-.04.19-.04h.33c.11-.05.08-.21.1-.3,0-.21,0-.39-.01-.61l-.03-1.29c-.02-.87-.04-1.75-.03-2.64.02-1.76.12-3.59.84-5.31.48-1.06.54-.84.72.12.1.48.35,1.15.53,1.92.1.39.22.8.29,1.25.06.44.11.91.13,1.39.05,1.18.15,2.36.23,3.58l.06.93c0,.56.05,1.2,0,1.79-.05.59-.26,1.07-.59,1.4-.16.22-.41.28-.64.37l-.7.26-.86.06c-.27.04-.64.04-.72.05l-.87.03-1.75.07-3.53.12c-2.36.07-4.75.1-7.17,0-.46-.02-.92-.04-1.39-.06l-.83-.04c-.39-.02-.78-.05-1.18-.07l-.88-.3c-.07-.04-.17-.02-.2-.1-.08-.03-.13-.1-.18-.16-.09-.13-.17-.25-.24-.4-.28-.56-.32-1.35-.35-2.04-.02-.91-.05-1.83-.07-2.75-.02-.86-.05-1.72-.1-2.56-.03-.42-.06-.83-.1-1.23l-.08-.58c-.02-.11-.03-.15-.04-.23l-.02-.06c-.02-.1-.1-.17-.2-.21-.05-.02-.09-.04-.14-.05-.05-.02-.07-.02-.22-.06-.51-.1-1.07-.18-1.64-.24-1.13-.12-2.3-.17-3.47-.21-2.34-.06-4.7-.01-7.05.09-1.08.05-2.17.12-3.25.21l-1.62.15-1.23.14c-.17.04-.48-.02-.46.24-.03.19-.05.39-.07.59l-.07,1.57-.05,1.68-.05,3.37c-.02,2.25-.02,4.5,0,6.73.04,3.48.24,6.88.3,10.34.01.76.05,1.51.04,2.28-.08,2.85-.47,3.77-1.23,4.31-.18.12-.36.29-.53.35-.57.21-.91-.95-1.08-3-.33-6.08-.45-12.53-.48-19.03,0-1.84,0-3.69.02-5.55.02-.93.04-1.87.08-2.83,0-.15.03-.7.07-1.13.04-.45.1-.89.23-1.29.13-.39.34-.7.65-.94l1.04-.51,1.57-.23.93-.12,1.76-.18v.07Z"/><path class="cls-4" d="m212.14,378.51c.2.01.35.03.59.06.33.03.66.07.97.13.62.13,1.23.25,1.74.48.29.09.5.22.72.35l.33.19.26.23c.37.29.55.67.81,1.05.19.45.22,1.04.04,1.43-.15.41-.41.78-.79,1.13-.76.71-2.07,1.29-3.25,1.72-1.03.37-2.03.74-3.06,1.02-3.62.95-7.24,1.63-10.87,2.29-1.61.29-3.22.58-4.82.87-1.03.18-2.05.4-3.09.52-1.04.14-2.1.12-3.16.05-.66-.05-.58-.18-.08-.52.33-.21.68-.45,1.04-.68.43-.29.93-.57,1.51-.73,4.07-1.05,8.16-2.01,12.35-2.66,2.5-.42,5.02-1.23,7.45-2.01.49-.16.98-.32,1.45-.5l.75-.27c.19-.07.39-.16.58-.28.19-.1.4-.35.23-.53-.17-.24-.49-.35-.8-.43-.18-.05-.39-.09-.58-.11-.36-.05-.82-.08-1.23-.1-.85-.05-1.72-.06-2.58-.05-2.63.05-5.3.27-7.91.66-2.03.31-3.99.79-5.96,1.26-.43.11-.85.22-1.29.33-1.62.36-2.17.29-2.65-.12-.11-.09-.24-.18-.32-.27-.26-.3.31-.88,1.49-1.35,3.51-1.31,7.32-2.11,11.22-2.68,2.9-.4,5.82-.71,8.92-.55v.07Z"/><path class="cls-4" d="m143.57,394.46l-3.2.71c-.39.09-.76.25-1.16.34-1.4.3-2.8.64-4.23.89-.63.11-1.24.29-1.86.44-.78.22-1.61.29-2.43.3-.26,0-.25-.12-.08-.34.17-.21.48-.58.89-.81.72-.44,1.47-.72,2.22-1.02.76-.27,1.5-.59,2.31-.74.97-.2,1.88-.68,2.83-1.02,1.05-.37,2.11-.73,3.2-1.02.67-.19,1.35-.36,2.02-.53,1.03-.26,2.08-.45,3.13-.67.81-.17,1.61-.48,2.46-.62.19-.02.37-.09.56-.09.72.01.94.22,1.02.95.02.17.04.33.05.5,0,.55-.3,1.01-.72,1.17-.32.12-.64.24-.95.35-.32.08-.64.15-.96.22-.66.13-1.32.25-1.99.38-1.01.2-2.05.4-3.1.68l-.02-.06Z"/><path class="cls-4" d="m363.96,359.37c.01-2.45.01-4.9-.03-7.36-.01-.9-.1-1.79-.11-2.69-.02-3.17-.04-6.34.02-9.51.01-1.41-.04-2.82-.05-4.22,0-.9-.01-1.8-.02-2.7.02-.45.09-.9.14-1.35l.1-.67c.04-.22.14-.45.2-.67.21-.56.2-.48.47,0,.33.47.85,1.34,1.05,2.36.11.91.18,1.81.25,2.72.07.91.17,1.81.17,2.72.05,1.82.08,3.64.01,5.49-.1,2.2.14,4.49.21,6.74.08,2.48.13,4.96.16,7.45l.04,4.59c0,2.32-.02,4.65-.03,6.95,0,1.79.14,3.55.17,5.33.01.39.04.78.03,1.17-.01.73-.1,1.21-.29,1.54-.17.33-.42.5-.76.63-.15.06-.29.14-.42.17-.4.11-.92-.52-1.09-1.59-.28-3.14-.27-6.41-.29-9.71,0-2.45.03-4.92-.01-7.39h.07Z"/><path class="cls-4" d="m302.69,362.22l.15-8.98.11-4.49.07-2.25.05-1.25.04-1c.02-.33.09-.63.13-.95.06-.18.15-.32.22-.48.02-.04.04-.07.06-.11l.03-.05.02-.02h0s0-.01,0-.01c.03.02-.06-.05.06.05h0s0-.01,0-.01c.06-.08.12-.14.18-.2.23-.26.61-.37,1-.46.4-.09.84-.11,1.27-.13l.65-.02h.39c1.01-.01,1.99,0,2.98.02,2.91.05,5.8.06,8.69.15,2.69.09,5.39.17,8.07.22,1.34.02,2.68.03,4,.01.66,0,1.32-.03,1.96-.06l.56-.04c.12-.01.25-.02.37-.06.15-.02.08-.18.11-.28v-.34s0-1.68,0-1.68l-.07-3.59-.15-7.2v-1.08c-.01-.42-.03-.87.06-1.23.04-.18.07-.37.14-.52.02-.04.03-.08.06-.11.11.04.1-.04.15-.05.08-.05.15-.09.23-.13.28-.19.66-.29,1.08-.34.42-.04.85-.07,1.27-.08l.87-.02,1.72-.02c2.28-.01,4.55.02,6.8.07,2.89.08,5.79.16,8.69.35l2.17.17,2.16.3c.72.11,1.44.23,2.16.36.36.05.71.19,1.07.29.35.12.71.18,1.05.36.86.37,1.22.56,1.19.6-.04.06-.48.01-1.27.17-1.59.35-4.41.94-7.7.83-2.91-.17-5.83-.28-8.75-.36-2.92-.08-5.85-.16-8.74-.14l-1.07.02h-.25s0,0,0,0h-.03s-.05-.02-.08-.01c-.01.02-.01.04-.02.06-.02-.25,0,.83,0,1.51l.04,2.21c.05,2.95.1,5.91.08,8.91v.77c0,.32,0,.64-.03.96v.24c-.03.07-.07.13-.09.2l-.17.37-.16.35-.02.05h0s0,.01,0,.01c.03.02-.06-.05.06.05h0s0,0,0,0h0s-.02.02-.02.02l-.08.08c-.05.05-.11.09-.16.14-.49.32-1.13.5-1.82.58l-.51.06-.44.04-.63.04c-.84.04-1.66.06-2.48.08-1.64.03-3.28.03-4.92.02-3.28-.02-6.56-.06-9.82-.14l-5.59-.11c-.93-.01-1.86-.02-2.77,0h-.66c-.09.02-.18.03-.27.05-.1.03-.04.16-.07.23l-.1,2.39-.12,3.18-.2,6.36c-.13,4.91-.23,9.82-.23,14.72.02,3.7,0,7.46.33,11.07.04.45.12.93.17,1.11.03.12.06.27.17.34.11.07.24.11.36.15.07.02.12.03.19.05l.31.07c.21.04.43.08.65.11.44.06.89.12,1.35.16,1.82.18,3.66.26,5.5.33.96.03,1.91.06,2.85.09.49.02.97.04,1.46.05.34.02.69.03,1.01.09.32.07.59.15.85.33.31.53.37,1.24.41,1.94l.08,1.45c.03.95.07,1.91.1,2.86.06,1.9.1,3.79.11,5.68.02,1.25.03,2.47.05,3.73,0,4.66-.13,6.12-.79,7.14-.15.23-.3.54-.45.68-.51.49-1.08-1.44-1.23-4.88-.14-2.94-.2-5.93-.25-8.94,0-1.5,0-3.01,0-4.53,0-.75-.01-1.5-.02-2.26v-.56s-.02-.27-.02-.27c0-.01,0-.01,0-.02,0-.02,0-.03-.02-.04-.01,0-.02,0-.03,0h-.01s0,0,0,0h-.2s-1.66-.05-1.66-.05c-1.13-.03-2.26-.06-3.39-.08-1.14-.04-2.28-.08-3.45-.16-1.17-.08-2.32-.16-3.61-.4l-.26-.06c-.13-.03-.25-.06-.37-.09-.23-.08-.47-.15-.69-.25-.22-.1-.43-.22-.6-.39-.17-.16-.37-.3-.47-.52-.26-.4-.35-.9-.52-1.35-.06-.26-.07-.39-.1-.53l-.07-.42c-.15-1.08-.21-2.09-.28-3.12-.12-2.04-.18-4.05-.23-6.07-.08-4.03-.09-8.04-.08-12.05h.07Z"/><path class="cls-4" d="m396.89,393.77c.22,1.31.38,2.63.42,3.96.02.48.12.96.07,1.45-.08,1.71-.44,3.42-1.01,5.03-.22.72-.55,1.41-.84,2.11-.22.43-.5.84-.78,1.24-.13.21-.35.35-.55.49-.2.14-.41.28-.62.41-.26.15-.35-.01-.39-.38-.01-.35-.11-.99.07-1.41.17-.38.27-.79.48-1.12.15-.38.28-.76.44-1.13.12-.39.22-.79.36-1.18.12-.4.19-.82.31-1.23.14-.5.12-1.04.14-1.57-.02-.54-.1-1.08-.12-1.61-.1-1.18-.2-2.38-.45-3.56l-.23-1.09-.3-1.08c-.32-1.08-.69-2.17-1.22-3.17-.2-.39-.47-.73-.74-1.08-.23-.37-.51-.68-.75-1.04-.11-.15-.2-.31-.29-.48-.17-.3-.21-.55-.16-.78.03-.22.16-.43.32-.65.07-.09.12-.19.17-.26.12-.18.73-.26,1.33.02.84.45,1.48,1.1,2.05,1.81.49.76.86,1.58,1.2,2.42.24.62.44,1.27.64,1.91.16.65.35,1.3.48,1.95l-.07.02Z"/><path class="cls-4" d="m350.97,411.44c-15.73-.08-31.46-.1-47.19-.03-5.74.06-11.48.12-17.21.18-20.23.09-40.45.24-60.68.48-8.97.11-18,.31-26.9.53-2.86.08-5.72.15-8.59.23l-8.6.13c-2.87.02-5.73.06-8.6.02l-4.3-.07c-1.43-.03-2.87-.21-4.3-.27-3.57-.22-3.09-.34-.08-.86,3.01-.61,8.54-1.74,15.13-1.94l8.76-.36c2.92-.12,5.84-.13,8.76-.2,5.84-.1,11.69-.19,17.54-.29,11.7-.16,23.43-.26,35.22-.25,14.09,0,28.76-.38,43.17-.53,15.85-.13,31.71-.2,47.57-.16,9.76.04,19.52.09,29.27.13,7.39.08,14.79.15,22.18.23,7.39.1,14.77.21,22.1.31,11.4.12,22.58.23,33.86.35,2.48.03,4.91.04,7.42.12,9.28.28,12.22.57,14.18,1.61.44.22,1.04.44,1.29.63.87.61-2.94,1.26-9.73,1.18-20.14-.1-41.36-.5-62.67-.72-15.83-.2-31.73-.33-47.6-.36l-.02-.09Z"/><path class="cls-4" d="m168.84,150.62c.63,1.53.99,3.06,1.32,4.46.17.7.33,1.38.52,1.96.18.58.44,1.05.6,1.21.08.09.12.11.21.15.05,0,.09.04.18.03.07,0,.16.02.27,0,.59-.09.61-.09.71-.22.02-.03.04-.06.06-.1.02-.1.07-.18.09-.31.06-.23.09-.54.11-.85.04-.63.02-1.32,0-2.02-.09-2.07-.34-4.27-.18-6.52.2-2.8.9-5.73,2.99-8.19.16-.19.4-.31.58-.48.22-.12.45-.21.68-.32.5-.15.83-.2,1.19-.23.71-.07,1.35-.06,1.99-.05,1.26.04,2.48.15,3.69.26,2.42.21,4.81.43,7.2.5,3.27.11,6.56-.08,9.68-.78,2.01-.4,3.95-1.04,5.76-1.94.45-.22.88-.49,1.33-.73.41-.28.85-.54,1.25-.84.79-.62,1.66-1.17,2.4-1.9.96-.87.96-.7.52.4-.2.56-.57,1.33-1.13,2.23-.3.43-.66.88-1.1,1.27-.43.42-.92.83-1.48,1.18-1.95,1.29-4.12,2.2-6.33,2.81-2.22.59-4.48.83-6.72.95-4.48.24-8.9-.22-13.18-.63-.9-.08-1.81-.15-2.67-.15-.43,0-.84.03-1.2.08-.17.05-.26.05-.32.08-.07.02-.13.07-.18.12l-.28.36-.3.46c-.19.32-.37.64-.52.99-.31.69-.54,1.42-.7,2.19-.31,1.54-.37,3.17-.34,4.83.03,1.42.14,2.86.2,4.37.02.76.04,1.53-.04,2.38-.04.42-.11.86-.27,1.34-.18.52-.48,1.09-.91,1.47-.42.38-1.05.64-1.52.73-.21.06-.43.1-.68.12-.23.04-.48.05-.74.03-.51,0-1.08-.16-1.59-.42-.48-.3-.91-.68-1.18-1.09-.57-.81-.83-1.6-1.06-2.35-.22-.75-.39-1.47-.57-2.18-.42-1.73-.89-3.38-1.73-4.75-.82-1.38-2.06-2.39-3.58-2.92-.29-.1-.58-.2-.88-.26l-.45-.11-.45-.05c-.3-.02-.6-.1-.89-.08l-.88.05c-1.15.18-2.22.73-3.05,1.57-.83.84-1.43,1.93-1.76,3.11-.32,1.19-.34,2.45-.13,3.65l.14.7.23.67c.13.46.39.86.59,1.27.22.41.54.76.8,1.14.32.38.66.77,1,1.12,1.36,1.45,2.87,2.46,4.63,2.85.78.16,1.58.22,2.43.24,1.57.02,2.65-.04,3.42.03.77.09,1.25.25,1.68.62.19.16.44.32.57.49.42.55-.85,1.39-3.49,1.79-1.95.26-4.09.32-6.3-.37-2.22-.67-4.15-2.26-5.49-3.82-.36-.41-.66-.75-1.02-1.22-.33-.49-.73-.95-.97-1.49-.26-.53-.56-1.06-.73-1.63l-.28-.85c-.08-.29-.12-.58-.18-.88-.44-2.35-.19-4.84.93-7.06.8-1.64,2.12-3.15,3.87-4.06,1.73-.91,3.79-1.18,5.57-.83,1.73.26,3.46.94,4.94,2.1,1.48,1.16,2.5,2.74,3.17,4.28l-.07.04Z"/><path class="cls-4" d="m99.56,139.74c7.22-8.64,15.13-16.69,23.73-23.96,3.15-2.64,6.33-5.25,9.69-7.63,5.92-4.19,12.2-7.92,18.88-10.84,6.66-2.91,13.73-5.06,21.02-5.8,3.23-.33,6.5-.4,9.74-.16,3.24.23,6.51.78,9.6,1.89,3.98,1.41,7.66,3.77,10.58,6.82,1.49,1.5,2.71,3.22,3.84,4.96.57.87,1.09,1.77,1.58,2.68.27.44.45.93.66,1.4.19.48.44.93.6,1.42.84,2.44.64,2.13-.81.49-1.56-1.58-4.08-4.61-7.13-7.77-1.36-1.4-2.78-2.69-4.34-3.8-1.56-1.1-3.26-1.97-5.02-2.7-1.78-.7-3.63-1.23-5.53-1.61-1.91-.33-3.88-.58-5.86-.65-7.94-.4-15.97,1.23-23.64,4-9.21,3.35-17.94,8.96-25.94,15.08-8.81,6.77-16.92,14.48-24.36,22.8-4.58,5.12-8.91,10.46-12.89,16.05-2.98,4.24-5.89,8.61-8.1,13.21-.52,1.13-1.04,2.37-1.16,3.37,0,.11-.02.16,0,.32l.05.45c.04.3.06.61.13.91.1.61.24,1.21.41,1.82.66,2.42,1.7,4.77,2.86,7.03,1.84,3.51,4.06,6.79,6.51,9.86,2.45,3.07,5.12,5.95,8.02,8.54,1.29,1.13,2.59,2.18,3.98,3.17,2.57,1.85,4.39,2.75,5.64,3.4.62.35,1.13.55,1.54.82.42.21.75.46,1.06.7.28.2.69.42.88.61.32.31-.2.63-1.53.7-1.33.06-3.39-.36-5.67-1.51-3.4-1.69-6.38-4.01-9.17-6.54-2.77-2.55-5.32-5.36-7.68-8.37-2.34-3.02-4.49-6.22-6.34-9.67-.92-1.72-1.76-3.52-2.46-5.4-.7-1.89-1.28-3.87-1.5-6.06l-.03-.3c0-.15,0-.33,0-.5,0-.37.05-.59.09-.85.04-.27.1-.47.15-.69.05-.22.11-.43.18-.62.25-.8.55-1.5.85-2.2.62-1.38,1.3-2.67,2-3.94,1.41-2.53,2.96-4.94,4.55-7.32,3.21-4.73,6.66-9.26,10.27-13.65l.07.04Z"/><path class="cls-4" d="m167.6,212.81c1.57,1.35,3.3,2.56,5.14,3.57.67.38,1.4.62,2.08.95,2.44,1.11,5.07,1.96,7.69,2.01,1.15.01,2.31-.24,3.19-.78,1.16-.73,1.65-1.79,2.3-3.24.17-.45.36-.42.65.03.14.23.37.56.5,1.01.05.22.23.51.25.79.03.28-.06.56-.16.85-.16.52-.45,1-.78,1.45-.17.21-.39.39-.58.59-.2.2-.41.37-.64.5-.89.65-1.87.93-2.82,1.17-1.91.37-3.75.21-5.46-.25-2.03-.55-4.12-1.06-6.04-1.92-2.11-.94-4.09-2.12-5.94-3.47-1.14-.83-2.22-1.74-3.25-2.7-1.57-1.45-2.93-3.12-4.18-4.85-.95-1.35-1.92-2.69-2.69-4.2-.15-.34-.33-.66-.46-1.02-.43-1.33-.24-1.85.43-2.28.16-.1.31-.22.47-.28.55-.23,1.17.17,1.6.95,1.32,2.29,2.59,4.59,4.37,6.69,1.3,1.55,2.74,3.06,4.36,4.37l-.04.06Z"/><path class="cls-4" d="m84.95,285.81c-2.11.41-4.22.92-6.3,1.53-.77.21-1.49.55-2.26.76-2.7.78-5.39,1.63-8.05,2.61-1.19.42-2.33.96-3.48,1.43-1.48.61-2.9,1.41-4.56,1.62-.51.08-.57-.23-.34-.77.11-.27.29-.62.53-.98.12-.18.25-.37.41-.53.17-.15.35-.28.56-.38,2.88-1.58,5.93-2.83,9.13-3.8,1.91-.57,3.8-1.46,5.74-2.1,2.14-.69,4.32-1.29,6.52-1.8l2.04-.44,2.05-.37c1.03-.21,2.09-.29,3.13-.45,1.05-.11,2.1-.21,3.14-.32.81-.05,1.62-.15,2.42-.26.81-.08,1.61-.13,2.43-.19.36-.03.71-.06,1.07-.04,1.34.04,1.75.31,1.95,1.07.05.17.11.35.13.52.06.55-.52,1.03-1.45,1.14-2.76.29-5.58.4-8.44.76-1.06.1-2.12.3-3.19.43-1.06.21-2.13.36-3.18.62l-.02-.07Z"/><path class="cls-4" d="m128.58,292.52l1.89-1.57c.36-.27.69-.54,1.14-.81.19-.14.48-.26.76-.39.28-.14.7-.16,1.05-.25.23,0,.52.03.7.07l.45.09.81.19,1.56.4,3.08.76c1.31.31,2.64.51,3.95.75,1.71.31,3.43.57,5.12.62.84.03,1.67,0,2.44-.12.38-.06.76-.15,1.08-.28.2-.07.27-.1.34-.14.08-.04.16-.1.23-.16.09-.09.21-.18.27-.3.06-.13,0-.27-.08-.37-.08-.11-.19-.19-.3-.28l-.18-.12-.35-.2c-1.78-.93-3.84-1.56-5.84-2.15-2.58-.77-5.28-1.24-7.74-2.62-.73-.53-.63-.44.15-.55.47-.07,1.02-.15,1.6-.23.65-.06,1.38-.01,2.16.12l.91.16.89.22,1.79.46c1.19.31,2.39.65,3.58,1.04,1.2.39,2.39.82,3.61,1.43l.23.12c.07.04.15.08.29.17.24.16.5.29.72.47.46.34.86.73,1.07,1.18.21.44.33.96.21,1.45-.03.25-.16.46-.27.68l-.49.63c-.21.2-.42.41-.65.59-.25.16-.52.31-.77.46-.45.21-.82.32-1.22.41-1.95.41-3.73.32-5.51.2-1.78-.14-3.52-.4-5.22-.74-1.48-.3-2.94-.64-4.39-1.01l-2.16-.55-1.07-.27c-.33-.08-.76-.17-.84-.17-.25-.01-.94.41-1.51.87-1.72,1.42-3.48,3.07-5.45,4.4-1.48,1.03-3.07,1.92-4.74,2.63-1.67.68-3.41,1.24-5.17,1.58-2.71.53-5.36.98-8.11,1.16-.61.03-1.2.09-1.82.08-2.3-.04-3.09-.43-3.39-1.25-.07-.19-.17-.38-.18-.55-.01-.6.85-.77,2.35-.79,2.26-.04,4.64-.27,7.03-.57,1.19-.16,2.4-.33,3.57-.56.59-.11,1.16-.24,1.71-.38.56-.18,1.12-.33,1.67-.52,3.3-1.14,6.26-3.08,9.03-5.52l.04.04Z"/><path class="cls-4" d="m125.58,262.8c2.24-1.02,4.48-1.58,6.72-2.01,2.24-.42,4.49-.68,6.74-.84,1.64-.11,3.29-.23,4.94-.18,1.53.05,3.05.16,4.59.4.77.12,1.54.28,2.32.52.2.07.39.11.59.2.19.09.39.13.67.29.26.15.52.29.77.45l.63.56c.14.2.28.39.35.61.04.11.1.21.13.33l.05.35c.02.49-.24.91-.52,1.26-.2.15-.36.33-.58.46-.23.12-.45.26-.69.37-.21.1-.57.23-.7.28l-.52.16c-1.37.4-2.72.64-4.07.87-2.49.41-4.99.82-7.46,1.23-3.17.48-6.26,1.19-9.35,1.76-.95.23-.89.15-.22-.47.34-.29.83-.76,1.5-1.16.33-.2.69-.44,1.09-.61.4-.17.84-.31,1.29-.44,1.62-.43,3.24-.78,4.86-1.11,1.62-.31,3.25-.54,4.86-.8,1.61-.25,3.22-.5,4.78-.81.78-.15,1.56-.32,2.27-.53.18-.05.4-.13.37-.11.04,0,.08-.02.13-.03.09-.03.2-.07.27-.16.07-.1.04-.24-.07-.31-.06-.1-.16-.15-.31-.22-.32-.13-.72-.25-1.1-.35-.79-.2-1.64-.31-2.5-.39-1.72-.16-3.49-.15-5.24-.1-4.33.16-8.73.69-12.83,1.96-1.25.4-2.47.89-3.53,1.53-.27.15-.5.34-.75.51-.21.19-.43.37-.66.62-.46.46-.89.96-1.3,1.47-2.53,3.1-4.41,6.91-7.25,10.12-.55.62-1.12,1.22-1.77,1.79-.64.55-1.3,1.04-1.98,1.51-1.36.92-2.77,1.73-4.24,2.44-.65.31-1.28.62-1.96.89-2.53.95-3.49.9-4.19.28-.16-.14-.36-.28-.46-.44-.33-.55.58-1.15,2.25-1.84,2.48-1.05,5.02-2.3,7.27-3.83.57-.38,1.09-.78,1.58-1.19.45-.4.93-.88,1.38-1.39.9-1.01,1.73-2.14,2.53-3.34,1.19-1.78,2.35-3.71,3.74-5.6.69-.94,1.45-1.87,2.29-2.75.36-.4,1-.98,1.53-1.33.56-.39,1.12-.7,1.68-.98l.04.06Z"/><path class="cls-4" d="m41.6,336.88c-.46.67-.87,1.4-1.22,2.18-.14.28-.17.59-.31.88-.44,1.02-.87,2.07-1.19,3.17-.15.48-.22.99-.29,1.48-.04.32-.06.65-.1.97-.08.32-.17.63-.4.92-.14.18-.51.09-.93-.16-.43-.25-.9-.65-.93-1.03.11-1.32.36-2.65.91-3.93.33-.76.4-1.62.66-2.44.28-.89.64-1.77,1.05-2.62.26-.53.54-1.04.84-1.55.44-.78,1.01-1.47,1.54-2.2.22-.27.41-.57.59-.88.2-.3.41-.59.63-.88.09-.13.18-.27.3-.38.45-.4.72-.34,1.26.26.12.14.25.27.36.42.38.5.5,1.05.34,1.39-.48,1-1.1,1.69-1.69,2.52-.46.59-.95,1.2-1.35,1.9l-.06-.03Z"/><path class="cls-4" d="m174.63,229.13c-.3.65-.81,1.2-1.43,1.49-.28.15-.59.24-.91.28-.3.08-.64.06-.98.03-.51-.05-1.06-.16-1.59-.42-.47-.23-.92-.57-1.28-.88-.27-.24-.51-.51-.73-.79-.44-.57-.77-1.27-.81-2-.06-.67.06-1.31.35-1.85.18-.35.42-.67.74-.91.31-.26.74-.33,1.11-.31.24.03.19.08.04.22-.17.12-.33.48-.46.73-.29.41-.36.96-.28,1.38.07.39.31.75.52,1.21.14.27.4.5.69.68.13.09.23.14.37.21.21.12.48.23.82.22.12-.02.27-.05.38-.13.24-.15.42-.43.43-.72.03-.44-.28-.91-.78-1.03-.4-.1-.84.14-1.05.32-.05.04-.07.1-.19.15-.37.17-.56.07-1-.56-.1-.14-.21-.28-.3-.43-.32-.49-.33-1.04.06-1.39.14-.13.3-.25.47-.36.17-.11.48-.23.73-.32.54-.16,1.13-.23,1.69-.18,1.13.09,2.13.62,2.79,1.35,1.02,1.08,1.25,2.7.7,4l-.06-.02Z"/><path class="cls-4" d="m169.21,234.25c-.26.58-.7.88-1.13,1.05-.16.05-.31.14-.49.14-.65.04-1.17-.42-1.31-.82-.08-.18-.12-.36-.13-.54-.02-.22.04-.48.22-.62.06-.04.11,0,.18.09.06.08.18.19.23.24.08.11.19.17.27.2.08.03.1.06.11.1.02.06.04-.04.06-.07.03-.03.09-.08.11-.12.01-.02.03-.02.03-.02.02,0,.01-.08-.08-.06-.08,0-.14.28-.11.09,0-.02,0-.04,0-.06,0-.03-.01-.04-.02-.05-.03-.05-.08-.14-.16-.29l-.25-.4c-.3-.44-.44-.9-.2-1.12.34-.33.83-.43,1.24-.35.42.08.79.31,1.08.65.45.48.63,1.36.39,1.97h-.05Z"/><path class="cls-4" d="m444.97,176.78c-.94.4-1.85.89-2.74,1.42-.33.19-.6.46-.93.65-1.13.72-2.26,1.48-3.29,2.36-.46.38-.89.81-1.3,1.24-.25.29-.5.58-.79.83-.27.27-.57.52-.94.72-.23.12-.35-.02-.43-.35-.08-.33-.18-.91.06-1.32.82-1.45,1.99-2.63,3.38-3.55.82-.56,1.54-1.29,2.35-1.89.89-.66,1.84-1.24,2.8-1.8.6-.33,1.2-.65,1.82-.94.93-.46,1.91-.82,2.84-1.24.74-.31,1.43-.73,2.18-1.05.16-.07.32-.16.5-.2.65-.16.9-.03,1.15.58.06.14.12.27.17.42.15.48-.03.94-.41,1.2-1.13.79-2.38,1.16-3.62,1.71-.92.39-1.86.79-2.77,1.25l-.03-.05Z"/><path class="cls-4" d="m465.17,178.96c1.67-.9,3.34-1.78,5.05-2.58.62-.3,1.21-.65,1.85-.92,2.23-.96,4.51-1.79,6.82-2.52,1.02-.33,2.04-.65,3.06-.97,1.31-.37,2.59-.93,4.03-.75.45.08.41.16.13.54-.27.42-.76,1.1-1.47,1.37-2.56.88-5.02,1.9-7.64,2.68-1.57.48-3.04,1.34-4.54,2.08-1.64.83-3.27,1.69-4.85,2.63-.98.57-1.96,1.16-2.91,1.77-1.45.94-2.9,1.89-4.24,2.95-1.04.83-1.95,1.79-2.88,2.72-.21.2-.39.42-.61.62-.81.72-1.2.79-1.84.39-.15-.09-.31-.17-.44-.27-.44-.35-.39-.99.11-1.64,1.51-1.93,3.49-3.54,5.56-5.04,1.54-1.12,3.16-2.13,4.79-3.12l.04.05Z"/><path class="cls-4" d="m446.55,149.7l4.79-3.27c.58-.39,1.12-.85,1.71-1.24,2.11-1.31,4.23-2.62,6.34-3.93.94-.58,1.83-1.23,2.74-1.83,1.18-.76,2.26-1.69,3.68-2.06.43-.14.52.11.4.61-.06.25-.16.58-.3.94-.07.17-.15.37-.26.54-.12.15-.25.29-.41.42-2.2,1.8-4.55,3.38-7.04,4.83-1.5.85-2.85,2.03-4.28,3.05l-4.72,3.35c-.96.7-1.93,1.39-2.87,2.11-1.43,1.09-2.89,2.16-4.23,3.34-1.05.91-1.95,1.94-2.89,2.94-.21.22-.39.45-.61.66-.8.78-1.19.88-1.89.47-.16-.09-.33-.17-.47-.28-.48-.36-.47-1.03.04-1.73,1.51-2.05,3.5-3.77,5.55-5.42,1.52-1.22,3.11-2.37,4.68-3.53l.04.05Z"/><path class="cls-4" d="m379.33,262.25l8.28,2.69c1.01.32,2.04.56,3.05.89,3.54,1.19,7.09,2.38,10.6,3.66,1.57.55,3.16,1.03,4.74,1.51,1.01.3,2.02.65,3.02,1.01.49.19,1,.35,1.47.62.47.27.93.56,1.38.86.56.4.44.47-.2.62-.32.07-.78.21-1.32.31-.27.05-.56.12-.85.13-.28-.01-.58-.05-.87-.11-1.05-.23-2.1-.45-3.14-.71l-3.09-.9c-2.05-.63-4.11-1.26-6.13-2.07-2.42-.95-5.06-1.54-7.6-2.31l-8.38-2.56-5.16-1.6-3.92-1.22c-.65-.2-1.31-.42-1.98-.65-.16-.04-.41-.16-.62-.26l-.32-.16c-.09-.08-.18-.16-.26-.25-.15-.18-.34-.38-.44-.54l-.31-.43c-1.23-1.76-2.5-3.38-3.72-5.07-.27-.37-.55-.72-.81-1.09-.47-.7-.74-1.19-.83-1.59-.07-.42.02-.75.23-1.12.1-.17.17-.36.28-.5.19-.24.47-.28.85-.16.38.12.86.4,1.28.89,1.29,1.41,2.48,2.92,3.59,4.49.54.77,1.09,1.54,1.64,2.32l.34.46h0c-.19-.07.46.14.85.26,2.78.82,5.57,1.65,8.35,2.47l-.02.08Z"/><path class="cls-4" d="m434.24,236.26l-4.25,8.73c-.51,1.06-.96,2.15-1.48,3.21l-5.5,11.2c-.81,1.66-1.57,3.35-2.3,5.02-.94,2.15-1.79,4.36-3.08,6.34-.41.59-.42.53-.47-.16-.11-.71-.08-1.95.34-3.25.78-2.29,1.76-4.49,2.7-6.7.97-2.21,1.95-4.41,3.08-6.55,1.33-2.58,2.47-5.37,3.71-8.06l4.13-8.86,2.53-5.45,1.75-3.86.84-1.94.4-.96.14-.36c.03-.09.07-.19.05-.29-.03-.07-.08-.33-.13-.51-.53-2.25-1.28-4.43-2.01-6.6-.16-.48-.35-.94-.5-1.43-.59-1.79-.55-2.42.06-3.04.14-.14.26-.31.41-.41.48-.35,1.24.23,1.81,1.55.67,1.56,1.24,3.18,1.74,4.85.25.83.49,1.68.71,2.54l.32,1.3c.04.22.12.43.13.67l.04.34.02.19c0,.11.06.22.01.33.01.78-.37,1.8-.49,2.05l-.52,1.23c-1.31,3.01-2.73,5.96-4.11,8.92l-.06-.02Z"/><path class="cls-4" d="m431.17,224.05l-4.92,10.44c-.59,1.27-1.12,2.58-1.72,3.84-2.12,4.47-4.3,8.92-6.48,13.37-.97,1.97-1.87,3.99-2.77,5.97-1.13,2.56-2.32,5.12-3.82,7.51-.56.7-.77.46-.88-.42-.11-.88.04-2.31.64-3.8,1.06-2.64,2.29-5.21,3.47-7.81,1.2-2.59,2.43-5.17,3.73-7.74,1.56-3.07,2.9-6.4,4.34-9.61l4.79-10.59,2.95-6.52,1.15-2.53.59-1.27.3-.63.14-.3s.06-.11.09-.17c.09-.21.32-.45.17-.69-.13-.22-.34-.36-.54-.5-.18-.12-.61-.35-.97-.53-.38-.18-.76-.35-1.16-.51-2.53-1.02-5.19-1.68-7.84-2.5-.58-.18-1.17-.33-1.75-.54-2.18-.77-2.81-1.34-2.89-2.27-.02-.22-.07-.44-.04-.64.11-.64,1.1-.69,2.65-.26,2.31.65,4.74,1.31,7.21,2.12,1.23.4,2.48.84,3.74,1.36.63.26,1.27.55,1.93.89l.25.14.13.07.19.12c.26.17.52.31.76.52.54.37.92.86,1.19,1.38.2.38.29.86.27,1.27-.04.42-.27.86-.39,1.29l-.45.93-.27.56-.53,1.14-1.06,2.3-2.12,4.63-.07-.02Z"/><path class="cls-4" d="m384.68,256.28l8.49,2.86c1.03.34,2.09.59,3.13.94,3.64,1.22,7.28,2.44,10.93,3.55,1.14.36,2.21.63,3.4.9.82.04,1.41.8,1.74,1.39.59,1.07,1.01,2.08,1.37,3.12.33,1.04.6,2.08.86,3.12.17.63-.06.69-.65.34-.58-.35-1.61-1.13-2.24-2.23-.48-.75-.78-1.55-1.16-2.25-.17-.33-.4-.72-.51-.86.03,0,0,.03.02-.05,0,.1.03.03.05.05.03,0-.03,0-.04,0l-.14-.02-.28-.04-.57-.09-1.02-.22c-.69-.14-1.35-.31-2.01-.48-1.32-.37-2.6-.84-3.9-1.3-2.53-.93-5.25-1.55-7.87-2.35-2.88-.89-5.75-1.8-8.62-2.74l-5.29-1.72c-2.67-.85-5.35-1.76-8.02-2.53-2.08-.6-4.18-1.01-6.27-1.51-.46-.11-.92-.19-1.38-.32-1.71-.46-2.17-.92-2.25-1.83-.02-.21-.07-.42-.05-.62.04-.63.91-.99,2.18-.79,3.8.61,7.66,1.72,11.53,2.9,2.87.87,5.74,1.82,8.61,2.73l-.02.08Z"/><path class="cls-4" d="m151.1,176.72s.02.04.09.09l.04.03.2.1.45.23c.62.3,1.25.58,1.89.86,1.29.55,2.61,1.06,3.94,1.54.97.35,1.98.59,2.95.9.89.29,1.79.57,2.68.81l.66.19c.16.03.37.12.53.04.06-.14.05-.29.05-.46,0-.19,0-.29-.02-.61l-.19-2.66c-.14-1.65-.33-3.3-.45-4.94-.15-2.1-.3-4.27.24-6.39.31-.63.24-.54.43.04.16.57.52,1.57.72,2.73.27,2.07.74,4.13,1.14,6.21.19,1.04.39,2.09.56,3.15.09.54.16,1.04.24,1.64.05.47.12.94.21,1.44.05.49.03.95-.05,1.34-.15.41-.32.69-.54,1.06-.38.21-.7.36-1.11.44-.41.05-.87.06-1.34,0-.49-.06-.93-.14-1.37-.23l-.94-.21c-1.18-.27-2.34-.57-3.47-.93-2.82-.9-5.57-1.92-8.29-3.19l-.46-.22-.65-.33c-.42-.23-.88-.47-1.24-.75-.78-.55-1.31-1.14-1.37-1.95.16-.24.31-.43.48-.67.19-.23.28-.47.58-.69.68-.63,1.65-1.36,2.09-1.68l1.66-1.21c1.12-.79,2.23-1.58,3.34-2.36,1.73-1.21,3.38-2.5,5.21-3.62.41-.24.79-.5,1.22-.73,1.61-.8,2.3-.73,2.9-.04.14.16.3.3.4.47.33.57-.12,1.32-1.1,1.93-2.95,1.85-6.07,3.97-9.17,6.18-.87.63-1.73,1.3-2.59,1.96-.61.48-.36.27-.44.32-.02,0-.05.01-.08.03-.02.03,0,.05.02.07l-.08.05Z"/><path class="cls-4" d="m404.4,214.35c1.48-.69,2.95-1.74,4.31-2.9,1.36-1.17,2.66-2.46,3.84-3.85.86-1.01,1.61-2.11,2.34-3.2.42-.61.8-1.23,1.15-1.87.18-.32.34-.64.5-.96.15-.33.28-.58.5-1.19.22-.66.87-.97,1.52-1.19l1.19-.4c.77-.26,1.53-.55,2.28-.86,1.49-.62,2.95-1.34,4.31-2.19,1.77-1.11,3.38-2.5,4.63-4.12,1.61-2.08,2.66-4.53,3.1-7.16.14-.81.44-.72.72.05.29.75.51,2.24.03,3.9-.45,1.45-1.08,2.87-1.98,4.1-.88,1.24-1.92,2.35-3.05,3.33-2.27,1.96-4.88,3.4-7.59,4.48-.65.25-1.31.51-1.97.76l-.84.32c-.11.03-.22.07-.24.2l-.07.2-.15.37c-.1.26-.2.52-.32.76-.22.5-.47.99-.72,1.47-.52.96-1.09,1.87-1.7,2.75-2.29,3.21-4.99,6.08-8.23,8.4-1.01.7-2.08,1.35-3.3,1.82-.6.24-1.25.42-1.96.49-.69.09-1.49,0-2.22-.31-.79-.35-1.43-.94-1.88-1.78-.11-.23-.21-.49-.25-.75-.04-.26,0-.53.03-.79.06-.26.12-.52.23-.76.08-.22.18-.39.27-.58.38-.73.81-1.34,1.23-1.96.85-1.22,1.7-2.38,2.45-3.59,1.42-2.27,2.44-4.7,2.82-7.13.09-.54.1-1.06.13-1.59.03-.98.04-1.62.12-2.1.1-.48.29-.79.65-1.1.16-.14.32-.32.49-.43.54-.38,1.38.42,1.68,2.27.42,2.73-.21,5.62-1.32,8.11-1.12,2.51-2.71,4.73-4.17,6.78-.47.66-.93,1.32-1.26,1.9-.17.27-.31.62-.27.52,0,0-.01,0,0,.01,0,.02-.02-.01.02.03.05.1.11.09.15.16.1.07.28.12.54.15.57,0,1.42-.24,2.23-.64l.04.06Z"/><path class="cls-4" d="m255.44,121.08c1.01,1.49,1.83,3.1,2.55,4.76.68,1.68,1.19,3.43,1.5,5.23.55,3.62.19,7.4-1.21,10.8-1.02,2.48-2.54,4.74-4.45,6.56-1.69,1.6-3.61,2.94-5.69,3.9-2.06.99-4.24,1.71-6.48,2.07-1.11.25-2.24.29-3.36.41l-1.69.02h-.84s-.84-.07-.84-.07c-2.24-.1-4.49-.62-6.58-1.34-1.86-.66-3.7-1.41-5.41-2.38-.88-.44-1.69-1.02-2.53-1.53-.79-.6-1.62-1.13-2.34-1.8-1.94-1.62-3.63-3.62-4.8-5.92l-.75-1.79c-.22-.6-.34-1.24-.51-1.86-.2-.61-.15-1.28-.2-1.91-.06-.63,0-1.27.09-1.9.26-1.56.32-1.3.71-.03.11.32.21.69.34,1.11.19.41.39.87.61,1.35.18.49.45.99.7,1.52.13.26.23.54.38.81.16.27.31.54.46.82.13.25.25.5.4.74l.49.7.48.69c.17.22.37.43.55.65.38.42.72.87,1.16,1.24.41.4.76.84,1.22,1.2,1.69,1.54,3.64,2.84,5.73,3.89,2.08,1.05,4.3,1.88,6.56,2.4,2.23.52,4.61.65,6.95.56,5.63-.26,11.37-3.09,14.76-7.62,1.92-2.44,2.96-5.49,3.19-8.59.17-1.56,0-3.13-.29-4.68-.29-1.55-.83-3.06-1.48-4.52-1.61-3.6-4.2-6.78-7.19-9.43-4.6-3.96-10.27-6.83-16.25-7.9-4.64-.88-9.33-.5-13.77.64-.97.29-1.92.57-2.87.92-3.54,1.29-4.66,1.73-5.82,1.32-.26-.09-.58-.15-.77-.27-.33-.2-.2-.6.34-1.16.27-.28.64-.6,1.11-.95.47-.35,1.07-.65,1.74-1,.99-.53,2.06-.91,3.11-1.34,1.08-.35,2.17-.75,3.3-1,2.25-.58,4.59-.89,6.96-.96,2.37-.09,4.77.08,7.13.52,2.36.43,4.7,1.05,6.95,1.94,6.67,2.6,12.62,7.15,16.71,13.15l-.06.05Z"/><path class="cls-4" d="m201.83,235.08c1.24,2.93,2.35,5.9,3.4,8.89.4,1.09.82,2.16,1.18,3.26,1.2,3.9,2.18,7.85,3.09,11.8.41,1.75.83,3.51,1.24,5.25.25,1.12.53,2.23.76,3.36.18,1.13.27,2.29.32,3.44.02.72-.22.67-.68.15-.45-.52-1.25-1.49-1.7-2.72-.62-2.22-1.24-4.45-1.86-6.68-.55-2.24-1.1-4.49-1.65-6.75-.63-2.72-1.72-5.41-2.66-8.09-1.02-2.96-2.14-5.88-3.34-8.78-.75-1.78-1.52-3.55-2.35-5.29-1.25-2.64-2.57-5.27-4.03-7.78-1.15-1.94-2.47-3.73-3.75-5.56-.29-.4-.57-.79-.86-1.19-1-1.54-1.08-2.18-.64-2.93.1-.17.19-.37.3-.51.4-.47,1.23-.11,2.18.9,2.71,3.07,4.95,6.74,6.97,10.54.77,1.4,1.46,2.85,2.17,4.29.66,1.46,1.37,2.9,2,4.38l-.07.04Z"/><path class="cls-4" d="m105.18,303.8c.83,2.84,1.89,5.61,3.31,8.17.53.93,1.16,1.78,1.78,2.63,1.07,1.52,2.31,2.9,3.72,3.92.69.51,1.45.91,2.16,1.05.71.14,1.31,0,1.87-.47.47-.4.82-1.05,1.01-1.81.17-.76.27-1.57.26-2.41.04-1.07-.04-2.16-.11-3.27-.03-.55-.02-1.12-.03-1.68-.01-.57,0-1.14.11-1.73.14-.73.18-.62.52-.06.38.56,1.09,1.54,1.49,2.82.51,2.29,1.01,4.72.22,7.52-.2.69-.54,1.42-1.05,2.1-.24.34-.6.63-.92.92-.36.25-.75.46-1.14.65-.88.35-1.77.38-2.57.29-.78-.14-1.5-.37-2.11-.7-1.5-.75-2.71-1.75-3.82-2.82-1.11-1.07-2.08-2.24-2.92-3.47-1.84-2.72-3.18-5.68-4.19-8.72-.62-1.87-1.11-3.77-1.53-5.68-.62-2.9-.95-5.85-1.21-8.76-.22-2.26-.44-4.49-.53-6.75,0-.5-.05-.98-.04-1.49.09-1.86.39-2.43,1.17-2.75.18-.07.36-.18.54-.21.6-.12,1.04.66,1.16,1.98.35,3.9.53,7.92,1.08,11.92.41,2.96.98,5.91,1.85,8.76l-.08.03Z"/><path class="cls-4" d="m112.81,265.25c1.06-1.09,2.07-2.18,3.1-3.35.38-.42.71-.91,1.12-1.32l1-.99c.47-.44.94-.84,1.38-1.23l.53-.35.45-.11c.16-.02.28-.13.47-.07.15.08.25.17.37.28.22.22.43.52.61.93.17.42.31.9.42,1.39.08.35.16.69.2,1.03.05.3.09.46.14.69.09.43.19.87.28,1.3.26,1.1.49,2.21.31,3.4-.06.37-.16.33-.44.09-.28-.25-.89-.66-1.17-1.25-.29-.51-.49-1.04-.68-1.57l-.58-1.59-.07-.2c-.02-.06-.06-.16-.04-.14l.02-.04s.02-.08.03-.14c.01-.11.05-.33-.02-.59-.06-.05-.15-.01-.25.07-.11.07-.22.2-.33.31l-.96,1.05c-1.02,1.1-2.07,2.29-3.16,3.42-.32.34-.77.81-.89.91-.25.13-.15.39-.11.61l.47,2.04c.15.71.35,1.4.57,2.08.34,1.06.82,2.07,1.23,3.11.09.23.2.45.28.69.28.88.17,1.23-.49,1.58-.15.08-.3.17-.45.23-.53.19-1.04-.06-1.35-.64-.91-1.75-1.5-3.73-2.06-5.73-.23-.66-.46-1.32-.63-2l-.13-.52-.12-.45c-.04-.17-.04-.33-.06-.49-.08-.34.04-.63.11-.92v-.05s.02-.03.02-.03h0s0,0,0,0c.04,0-.32-.09-.17-.05h0s0-.02,0-.02l.06-.1.11-.21.22-.41.6-.68.05.04Z"/><path class="cls-4" d="m150.47,325.12l10.88-1.6c1.32-.2,2.63-.49,3.95-.69,4.66-.69,9.33-1.38,13.95-2.16.51-.09,1.03-.17,1.52-.28l.72-.15c.09-.05.23.03.27-.07.61-.7,1.26-1.58,1.86-2.4.8-1.07,1.59-2.14,2.39-3.2.41-.53.8-1.07,1.26-1.56.47-.48.92-.98,1.43-1.44.71-.51.68-.39.56.4-.05.4-.18.93-.33,1.56-.09.31-.17.66-.3.99-.15.32-.32.65-.53.97l-2.23,3.44c-.38.57-.79,1.13-1.19,1.69l-.65.86c-.1.14-.26.31-.39.47-.14.14-.3.32-.46.4-.16.08-.32.16-.49.23-.17.07-.34.13-.52.18l-.28.07-.52.12c-.35.08-.7.16-1.03.23-.68.14-1.36.28-2.03.4-1.36.23-2.72.42-4.08.59-3.27.41-6.6,1.18-9.91,1.76l-10.94,1.81c-2.25.36-4.49.71-6.74,1.07l-4.92.79-2.46.41c-1.11.19-2.21.39-3.31.58l-.37-.02-1-.06-.5-.03c-.08,0-.18.01-.2-.07-.01-.07-.01-.13-.02-.2,0-.5-.02-1.13.39-2.02.38-.85.86-1.78,1.3-2.65l.89-1.77c.26-.52.5-1.04.79-1.56,1.05-1.92,1.69-2.38,2.57-2.36.2,0,.42-.02.58.03.29.08.4.36.37.8-.02.44-.16,1.06-.5,1.76-.38.82-.77,1.65-1.15,2.49l-.59,1.26c-.18.39-.47,1-.38.88,0,.17.11.11.16.07,0,0,.01-.02.01-.02h0s.4-.07.4-.07l.81-.14c3.64-.61,7.29-1.22,10.93-1.83l.02.07Z"/><path class="cls-4" d="m128.72,318.88l-1.5-4.64c-.19-.56-.43-1.1-.62-1.67-.63-1.99-1.26-3.99-1.88-5.98-.29-.88-.63-1.75-.97-2.6-.23-.54-.43-1.1-.62-1.66-.09-.28-.18-.56-.26-.85-.09-.28-.08-.6-.12-.9-.02-.39.07-.37.4-.16.23.15.47.3.68.43.25.19.46.44.63.74.63,1.05,1.1,2.16,1.55,3.28.45,1.12.87,2.26,1.22,3.42.44,1.39,1.07,2.77,1.6,4.15l1.69,4.6,1.04,2.83c.51,1.43,1,2.89,1.58,4.28.45,1.09,1.02,2.1,1.53,3.15.11.23.25.45.34.69.36.89.26,1.25-.15,1.63-.1.09-.19.19-.29.26-.33.23-.81,0-1.26-.58-1.22-1.75-2.07-3.77-2.92-5.8-.62-1.51-1.2-3.04-1.72-4.6l.05-.02Z"/><path class="cls-4" d="m160.49,315.69c6.35-.91,12.7-1.85,19-2.97,2.29-.42,4.58-.92,6.76-1.45.23-.05.28-.06.44-.11.03-.02.08-.02.09-.04v-.1c0-.07,0-.13,0-.2.01.02-.05-.62-.13-1.09-.07-.49-.15-.98-.25-1.47-.37-1.97-.85-3.95-1.39-5.92-.54-1.96-1.13-3.92-1.78-5.83-.31-.94-.71-1.95-1.05-2.73-.14-.25-.2-.54-.41-.62-.12-.02-.23-.01-.35-.01h-.18s-.35.03-.35.03c-1.78.13-3.61.37-5.42.61l-2.73.37-1.37.18-.69.08c-.27.02-.68.08-1.01.08-.45.01-.85-.04-1.21-.24-.29-.29-.52-.64-.72-1.05-.11-.19-.21-.4-.29-.61l-.19-.43-.35-.82c-.46-1.09-.86-2.2-1.24-3.31l-.56-1.67-.46-1.71c-.29-1.14-.6-2.28-.84-3.44-.2-1.48-.04-1.32.79-.3.42.5.96,1.24,1.59,2.14.31.45.64.94.98,1.46.17.26.32.54.51.81.13.29.27.59.41.9.46,1.09.98,2.16,1.42,3.26l.66,1.61c.16.38.08.2.1.25h0s0,0,0,0c0,0-.02,0,.02,0l.43-.05,1.74-.22,3.55-.47c1.19-.15,2.39-.3,3.61-.42l.93-.08.53-.04c.28,0,.57-.04.85-.03.57,0,1.11.08,1.51.42l.04.03h.02s.09-.11.05-.05h0s.07.08.07.08l.13.15.26.29c.08.1.18.19.26.3l.19.34c.6,1.04.73,1.47.99,2.09.22.59.44,1.17.64,1.76.4,1.17.76,2.34,1.08,3.53.75,2.84,1.53,5.7,2.13,8.68.16.74.28,1.5.4,2.27l.09.73c.04.32.05.62.07.92v.9s.01.45.01.45c0,.07.02.16-.02.21l-.21.09c-.55.25-1.09.48-1.66.69-.28.1-.61.18-.89.26l-.56.14c-.74.19-1.47.35-2.2.51-6.4,1.33-12.8,2.33-19.21,3.35-3.95.6-7.89,1.19-11.83,1.79-2.99.45-5.99.85-8.99,1.25l-2.26.29-1.24.15c-.52.03-1.07.08-1.53-.01-.12-.01-.24-.04-.36-.06l-.24-.27-.4-.65c-.24-.42-.47-1.05-.6-1.33l-.85-2.1c-1.72-4.35-3.49-8.57-5.12-12.9-.36-.95-.74-1.88-1.07-2.85-1.25-3.6-1.33-4.88-.73-5.89.13-.23.24-.51.38-.66.46-.49,1.48.8,2.48,3.36,1.51,3.81,3.06,7.72,4.63,11.68.78,1.98,1.57,3.97,2.36,5.97l.6,1.48c.17.43.51,1.21.42.99h0s0,0,0,0l.47-.06c3.16-.42,6.37-.89,9.57-1.36l9.61-1.41.02.08Z"/><path class="cls-4" d="m154.62,248.59c2.35-.25,4.71-.45,7.1-.55,1.2-.05,2.4-.07,3.64-.02.62.02,1.24.06,1.9.15.32.03.66.09,1.01.17.17.03.33.07.57.15.27.08.52.16.73.29.16.09.32.18.48.28.14.12.25.26.38.39.12.14.26.26.35.43l.25.41.66,1.17c.42.77.81,1.53,1.18,2.31,2.54,5.51,4.85,11.06,6.72,16.87l.35,1.13.09.3.11.42.22.84.06.93c0,.14-.07.32-.17.42-.1.12-.2.23-.34.32-.5.38-1.21.6-1.9.78l-.81.19-.71.15-1.41.27c-1.7.28-3.4.53-5.11.68-.86.06-1.71.15-2.58.12-.86-.04-1.73-.1-2.59-.19-1.08-.14-.92-.39-.04-.81.44-.21,1.06-.5,1.79-.82.37-.15.76-.34,1.19-.47.43-.12.88-.22,1.35-.3,1.83-.3,3.66-.65,5.45-1.05l1.33-.29,1.12-.28s.1.02.1-.03v-.03s.01,0,0-.03l-.07-.25-.32-1.09-.69-2.2c-.49-1.47-.99-2.94-1.52-4.42-1.39-3.89-3.34-7.77-5.23-11.52-.26-.52-.53-1.02-.79-1.51l-.14-.24s-.05-.09-.08-.13c-.06-.07-.18-.12-.25-.14-.29-.1-.9-.19-1.4-.25-.54-.05-1.09-.08-1.66-.09-2.26-.04-4.58.1-6.89.3-2.85.26-5.7.6-8.54,1.04-4.3.66-8.62,1.42-12.83,2.42-3.27.78-6.41,1.8-9.56,2.84-.69.24-1.36.47-2.06.71-2.59.83-3.45.94-4.29.3-.19-.14-.42-.26-.55-.4-.44-.46.41-1.46,2.31-2.23,5.6-2.35,11.77-3.96,18.02-5.25,4.64-.95,9.34-1.7,14.07-2.28l.02.08Z"/><path class="cls-4" d="m346.83,272.67l-.02,1.72-.24,1.69-.26,1.68-.46,1.62-.46,1.61c-.21.53-.44,1.06-.66,1.58-.4,1.08-1.06,2.02-1.62,3.01-2.51,3.82-6.12,6.64-9.91,8.75-2.79,1.52-5.69,2.78-8.68,3.71-10.59,3.12-21.59,3.58-32.36,2.71-4.78-.4-9.57-1.06-14.24-2.08-1.5-.31-2.99-.7-4.48-1.1-1.47-.46-2.94-.93-4.38-1.51-.72-.27-1.44-.57-2.13-.91-.7-.34-1.43-.61-2.07-1.06-1.33-.79-2.62-1.68-3.79-2.7-1.44-1.29-1.16-1.18.33-.53.72.35,1.85.67,3.14,1.08,1.34.33,2.84.76,4.42,1.35,11.41,3.77,23.69,5.26,35.94,4.95,7.33-.21,14.97-1.58,21.87-4.26,3.78-1.49,7.37-3.46,10.33-6.13,2.96-2.68,5.02-6.12,5.9-10.04.07-.3.19-.59.23-.89l.13-.91.25-1.82v-1.83c0-.3.01-.61,0-.91l-.13-.9c-.21-2.43-1.15-4.73-2.37-6.81-1.93-3.13-4.89-5.61-8.28-7.17-3.39-1.57-7.2-2.24-10.94-2.14-1.46-.03-2.9.25-4.33.44-1.4.25-2.74.65-4.05,1.22-2.62,1.11-5.09,2.64-7.41,4.36-1.02.76-1.98,1.56-2.96,2.39-3.61,3.1-4.7,4.12-6.09,4.27-.31.04-.68.14-.93.11-.83-.05-.04-2.11,2.54-4.82,1.91-2,4.04-3.83,6.37-5.48,2.33-1.64,4.85-3.13,7.68-4.2,1.39-.55,2.94-.99,4.45-1.2,1.49-.18,2.97-.46,4.49-.42,3.02-.17,6.09.31,9.05,1.11,4.39,1.29,8.54,3.8,11.55,7.43,3.09,3.58,4.64,8.37,4.66,12.99h-.08Z"/><path class="cls-4" d="m352.73,381.56c4.45-1.66,8.95-3.05,13.78-3.72,1.76-.24,3.74-.26,5.44.06,3.07.51,5.98,1.34,8.87,2.27,2.88.93,5.7,2.01,8.47,3.2,2.47,1.02,4.91,2.16,7.27,3.41,1.51.81,3.04,1.62,4.43,2.67.68.56,1.36,1.08,1.93,1.77l.88.97c.27.35.48.76.72,1.12.54.94.48.78-.31.3-.79-.5-2.41-1.05-4.12-1.83-1.49-.72-2.84-1.67-4.36-2.39-.73-.4-1.49-.76-2.25-1.11-.76-.36-1.52-.72-2.29-1.05-3.05-1.44-6.19-2.76-9.39-3.98-1.92-.71-3.92-1.33-5.96-1.8-2.03-.5-4.11-.85-6.07-1.01-2.11-.19-4.36.25-6.59.72-2.23.5-4.45,1.14-6.64,1.87-2.69.91-5.36,1.92-7.85,3.2l-.65.35c-.19.11-.38.23-.56.35-.18.13-.37.27-.51.45-.07.09-.13.19-.14.3,0,.11.08.21.17.27.3.21.69.23,1.06.24.19,0,.38,0,.57-.02l.29-.02.37-.04c1.31-.15,2.63-.4,3.94-.66,3.28-.67,6.45-1.6,9.76-2.26.73-.15,1.45-.3,2.2-.41,2.8-.4,3.84,0,4.36.74.12.17.28.34.33.49.09.25-.16.45-.63.62-.48.2-1.19.35-2.13.48-2.8.42-5.73,1.14-8.73,1.81-1.5.34-3.03.68-4.58.99-.78.16-1.56.3-2.36.44l-1.21.18-.61.08-.35.04c-.19.02-.39.04-.58.05-.57.02-1.17.08-1.7.05l-.81-.04c-.24-.04-.46-.1-.69-.15-.25-.04-.42-.13-.6-.21-.2-.07-.37-.16-.5-.27-.33-.19-.49-.47-.78-.75-.07-.11-.12-.26-.18-.39.05-.17-.07-.31-.1-.45-.06-.14-.09-.28-.07-.41,0-.14.02-.26.05-.38.02-.25.15-.49.25-.73.19-.25.27-.5.55-.75.44-.5,1.11-1,1.82-1.45l1.09-.66.72-.38c1.64-.84,3.29-1.55,4.96-2.21l.03.06Z"/><path class="cls-4" d="m452.72,171.44c1.44,2.31,2.73,4.72,3.74,7.29.37.94.78,1.86,1.03,2.87.22.89.39,1.79.45,2.75.04.96.04,1.98-.39,3.05-.21.54-.53,1.02-.93,1.45-.41.43-.93.74-1.46.94-1.07.39-2.11.33-3.03.17-1.65-.31-3.12-.94-4.47-1.72-.86-.5-1.71-1.04-2.46-1.71-.73-.69-1.4-1.46-1.88-2.37-.21-.63-.05-.59.5-.39.56.2,1.47.5,2.38.98.81.42,1.55.93,2.37,1.29.8.4,1.64.68,2.43.97.79.28,1.6.46,2.28.48.7,0,1.14-.13,1.5-.47.23-.23.38-.54.46-.96.09-.42.07-.94.03-1.45-.12-1.04-.44-2.13-.8-3.2-.8-2.36-1.96-4.67-3.29-6.87-.82-1.36-1.71-2.68-2.68-3.95-1.45-1.93-3.03-3.79-4.76-5.47-1.35-1.3-2.86-2.36-4.36-3.43-.33-.23-.66-.46-.99-.69-1.21-.9-1.44-1.39-1.26-2.2.04-.19.06-.38.13-.55.21-.56,1.02-.59,2.1-.09,3.12,1.58,5.91,4.03,8.43,6.71,1.84,2.02,3.5,4.22,5.01,6.51l-.06.05Z"/><path class="cls-4" d="m217.24,162.83c0,1.12-.06,2.24-.2,3.36.04-.34-.03.16-.04.22-.02.16-.05.31-.08.47-.05.27-.11.54-.17.8-.13.53-.29,1.04-.48,1.55-.13.34.07-.13-.05.11-.06.12-.12.25-.18.37-.11.21-.23.41-.36.6-.04.05-.07.11-.11.16.12-.15.13-.17.04-.05-.06.07-.12.14-.19.21-.09.09-.18.17-.27.26-.05.04-.09.08-.14.12.15-.11.18-.14.1-.08-.2.1-.39.24-.59.34.33-.16.07-.03-.02,0-.12.03-.25.06-.37.1-.15.03-.13.03.08,0-.07,0-.13.01-.2.02-.1,0-.21,0-.31,0-.15,0-.29-.01-.44-.03.36.03-.14-.03-.21-.05-.73-.15-1.49.21-1.69.96-.19.68.23,1.54.96,1.69,1.03.22,2.13.26,3.13-.13s1.79-1.05,2.44-1.91c1.22-1.64,1.65-3.78,1.9-5.76.14-1.11.2-2.24.2-3.36,0-.74-.63-1.38-1.38-1.38s-1.37.63-1.38,1.38h0Z"/><path class="cls-4" d="m192.26,161.32c.25,1.82,1.13,3.62,2.01,5.21,1.06,1.91,2.46,3.83,4.34,5s4.28,1.19,5.99-.18c1.44-1.16,1.82-3.09,1.92-4.84.06-.99,0-1.99-.03-2.98-.02-.45-.04-.9-.04-1.36,0-.19,0-.37.01-.56,0-.13.08-.79.01-.29.1-.73-.18-1.48-.96-1.69-.64-.18-1.59.22-1.69.96-.22,1.51-.06,3.02-.03,4.53,0,.39,0,.77-.01,1.16,0,.19-.02.38-.03.57,0,.11-.02.22-.03.33-.02.3.05-.24,0,.07-.07.35-.13.69-.24,1.03-.03.1-.07.19-.1.28.02-.05.14-.26.02-.06-.1.16-.19.33-.29.5-.16.26.15-.16.01-.02-.05.06-.1.12-.16.17s-.12.11-.18.16c-.14.12.28-.15,0-.02-.08.04-.55.25-.21.13-.21.08-.42.12-.64.18-.36.09.18,0-.05,0-.11,0-.21.02-.32.02-.1,0-.66-.06-.31,0-.18-.04-.36-.08-.53-.13,0,0-.34-.13-.15-.05.16.07-.22-.11-.25-.13-1.44-.77-2.53-2.25-3.45-3.83-.26-.44-.5-.9-.73-1.36-.12-.24-.23-.49-.34-.73,0-.02-.18-.42-.07-.15-.05-.12-.09-.23-.14-.35-.29-.75-.55-1.53-.67-2.33-.1-.74-1.04-1.14-1.69-.96-.79.22-1.06.95-.96,1.69h0Z"/><path class="cls-4" d="m183.87,183.55c-.05,2.11,1.04,4.19,2.51,5.65,1.59,1.58,3.75,2.49,6,2.05.71-.14,1.18-1.02.96-1.69-.24-.75-.93-1.11-1.69-.96-.06.01-.12.02-.18.03.22-.03.25-.03.1-.02-.09,0-.17.01-.26.02-.17,0-.45-.07-.61-.03.21.03.26.04.15.02-.04,0-.09-.01-.13-.02-.11-.02-.23-.05-.34-.08-.05-.01-.51-.16-.5-.17.19.08.22.09.08.03-.05-.02-.11-.05-.16-.08-.08-.04-.16-.08-.24-.13-.19-.1-.37-.22-.54-.34-.06-.04-.18-.1-.22-.16.16.12.17.14.06.04-.05-.04-.1-.08-.14-.12-.15-.13-.3-.27-.44-.42s-.28-.3-.41-.45c-.04-.05-.08-.1-.12-.15.11.14.13.17.07.09-.06-.09-.13-.18-.19-.27-.24-.34-.45-.71-.62-1.08-.15-.32.07.21-.02-.05-.03-.08-.06-.17-.09-.25-.07-.19-.12-.39-.17-.59-.02-.08-.04-.17-.05-.25-.01-.06-.02-.11-.03-.17.03.22.03.26.02.11-.01-.2-.02-.39-.02-.58.02-.72-.64-1.41-1.38-1.38s-1.36.6-1.38,1.38h0Z"/><path class="cls-4" d="m209.54,182.71s.05-.02.07-.03l.03-.03.02-.03.04-.11c.11-.34.21-.75.28-1.2.14-.88.22-1.84.29-2.8.05-.7-.02-1.42.01-2.13.05-1.26.07-2.54.07-3.82.01-1.28.07-2.57.07-3.85,0-1.14-.07-2.29-.14-3.42-.15-1.45-.08-2.93.18-4.41.09-.46.21-.39.42-.01.2.38.62,1.06.87,1.87.25.72.36,1.44.46,2.18l.32,2.2c.19,1.47.33,2.96.36,4.47-.04,1.81.21,3.67.24,5.54,0,1.03,0,2.06-.09,3.11-.1,1.06-.2,2.09-.58,3.26-.28.89-.87,1.76-1.8,1.96l-.67.14c-.17.03-.34.08-.52.08-.35.02-.7.06-1.04.07-1.06,0-2.09-.2-3.08-.52-.97-.35-1.88-.8-2.74-1.33-1.32-.83-2.58-1.74-3.56-2.98-.22-.26-.44-.53-.63-.83-.58-1.18-.48-1.69-.06-2.14.1-.1.19-.22.29-.3.36-.25.86.05,1.48.58.21.21.48.38.68.58.2.21.43.39.65.58.43.39.92.7,1.35,1.07.88.71,1.83,1.32,2.82,1.71.73.31,1.49.48,2.24.55.19,0,.38.03.57.03l.57-.04c.1,0,.19-.01.28-.04l.14-.03s0,0,.01,0c-.01.01.02,0,.03,0l.05.06Z"/><path class="cls-4" d="m280.94,317.44c-.51.76-.77,1.67-.81,2.58-.04,1.03.22,2.32,1.27,2.76.68.29,1.36.11,1.91-.35.38-.32.61-.78.79-1.23.32-.85.48-1.8.58-2.7.11-.99-.2-2.14-1.15-2.63-.58-.3-1.38-.17-1.71.45-.3.57-.17,1.39.45,1.71.28.14-.16-.16-.02-.03.15.15-.17-.28-.05-.05.05.09.02.03-.07-.17.01.04.03.07.04.11.01.05.06.32.03.07s0,.03,0,.09c0,.08,0,.17,0,.25,0,.06-.01.12-.02.19-.01.11,0,.08.01-.1,0,.06-.02.12-.03.17-.06.4-.15.8-.25,1.2-.05.2-.11.39-.17.59-.02.07-.06.14-.07.21.08-.19.1-.23.04-.11-.02.04-.04.08-.07.12-.11.21.21-.22.01-.01s.22-.12.04-.02c.13-.08.27-.11.42-.11-.09,0-.07,0,.05.01.19.02.51.14.56.36-.02-.04-.05-.07-.06-.11.08.2.1.24.05.11-.02-.07-.04-.13-.05-.2-.01-.05-.02-.1-.03-.15-.02-.14-.02-.1.01.1,0-.07-.01-.16-.02-.23,0-.18,0-.36.02-.54.02-.14.01-.1-.01.1,0-.05.02-.1.03-.15.02-.08.03-.15.05-.22.03-.1.06-.2.09-.29.02-.05.04-.1.06-.14l-.06.16s.11-.23.14-.27c.05-.09.11-.18.16-.26.36-.55.12-1.41-.45-1.71-.63-.33-1.32-.13-1.71.45h0Z"/><path class="cls-4" d="m295.01,320.46c-.44.61-.75,1.35-.86,2.09-.15,1-.2,2.31.74,2.94.59.4,1.37.25,1.9-.16.35-.27.62-.64.86-1.01.4-.62.69-1.34.85-2.06.2-.93.21-1.85.04-2.78-.12-.65-.94-1.07-1.54-.87-.69.22-1,.85-.87,1.54,0,.05.02.1.02.14.02.13.01.1-.02-.11,0,.07.02.15.02.22.01.17.02.34.01.51s0,.35-.04.51l.02-.19s-.02.1-.02.15c-.01.07-.03.14-.04.22-.04.17-.08.33-.13.5-.03.08-.05.16-.08.24-.01.03-.03.07-.04.1-.05.12-.04.09.04-.1-.1.13-.15.32-.23.46s-.16.27-.25.4c-.05.08-.25.28,0,.01-.05.05-.09.1-.14.16-.1.09-.07.06.09-.07-.09.05-.08.05.03,0,.18-.09.37-.1.58-.04.34.11.55.31.64.61,0-.04-.02-.15-.04-.2.03.21.03.24.02.11,0-.05,0-.1-.01-.15,0-.16,0-.33,0-.49,0-.11.09-.36,0,0,.02-.07.03-.15.04-.22.04-.17.09-.34.15-.51.02-.05.04-.09.05-.14l-.07.16c.05-.04.1-.21.13-.27.08-.15.18-.3.29-.44.18-.25.2-.68.13-.96s-.3-.6-.57-.75c-.29-.15-.64-.23-.96-.13s-.54.3-.75.57h0Z"/><path class="cls-4" d="m285.06,304.48c-3.07-.78-6.24-1.27-9.25-2.31-.74-.26-1.67.29-1.85,1.05-.19.83.25,1.57,1.05,1.85,3,1.04,6.17,1.53,9.25,2.31.76.19,1.66-.25,1.85-1.05s-.23-1.64-1.05-1.85h0Z"/><path class="cls-4" d="m294.11,307.64c.44-.1.89-.17,1.34-.24.14-.02.27-.04.41-.06.21-.03-.06,0-.12.02.06,0,.12-.02.19-.02.27-.03.54-.07.8-.1.98-.11,1.96-.2,2.95-.27.78-.06,1.54-.65,1.5-1.5-.03-.76-.66-1.56-1.5-1.5-2.12.16-4.28.33-6.36.78-.77.17-1.29,1.1-1.05,1.85.26.81,1.02,1.23,1.85,1.05h0Z"/><path class="cls-4" d="m271.98,339.73c.04,1.96.81,3.87,2.19,5.27s3.28,2.19,5.24,2.27c.72.03,1.41-.65,1.38-1.38-.03-.77-.6-1.35-1.38-1.38-.1,0-.2,0-.3-.02s-.37.02-.03,0c-.16,0-.38-.07-.54-.1-.18-.04-.35-.09-.53-.15-.09-.03-.19-.07-.28-.1-.24-.08.16.08,0,0-.34-.17-.68-.34-1-.56-.07-.05-.13-.1-.2-.14-.14-.1.2.17,0,0-.15-.13-.3-.26-.44-.4-.13-.13-.24-.27-.36-.41-.11-.13.15.21,0,0-.06-.08-.11-.16-.17-.25-.19-.29-.42-.63-.52-.96.1.34.02.02,0-.04-.03-.09-.07-.19-.09-.28-.05-.16-.09-.32-.13-.48-.02-.1-.04-.19-.06-.29,0-.05-.02-.1-.02-.15-.02-.11-.01-.07.02.12-.07-.12-.03-.45-.04-.59-.01-.72-.62-1.41-1.38-1.38s-1.39.6-1.38,1.38h0Z"/><path class="cls-4" d="m295.19,327.48c.44,2.04.88,4.11,1.03,6.38.04.83.13,1.71-.08,2.69-.17.84-.67,1.89-1.64,2.54-.96.61-1.92.68-2.71.6-1.61-.14-2.91-.7-4.15-1.31-1.1-.55-2.13-1.2-3.09-1.92-1.21-.92-2.43-2.02-2.95-3.54-.16-.46-.08-.41.24-.14.28.3,1.01.61,1.67,1.04,1.15.83,2.47,1.45,3.77,1.96,1.28.54,2.59,1.07,3.83,1.29.72.16,1.47,0,1.66-.22.09-.1.17-.23.22-.51.08-.24.12-.6.15-.97.08-1.7-.35-3.74-.81-5.68-.29-1.21-.61-2.42-.95-3.64-.51-1.84-.99-3.72-1.55-5.57-.43-1.44-1.01-2.82-1.36-4.37-.08-.34-.17-.69-.2-1.05-.08-1.37.31-1.92,1.17-2.01.2-.02.4-.06.59-.05.32.02.59.19.8.4.2.21.37.49.47.84.75,2.38,1.51,4.79,2.28,7.24.6,1.93,1.18,3.91,1.69,5.95l-.08.03Z"/><path class="cls-5" d="m137.11,326.07s46.6-7.91,47.24-8.77,3.23-4.74,3.23-4.74l-47.76,6.86-2.71,6.65Z"/><path class="cls-4" d="m207.74,375.67c.09-.01.28-.12.2-.24-.03-.07-.09-.11-.16-.15-.04-.02-.08-.03-.13-.05l-.26-.04c-.11-.02-.23-.03-.35-.04-.97-.1-2-.1-3.04-.04-1.1.06-2.19.24-3.3.38-3.9.49-7.82,1.3-11.65,2.4-1.7.49-3.37,1.1-4.98,1.78-1.03.44-2.05.92-3.05,1.4-.51.23-1.03.43-1.56.63-.51.22-1.04.41-1.59.58-.69.2-.74-.04-.44-.71.28-.7.99-1.8,2.13-2.57,4.26-2.22,8.8-3.67,13.48-4.59,2.8-.54,5.66-1.29,8.58-1.66,1.47-.18,2.95-.3,4.47-.28.38,0,.77.02,1.15.05.19,0,.39.04.59.06.17.03.53.05.78.14,1.13.22,2.09.7,2.59,1.55.22.32.36.62.39,1,0,1.34-1.3,2.19-2.58,2.86-.98.48-1.88.81-2.82,1.15-2.83.98-5.7,1.71-8.5,2.54-2.18.64-4.28,1.4-6.39,2.11-.47.16-.91.34-1.38.49-1.73.58-2.35.49-2.93.02-.13-.11-.29-.2-.38-.31-.31-.35.25-1.07,1.5-1.69,3.74-1.66,7.81-2.82,11.81-4.06,1.49-.46,2.97-.92,4.42-1.42.72-.25,1.44-.51,2.11-.79.35-.13.68-.28,1-.42l.21-.1s.02,0,.02,0h.03s.06.04.06.04Z"/><path class="cls-4" d="m413.35,301.4c.08.28-.21.48-.66.63-.14.05-.55,0-.6-.09-.11-.16-.22-.33-.3-.49-.02-.1-.31-1.63-.37-2.15-.07-.5-.05-1-.02-1.49l.16-3c.01-.22.06-.44.13-.66.24-.74.31-1.5.32-2.26,0-.13.03-.26-.06-.39-.15-.22-.01-2.28.09-2.54.25-.64.43-1.29.65-1.94.03-.09,0-.2.14-.27.32-.17.29-.38.33-.58.06-.28.13-.56.26-.83.06-.13.26-.25.41-.38.14-.11.61,0,.65.06.13.14.37.07.57.08.07,0,.15,0,.21.02.12.03.71,1.74.67,1.92,0,.02-.03.63-.05,1.27-.02.64-.05,1.31-.04,1.44,0,.14-.08.28-.14.41-.03.06-.07,1.99-.09,2.06-.09.39-.04.79-.34,1.16-.06.07-.06.15-.06.23-.06.68-.25,1.34-.4,2.01-.08.34-.1.69-.15,1.04,0,.06-.05.12-.08.18-.03.08-.07.15-.08.23-.09.82-.32,1.62-.34,2.45.02.19-.42,1.06-.44,1.27-.01.12-.41.48-.38.59Z"/><path class="cls-4" d="m431.03,294.62c.24.05.22.35.07.79-.05.14-.32.46-.41.47-.17.01-.34.03-.49.01-.09,0-1.2-.59-1.6-.78-.38-.18-.71-.42-1.03-.67-.64-.53-1.32-1.01-1.92-1.59-.13-.13-.25-.27-.34-.44-.32-.56-.75-1.02-1.22-1.44-.08-.07-.14-.16-.28-.17-.23-.01-1.39-1.29-1.48-1.5-.22-.53-.49-1.02-.72-1.54-.03-.07-.11-.12-.07-.24.11-.3-.02-.4-.11-.55-.12-.2-.22-.42-.29-.66-.03-.12.02-.3.05-.46.03-.15.37-.33.42-.32.16.01.26-.16.38-.26.04-.03.1-.08.13-.1.08-.04,1.42.57,1.51.67.01.01.34.36.69.72.35.36.72.72.81.79.09.07.11.2.16.31.02.06,1.14,1.06,1.18,1.1.18.25.46.42.5.8,0,.07.06.11.1.16.39.37.69.82,1.02,1.24.17.22.37.4.55.61.03.04.04.1.07.14.03.06.05.12.1.17.46.46.84,1,1.36,1.4.11.1.49.76.64.85.08.06.12.5.22.52Z"/><path class="cls-4" d="m437.8,284.37c.23-.04.26.29.18.79-.02.16-.22.58-.3.62-.15.08-.3.16-.44.22-.08.02-1.16-.04-1.54,0-.36.02-.71,0-1.02-.09-.64-.2-1.28-.37-1.93-.53-.14-.04-.28-.11-.4-.2-.43-.33-.92-.47-1.43-.53-.08,0-.16-.05-.27.04-.18.13-1.52-.13-1.67-.24-.38-.29-.79-.52-1.19-.77-.06-.04-.13,0-.16-.15-.07-.33-.22-.31-.35-.35-.18-.07-.37-.15-.54-.28-.09-.07-.15-.26-.22-.42-.06-.14.06-.61.1-.65.11-.13.08-.37.1-.56,0-.07.02-.15.03-.21.02-.12,1.32-.72,1.45-.68.03,0,1.74.12,1.98.13.11,0,.19.1.28.16.04.02,1.44.17,1.49.2.27.12.57.1.77.44.04.07.1.07.15.08.48.12.92.38,1.36.61.23.12.47.18.7.27.04.02.07.07.11.1.05.04.09.09.14.11.28.1.55.23.81.36.26.16.52.3.8.4.13.05.6.61.74.65.08.03.19.49.28.47Z"/><path class="cls-4" d="m268.35,137.37c-.24-.04-.21-.34-.04-.79.05-.14.34-.48.43-.49.17-.02.34-.04.49-.03.09,0,1.15.52,1.54.67.37.15.69.35,1,.57.63.45,1.29.85,1.89,1.33.14.1.25.23.35.38.35.5.8.87,1.29,1.2.08.05.15.13.28.12.22-.02,1.47.96,1.59,1.14.28.46.61.87.92,1.3.04.06.13.08.11.21-.05.3.1.37.21.48.15.16.3.33.41.54.06.1.04.29.04.45,0,.15-.3.43-.36.45-.16.04-.22.24-.32.37-.03.05-.08.11-.11.14-.08.08-1.49-.2-1.58-.3-.01,0-.4-.27-.81-.55-.41-.27-.84-.56-.93-.61-.1-.05-.14-.17-.2-.27-.03-.05-1.28-.84-1.32-.89-.21-.22-.5-.35-.59-.72-.02-.07-.07-.1-.12-.14-.42-.31-.76-.72-1.13-1.11-.19-.19-.4-.35-.6-.54-.04-.03-.05-.09-.08-.13-.03-.06-.06-.12-.11-.16-.48-.41-.88-.93-1.4-1.29-.12-.09-.49-.73-.63-.82-.08-.05-.11-.5-.2-.52Z"/><path class="cls-4" d="m274.91,127.88c-.16.24-.46.05-.86-.38-.13-.14-.34-.63-.31-.73.06-.19.13-.38.22-.54.05-.09,1.2-.91,1.6-1.2.38-.29.79-.48,1.21-.66.86-.36,1.71-.74,2.59-1.07.19-.07.4-.12.61-.14.73-.06,1.4-.28,2.06-.55.11-.04.23-.07.31-.19.13-.22,1.98-.78,2.24-.77.65.03,1.28,0,1.92,0,.09,0,.17-.06.28.04.24.23.42.14.61.12.26-.03.53-.04.81,0,.14.02.29.15.44.25.14.09.16.51.12.56-.09.15.04.33.09.49.02.06.03.13.04.18,0,.1-1.28,1.11-1.43,1.14-.02,0-.53.18-1.07.37-.53.2-1.09.41-1.2.46-.11.06-.25.02-.39.02-.07-.01-1.64.64-1.71.66-.35.06-.65.26-1.06.13-.08-.02-.14,0-.21.03-.57.21-1.17.31-1.77.44-.3.07-.59.2-.88.3-.05.02-.12,0-.18,0-.07,0-.15,0-.22.03-.68.27-1.42.41-2.06.78-.15.08-1,.14-1.17.25-.09.06-.57-.15-.64-.05Z"/><g class="cls-1"><path class="cls-4" d="m237.49,384.65c-.56.62-1.12,1.25-1.66,1.9-.2.23-.35.5-.55.73-.71.82-1.43,1.64-2.09,2.5-.29.38-.54.8-.78,1.21-.3.53-.54,1.11-1,1.54-.28.28-1.26-.86-.94-1.51.59-1.13,1.27-2.21,2.14-3.17.52-.57.88-1.29,1.34-1.92.5-.7,1.05-1.37,1.59-2.04l1.01-1.23c.5-.62,1.04-1.22,1.5-1.87.36-.5.62-1.07.93-1.61.07-.12.12-.25.2-.36.29-.42.5-.45,1.02-.15.12.07.24.13.35.2.38.26.54.65.4,1.01-.4,1.07-1.08,1.95-1.79,2.84-.54.64-1.08,1.29-1.62,1.94l-.04-.03Z"/></g><path class="cls-4" d="m244.59,396.42c-.33.29-.65.57-.97.87-.11.11-.17.25-.29.36-.42.37-.86.72-1.26,1.1-.18.17-.31.37-.44.58-.16.27-.24.58-.6.71-.22.08-1.53-1.16-1.38-1.49.29-.57.67-1.07,1.27-1.41.35-.21.5-.59.75-.89.28-.32.58-.64.87-.95.18-.2.36-.39.53-.59.26-.3.55-.59.75-.93.15-.27.19-.61.27-.92.02-.07.02-.15.05-.21.11-.23.29-.2.85.14l.38.23c.43.28.71.6.72.83.03.69-.26,1.18-.61,1.64-.26.34-.56.65-.85.97l-.05-.03Z"/><g class="cls-2"><path class="cls-4" d="m342.76,364.11l-1.91-2.47c-.24-.3-.52-.55-.75-.85-.82-1.06-1.62-2.14-2.46-3.18-.37-.46-.79-.89-1.2-1.3-.55-.52-1.12-1.02-1.48-1.72-.11-.22.2-.47.64-.6.43-.13,1-.16,1.34.12,1.13,1.05,2.15,2.21,3.04,3.5.53.78,1.27,1.41,1.9,2.12l2.06,2.37,1.26,1.46c.65.73,1.27,1.49,1.96,2.16.54.52,1.16.95,1.75,1.42.13.1.27.19.39.3.45.42.46.67.09,1.2-.09.12-.16.25-.26.36-.32.38-.79.48-1.2.25-1.22-.67-2.23-1.65-3.16-2.7-.7-.77-1.36-1.59-2.03-2.4l.04-.04Z"/></g></svg>