<?xml version="1.0" encoding="UTF-8"?><svg id="Layer_1" xmlns="http://www.w3.org/2000/svg" width="520" height="520" viewBox="0 0 520 520"><defs><style>.cls-1{opacity:.2;}.cls-1,.cls-2,.cls-3,.cls-4,.cls-5,.cls-6{fill:#231f20;stroke-width:0px;}.cls-2{opacity:.4;}.cls-3{opacity:.45;}.cls-4{opacity:.5;}.cls-5{opacity:.55;}</style></defs><path class="cls-6" d="m357.06,424.44c-.33.07-.62-.13-.88-.4-.08-.09-.08-.35.02-.4.18-.1.37-.2.56-.29.12-.02,1.94-.57,2.55-.76.6-.14,1.2-.22,1.8-.28l3.67-.42c.27-.03.55-.01.82.02.94.12,1.88.07,2.81-.04.16-.02.32-.01.46-.11.24-.15,2.77-.34,3.1-.3.83.1,1.65.13,2.48.19.12,0,.24-.03.35.05.27.21.52.16.77.17.35,0,.71.02,1.07.07.18.02.36.13.54.21.16.07.11.39.06.43-.15.11,0,.25.02.37,0,.04.02.1.02.13,0,.06-1.97.91-2.19.95-.03,0-.77.12-1.56.25-.78.12-1.6.26-1.77.29-.17.04-.35,0-.53-.02-.09.01-2.44.38-2.53.39-.49.01-.98.14-1.48-.03-.1-.03-.2-.01-.3,0-.84.09-1.69.1-2.54.05-.43-.02-.86.02-1.3.03-.08,0-.16-.03-.24-.04-.1-.01-.2-.04-.3-.04-1.02.04-2.05-.05-3.07.05-.23.06-1.37-.3-1.64-.27-.15,0-.66-.28-.79-.24Z"/><path class="cls-6" d="m386.5,423.2c.46-.02.84.07,1.18.18.11.03.09.13-.04.15-.29.04-.56.09-.78.12-.16.01-2.69.26-3.54.4-.83.12-1.66.22-2.49.3-1.68.21-3.37.25-5.06.41-.37.03-.75.04-1.12.03-1.29-.03-2.57.07-3.85.18-.21.02-.43.02-.64.1-.33.12-3.81.38-4.27.37-1.13-.04-2.25-.03-3.38-.05-.16,0-.33.04-.48-.03-.35-.17-.7-.1-1.04-.09-.48.02-.97.03-1.45,0-.24-.01-.48-.11-.73-.18-.22-.06-.13-.36-.06-.4.21-.11.02-.23-.01-.35-.01-.04-.02-.09-.02-.13.01-.08,2.74-.84,3.05-.84.07,0,4.1-.43,4.58-.48.24-.03.49,0,.73.01.12-.01,3.36-.29,3.49-.3.67-.01,1.35-.1,2.02.05.13.03.27.02.4.01,1.16-.04,2.32,0,3.48.02.59.01,1.18,0,1.78-.01.11,0,.21.02.32.03.13.01.27.03.4.03,1.4,0,2.8.14,4.2.15.32.01,1.86.18,2.23.18.21,0,.89.14,1.07.13Z"/><path class="cls-6" d="m442.57,431.06c.4-.03.74.05,1.04.13.1.03.08.11-.03.13-.25.05-.49.1-.67.13-.23.03-2.34.32-3.09.43-.72.11-1.45.2-2.17.28-1.47.18-2.95.3-4.42.46-.33.03-.66.05-.98.05-1.13,0-2.25.11-3.37.25-.19.02-.38.03-.56.11-.29.12-3.33.48-3.73.47-.99-.01-1.97,0-2.96-.05-.14,0-.29.03-.42-.04-.31-.18-.61-.11-.92-.11-.43-.03-.85-.06-1.28-.11-.21-.03-.43-.12-.64-.18-.19-.06-.11-.28-.05-.31.18-.09.02-.18,0-.27,0-.03-.02-.07-.01-.1,0-.03.61-.23,1.23-.48.62-.28,1.29-.44,1.42-.45.03,0,.93-.11,1.87-.23.94-.08,1.92-.17,2.13-.19.21-.03.43.01.64.03.11,0,2.94-.21,3.05-.21.59,0,1.18-.06,1.77.06.12.02.24.01.35,0,1.01-.04,2.03-.01,3.04,0,.52,0,1.03-.02,1.55-.03.09,0,.19.01.28.02.12,0,.24.02.35.02,1.22-.02,2.45.04,3.68.01.28,0,1.63.09,1.96.08.18,0,.78.11.94.09Z"/><path class="cls-6" d="m450.09,428.7c.43-.03.8.12,1.12.25.1.04.09.16-.03.2-.24.07-.48.16-.72.25-.15.12-2.52.49-3.32.64-.78.15-1.56.25-2.34.28l-4.77.32c-.35.02-.71.03-1.06.02-1.21-.04-2.43.03-3.64.13-.2.02-.41.02-.6.09-.32.12-3.6.32-4.03.3-1.06-.05-2.13-.06-3.19-.09-.15,0-.31.03-.45-.04-.33-.15-.65-.11-.98-.11-.46,0-.91,0-1.37-.04-.23-.02-.45-.1-.68-.17-.21-.06-.11-.32-.05-.35.2-.09.02-.2,0-.3,0-.04-.02-.08-.01-.11.02-.06,2.6-.66,2.88-.67.07,0,3.86-.32,4.31-.36.23-.03.46,0,.68.02.12,0,3.16-.26,3.28-.27.63-.01,1.26-.1,1.9.01.13.02.25,0,.38,0,1.09-.07,2.18-.07,3.26-.08.56,0,1.11-.05,1.67-.08.1,0,.2.01.3.02.13,0,.25.02.38.01,1.31-.06,2.63-.1,3.95-.13.3,0,1.76.12,2.1.09.2-.02.84.17,1.02.16Z"/><path class="cls-6" d="m46.46,418.99s-10.97.25-9.67,5.18c1.13,4.27,32.66,18.04,32.66,18.04l-21.92-14.11-1.07-9.11Z"/><path class="cls-6" d="m318.86,433.48s6.59,1,8.09,3.34-15.87,10.58-20.29,13.45c-4.42,2.88,10.57-8.23,10.57-8.23l1.62-8.57Z"/><path class="cls-6" d="m270.11,100.86c-2.09.27-4.05.87-5.9,1.9-1.72.95-3.26,2.19-4.79,3.41-.67.53-.6,1.75,0,2.3.71.65,1.59.57,2.3,0,.34-.27.68-.54,1.03-.81.14-.11-.14.11.09-.07.08-.06.16-.12.24-.18.18-.13.36-.27.53-.4.68-.49,1.38-.96,2.12-1.38.35-.2.71-.39,1.08-.56.09-.04.18-.08.26-.12.24-.12-.35.14.08-.03.18-.07.36-.14.55-.21.42-.15.86-.28,1.29-.38.2-.05.4-.09.61-.13.13-.03.26-.05.39-.07.05,0,.4-.06.13-.02.84-.11,1.67-.67,1.62-1.62-.04-.79-.72-1.74-1.62-1.62h0Z"/><path class="cls-6" d="m255.85,128.48c1.37,1.17,2.95,2.04,4.69,2.51.76.2,1.66-.26,1.85-1.05s-.24-1.63-1.05-1.85c-.46-.13-.92-.28-1.36-.47l.36.15c-.8-.34-1.55-.78-2.24-1.31l.3.23c-.14-.11-.29-.23-.42-.35-.31-.26-.64-.44-1.06-.44-.37,0-.81.16-1.06.44s-.46.66-.44,1.06.14.8.44,1.06h0Z"/><path class="cls-6" d="m160.48,413.92c.19-.64.37-1.3.5-1.96.05-.24.06-.49.11-.73.14-.86.3-1.72.39-2.6.04-.39.03-.78.03-1.17-.01-.5-.05-.99-.03-1.5,0-.31.38.04.53.62.19,1.02.31,2.07.21,3.12-.05.63-.08,1.28-.16,1.92-.09.7-.23,1.4-.39,2.08-.1.42-.21.84-.32,1.26-.17.63-.39,1.26-.57,1.88-.15.48-.23.98-.36,1.48-.03.11-.04.22-.08.33-.14.39-.27.48-.63.42-.08-.01-.17-.02-.24-.05-.27-.08-.41-.32-.36-.62.14-.88.45-1.71.73-2.57.21-.64.43-1.28.6-1.93h.03Z"/><path class="cls-6" d="m47.34,422.47l-.29-3.21c-.03-.39-.1-.78-.13-1.17-.1-1.38-.1-2.76-.15-4.14-.02-.61-.06-1.22-.11-1.83-.07-.78-.17-1.55-.01-2.34.04-.24.2-.22.41-.02.19.2.52.55.6,1,.16,1.57.3,3.14.32,4.73.02.95.18,1.93.26,2.9l.31,3.2c.07.66.15,1.31.23,1.96.13.99.26,1.99.46,2.96.15.76.39,1.48.6,2.21l.14.48c.15.61.1.82-.23,1.03-.07.05-.15.1-.22.14-.26.12-.54-.09-.71-.52-.51-1.3-.82-2.72-1.06-4.15-.18-1.07-.32-2.15-.46-3.22h.03Z"/><path class="cls-6" d="m123.42,377.64l-7.46,2.56-2.7.98c-3.2,1.08-6.4,2.17-9.6,3.25-1.42.48-2.84,1-4.23,1.51-1.79.67-3.62,1.24-5.45,1.8-.57.17-.52.09-.08-.18.44-.26,1.24-.77,2.23-1.25,1.75-.88,3.56-1.61,5.38-2.33,1.82-.72,3.64-1.44,5.51-2.06,2.24-.74,4.5-1.67,6.76-2.5l7.46-2.72,4.59-1.67c2.31-.85,4.66-1.66,6.94-2.55,1.78-.69,3.48-1.45,5.21-2.18.38-.16.76-.32,1.14-.49,1.44-.57,1.94-.64,2.41-.33.11.07.24.13.31.21.26.28-.23.77-1.25,1.27-3.04,1.47-6.34,2.77-9.67,4.03-2.47.95-4.98,1.82-7.48,2.7l-.02-.04Z"/><polygon class="cls-5" points="65.05 361.19 45.63 368.3 85.01 390.34 159.84 358.43 149.01 349.71 96.77 372.57 65.05 361.19"/><path class="cls-1" d="m45.98,370.86c-.5,1.66.56,57.24.56,57.24,0,0,37.58,24.96,37.6,19.09.03-10.07.88-56.85.88-56.85l-39.03-19.47Z"/><path class="cls-6" d="m65.05,358.33c-.68.83-4.86,2.86-4.86,2.86,0,0,31.28,15.1,35.42,14.18,3.31-.74,29.48-13.02,29.48-13.02h-6.29l-24.13,10.68-29.62-14.7Z"/><polygon class="cls-1" points="60.19 312.43 60.19 355.77 96.77 372.57 96.5 326.69 60.19 312.43"/><path class="cls-6" d="m70.7,317.29c1.52.57,3.04,1.13,4.57,1.66l1.69.55c1.97.7,3.94,1.39,5.92,2.04.89.27,1.77.55,2.65.82.56.17,1.14.3,1.7.51.55.22,1.1.45,1.65.7.34.16.27.22-.07.28-.34.05-.96.17-1.66.13-1.22-.14-2.38-.48-3.56-.76-1.17-.33-2.31-.75-3.45-1.18-1.37-.52-2.84-.9-4.26-1.36-1.56-.51-3.11-1.05-4.66-1.59l-2.85-1.02c-1.44-.52-2.88-1.05-4.31-1.57-1.11-.39-2.24-.7-3.35-1.07-.25-.08-.49-.15-.73-.24-.45-.16-.74-.32-.9-.51-.17-.17-.24-.34-.26-.54-.01-.09-.04-.18-.04-.26,0-.23.48-.35,1.18-.25,2.01.53,4.06,1.25,6.13,1.98,1.54.54,3.08,1.09,4.62,1.63v.04Z"/><path class="cls-6" d="m59.81,351.76l-.29-3.63c-.03-.44-.11-.88-.14-1.32-.09-1.56-.19-3.12-.28-4.67-.03-.69-.09-1.38-.15-2.07-.03-.44-.1-.88-.1-1.32,0-.44.05-.89.1-1.34.04-.28.13-.24.28-.02.14.23.4.63.55,1.13.2.88.26,1.77.37,2.66.11.89.16,1.79.18,2.69.03,1.08.22,2.19.33,3.29l.38,3.63.24,2.23.11.83c.02.15.03.24.06.36.05.12.08.24.13.35.21.46.53.88.92,1.24.61.56,1.37.95,2.11,1.42.16.1.33.19.5.31.61.43.73.68.6,1.05-.03.08-.05.18-.1.25-.15.25-.5.22-.93-.03-1.25-.75-2.82-1.48-3.98-3.15-.21-.31-.37-.66-.5-1.01-.13-.47-.15-.74-.2-1.05l-.24-1.83h.03Z"/><path class="cls-6" d="m111.57,323.18l5.65-2.15,2.04-.83c2.42-.92,4.85-1.85,7.27-2.77,1.07-.42,2.15-.84,3.21-1.26l2.06-.78c.71-.21,1.45-.34,2.16-.51.45-.09.39-.09.06.12-.34.2-.91.7-1.63,1.19-2.7,1.3-5.5,2.33-8.34,3.36-1.7.61-3.41,1.39-5.12,2.08l-5.67,2.26-3.5,1.37c-1.77.68-3.55,1.36-5.31,2.04-1.36.53-2.67,1.13-4.01,1.69-.29.13-.58.26-.88.37-1.12.42-1.51.44-1.9.06-.09-.08-.19-.16-.26-.25-.22-.3.14-.76.94-1.11,2.35-1.06,4.91-1.93,7.48-2.84,1.9-.68,3.83-1.33,5.73-2.06v.03Z"/><path class="cls-6" d="m129.36,347.72c-3.56-1.04-9.28-1.95-10.67-7.47-1.01-4.03,3.95-7.24,9.14-5.38,0,0,2.79-4.12,6.55-3.95,7.86.34-2.24,13.17-2.24,13.17,0,0-2.79,3.63-2.79,3.63Z"/><path class="cls-6" d="m212.01,381.08c-.24.51-6.78,3.98-6.09,4.26l56.67,24.43,1.96-1.38-52.29-22.67-.24-4.64Z"/><path class="cls-6" d="m270.95,414.45c-.59.3-1.19.61-1.78.91-.22.11-.4.27-.62.37-.78.37-1.56.75-2.34,1.12-.34.17-.66.38-.98.6-.44.21-.79.6-1.43.46-.19-.02-.22-.13-.22-.39,0-.19,0-.38,0-.53,0-.1,0-.23.02-.31.03-.07.07-.13.12-.18l.55-.49c.19-.15.41-.26.62-.38.43-.23.87-.44,1.35-.62.57-.21,1.03-.62,1.55-.93.57-.35,1.16-.67,1.75-.99.36-.2.72-.4,1.08-.6.54-.31,1.1-.6,1.61-.96.4-.27.73-.64,1.11-.96.08-.07.15-.16.25-.2.36-.18.54-.12.84.24.07.08.14.16.2.24.2.28.2.62.04.89-.49.8-1.25,1.22-1.99,1.72-.56.35-1.14.67-1.71,1.01l-.03-.04Z"/><path class="cls-6" d="m292.83,267.36c-.88.17-1.77.31-2.65.44-.32.05-.63.14-.95.18-1.14.14-2.27.23-3.41.33-.5.03-1,.16-1.5.18-.64.07-1.28.13-1.94-.05-.2-.05-.18-.13-.03-.31.15-.15.42-.52.77-.68,1.23-.48,2.5-.59,3.8-.66.78-.03,1.56-.27,2.33-.43.85-.17,1.71-.34,2.55-.54.52-.13,1.04-.24,1.55-.39.78-.21,1.56-.44,2.29-.77.56-.26,1.07-.62,1.54-.98.11-.08.2-.17.31-.23.39-.26.58-.24.94.08.08.07.17.14.24.21.25.25.24.61-.04.94-.84.96-2.02,1.49-3.17,1.93-.86.31-1.75.56-2.63.77v-.04Z"/><path class="cls-3" d="m385.64,382.78l8.72-1.01-3.39,34.85s-18.2,7.71-23.42,6.65-6.03-2.94-1.95-4.98,20.27-8.82,20.27-8.82l-.22-26.7Z"/><path class="cls-3" d="m434.98,390.34c-.11-.52,4.3,23.5,3.28,24.14-1.02.64-17.98,9.77-19.79,11.04-1.81,1.27-6.15,5.07-3.33,6.25,2.82,1.18,20.33-5.13,20.33-5.13l8.79-4.32-2.77-33.08-6.51,1.09Z"/><path class="cls-6" d="m393.16,388.89c-.76-.16-1.51-.36-2.26-.55-.27-.07-.55-.09-.82-.17-.95-.33-1.86-.74-2.77-1.15-.4-.17-.81-.33-1.22-.49-.25-.12-.51-.23-.76-.36-.12-.06-.24-.15-.36-.23-.12-.07-.19-.25-.28-.37-.1-.18-.06-.19.14-.28.1-.05.26-.12.44-.22.17-.07.32-.08.47-.05,1.06.19,2.04.48,3.05.88.6.26,1.29.24,1.93.39.71.16,1.43.3,2.15.43.45.07.89.15,1.34.19.68.07,1.37.16,2.05.17.53,0,1.05-.14,1.57-.23.11-.02.23-.06.34-.07.43-.04.57.1.69.62.03.12.06.24.08.36.06.41-.1.75-.42.9-.96.43-2.01.54-3.06.55-.78-.02-1.55-.16-2.32-.28v-.05Z"/><path class="cls-6" d="m442.85,393.46c-.68.06-1.36.11-2.04.12-.25.01-.49.06-.74.05-.88-.03-1.74-.13-2.58-.24-.38-.05-.75-.09-1.12-.12-.47-.04-.96-.02-1.4-.29-.14-.09-.09-.28.06-.51.15-.24.41-.57.67-.57.94-.06,1.84-.11,2.76.08.55.11,1.12-.03,1.68-.08.61-.05,1.23-.13,1.85-.23.38-.06.76-.14,1.15-.22.58-.13,1.18-.24,1.75-.43.45-.15.86-.41,1.3-.61.1-.05.19-.11.29-.14.39-.08.54.04.72.54.04.11.09.23.12.34.11.39.03.75-.2.95-.68.57-1.47.78-2.3,1.02-.62.17-1.28.29-1.95.39v-.05Z"/><path class="cls-6" d="m384.75,221.45s25.03-12.39,31.25-18.05c6.21-5.65,16.59-23.97,15.06-26.42s32.7,59.9,36.63,85.94c3.93,26.03,15.08,77.24,14.59,94.95-.49,17.71,1.76,17.51-4.92,21.21-6.68,3.7-39.74,13.05-52.33,11.26-12.6-1.8-17-3.72-17-3.72,0,0,3.22-40.31,2.74-48.82s-4.58-54.71-7.92-64.97c-3.34-10.26-10.39-37.21-12.33-40.07-1.94-2.86-5.78-11.31-5.78-11.31Z"/><path class="cls-6" d="m400.7,387.77c15.86-116.39-14.95-166.32-14.95-166.32,0,0,4.45,48.26,3.33,66.36-1.12,18.1-7.18,58.24-9.99,68.1-2.81,9.85-7.15,22.97-7.15,22.97,0,0,9.21,5.98,16.62,7.3,7.41,1.32,12.13,1.59,12.13,1.59Z"/><path class="cls-6" d="m256.16,258.49c-.66-.25-1.32-.52-1.95-.85-.23-.12-.49-.18-.71-.33-.78-.5-1.51-1.1-2.14-1.77-.3-.28-.56-.59-.85-.88-.14-.22-.3-.43-.43-.65-.12-.23-.21-.48-.28-.74-.04-.16.12-.21.36-.2.23.02.58.07.77.25.38.29.73.56,1.02.9.31.3.64.62.98.95.4.4.98.59,1.49.86.57.29,1.16.58,1.78.81.38.15.76.28,1.16.4.59.18,1.2.36,1.81.45.48.07.96.05,1.45.06.11,0,.21-.01.32,0,.39.04.5.16.52.58,0,.1.02.19.01.29-.01.32-.21.56-.52.61-.9.14-1.82.04-2.75-.15-.69-.14-1.37-.34-2.04-.55v-.04Z"/><path class="cls-6" d="m256.24,267.96c-.65-.05-1.3-.1-1.95-.15-.24-.02-.48,0-.71-.03-.84-.11-1.68-.28-2.5-.57-.36-.13-.73-.22-1.08-.41-.45-.18-.92-.53-1.13-1.02-.07-.15.1-.21.33-.23.25-.02.47-.01.67.05.64.32,1.46.37,2.31.54.51.12,1.08.04,1.63.02.6-.01,1.22-.04,1.84-.08.38-.03.76-.05,1.14-.08.58-.04,1.17-.06,1.74-.18.44-.09.86-.29,1.3-.45.1-.04.19-.08.29-.09.37-.06.51.07.65.59.03.12.07.23.09.35.08.4-.03.75-.28.93-.72.53-1.55.63-2.4.75-.63.06-1.27.13-1.93.1v-.05Z"/><path class="cls-6" d="m263.18,272.94c-.74.14-1.49.26-2.24.36-.27.04-.54.12-.82.14-.98.1-2,0-3-.18-.45-.08-.9-.17-1.33-.36-.27-.13-.57-.25-.78-.48-.21-.24-.36-.53-.43-.82-.05-.18.01-.17.19-.13.17.06.52.08.79.07.24,0,.4.08.62.09.2.03.42,0,.64.04.44.06.92.09,1.42.14.61.04,1.24-.12,1.87-.2.7-.1,1.41-.21,2.11-.36.44-.09.87-.19,1.3-.3.65-.17,1.31-.35,1.95-.58.49-.18.94-.47,1.41-.7.1-.05.2-.12.31-.16.4-.16.58-.09.82.31.05.09.11.18.16.28.15.32.08.65-.17.86-.75.63-1.65,1.08-2.6,1.42-.71.23-1.45.41-2.19.59v-.04Z"/><path class="cls-6" d="m266.48,278.7c-.96.16-2,.28-3.16-.11l-.63-.26c-.2-.13-.4-.27-.58-.43-.54-.54-.91-1.37-.85-2.19.06-.81.43-1.43.8-1.93.34-.45.69-.86,1.04-1.25.26-.22.51-.44.79-.62.26-.21.64-.27.95-.39.21-.06.23,0,.2.24-.02.17-.04.34-.05.48-.01.12-.02.23-.03.32,0,.06-.02.1-.02.17-.02.04-.04.08-.07.12-.17.28-.33.55-.48.82-.17.25-.38.44-.55.66-.36.42-.66.83-.81,1.19-.11.22-.07.42.03.62.09.2.33.42.47.54.38.34,1.21.42,2,.34.5-.06,1.01-.15,1.51-.29.76-.21,1.53-.48,2.24-.84.56-.28,1.04-.68,1.53-1.05.11-.08.2-.18.32-.24.42-.26.6-.24.94.05.08.07.16.13.23.2.24.24.22.6-.06.92-.81.94-1.89,1.55-3.04,2.08-.86.38-1.76.68-2.73.9v-.04Z"/><path class="cls-6" d="m297.24,248.09c.81.56,1.57,1.18,2.32,1.82.28.22.58.42.84.65.93.84,1.83,1.72,2.7,2.61.38.4.77.8,1.15,1.18.49.49.99,1,1.38,1.59.12.18,0,.26-.25.25-.25-.01-.64-.09-.97-.32-1.15-.83-2.33-1.55-3.29-2.58-.59-.6-1.36-1.03-2.06-1.52-.77-.54-1.55-1.06-2.33-1.58-.48-.32-.97-.64-1.47-.93-.76-.44-1.53-.89-2.33-1.22-.63-.25-1.3-.37-1.96-.52-.14-.03-.29-.04-.43-.09-.52-.18-.62-.39-.54-.98.02-.13.03-.27.06-.4.1-.44.44-.71.89-.7,1.33.02,2.56.57,3.75,1.17.88.45,1.73.99,2.56,1.53l-.02.04Z"/><path class="cls-6" d="m312.15,179.62c.35-1.14.68-2.29.97-3.45.09-.43.19-.85.28-1.28.36-1.5.7-3,.96-4.52.12-.67.21-1.35.3-2.03.1-.87.19-1.74.32-2.6.04-.27.14-.23.24,0,.1.24.22.67.23,1.18,0,.9-.04,1.8-.11,2.7-.09.9-.24,1.79-.43,2.68-.22,1.06-.35,2.18-.56,3.27-.23,1.2-.5,2.39-.79,3.57-.17.73-.39,1.45-.59,2.17-.32,1.09-.67,2.18-1.02,3.26-.27.84-.49,1.68-.8,2.51-.07.18-.13.37-.21.55-.32.67-.53.83-.9.79-.08-.01-.17-.01-.25-.04-.26-.09-.31-.45-.14-.91.48-1.4.98-2.89,1.46-4.42.36-1.13.7-2.29,1.01-3.45h.03Z"/><path class="cls-6" d="m308.44,257.32c-.66-.52-1.27-1.09-1.8-1.69-.2-.21-.42-.39-.61-.61-.67-.76-1.31-1.52-2.02-2.19-.31-.3-.66-.57-1.01-.82-.45-.32-.92-.6-1.38-.91-.14-.1-.09-.17.09-.21.18-.03.5-.04.81.09,1.1.46,2.12,1.09,2.98,1.87.51.47,1.12.86,1.68,1.28.61.47,1.2.92,1.8,1.34.37.26.75.5,1.15.71.6.31,1.23.59,1.88.71.5.09,1.01-.01,1.47-.13.1-.02.2-.07.29-.09.36-.07.49.02.71.58.05.12.11.25.15.37.15.42.05.83-.33,1.03-1.12.54-2.51.48-3.63.02-.85-.33-1.59-.81-2.27-1.31l.02-.04Z"/><path class="cls-6" d="m427.5,175.86c-.12-1.07-.27-2.16-.57-3.22-.09-.39-.26-.76-.38-1.14-.42-1.35-1-2.67-1.7-3.92-.3-.56-.69-1.08-1.05-1.59l-.76-.96c-.27-.31-.53-.62-.79-.94-.16-.2-.1-.22.11-.12.21.1.58.3.96.61,1.27,1.14,2.47,2.44,3.26,4,.48.92,1.01,1.87,1.43,2.85.23.54.4,1.1.6,1.65.15.57.33,1.12.45,1.7.17.7.26,1.42.35,2.13.14,1.08.15,2.18.2,3.26,0,.42.03.84.07,1.26.02.42.02.84.03,1.26,0,.19.02.37-.01.56-.08.69-.25.89-.77.94-.12.01-.24.03-.35.03-.39-.01-.67-.34-.71-.82-.14-1.42-.07-2.84-.11-4.29,0-.54-.06-1.07-.07-1.62-.07-.54-.1-1.08-.19-1.62h.04Z"/><path class="cls-6" d="m375.57,169.44c-.33,3.23-.81,6.43-1.33,9.62-.2,1.16-.36,2.33-.58,3.49-.9,4.06-1.94,8.08-3.15,12.04-.53,1.76-1.13,3.51-1.67,5.25-.38,1.11-.77,2.22-1.2,3.31-.45,1.08-1.01,2.13-1.53,3.17-.33.65-.36.53-.28-.1.09-.63.21-1.79.51-3.09,1.22-4.57,2.11-9.18,3.41-13.75.76-2.74,1.12-5.69,1.61-8.56.56-3.15,1.02-6.32,1.37-9.5.22-1.96.37-3.92.49-5.88.12-2.97.23-5.97-.05-8.91-.1-1.14-.23-2.27-.49-3.36-.23-1.1-.44-2.2-.79-3.25-.14-.47-.3-.92-.42-1.39-.56-1.69-.56-2.28-.03-2.94.12-.15.23-.33.36-.44.43-.39,1.12.16,1.83,1.48,1.84,3.99,2.28,8.53,2.42,12.95l.03,2.47-.09,2.47c-.04,1.65-.2,3.28-.32,4.91h-.07Z"/><path class="cls-6" d="m343.57,118.93c1.8.35,3.58.76,5.34,1.23.64.17,1.3.27,1.93.47,2.24.67,4.43,1.45,6.58,2.3.96.38,1.93.73,2.88,1.08,1.25.4,2.43,1,3.54,1.71.35.22.24.34-.17.42-.4.07-1.12.16-1.86.04-.33-.07-.67-.09-.98-.2l-.94-.3-1.88-.59c-1.25-.39-2.5-.8-3.73-1.31-1.48-.58-3.1-.89-4.67-1.28-1.73-.41-3.46-.81-5.21-1.1-1.08-.2-2.16-.35-3.24-.46-.82-.1-1.65-.13-2.47-.2-.82-.04-1.65-.02-2.46,0-.63.05-1.25.14-1.87.24-.62.11-1.21.29-1.82.41-.27.06-.52.14-.78.21-.97.25-1.32.14-1.7-.49-.09-.14-.19-.28-.26-.43-.23-.5.09-1.02.85-1.34,2.27-.91,4.85-1.21,7.36-1.09.94.01,1.86.13,2.8.21.92.13,1.85.24,2.76.39v.06Z"/><path class="cls-6" d="m260.38,105.66c-2.78,12.22-22.3,22.57-34.24,12.12,0,0-9.05-5.49-4.93-22.93,4.12-17.44,32.1-19.12,32.1-19.12,0,0-.13-12.09,1.8-16.33,1.93-4.24,7.99-12.54,15.16-15.57,10.42-4.4,26.32-3.1,36.58,5.95,10.6,9.35,19.27,38.23,2.45,49.12,0,0,3.89-10.2,1.67-13.59-2.22-3.39-6.93-7.77-10.57-6.2s-5.29,4.83-5.15,7.94,1.77,6.04,1.77,6.04c0,0,.61,8.18-10.81,3.08-11.42-5.1-18.91-5.64-21.45-.74-2.55,4.9-4.39,10.23-4.39,10.23Z"/><path class="cls-6" d="m58.39,363.12l-3.05.97c-.37.12-.71.31-1.08.43-1.32.39-2.64.77-3.97,1.12-.59.15-1.16.37-1.72.57-.72.27-1.4.67-2.3.46-.28-.07-.29-.2-.21-.56.08-.36.22-1.06.59-1.33.69-.36,1.38-.72,2.09-1.03.35-.16.71-.3,1.08-.43.37-.11.76-.2,1.15-.28.93-.19,1.78-.69,2.67-1.05l2.96-1.16,1.83-.71c.92-.37,1.86-.71,2.75-1.15.69-.34,1.3-.83,1.97-1.24.15-.09.28-.21.43-.28.59-.24.86-.12,1.25.54.09.15.19.3.26.45.25.52.19,1.07-.15,1.42-1.02,1-2.27,1.56-3.56,2.14-.96.42-1.96.79-2.95,1.18l-.03-.06Z"/><path class="cls-6" d="m429.77,421.12c-4.1,2.1-8.25,4.23-11.92,6.77-.32.24-.64.49-.93.75l-.43.39c-.11.1-.09.08-.14.14-.14.15-.29.29-.35.5-.05.21.16.33.33.39.09.03.19.05.3.07.05,0,.1.02.17.02h.45c1.36-.03,2.79-.22,4.21-.47,2.85-.53,5.71-1.28,8.52-2.18,2.5-.8,4.94-1.81,7.28-2.93,1.51-.71,2.95-1.55,4.42-2.31,1.47-.78,2.88-1.6,4.41-2.27,1.07-.29,1.03-.17.7.88-.16.54-.49,1.19-.95,1.94-.49.71-1.18,1.39-2.02,1.96-1.48,1.03-3.07,1.86-4.68,2.61-1.61.76-3.24,1.46-4.9,2.09-3.32,1.25-6.72,2.31-10.26,2.94-2.13.37-4.27.78-6.6.9h-.45c-.15,0-.42.02-.63,0-.44-.04-.89-.07-1.31-.14-.83-.18-1.57-.48-2.15-.96-.57-.47-.92-1.3-.81-2.03.08-.72.42-1.44,1-2.1.57-.73,1.53-1.45,1.9-1.73.5-.38,1.01-.72,1.51-1.06,1-.69,2.02-1.32,3.04-1.93,2.05-1.22,4.13-2.34,6.22-3.43,2.57-1.35,5.17-2.63,7.75-3.92l2.92-1.47c.57-.3.71-.35.99-.54.08-.12.07-.29.08-.43,0-.15,0-.27-.02-.58-.12-2.12-.39-4.3-.7-6.43-.48-3.33-1.19-6.56-1.87-9.81-.15-.72-.33-1.41-.47-2.13-.27-1.34-.36-2.23-.31-2.88.09-.66.31-1.07.59-1.43.13-.16.22-.36.33-.47.18-.17.4,0,.8.43.41.43.82,1.16,1.1,2.14.85,2.9,1.45,5.92,2,9,.54,3.08.98,6.21,1.31,9.41.05.61.12,1.19.15,1.83l.03.47c.03.24-.02.56-.05.82l-.09.84c-.08.26-.11.54-.25.77-.16.21-.32.42-.53.6-.23.17-.47.32-.73.47l-1.03.56-1.59.81-6.26,3.21-.04-.06Z"/><path class="cls-6" d="m448.38,405.1l-.04,6.3c0,.77.07,1.53.05,2.29-.1,2.7-.2,5.4-.3,8.1-.06,1.2-.07,2.4-.05,3.59-.04,1.52-.05,3.06-.47,4.58-.16.47-.33.41-.68,0-.39-.4-.93-1.14-1.11-2.01-.14-.77-.32-1.55-.42-2.32-.05-.77-.11-1.55-.14-2.32-.11-1.55.07-3.1.18-4.67.18-1.87-.03-3.81-.06-5.72l-.02-6.31-.05-3.89c-.05-1.96-.06-3.93-.22-5.88-.13-1.51-.41-2.98-.58-4.47-.04-.33-.11-.65-.13-.98-.11-1.23.13-1.63.83-1.94.16-.07.31-.16.47-.2.26-.08.51,0,.74.21.23.21.47.55.59.99.38,1.32.67,2.68.89,4.07.2,1.39.28,2.8.37,4.22.12,2.11.15,4.23.22,6.34h-.08Z"/><path class="cls-6" d="m381.31,414.16c-3.87,1.63-7.75,3.13-11.43,4.89-.67.32-1.32.67-1.94,1.04l-.84.5c-.13.07-.25.16-.37.29-.14.37.23.61.57.69.09.03.18.05.28.07.03.02.43.05.66.07.55.04,1.11.06,1.68.05,2.29-.02,4.64-.29,6.96-.68,2.3-.39,4.57-1.03,6.78-1.73,1.41-.46,2.8-1,4.16-1.56.69-.26,1.34-.59,2.03-.81.7-.21,1.4-.43,2.1-.66.9-.22,1.04.08.72,1.1-.16.51-.48,1.15-.95,1.84-.24.34-.5.7-.83.99-.34.28-.72.5-1.14.71-2.98,1.35-6.02,2.4-9.16,3.06-3.13.67-6.32,1.12-9.62,1.13-.7,0-1.4,0-2.12-.03-.36-.01-.72-.03-1.1-.06-.18-.02-.36-.01-.67-.07l-.83-.12c-1.08-.22-2.1-.58-2.79-1.2-.77-.56-1.1-1.61-1.02-2.53.22-.71.45-1.38,1.2-1.96.3-.31.74-.55,1.12-.82l1.16-.72c3.85-2.11,7.76-3.61,11.64-5.25l3.56-1.49c.59-.25,1.17-.51,1.75-.78.55-.26,1.18-.56,1.61-.81.2-.13.5-.25.5-.54l.06-.46.05-.71c.06-.96.1-1.93.13-2.9.05-1.95.08-3.89.05-5.83-.05-3.01-.33-5.96-.59-8.91-.05-.65-.15-1.28-.2-1.94-.04-.61-.07-1.11-.07-1.53.02-.42.11-.77.18-1.06.14-.57.42-.92.76-1.22.15-.13.29-.31.42-.39.37-.28,1.17.67,1.65,2.47.93,5.37,1.13,11.03,1.09,16.74-.03,1.06-.07,2.13-.13,3.2l-.12,1.63c-.03.3-.04.52-.09.88-.1.47-.13.92-.3,1.4l-.13.35-.23.3c-.16.19-.32.39-.51.55l-.62.45-.54.31c-.53.3-1.03.54-1.52.78-.99.47-1.97.91-2.94,1.34l-.04-.07Z"/><path class="cls-6" d="m397.04,401.06l-.33,6.11c-.04.74,0,1.49-.05,2.23-.19,2.62-.38,5.25-.57,7.87-.08,1.16-.07,2.34-.17,3.49-.06.74-.06,1.49-.18,2.23-.06.37-.12.74-.2,1.11-.06.37-.27.73-.39,1.1-.2.45-.23.39-.47-.02-.12-.2-.32-.49-.57-.84-.21-.34-.35-.74-.43-1.17-.15-.76-.22-1.51-.27-2.27-.05-.75-.14-1.51-.06-2.26.09-1.5.22-3.01.41-4.53.23-1.82.11-3.71.16-5.58.05-2.05.15-4.1.23-6.16l.15-3.79c.06-1.92.17-3.84.17-5.74,0-1.48-.16-2.94-.24-4.41-.02-.32-.07-.64-.04-.97.07-1.21.28-1.58,1.06-1.8.17-.05.33-.12.49-.14.5-.09,1.05.43,1.21,1.31.29,1.31.34,2.64.39,3.99.04,1.35.02,2.72,0,4.09-.07,2.04-.13,4.09-.2,6.14h-.07Z"/><path class="cls-6" d="m381.5,335.74c2.03-9.77,3.58-19.64,4.68-29.57.35-3.63.54-7.27.87-10.9.9-12.81,1.03-25.7.21-38.54-.11-2.85-.5-5.69-.74-8.54-.22-2.85-.63-5.67-1.01-8.48-.45-3.61-1.1-7.2-1.63-10.81-.49-3.62-1.18-7.2-1.67-10.82-.13-2.3-.14-1.99.66-.2.42.89.9,2.19,1.5,3.76.29.79.6,1.64.92,2.56.15.46.31.93.47,1.42.12.49.23,1,.36,1.51.81,3.67,1.74,7.32,2.19,11.06l.84,5.58c.26,1.86.43,3.74.64,5.61.17,1.87.36,3.75.49,5.63l.29,5.65c.24,3.77.21,7.55.23,11.33.04,2.26-.01,4.55-.05,6.84-.04,2.3-.02,4.61-.08,6.93-.21,4.63-.25,9.31-.69,13.91-.7,10.15-2.11,20.24-3.88,30.24-.6,3.07-1.1,6.16-1.8,9.21l-2.06,9.15c-.6,2.29-1.2,4.58-1.8,6.88l-.91,3.44-1.02,3.4c-.68,2.27-1.35,4.54-2.03,6.8-.75,2.24-1.5,4.47-2.25,6.7-.18.53-.35,1.05-.53,1.57l-.26.78-.1.29c-.04.07,0,.14-.1.2-.02.2-.15.42,0,.6.12.17.3.3.47.42.1.06.15.1.29.18.15.09.29.18.46.27.31.18.63.34.96.51,1.32.64,2.71,1.19,4.11,1.68,2.81.98,5.71,1.74,8.64,2.32,1.52.3,3.02.52,4.57.73,2.86.38,4.75.53,6.08.76,1.33.22,2.1.5,2.73.94.29.2.68.4.85.61.61.66-1.84,1.48-6.32,1.32-4.46-.17-8.97-.9-13.42-2.11-2.23-.61-4.44-1.33-6.64-2.25-1.1-.46-2.2-.97-3.32-1.61-.14-.08-.28-.17-.42-.26-.11-.07-.34-.2-.57-.39-.22-.17-.45-.33-.66-.51l-.59-.57c-.31-.42-.61-.85-.73-1.37-.04-.12.02-.26-.06-.38l.07-.38.14-.77c-.18-.02-.05,0-.09-.01h0s0-.02,0-.02v-.02s.02-.05.02-.05l.03-.1.06-.2.13-.4.19-.59.24-.78.49-1.56c.33-1.04.66-2.08.99-3.13.35-1.04.7-2.08,1.05-3.12.33-1.05.63-2.11.95-3.16.72-2.4,1.44-4.81,2.16-7.21l1.93-7.29c.32-1.22.66-2.43.95-3.65l.83-3.68c.54-2.46,1.15-4.9,1.63-7.37h.09Z"/><path class="cls-6" d="m419.61,201.4c-1.29,1.26-2.54,2.56-3.92,3.71l-2.03,1.77-2.12,1.65c-1.01.82-2.02,1.64-3.11,2.37-3.81,2.57-7.82,4.8-12,6.61l-1.38.63-1.4.58c-.93.39-1.86.79-2.78,1.18-1.21.44-2.43.85-3.66,1.23-.62.17-1.27.25-1.91.37l-.96.15c-.32.04-.66.03-.98.05-.82,0-.72-.06-.17-.58.54-.56,1.52-1.55,2.79-2.23,1.14-.57,2.27-1.16,3.41-1.68,1.16-.48,2.28-1.07,3.43-1.57,1.16-.48,2.24-1.14,3.4-1.64,1.17-.49,2.28-1.09,3.43-1.64,2.77-1.31,5.27-3.29,7.76-5.16.71-.49,1.34-1.06,2.01-1.59l2-1.62,1.91-1.73c.64-.57,1.28-1.15,1.87-1.77l2.22-2.27,2.06-2.41c.53-.6,1.02-1.24,1.49-1.89l1.44-1.93c.91-1.32,1.75-2.69,2.54-4.06.55-1.11,1.05-2.23,1.53-3.35.44-1.14.78-2.31,1.19-3.45.19-.5.31-1.01.45-1.53.56-1.9,1.08-2.39,2.26-2.47.27-.02.54-.07.79-.06.83.04,1.27,1.07.98,2.62-.86,4.59-2.96,9.15-5.69,13.23-.47.79-1.02,1.52-1.56,2.25l-1.64,2.19c-1.2,1.37-2.34,2.81-3.61,4.11l-.07-.06Z"/><path class="cls-6" d="m282.23,269.76c-2.36.93-4.66,2.69-7.13,4.26-.9.58-1.77,1.22-2.72,1.76-.84.47-1.7.93-2.64,1.3-.97.38-1.7.71-3.39.92-1.44.13-2.68-.15-3.58-.72-.19-.17-.4-.34-.53-.61-.13-.26-.16-.57-.12-.82.09-.51.33-.96.69-1.44.35-.41.75-.83,1.24-1.22.23-.2.48-.39.73-.58.12-.1.26-.18.38-.27l.27-.19c.69-.46,1.39-.92,2.07-1.38.87-.6,1.79-1.11,2.7-1.61.94-.46,1.93-.84,2.84-1.32.56-.3.55-.23.28.32-.28.53-.81,1.61-1.63,2.59-.38.4-.81.74-1.21,1.11l-.6.54-.65.46-2.4,1.74c-.05,0-.18.02-.37.15-.23.18-.1.35.06.45.1.07.32.07.47.04.2-.03.53-.15.79-.25.28-.09.56-.2.83-.34,1.11-.5,2.2-1.17,3.28-1.86,2.4-1.5,4.65-3.27,7.27-4.83,1.65-.95,3.41-1.58,5.14-2.13,2.62-.84,5.27-1.42,7.73-2.35,1.91-.72,3.64-1.72,5.22-2.85.34-.26.68-.51,1-.78,1.23-.98,1.78-1.09,2.56-.79.18.07.37.12.52.21.5.28.33,1.13-.51,2.22-1.37,1.45-3.1,2.63-4.92,3.55-1.83.93-3.76,1.6-5.65,2.19-2.81.88-5.58,1.54-8,2.62l-.04-.07Z"/><path class="cls-6" d="m258.77,269.05c-.21.08-.18.29-.06.34.06.04.14.07.24.09l.16.03s.12,0,.25,0l.37-.03c.72-.06,1.44-.26,2.18-.38,2.61-.43,5.27-1.08,7.86-1.9,1.15-.38,2.28-.82,3.38-1.28,1.4-.64,2.81-1.24,4.32-1.63.47-.12.61.24.46.84-.15.58-.55,1.53-1.33,2.05-1.35.97-2.85,1.61-4.34,2.26-1.54.54-3.11,1-4.73,1.32-1.93.39-3.85,1.1-5.87,1.46-.55.1-1.12.18-1.69.24l-.43.04-.63.05c-.44.03-.86,0-1.28,0-1.67-.12-2.93-.61-3.61-1.77-.19-.37-.24-.83-.1-1.18.13-.36.3-.67.57-.97.5-.61,1.34-1.19,2.25-1.63.34-.17.69-.32,1.03-.48l.72-.33c.47-.21.95-.4,1.42-.59.95-.37,1.9-.74,2.84-1.1,1.46-.57,2.85-1.23,4.31-1.8.32-.12.63-.27.96-.37,1.22-.4,1.69-.32,2.12.27.1.14.21.27.28.41.23.48-.14,1.01-.96,1.42-2.44,1.21-5.1,2.24-7.68,3.34l-1.43.62-1.28.59s-.1,0-.17.04h-.13Z"/><path class="cls-6" d="m253.63,263.09c-.09.03-.22.08-.27.17-.04.09,0,.14.06.19.13.09.28.14.65.16.83-.02,1.67-.16,2.52-.22,3-.22,6.05-.61,9.06-1.17,1.34-.23,2.67-.56,3.96-.93.83-.24,1.65-.51,2.47-.77.42-.12.85-.17,1.28-.25.43-.08.86-.13,1.31-.15.56-.02.6.25.33.84-.27.61-.87,1.54-1.79,2.08-3.42,1.32-6.93,2.27-10.61,2.56-2.19.19-4.4.72-6.66.91l-.93.07-1.03.05c-.99.04-1.96.02-2.85-.07-.84-.14-1.58-.34-2.12-.67l-.39-.27c-.12-.11-.23-.21-.34-.33-.24-.24-.32-.62-.39-.98.06-.91.54-1.46,1.22-2.05.69-.57,1.66-1.12,2.75-1.51.39-.12.85-.32,1.17-.37l.82-.27c.55-.18,1.1-.34,1.65-.5,1.1-.3,2.2-.61,3.29-.91,1.7-.46,3.34-1.02,5.04-1.45.38-.1.74-.21,1.13-.28,1.43-.29,1.97-.04,2.33.61.08.15.18.3.23.45.14.51-.35.98-1.3,1.34-2.85.91-5.94,1.74-8.97,2.64-1.12.34-2.25.69-3.3,1.09-.04,0-.11,0-.21.03h-.14Z"/><path class="cls-6" d="m264.09,249.59c1.56.11,3.11.23,4.63.3h.23s.04.02.04.02h.09s.21.04.21.04c.06,0,.2.03.19-.05l-.04-.19-.06-.19-.04-.1-.02-.05-.09-.18c-.29-.54-.62-1.08-.97-1.61-.43-.64-.92-1.28-1.42-1.93l-.37-.49-.19-.25c-.06-.08-.17-.25-.25-.38-.33-.55-.52-1.11-.62-1.65-.08-.48-.13-.95-.11-1.4,0-.23,0-.46.02-.69-.03-.28.08-.61.12-.91.09-.3.15-.6.25-.9l.14-.44.22-.39c.3-.51.67-.93,1.09-1.25.4-.32.91-.55,1.45-.51.52.03,1,.25,1.47.53.9.59,1.88,1.74,2.23,2.17,1.88,2.29,3.54,4.6,5.51,6.49.86.82,1.83,1.56,2.78,1.85.23.07.46.11.68.12.25.01.58,0,.86,0,.59-.04,1.19-.1,1.79-.19,1.53-.25,3.05-.71,4.55-1.2,1.51-.47,2.99-1.03,4.49-1.54.98-.22,1-.07.52.86-.24.47-.67,1.02-1.23,1.62-.58.57-1.35,1.13-2.25,1.55-.8.37-1.62.69-2.48.94-.85.27-1.71.5-2.6.67-.88.19-1.8.3-2.74.37l-.71.02c-.1,0-.25,0-.43-.01l-.49-.04c-.62-.11-1.21-.28-1.71-.51-2.01-.93-3.32-2.23-4.54-3.52-1.2-1.32-2.23-2.68-3.24-4.02-.3-.4-.6-.79-.91-1.17l-.69-.83c-.1-.12-.22-.24-.36-.33-.07-.04-.15-.09-.23-.07-.08.02-.14.09-.19.15-.11.12-.18.28-.23.44-.03.08-.04.16-.06.24l-.06.44c-.02.39.02.77.11,1.1.05.16.1.3.16.43.04.06.06.1.1.17l.22.31c.68.95,1.41,1.92,2.08,2.98.34.54.65,1.06.96,1.67.43.86.8,1.73,1.06,2.58.07.2.05.35.08.53,0,.16.06.36.02.48-.06.25,0,.6-.31.8-.47.37-1.18.52-1.96.62-.4.05-.81.08-1.23.07h-.63s-.43-.01-.43-.01l-1.63-.06c-2.41-.12-4.82-.24-7.23-.37-.56-.02-1.14-.05-1.74-.05-.6.01-1.25-.02-1.85.17-.07.03-.15.08-.16.15-.01.07.04.13.08.19.07.12.17.23.28.32.21.19.46.34.73.47.52.27,1.1.47,1.68.65.45.14.92.24,1.36.33l1.9.36c1.56.27,3.13.49,4.7.69.69.07,1.37.14,2.07.21,2.59.28,3.35.48,3.87,1.33.12.18.29.36.36.54.28.56-.91,1.19-2.91,1.11-2.95-.09-5.95-.37-8.98-.92l-1.14-.22c-.24-.05-.69-.14-1.02-.23l-1.08-.27c-1.4-.39-2.88-.79-4.18-1.27-.36-.11-.61-.25-.86-.38-.25-.13-.53-.27-.74-.4l-.66-.4-.49-.41c-.28-.27-.51-.54-.68-.81-.19-.27-.35-.54-.45-.82-.12-.43-.19-.88-.01-1.57.16-.48.31-.71.57-1,.25-.27.59-.54,1.14-.76.54-.23,1.37-.38,2.36-.44,2.01-.12,4.37-.02,6.58.07l3.69.2v.08Z"/><path class="cls-6" d="m292.03,140.86c1.4-.11,2.74-.35,4.09-.8,1.37-.42,2.7-.97,3.98-1.63.46-.26.91-.53,1.35-.8.43-.31.85-.62,1.29-.91,3.06-2.09,5.71-4.9,7.67-8.16.3-.49.57-1,.82-1.52.12-.26.24-.52.35-.78l.08-.2.1-.26.23-.64c.3-.26.7-.57.96-.76.24-.18.49-.35.74-.51,1.01-.66,2.09-1.25,3.29-1.64.61-.18,1.25-.24,1.9-.25.33.02.65,0,.97.08.32.08.63.3.91.48.69.54.52.48-.13.92-.32.17-.74.79-1.12,1.03-.4.32-.8.62-1.26.84-.67.24-1.37.5-2.04.87-.34.18-.67.38-1,.59l-.46.31s-.01,0-.02,0h-.02s-.21.5-.21.5c-.15.35-.32.68-.49,1.02-.34.66-.71,1.31-1.11,1.94-.81,1.24-1.7,2.43-2.73,3.5-1.99,2.13-4.08,4.34-6.6,5.98-2.76,1.8-5.79,3.05-9.03,3.73-1.99.39-4.02.47-6.01.35-3.03-.17-5.96-.96-8.74-1.93-2.16-.77-4.31-1.52-6.33-2.6-.44-.24-.88-.46-1.31-.72-.79-.52-1.21-.99-1.44-1.41-.24-.4-.29-.76-.25-1.14.02-.17,0-.35.04-.48.09-.41,1.03-.44,2.31-.04,3.62,1.42,7.08,3.19,10.82,4.17,1.38.36,2.78.63,4.19.79,1.41.13,2.82.16,4.21.02v.08Z"/><path class="cls-6" d="m264.55,140.83c-.44-.27-.88-.58-1.25-.91-.32-.36-.69-.71-.93-1.09-.52-.75-.88-1.53-1.18-2.29-.19-.56-.47-1.08-.57-1.64-.44-1.97-.52-3.89-.56-5.78,0-.84-.07-1.68-.11-2.5-.02-.53-.1-1.07-.04-1.6.01-.54.21-1.07.41-1.58.14-.32.52-.24.96.07.42.31,1.06.82,1.19,1.4.19,2.03.18,4.04.2,6.1,0,1.23.43,2.44.8,3.56.42,1.22.98,2.39,1.81,3.09.18.12.35.24.53.37.19.07.41.16.55.23.14.02.3.09.44.03.18,0,.34-.09.48-.2.07-.07.14-.1.21-.2l.23-.3c.28-.47.52-1.02.66-1.63.23-.94.18-1.94.19-2.95,0-.22-.03-.45,0-.68.07-.84.35-1.17,1.22-1.17.2,0,.39,0,.58.03.32.06.59.21.8.37.21.14.35.4.4.69.15.91.17,1.9.06,2.93-.12,1.03-.34,2.1-.87,3.27-.33.69-.74,1.44-1.72,2.23-.48.31-.99.59-1.55.68l-.42.08-.43-.03-.85-.05c-.51-.16-.89-.3-1.28-.45l.03-.07Z"/><path class="cls-6" d="m289.1,40.08c7.33,1.27,14.4,4.46,20.03,9.34,2.05,1.77,4.01,3.67,5.65,5.82,2.89,3.79,5.08,8.03,6.68,12.42,1.6,4.4,2.66,9.03,2.82,13.74.15,4.16-.36,8.48-2.21,12.34-1.17,2.46-3.02,4.77-5.56,6.12-1.26.66-2.67,1.03-4.07,1.12-1.4.07-2.78-.12-4.06-.56-1.52-.83-1.27-.64.14-.83,1.41-.21,3.82-.71,5.94-1.9,1.94-.96,3.5-2.62,4.53-4.68,1.04-2.05,1.62-4.4,1.86-6.8.56-4.83-.15-9.9-1.55-14.78-1.73-5.87-5-11.53-9.16-16.09-4.55-5.08-10.61-8.73-17.24-10.61-4.07-1.16-8.35-1.7-12.61-1.6-1.61.05-3.22.18-4.79.44-.79.12-1.55.29-2.3.51-.76.25-1.53.47-2.28.75-2.99,1.12-5.77,2.77-8.08,4.91-1.79,1.66-3.31,3.59-4.43,5.72-1.13,2.12-1.94,4.39-2.51,6.73-.18,1.05-.42,2.05-.53,3.12-.52,3.93-.6,5.21-1.61,6.09-.22.2-.45.47-.67.6-.38.21-.72-.11-.99-.88-.27-.78-.5-2.02-.45-3.62-.03-1.19.14-2.39.23-3.6.08-.6.2-1.2.3-1.81.1-.61.22-1.21.4-1.81.57-2.42,1.56-4.79,2.82-7.04,1.25-2.26,2.92-4.32,4.83-6.11,1.91-1.8,4.08-3.35,6.43-4.51,1.72-.91,3.54-1.59,5.39-2.15,1.96-.58,3.88-.84,5.77-1,3.79-.29,7.57-.11,11.29.51v.09Z"/><path class="cls-6" d="m233.19,128.88c-1.92-.39-3.73-1.19-5.44-2.1-.81-.53-1.68-.98-2.41-1.62l-1.14-.9-1.04-1.01c-2.76-2.7-4.66-6.14-5.77-9.77-.78-2.66-1.15-5.47-.94-8.23.42-4.86,2.18-9.4,4.6-13.41,2.43-4.03,5.6-7.56,9.26-10.46,3.25-2.57,6.92-4.68,10.86-6,2.53-.85,5.22-1.28,7.92-1.27,2.7-.05,5.38.69,7.73,1.87,1.46.78,1.16.85-.26.9-.7,0-1.71.12-2.85.26-.58.11-1.17.13-1.8.19-.31.04-.63.08-.96.12-.32,0-.65,0-.99.01-2.38.02-4.74.46-7.01,1.16-2.29.66-4.51,1.63-6.61,2.85-4.19,2.46-7.89,5.87-10.93,9.84-3.61,4.74-5.9,10.95-5.58,16.88.18,3.26,1.22,6.47,2.93,9.29,1.78,2.75,4.18,5.19,7.13,6.66,1.78.97,3.77,1.53,5.78,1.79,2.01.29,4.1.12,6.16-.23,3.11-.52,6.08-1.7,8.54-3.62,2.46-1.92,4.37-4.5,5.79-7.34,2.26-4.42,3.31-9.27,5.05-14.11.39-1.07.77-2.13,1.29-3.2.98-1.97,1.92-3.21,2.78-3.88.88-.65,1.56-.83,2.23-.74.3.04.64.04.85.14.36.17.29.64-.04,1.28-.32.66-.84,1.55-1.52,2.73-1.99,3.53-3.1,7.97-4.7,12.44-1.57,4.46-3.61,9.24-7.26,13.14-2.72,2.86-6.33,4.97-10.09,5.95-1.88.55-3.78.78-5.68.94-1.97.07-3.97,0-5.9-.47v-.08Z"/><path class="cls-6" d="m458.3,240.41c-5.66-17.02-12.73-33.57-21.29-49.35l-4.9-8.51c-1.6-2.88-3.36-5.54-5.2-8.21-6.5-9.38-14.55-17.68-23.56-24.78-9.02-7.1-18.97-13.04-29.42-17.89-9.27-4.3-19.05-7.71-28.9-10.05-2.21-.52-4.43-.98-6.65-1.34-1.11-.18-2.22-.34-3.32-.45-.55-.05-1.09-.1-1.6-.11-.23.02-.52-.05-.66.18-.08.08-.13.18-.2.27-.05.09-.18.31-.27.5-.18.4-.35.82-.48,1.29-.28.92-.47,1.94-.68,2.99-.4,2.09-.83,4.34-1.82,6.49-.95,2.17-2.68,4.08-4.71,5.29-2.04,1.22-4.3,1.8-6.5,2.02-1.06.1-1.82.09-2.3.04-.49-.04-.7-.11-.68-.21.04-.22,1.05-.47,2.67-1.13,1.59-.64,3.86-1.71,5.71-3.5,1.85-1.82,2.85-4.35,3.52-7.88.27-1.29.47-2.68.81-4.17.18-.75.4-1.54.72-2.35.17-.42.36-.82.61-1.25.11-.24.37-.55.57-.81.2-.28.42-.55.66-.8l.43-.32c.2,0,.31-.17.49-.23.31-.19.68-.23,1.04-.28.37-.02.74-.07,1.12-.05.27,0,.46.01.67.03.84.05,1.64.13,2.42.24,1.57.21,3.09.48,4.6.78,3.02.6,6,1.33,8.94,2.15,5.89,1.64,11.67,3.62,17.33,5.91,11.32,4.59,22.18,10.41,32.16,17.59,6.65,4.79,13.1,10.17,18.99,16.19,5.88,6.03,11.18,12.72,15.53,19.93,9.45,15.68,17.38,32.27,23.8,49.38l2.92,7.92,2.62,8.02c.43,1.34.89,2.67,1.3,4.01l1.17,4.05c.77,2.7,1.58,5.4,2.32,8.1,4.42,16.44,7.63,33.26,10.14,49.94,1.93,12.98,3.56,25.73,4.84,38.64.25,2.84.5,5.63.76,8.5.45,5.32.55,8.84.52,11.31-.05,2.48-.29,3.91-.75,5.08-.21.53-.4,1.23-.62,1.54-.75,1.06-1.66-3.24-2.34-10.99-1.1-11.49-2.2-23.29-3.71-35.19-.67-5.96-1.57-11.93-2.41-17.94-.43-3-.97-5.99-1.45-8.99l-.74-4.5-.85-4.48c-3.31-17.77-7.65-35.43-13.44-52.57l.08-.05Z"/><path class="cls-6" d="m348.14,228.83c1.91-1.71,3.81-3.44,5.6-5.21.89-.87,1.8-1.8,2.47-2.63.65-.8,1.25-1.9,1.81-2.98,2.22-4.43,3.94-9.29,5.5-14.15,1.13-3.56,2.02-7.19,2.94-10.81,1.61-6.38,2.91-12.86,3.74-19.38.8-6.51,1.21-13.12.41-19.57-.36-2.85-1.01-5.67-2.14-8.24-1.13-2.55-2.81-4.83-5.1-6.16-2.98-1.74-6.69-2.09-10.07-1.27-3.39.79-6.53,2.8-8.65,5.75-1.31,1.85-1.3,1.61-.75-.4.35-.96.93-2.37,2.09-3.82,1.12-1.47,2.86-2.98,5.11-3.9.49-.23,1-.4,1.52-.55.51-.16,1.03-.32,1.57-.39.53-.11,1.07-.16,1.61-.2.54-.06,1.08-.06,1.63-.04,2.17.05,4.35.53,6.36,1.46,2.06.89,3.86,2.43,5.23,4.14,1.36,1.74,2.31,3.68,3.02,5.63,1.39,3.93,1.91,7.95,2.11,11.92.18,3.97,0,7.92-.39,11.83-.96,9.35-2.59,18.95-5.04,28.19-1.36,5.08-2.92,10.1-4.81,15.03-.96,2.46-1.97,4.91-3.25,7.3-.32.6-.67,1.19-1.05,1.79-.38.58-.87,1.21-1.32,1.7-.91,1.03-1.84,1.96-2.79,2.88-4.66,4.51-9.53,8.7-14.43,12.86-3.72,3.14-7.51,6.22-11.36,9.21-3.85,2.99-7.74,5.92-11.79,8.63-1.58,1.05-3.18,2.07-4.9,2.97-.42.23-.87.45-1.34.64-.24.1-.45.21-.71.29-.23.07-.64.23-.95.27-.33.05-.67.06-1,.09-.33,0-.66-.11-.94-.3-.29-.18-.55-.4-.8-.63-.13-.11-.26-.24-.36-.35l-.26-.27c-2.6-2.81-4.91-5.56-7.5-8.15-1.13-1.14-2.28-2.2-3.46-3.29-4.44-3.95-5.81-5.2-6.35-6.73-.13-.34-.34-.73-.37-.99-.17-.85,2.42-.17,6.19,2.53,2.72,2.06,5.27,4.4,7.68,6.9,1.21,1.24,2.37,2.53,3.51,3.83l1.69,1.93.83.93.41.44.32.33s.09.02.1,0c-.06,0,.14-.04.28-.1l.49-.21c.32-.12.68-.32,1.02-.49,1.4-.73,2.83-1.61,4.24-2.54,2.83-1.86,5.62-3.92,8.38-6,8.19-6.25,16.24-12.9,23.93-19.83l.07.06Z"/><path class="cls-6" d="m316.78,216.55c3.34-2.94,6.59-6.01,9.56-9.28.55-.59,1.05-1.21,1.54-1.84.52-.62.93-1.24,1.38-1.84.19-.26.25-.43.4-.65.13-.21.23-.61.35-.91.23-.64.42-1.33.62-2,.38-1.37.74-2.76,1.09-4.16.69-2.8,1.33-5.63,1.94-8.46.56-2.51.98-5.07,1.49-7.58.32-1.61.62-3.23.99-4.85.21-.8.32-1.62.66-2.39.35-.77.69-1.53,1.04-2.3.46-.94.53-.78.67.15.08.47.18,1.12.35,1.92.06.39.22.84.24,1.28-.02.43-.05.88-.13,1.35-.58,3.27-.98,6.59-1.7,9.86-.67,3.29-1.39,6.58-2.24,9.87-.52,1.97-.95,4-1.47,6.05-.26,1.03-.53,2.06-.9,3.13-.6,1.33-1.25,2.12-1.91,3.01-2.95,3.65-6.2,6.87-9.55,10.01-2.06,1.93-4.19,3.78-6.34,5.6-3.29,2.72-6.67,5.36-10.16,7.78-1.33.98-2.71,1.87-4.03,2.84-1.39.88-2.74,1.81-4.19,2.62-.65.35-1.26.71-1.93,1.04-1.2.66-2.14.84-2.78.91-.66.06-1.09-.08-1.49-.38-.18-.14-.4-.25-.53-.41-.42-.51.41-1.42,2.03-2.34,4.9-2.63,9.79-6,14.58-9.59,3.57-2.66,7.04-5.51,10.37-8.52l.06.06Z"/><path class="cls-6" d="m307.46,186.68l.22-.21.11-.1s.03-.05.05-.07c.03-.05.07-.09.12-.13l.02-.02c1.93.84.52.23.95.41h-.03s-.05-.04-.05-.04l-.1-.05-.2-.1-.41-.19s-.18-.08-.16-.07h0s0-.01,0-.01v-.02s.02-.05.04-.07c.14-.4.29-1.03.43-1.61l.83-3.59c.2-.88.31-1.78.53-2.66.77-3.1,1.57-6.21,2.54-9.26.41-1.36.78-2.74,1.17-4.1.52-1.74,1.12-3.48,2.07-5.06.29-.5.48-.33.62.23.13.56.27,1.51.13,2.53-.17.88-.3,1.78-.46,2.67l-.57,2.64c-.38,1.77-.75,3.54-1.27,5.31-.65,2.1-.9,4.39-1.31,6.6l-.71,3.66-.4,1.84c-.07.31-.13.61-.22.94-.09.33-.14.62-.31,1.07-.45,1.01-1.14,1.72-1.78,2.23-.65.56-1.31,1.01-1.98,1.44-2.03,1.31-4.15,2.32-6.18,3.43-1.58.86-3.05,1.85-4.56,2.78-.33.2-.64.44-.98.61-1.27.66-1.77.67-2.46.06-.16-.14-.33-.27-.46-.42-.45-.5-.18-1.29.67-2.01,2.54-2.1,5.53-3.53,8.38-5.11,1.06-.58,2.11-1.15,3.1-1.76.97-.6,1.95-1.25,2.58-1.88l.06.06Z"/><path class="cls-6" d="m47.51,380.53c-.1,7.5-.16,15.01-.16,22.52.04,2.74.07,5.48.11,8.21l.05,8.69c.02,1.45.03,2.89.09,4.33l.11,2.14.03.59c.01.07,0,.15.04.2l.18.1,9.7,5.8c3.67,2.22,7.39,4.4,11.07,6.54l3.55,2.06c1.17.7,2.34,1.42,3.5,2.15,2.33,1.45,4.62,2.96,6.7,4.8,1.3,1.14,1.09,1.04-.35.62-.71-.22-1.78-.42-2.99-.82-.6-.2-1.27-.38-1.94-.65-.66-.28-1.35-.6-2.04-.97l-3.7-1.95c-1.23-.65-2.42-1.37-3.64-2.06-2.41-1.4-4.82-2.8-7.24-4.2-2.42-1.4-4.81-2.84-7.19-4.31-2.46-1.52-4.93-3.05-7.41-4.58l-.1-.05c-.24-.24-.56-.41-.74-.7-.2-.27-.27-.62-.32-.98-.05-.35-.07-.74-.08-1.08l-.02-.66c-.02-.86-.03-1.72-.04-2.58-.05-1.71-.1-3.43-.15-5.16-.1-3.45-.19-6.91-.23-10.34-.08-7.57-.08-15.15-.05-22.72l.04-6.99.09-7.27c.01-.65.02-1.31.07-1.93.02-.31.08-.59.15-.83.05-.26.23-.35.33-.51l.16-.21.09-.1h.01s0-.02,0-.02h0c-.05-.1.13.21-.12-.22l.05.02.09.03.75.28,1.49.56.74.28c.25.1.56.29.83.44l1.25.7c.77.43,1.53.89,2.29,1.34,3.07,1.75,6.13,3.49,9.18,5.22,4.75,2.67,9.48,5.13,14.24,7.63,1.05.54,2.08,1.07,3.14,1.62,3.9,2.07,5.04,2.89,5.46,4.12.1.28.26.59.28.83.07.8-1.82.49-4.78-.89-8.77-4.11-17.54-9.24-26.37-14.25-1.62-.97-3.32-1.79-4.98-2.68l-.62-.35-.31-.17-.07-.04h0s0,0,0,0c0,0,0-.01-.01-.02,0,0-.04-.04-.04-.02,0,.03-.01-.02-.02.1l-.05,2.74-.05,5.67h-.08Z"/><path class="cls-6" d="m134.25,429.44c6.41-2.8,12.8-5.7,19.08-8.76,1.15-.56,2.28-1.14,3.4-1.74l2.99-1.6c.05-.04.17-.05.17-.14.01-.07.03-.13.03-.21l.03-.65.07-1.61.1-3.26.18-6.53.26-13.08c.05-4.01.1-8.03.1-12.01.01-2.55-.04-5.11.02-7.67.08-2.56.19-5.12.36-7.67.17-1.6.33-1.38.71-.04.36,1.34.94,3.82,1.2,6.76.13,1.3.19,2.61.23,3.91l.14,3.91c.07,2.61.15,5.22.22,7.83.08,2.61.03,5.23,0,7.85-.04,2.62-.11,5.25-.2,7.88-.09,2.52-.12,5.08-.13,7.67-.01,1.29-.03,2.59-.04,3.89l-.03,1.96-.03,1.04c0,.52-.13,1.05-.19,1.57-.25.4-.66.74-1.04,1.07-.22.14-.48.28-.68.4l-.44.24-1.72.91c-6.34,3.25-12.76,6.23-19.22,9.17-3.98,1.8-7.98,3.55-11.98,5.27-6.07,2.61-12.23,5.08-18.33,7.5-4.74,1.88-9.37,3.8-14.15,5.5-1.05.38-2.07.77-3.15,1.1-3.99,1.25-5.37,1.32-6.45.66-.25-.15-.55-.29-.72-.46-.55-.6.95-1.53,3.77-2.54,8.38-3,17.16-6.36,25.94-9.92,6.51-2.66,13.03-5.4,19.47-8.29l.04.07Z"/><path class="cls-6" d="m119.01,378.44c-7.27,2.85-14.57,5.62-21.86,8.39-2.65,1.04-5.29,2.07-7.94,3.11l-3.22,1.3c-.08.03-.17.06-.25.1-.07.05-.04.16-.06.24l-.03.54-.02.93-.11,7.5-.14,15.04c-.04,4.45-.02,8.92,0,13.34,0,2.84.07,5.68-.03,8.53-.03,1.42-.09,2.84-.17,4.26l-.13,2.13c-.06.71-.21,1.42-.29,2.12-.26,1.76-.48,1.52-.92.01-.52-1.51-1.15-4.27-1.25-7.52-.27-11.56-.28-23.11-.02-34.79.08-3.49.06-7.05.05-10.65v-1.39c-.02-.76.12-1.48.37-2.08.26-.21.52-.43.81-.63l1.03-.45,1.3-.51c1.68-.65,3.36-1.29,5.03-1.94,7.34-2.8,14.68-5.57,22-8.42,4.5-1.75,9-3.52,13.47-5.35,6.77-2.76,13.56-5.56,20.15-8.59,1.92-.87,3.8-1.8,5.65-2.74l2.77-1.43,1.38-.73.66-.37.37-.22c.06-.04.12-.06.17-.11.03-.07-.04-.14-.09-.2-.21-.23-.45-.4-.67-.57-.87-.62-1.72-1.23-2.6-1.86-3.71-2.62-4.82-3.58-5.1-4.91-.07-.3-.2-.63-.2-.87,0-.8,1.94-.31,4.82,1.5,1.51.95,3.01,1.93,4.51,3.03l.63.48.95.79c.61.54,1.2,1.12,1.54,1.72.15.3.27.59.32.88.03.15.04.3.03.47-.02.19-.02.32-.15.43-.39.47-.77.95-1.16,1.42l-2.21,1.01c-.46.21-.51.24-.73.35l-.56.28c-.75.37-1.51.73-2.27,1.1-1.52.73-3.06,1.44-4.61,2.14-3.08,1.44-6.21,2.85-9.35,4.22-7.21,3.15-14.53,6.13-21.84,9.06l-.04-.07Z"/><path class="cls-6" d="m298.01,82.15c-.14.1-.21.21-.31.31-.03.05-.06.1-.1.15-.04.04-.1.19-.15.28-.22.41-.39.84-.54,1.26-.3.85-.45,1.72-.44,2.59.01,1.76.75,3.54,1.87,5.24.4.62.87,1.22,1.37,1.84.47.64.96,1.28,1.44,2.06l.19.32c.06.09.13.31.22.45.09.16.15.32.21.49.07.16.11.33.14.5.08.34.05.69,0,1.02-.09.33-.27.62-.42.92-.31.34-.66.76-.93,1.03l-.77.72c-.56.43-1.14.85-1.78,1.15-1.27.63-2.67.92-4.01.95-1.35.05-2.65-.15-3.89-.45-1.24-.3-2.44-.69-3.59-1.16-2.4-.96-4.7-2.1-6.93-3.23-1.45-.71-2.85-1.48-4.26-2.2-.7-.36-1.41-.7-2.11-1.02-.7-.28-1.39-.65-2.08-.73-.42-.05-.6-.05-.64-.16-.03-.08.14-.33.59-.51.46-.22,1.15-.3,1.98-.32.82.02,1.71.24,2.61.57,3.18,1.18,6.02,2.76,8.94,4.06,2.9,1.26,5.86,2.5,8.78,2.64,1.12.06,2.22-.12,3.2-.58l.71-.39.65-.49c.2-.18.39-.39.59-.58.12-.11.15-.17.19-.23l.13-.19c.1-.08.16-.19.13-.31-.03-.13-.06-.19-.16-.34-.34-.48-.81-1.01-1.26-1.56-1.39-1.74-2.81-3.73-3.61-6.1-.39-1.18-.63-2.45-.59-3.72.03-1.27.31-2.53.77-3.67.15-.35.29-.7.47-1.03l.26-.5c.11-.19.25-.38.37-.57.55-.71,1.24-1.21,1.95-1.58,1.42-.73,2.91-1.04,4.41-1.08.57-.02,1.14.02,1.72.1.57.09,1.18.25,1.67.48.51.22,1.04.41,1.54.65l1.44.88c1.84,1.31,3.23,3.21,3.99,5.3.58,1.62.91,3.34.84,5.05-.04,1.71-.33,3.45-1.07,5.07l-.22.54-.28.51c-.19.34-.38.69-.61,1.02-.49.57-.88,1.07-1.29,1.4-.43.32-.79.55-1.11.7-.67.26-1.18.17-1.63-.08-.21-.12-.44-.23-.59-.38-.24-.26-.19-.66.05-1.07.12-.21.29-.42.51-.64.18-.27.41-.54.69-.81,3.04-3.5,3.47-9.83.17-13.32-.34-.29-.66-.58-.99-.89-.39-.23-.77-.47-1.15-.72-.4-.22-.86-.35-1.29-.53l-.33-.13-.27-.07c-.19-.04-.39-.07-.59-.09-1.66-.19-3.77.34-4.73,1.23l-.05-.05Z"/><path class="cls-6" d="m299.88,270.2c-.11,1.16-.22,2.34-.29,3.52-.02.43.04.86.01,1.29-.07,1.52-.24,3.06-.32,4.6-.04.68,0,1.36.02,2.04.05.86.1,1.74-.21,2.61-.12.27-.27.24-.57.02-.33-.22-.76-.62-.9-1.11-.26-.86-.29-1.74-.4-2.61-.08-.87-.12-1.76-.07-2.65.04-1.07-.12-2.17-.17-3.26-.04-1.2-.03-2.41-.02-3.62.01-.75.06-1.49.1-2.24.04-1.13.18-2.27.21-3.39.03-.88-.1-1.76-.09-2.65.01-.2-.02-.39.02-.59.12-.72.38-.91,1.16-.91.16,0,.32-.02.45,0,.4.02,1.03.44,1.11.94.08.38.15.76.22,1.14.03.38.03.75.04,1.12,0,.75-.03,1.51-.07,2.28-.04,1.14-.15,2.3-.16,3.47h-.07Z"/><polygon class="cls-3" points="202.77 209.76 200.99 269.58 225.34 285.61 226.7 220.98 202.77 209.76"/><path class="cls-1" d="m282.22,221.45c-30.26,0-38.84-12.88-36.73-14.43l-41.97,2.44s24.53,12.71,30.31,12.98c5.78.27,48.39-1,48.39-1Z"/><path class="cls-6" d="m213.78,207.19c1.43-.1,2.85-.17,4.27-.23.52-.02,1.03-.11,1.54-.12,1.82-.05,3.64.01,5.44-.02.8-.01,1.6-.11,2.39-.15,1.01-.12,2.02-.11,3.06-.02.33.04.33.28.11.62-.22.33-.65.86-1.23,1.09-2.06.86-4.2.8-6.31.68-1.27-.08-2.57.1-3.85.15-1.41.06-2.82.1-4.22.19-.87.05-1.73.12-2.58.21-1.3.14-2.6.31-3.86.61-.48.13-.95.3-1.42.46-.46.17-.9.39-1.37.53l-.6.22c-.37.14-.64.18-.86.12-.22-.05-.38-.15-.55-.31-.08-.07-.16-.14-.22-.21-.19-.24,0-.64.5-1.11,1.56-1.21,3.51-1.78,5.43-2.16,1.43-.29,2.88-.46,4.32-.62v.06Z"/><path class="cls-6" d="m224.79,275.88c.19-3.41.32-6.83.42-10.25.03-1.25,0-2.5.05-3.75l.46-13.22c.08-1.96.17-3.92.25-5.87.05-1.25.11-2.5.21-3.75.04-.62.1-1.25.16-1.87l.1-.93c.04-.31.13-.62.19-.93.18-.77.12-.67.22,0,.16.67.36,1.89.37,3.33.03,2.54.05,5.08.08,7.63.02,2.54-.13,5.09-.22,7.66-.14,3.07-.06,6.26-.1,9.41-.07,3.46-.18,6.91-.33,10.37-.09,2.13-.21,4.26-.35,6.38l-.16,2.42-.22,2.66c-.03.28-.11.49-.17.74-.03.05,0,.14-.07.16l-.19.05c-.13.02-.25.04-.38.05-.49.05-1.12-.16-1.58-.32-.79-.3-1.52-.65-2.25-1.02-2.24-1.15-4.38-2.34-6.51-3.59-.47-.28-.93-.54-1.4-.83-1.72-1.09-2.18-1.56-2.26-2.22-.02-.15-.06-.32-.04-.44.07-.42.91-.21,2.19.52,1.9,1.1,3.83,2.22,5.79,3.35.98.56,1.97,1.1,2.97,1.62.5.25,1,.49,1.49.71.23.1.52.21.7.28,0,0,0,0,0,0h0s0,0,0,0l.05-.61c.07-.86.13-1.71.19-2.57.12-1.72.21-3.44.3-5.16h.04Z"/><path class="cls-6" d="m244.34,289.17c-2.02-.19-4.04-.39-6.05-.64-.74-.08-1.48-.13-2.21-.23-1.29-.19-2.59-.41-3.88-.68-.64-.12-1.29-.3-1.94-.45-.32-.09-.65-.2-.97-.3-.25-.07-.87-.3-1.12-.7-.46-.63-.61-1.23-.79-1.83-.14-.59-.26-1.18-.34-1.76-.11-.74-.17-1.49-.19-2.24-.03-.74,0-1.49.16-2.22.09-.45.28-.4.58-.02.15.19.33.46.53.78.17.32.29.7.35,1.11.1.73.22,1.44.34,2.15.09.7.2,1.4.36,2.02.04.16.08.31.13.43.04.15.1.26.15.35.17.23-.06.11.23.23.33.1.65.23.99.33l1.05.29c1.71.44,3.57.59,5.39.78,2,.22,4.01.42,6.02.56,1.24.1,2.48.18,3.72.24,1.88.08,3.77.19,5.64.15,1.45-.02,2.87-.19,4.29-.35.31-.04.61-.07.92-.11,1.16-.08,1.5-.02,1.83.48.07.11.17.22.22.33.18.38-.26.78-1.16,1.01-2.62.62-5.37.64-8.12.62-2.04-.02-4.09-.16-6.13-.29v-.05Z"/><path class="cls-6" d="m226.01,285.44c.03.2.07.4.13.59.02.07.09.1.11.18.07.26.13.53.24.77.04.12.12.19.2.27.11.09.26.13.25.36,0,.14-.95,1.07-1.17,1.01-.33-.14-.63-.33-.67-.76-.04-.24-.24-.34-.35-.51-.12-.19-.22-.4-.32-.61-.06-.13-.12-.26-.17-.38-.09-.19-.16-.39-.28-.55-.09-.13-.3-.2-.43-.31-.02-.03-.06-.05-.07-.08-.04-.13.08-.23.48-.46l.27-.15c.31-.16.6-.25.78-.25.15,0,.27,0,.37.01.08.02.16.05.22.08.12.07.23.14.27.26.08.16.11.35.18.53l-.04.03Z"/><path class="cls-6" d="m213.26,216.76c1.17.47,2.34.92,3.52,1.36.44.15.87.29,1.31.44,1.52.57,3.04,1.14,4.56,1.71.67.26,1.37.47,2.05.68l1.32.39c.43.17.84.41,1.25.64.25.15.18.24-.1.34-.28.09-.8.26-1.35.25-1.83-.44-3.64-.93-5.39-1.68-1.04-.45-2.19-.76-3.28-1.14-1.2-.43-2.4-.88-3.59-1.34l-2.2-.86c-1.11-.44-2.22-.88-3.31-1.32-.86-.33-1.73-.59-2.59-.9-.19-.07-.37-.14-.55-.23-.67-.34-.84-.54-.84-.9,0-.08-.01-.17,0-.25.04-.25.41-.32.95-.2.81.16,1.59.41,2.37.71.78.29,1.57.59,2.36.9,1.18.45,2.36.91,3.54,1.37v.03Z"/><path class="cls-6" d="m258.56,220.31l11.65.06c1.42,0,2.83-.1,4.25-.09,4.99.02,9.99.07,14.98,0,1.11-.02,2.22-.06,3.32-.11l1.65-.09.82-.05c.12-.01.3-.02.5-.02h.57s1.48-.05,1.48-.05h.37c.08.04.06.2.1.31l.14.7c.03.25.13.43.11.74v.87c0,.69-.01.88-.02,1.28-.02.71-.05,1.42-.1,2.13-.03.71-.19,1.42-.29,2.13-.18.88-.33.77-.72.03-.2-.37-.46-.89-.77-1.53-.27-.63-.47-1.38-.58-2.19l-.13-1.08c-.05-.26.03-.15.05-.19l.11-.04s-.12.09-.25.09l-.19.02-1.09.07-2.18.12c-2.9.1-5.81.07-8.73-.03-3.49-.13-7.11.15-10.67.2-3.92.06-7.84.07-11.75.07-2.41,0-4.82,0-7.23,0-3.65.02-7.32-.02-10.94.06-2.82.07-5.58.32-8.38.44-.62.03-1.22.08-1.85.09-1.16,0-1.95-.08-2.48-.26-.56-.19-.95-.55-1.1-1.02-.08-.22-.17-.43-.18-.64,0-.35.27-.63.65-.85.2-.11.39-.19.67-.27.32-.08.68-.14,1.09-.18,4.88-.46,10.14-.63,15.38-.7,3.91-.03,7.83-.06,11.74-.1v.08Z"/><path class="cls-6" d="m203.06,248.57c-.14,4.58-.27,9.16-.34,13.74-.02,1.67.06,3.34.05,5v.98c-.02.1-.02.2-.03.31.05.07.14.15.22.23l.85.64,3.44,2.77,6.91,5.53c2.05,1.63,4.15,3.23,6.23,4.78,1.35.98,2.66,2.02,3.95,3.1,1.3,1.06,2.52,2.22,3.64,3.5.61.91.45.88-.56.74-.51-.06-1.17-.23-1.95-.45-.39-.11-.81-.23-1.23-.41-.41-.18-.82-.4-1.23-.65l-2.17-1.35-1.09-.67-1.04-.74-4.13-3c-2.74-2.02-5.37-4.21-8-6.43-1.56-1.34-3.25-2.59-4.93-3.88-.52-.52-2.6-1.65-2.4-3.49l-.04-1.79v-1.59c.03-4.64.14-9.26.25-13.89.07-2.85.15-5.7.22-8.54.11-4.31.27-8.64.32-12.92.03-3.33-.11-6.6-.14-9.9,0-.73-.03-1.44-.01-2.18.04-2.72.44-3.58,1.36-4.1.21-.12.42-.28.62-.34.34-.1.63.13.87.63.24.51.45,1.28.48,2.27.33,5.85.29,12.02.2,18.23-.08,4.61-.17,9.24-.25,13.86h-.09Z"/><path class="cls-6" d="m223.17,205.56c6.39-.16,12.77-.24,19.14-.31,2.33-.02,4.65-.14,6.98-.14,4.1,0,8.2.03,12.31.11,2.05.03,4.11.09,6.18.19l1.56.09c.54.04,1.01.06,1.68.17.2.03.39.08.57.16l.39.16.71.28,1.43.57c3.39,1.33,6.81,2.66,10.17,3.98,2.15.88,4.33,1.73,6.44,2.74,1.05.51,2.1,1.06,3.12,1.64,1.03.57,1.97,1.34,2.89,2.12,1.05,1.15.83.97-.38.63-.63-.13-1.49-.32-2.58-.46-1.04-.2-2.22-.54-3.46-.98-4.36-1.66-8.76-3.31-13.15-5.03-2.2-.86-4.41-1.72-6.62-2.58,0,0-.03-.02-.04-.03-.03,0-.18-.03-.29-.04l-.81-.07-1.73-.1-3.54-.17c-5.68-.29-11.61-.05-17.44,0-6.41.06-12.82.13-19.23.28-3.94.09-7.89.2-11.82.37l-4.47.23-1.94.12-1.25.1c-.42.04-.85.08-1.28.16-.11.02-.21.04-.32.07-.08.03-.26.05-.22.17.17.12.35.23.52.35.7.46,1.45.89,2.19,1.29l1.34.7,1.52.77c1.02.5,2.05.98,3.08,1.45,2.06.94,4.16,1.81,6.25,2.72.92.4,1.84.76,2.76,1.18,3.43,1.56,4.43,2.28,4.79,3.37.08.24.22.51.24.7.06.66-1.55.48-4.07-.56-3.77-1.51-7.64-3.13-11.54-4.91-.98-.44-1.96-.89-2.93-1.36l-1.47-.72-.73-.37-1.01-.54-2.85-1.57-1.44-.8-.75-.8-.75-.8c-.09-.21-.05-.37-.07-.56l-.03-.54s.02-.11.04-.2c.02-.08.04-.14.05-.19.04-.11.07-.2.11-.29.26-.51.71-1.1,2.01-1.44,1.29-.32,2.95-.47,4.52-.62l1.89-.15,1.22-.08,2.43-.14c3.23-.17,6.46-.3,9.68-.42v.08Z"/><path class="cls-6" d="m228.87,275.91c-.03,2.24-.05,4.47-.04,6.7,0,1.11.02,2.22.05,3.31v.44c-.03.14.09.15.19.15.05.01.1.01.16.02l.67.04,1.64.08,3.29.13c2.43.1,4.87.06,7.29.13,8.57.23,17.16.32,25.75.18,3.81-.06,7.64-.25,11.42-.42,2.43-.13,4.86-.26,7.29-.39,1.22-.05,2.44-.04,3.66-.05,1.22,0,2.44.02,3.66.14,1.53.15,1.34.5.09,1.14-1.25.69-3.57,1.62-6.36,1.96-2.48.23-4.96.38-7.45.54-2.49.15-4.97.3-7.47.33-4.99.11-9.99.11-15.02-.03-6.01-.16-12.26.02-18.41-.12-1.86-.04-3.72-.1-5.58-.17l-6.19-.26-.73-.23-.37-.11-.18-.06h0s.23-.26.12-.14h0s-.01,0-.01,0l-.02-.02s-.03-.02-.04-.03l-.06-.06c-.15-.18-.35-.32-.42-.58-.08-.26-.12-.55-.16-.84-.06-.58-.09-1.24-.1-1.67l-.03-1.15c-.03-1.53-.04-3.05-.05-4.57,0-4.16.05-8.32.11-12.47.12-6.29.25-12.6.37-18.84.08-4.85-.01-9.61.08-14.43.02-1.06.01-2.1.06-3.17.2-3.97.57-5.25,1.57-5.99.22-.17.45-.4.66-.48.69-.27,1.09,1.34,1.07,4.2.02,8.5-.07,17.52-.21,26.56-.09,6.72-.21,13.47-.22,20.2h-.09Z"/><path class="cls-6" d="m408.68,362.74c.29-6.69.31-13.4.18-20.1-.13-6.7-.46-13.41-1-20.1-.37-4.89-.98-9.75-1.52-14.61-1.99-17.14-5.08-34.19-9.65-50.84-2-7.39-4.42-14.72-7.19-21.79-1.73-4.56-3.69-9.04-5.79-13.45-2.01-4.45-4.19-8.82-6.54-13.12-1.33-2.77-1.26-2.34.46-.37,1.75,1.95,4.88,5.69,7.81,10.62,2.48,4.43,4.55,9.06,6.56,13.71,1.97,4.67,3.63,9.45,5.24,14.25,3.15,9.62,5.55,19.48,7.47,29.45,1.14,5.97,2.24,12.06,3.26,18.2.98,6.15,1.85,12.35,2.52,18.52,1.42,13.57,2.14,27.23,2,40.88-.08,8.4-.48,16.8-1.25,25.17-.14,1.58-.29,3.17-.48,4.75l-.25,2.1-.08.63-.02.16c0,.06.07.08.11.1.1.05.2.08.3.11.51.18,2.45.5,3.91.7,1.55.21,3.11.37,4.67.51,6.26.53,12.56.64,18.78.29,9.66-.57,19.13-2.24,27.92-5.64,1.93-.76,3.76-1.62,5.59-2.57,3.4-1.77,5.44-3.21,6.94-4.14,1.49-.95,2.45-1.41,3.42-1.61.44-.09.97-.29,1.3-.29.56,0,.43.73-.44,1.99-.87,1.25-2.53,3-5.03,4.76-3.7,2.61-7.84,4.61-12.13,6.17-4.3,1.55-8.78,2.67-13.31,3.46-9.09,1.59-18.41,1.97-27.7,1.61-3.45-.15-6.9-.41-10.38-.86-.87-.12-1.74-.24-2.63-.4l-.67-.12-1.11-.24c-.81-.2-1.64-.43-2.22-.85-.29-.21-.52-.44-.72-.76-.07-.15-.15-.26-.2-.43l-.08-.55c-.19-.69.01-1.59.09-2.42l.31-2.68c.73-6.7,1.2-13.45,1.45-20.2h.09Z"/><path class="cls-6" d="m278.44,405.32l-.25,2.78-.13,1.39-.08.7-.05.5-.08.6-.24.43-.06.11h0s0,.02,0,.02h0s0,0,0,0l-.12-.16h0s0,0,0,0h-.02s-.04.04-.04.04l-.18.09c-.11.03-.21.15-.36.12-.16-.04-.33-.07-.49-.12l-.75-.21c-.37-.11-.74-.21-1.11-.33-2.58-.85-5.13-1.77-7.67-2.71-1.12-.42-2.27-.81-3.36-1.31-1.41-.62-2.82-1.23-4.18-1.93-.42-.22-.36-.2.03-.08.67.21,1.33.42,1.94.61,1.46.54,3.03.79,4.49,1.33,1.47.51,2.94,1.01,4.43,1.53,1.77.62,3.67,1.11,5.51,1.61l.52.14.21.06.19.05s.03-.11.05-.17c.02-.06.02-.12.03-.19l.04-.5.07-1.04.13-2.08.21-3.9c-.04-1.98.15-3.95.18-5.91.03-1.52-.05-3.02-.01-4.54,0-.33,0-.66.01-1,.07-1.25.25-1.66.77-1.87.12-.05.24-.11.35-.13.39-.05.63.44.7,1.34.09,1.33.16,2.72.18,4.12-.03,1.4-.09,2.82-.17,4.24l-.09,1.59c-.03.53-.16,1.05-.23,1.58-.11.53-.16,1.06-.18,1.59l-.11,1.59h-.04Z"/><path class="cls-4" d="m278.32,349.71c.26-.15,0,63.29,0,63.29l47.25-25.02s1.74-58.82-.76-58.83c-2.5-.02-46.49,20.57-46.49,20.57Z"/><path class="cls-1" d="m263.16,385.34c-20.98-6.26-20-27.02-14.14-29.9l-21.19-6.71.37,32.35,34.87,12.31.1-8.05Z"/><path class="cls-6" d="m239.47,335.39c2.9,1.29,5.8,2.58,8.73,3.82l3.23,1.29c3.76,1.58,7.52,3.2,11.31,4.74,1.68.68,3.4,1.29,5.1,1.88,1.09.37,2.17.79,3.26,1.21.54.22,1.06.48,1.59.73.53.24,1.05.51,1.54.84.62.41.53.37-.12.39-.67.06-1.9.17-3.24-.04-1.16-.28-2.3-.59-3.44-.93l-3.34-1.21c-2.22-.84-4.43-1.73-6.61-2.7-2.61-1.16-5.41-2.17-8.11-3.28-2.96-1.24-5.91-2.51-8.85-3.81l-5.42-2.41c-2.72-1.24-5.46-2.49-8.16-3.72-2.11-.94-4.22-1.76-6.32-2.67-.46-.2-.92-.37-1.38-.59-1.69-.82-2.13-1.28-2.29-1.88-.04-.14-.1-.28-.11-.39-.03-.36.82-.36,2.15.05,3.86,1.35,7.76,3.1,11.72,4.79,2.93,1.28,5.87,2.56,8.8,3.84l-.02.05Z"/><path class="cls-6" d="m324.34,380.24c.18-1.4.33-2.8.43-4.21.04-.51.03-1.03.07-1.54.11-1.81.18-3.63.17-5.44,0-.81-.05-1.62-.08-2.42-.03-1.03-.05-2-.08-3.09,0-.32.02-.28.1-.02.07.27.24.75.36,1.34.47,2.08.57,4.2.59,6.33-.02,1.27.08,2.6.07,3.9,0,1.43-.05,2.87-.13,4.3-.05.88-.11,1.76-.19,2.64-.13,1.34-.26,2.65-.44,4-.16,1.04-.31,2.12-.86,3.16-.12.23-.25.45-.43.66-.68.76-1.13.77-1.47.47-.08-.07-.17-.14-.23-.22-.2-.29-.02-.64.28-1,.87-1.07,1.17-2.81,1.36-4.65.17-1.4.28-2.82.45-4.22h.04Z"/><path class="cls-6" d="m235.77,363.82l-2.16-2.69c-.26-.33-.57-.62-.82-.95-.91-1.18-1.81-2.36-2.74-3.52-.41-.52-.87-.99-1.3-1.48-.54-.65-1.15-1.24-1.51-2.04-.1-.26.05-.34.39-.35.36-.02.89.05,1.25.37,1.36,1.06,2.45,2.37,3.49,3.75.61.84,1.42,1.55,2.13,2.33.79.85,1.53,1.74,2.28,2.64l1.38,1.65c.7.83,1.38,1.68,2.11,2.48.56.62,1.21,1.15,1.81,1.73.13.13.28.24.4.38.46.51.49.77.13,1.24-.08.11-.16.22-.25.32-.31.32-.77.34-1.17.03-1.21-.9-2.22-2.04-3.24-3.2-.74-.88-1.49-1.76-2.24-2.64l.04-.04Z"/><path class="cls-6" d="m254.97,367.98c.48-.24.95-.49,1.42-.76.17-.1.32-.23.49-.32.61-.33,1.23-.66,1.86-.97.27-.14.53-.32.79-.49.32-.23.7-.38,1.09-.5.13-.03.16.06.15.23-.01.16-.05.45-.19.64-.23.37-.54.62-.86.86-.32.24-.65.47-1.01.65-.45.2-.82.54-1.24.81-.46.3-.93.58-1.4.86-.29.17-.58.35-.87.52-.44.27-.89.51-1.31.79-.33.21-.6.53-.92.76-.07.05-.13.12-.21.16-.28.16-.43.12-.67-.2-.06-.07-.11-.14-.16-.22-.17-.26-.17-.55-.02-.74.43-.61,1.03-.96,1.64-1.33.46-.26.93-.53,1.39-.79l.02.03Z"/><path class="cls-6" d="m238.4,373.07l-2.28,1.57c-.27.19-.5.43-.78.62-.98.65-1.97,1.28-2.92,1.96-.42.3-.8.66-1.17,1-.5.42-.88.98-1.59,1.17-.24.04-.42-.19-.56-.6-.18-.45-.26-1.01,0-1.31.85-1.09,1.92-1.92,3.11-2.63.72-.41,1.28-1.06,1.91-1.58l2.12-1.7c.43-.35.87-.7,1.29-1.07.63-.55,1.29-1.09,1.84-1.72.43-.49.71-1.09,1.04-1.65.07-.12.12-.26.2-.38.31-.42.53-.44,1.24.03.15.1.3.18.42.27.39.27.78.9.59,1.28-.42,1.22-1.29,2.17-2.22,3.02-.69.64-1.45,1.2-2.18,1.77l-.04-.05Z"/><path class="cls-6" d="m256.53,377.82c.5,1.27.99,2.54,1.51,3.8.19.46.45.89.63,1.35.66,1.62,1.3,3.26,2.02,4.86.33.7.67,1.41,1.01,2.1.45.88.95,1.74,1.18,2.74.08.31-.19.41-.61.34-.4-.08-1.03-.29-1.39-.75-.6-.83-1.18-1.67-1.71-2.55-.45-.92-.85-1.85-1.2-2.83-.42-1.16-1.1-2.25-1.64-3.38-.59-1.24-1.15-2.5-1.71-3.76l-1.01-2.33c-.52-1.17-1-2.37-1.58-3.51-.45-.88-1.02-1.69-1.53-2.53-.12-.18-.23-.36-.32-.56-.33-.73-.27-1.04.22-1.46.11-.09.22-.2.34-.28.4-.27.9-.14,1.32.32.63.67,1.12,1.42,1.57,2.22.45.79.86,1.61,1.25,2.44.59,1.23,1.13,2.5,1.7,3.74l-.06.03Z"/><path class="cls-6" d="m327.5,374.07l-.02,7.29v3.65s-.01.92-.01.92v.46c0,.16,0,.27-.03.59-.04.28-.11.51-.16.77-.03.12-.05.26-.1.37l-.17.31-.08.15-.04.07v.02c-.18-.09.22.13.18.11h0s0,.01,0,.01l-.03.03-.27.24c-.17.17-.37.31-.52.5l-2.88,1.46c-1.85.97-3.64,2.04-5.48,3.04-6.48,3.53-12.91,7.22-19.37,10.85-2.87,1.62-5.74,3.27-8.61,4.83-3.69,2-7.41,4.07-11.5,5.23-1.28.36-1.14.2-.28-.56.84-.84,2.41-2.23,4.47-3.44,3.68-2.13,7.35-4.25,11.03-6.39,3.71-2.1,7.42-4.24,11.2-6.32,4.52-2.49,9.04-5.4,13.65-8.02l2.89-1.6,2.52-1.35c.1-.01.16-.07.24-.1.05-.06.02-.16.04-.24.01-.09,0-.15,0-.28v-.67s0-2.7,0-2.7l-.02-5.42c0-3.57-.02-7.15-.02-10.72,0-5.41.02-10.85.03-16.22-.02-4.18-.2-8.28-.23-12.42,0-.91-.04-1.81-.02-2.73.09-3.41.4-4.49,1.37-5.16.22-.15.44-.36.65-.44.71-.28,1.22,1.14,1.31,3.61.29,7.34.31,15.08.32,22.86.02,5.79.03,11.6.05,17.4h-.09Z"/><path class="cls-6" d="m240.91,337.76l-12.33-4.68-14.43-5.6-1.21-1.37-.31-.34-.04-.04-.02-.02h0s0-.02,0-.02h0c-.61-.01.83,0,.68,0h0s0-.05.01-.08l.03-.13c.04-.17.08-.36.11-.6.03-.12,0-.25.06-.39.04-.14.24-.27.46-.39.45-.24,1.12-.44,1.72-.65l3.64-1.19c4.08-1.3,8.13-2.65,12.2-3.91l21.59-6.62,10.79-3.3,1.39-.43.53-.16c.09-.01.18-.09.26-.05l.27.07.88.25,2.72.79,5.42,1.65c6.38,2.03,12.75,4.19,19.01,6.38,8.05,2.81,16.09,5.63,24.06,8.54,2.48.94,2.15.85-.12.63-.58-.06-1.27-.12-2.05-.2-.81-.01-1.67-.23-2.63-.4-1.92-.37-4.13-.91-6.48-1.64-8.32-2.63-16.48-5.56-24.75-8.2-4.13-1.31-8.27-2.62-12.42-3.88l-3.12-.92-.69-.21c-.05-.02-.08-.04-.13-.02l-1.39.41c-2.09.63-4.19,1.25-6.29,1.88-10.05,2.98-20.4,6.44-30.61,9.7l-7.71,2.47-1.47.46-.38.13s-.07.02-.09.04l.09.03.17.07.71.29.83.33,1.86.72,4.36,1.68,8.73,3.33c6.78,2.56,13.58,5.1,20.4,7.57,5.16,1.86,10.34,3.73,15.54,5.49,1.3.43,2.6.88,3.9,1.28.65.21,1.3.4,1.93.57.14.04.36.11.44.12.1.02.19.04.29.07.19-.05.31-.1.68-.25,2.48-1.02,4.99-2.16,7.47-3.28,7.72-3.5,15.22-7.1,22.9-10.52,1.69-.75,3.34-1.51,5.06-2.23,6.39-2.67,8.58-3.21,10.26-2.91.38.06.86.09,1.1.19.81.36-1.64,1.78-6.24,3.78-6.82,3.01-13.8,6.23-20.89,9.46-3.55,1.62-7.12,3.25-10.71,4.89-1.81.81-3.62,1.62-5.43,2.43-.94.41-1.77.78-2.91,1.21-.47.13-.96.34-1.45.24-.24-.02-.49-.06-.73-.1l-.18-.04-.1-.03-.19-.05c-.5-.14-1.05-.28-1.52-.43-5.73-1.78-11.26-3.77-16.85-5.75-5.57-2-11.13-4.03-16.67-6.08v-.08Z"/><path class="cls-6" d="m240.22,363.18c1.37,2.02,2.81,3.99,4.39,5.78l.21.25.1.1.18.17c.06.04.13.16.17.13.05-.02.1-.03.15-.04.06-.01.07,0,.18-.04l.57-.17,1.14-.35,2.27-.73c1.51-.5,3-1.04,4.48-1.61,1.32-.51,2.59-1.11,3.83-1.75,1.59-.83,3.16-1.68,4.85-2.36.53-.21.6.02.37.55-.24.51-.68,1.49-1.55,2.13-1.5,1.19-3.15,2.12-4.83,2.97-1.68.86-3.43,1.57-5.23,2.15-1.08.35-2.14.77-3.21,1.2l-1.61.65c-.09.04-.4.16-.6.22l-.67.23-.67.22c-.11.02-.23.1-.33.08l-.24-.23-1.05-1c-.16-.15-.38-.36-.48-.47l-.33-.36c-.44-.48-.87-.96-1.28-1.46-.83-.98-1.61-2-2.37-3.02-.94-1.25-1.82-2.54-2.72-3.82-1.31-1.95-2.63-3.91-3.93-5.84-1.04-1.48-2.2-2.83-3.31-4.24-.24-.31-.51-.59-.74-.91-.86-1.19-.94-1.68-.4-2.44.12-.17.23-.36.37-.51.47-.5,1.27-.31,2.04.47,2.29,2.33,4.21,5.08,6.11,7.83,1.39,2.06,2.73,4.15,4.18,6.14l-.06.05Z"/><path class="cls-6" d="m228.35,391.11c8.69,4.08,17.47,8.03,26.3,11.82,3.23,1.37,6.5,2.63,9.73,3.96,2.11.85,4.22,1.72,6.34,2.54,1.05.42,2.11.87,3.16,1.25l1.58.59c.23.08.24.1.35.13l.27.09.24.08c.07.01.2.1.19-.02.02-.16.03-.32.05-.48l.03-.57.04-1.46.12-5.84.15-11.71c.06-5.5.03-11.02,0-16.48,0-3.5-.11-7.02,0-10.53.09-3.51.14-7.03.73-10.52.33-2.18.36-1.88.74-.03.41,1.86,1.41,5.26,1.45,9.3.04,1.79.14,3.57.13,5.36v5.36c0,3.58-.02,7.16-.03,10.74-.04,7.17-.13,14.35-.36,21.57-.04,1.43-.09,2.86-.13,4.31l-.06,1.8v.94c-.04.3-.11.56-.19.78-.1.21-.18.43-.33.52l-.22.15s-.07.05-.12.07h-.02s0,0,0,0c.18.29.05.08.09.14h0s-.01,0-.01,0h-.04s-.09,0-.09,0l-1.37.08-1.73-.36c-.29-.05-.61-.15-.84-.23l-.54-.17-2.15-.69c-1.4-.5-2.83-.96-4.23-1.5-2.79-1.06-5.58-2.15-8.32-3.28-9-3.71-17.89-7.63-26.75-11.65-5.44-2.5-10.87-5.01-16.24-7.73-.75-.37-1.5-.77-2.25-1.2l-1.12-.63-.59-.4-.72-.51c-.58-.36-.7-1.11-.82-1.75-.06-.37-.08-.6-.1-.84l-.06-.72c-.07-.95-.1-1.89-.12-2.82-.06-1.86-.08-3.72-.09-5.57,0-3.69.02-7.38.03-11.05-.01-6.99-.02-13.84-.03-20.74,0-1.52-.02-3.01,0-4.54.1-5.68.4-7.48,1.34-8.68.22-.27.43-.63.64-.79.72-.53,1.23,1.81,1.33,5.97.31,12.33.1,25.34.18,38.33.02,2.07.05,4.14.12,6.19.04,1.02.11,2.05.2,3.03l.07.72.08.61s0,0-.01.03c-.09-.11.56.35,1.14.62l1.76.92c1.22.61,2.41,1.24,3.66,1.84,2.46,1.21,4.96,2.38,7.46,3.54l-.03.09Z"/><path class="cls-6" d="m229.4,363.73c.06,3.48.15,6.97.3,10.45-.01.87.21,1.73.21,2.6l.06,1.07c0,.14,0,.21.08.27.04.03.06.05.11.09.15.1.32.2.49.3.34.2.71.4,1.08.59.74.39,1.52.76,2.29,1.13,2.26,1.1,4.62,2.05,6.94,3.07,4.1,1.8,8.24,3.54,12.4,5.22l6.25,2.5,2.29.89.18.07c.06.03.14.07.12-.03l.04-.37.08-.93c.33-3.96.49-7.97.62-11.92.07-2.54.16-5.09.3-7.64l.12-1.91.24-1.91c.16-1.27.34-2.54.53-3.8.27-1.57.34-1.35.52,0,.1.74.23,1.7.38,2.8.08.59.16,1.22.24,1.88.04.33.07.68.13,1.03,0,.35,0,.71,0,1.07-.02,5.18-.07,10.37-.29,15.6l-.2,3.92c-.05.73-.05,1.04-.18,2.51l-.19,1.79-.09.89-.05.44s0,.08-.01.11l-.11-.04-.21-.07-3.34-1.14-2.07-.73c-1.23-.45-2.47-.9-3.69-1.38-5.83-2.36-11.99-4.55-17.92-7.08-1.63-.7-3.26-1.41-4.87-2.18-.81-.39-1.61-.79-2.42-1.23-.4-.22-.81-.45-1.22-.71-.25-.14-.56-.39-.83-.6-.28-.22-.46-.51-.67-.79-.1-.33-.15-.66-.18-1l-.06-.5-.02-.35-.06-1.33v-1.33s-.04-1.33-.04-1.33l-.16-5.3c-.11-4.35-.16-8.7-.13-13.05.01-1.65.04-3.3.11-4.96l.03-.77c0-.31.08-.52.12-.79l.28-1.52.07-.38v-.05s.01-.02.01-.02h0s-.1-.15.1.12h0s.05-.03.07-.04l.14-.04c.18-.05.36-.13.6-.11.49.04,1.08.26,1.64.47l2.56,1.03,2.3.88c1.53.58,3.06,1.16,4.59,1.73,4.75,1.76,9.48,3.29,14.24,4.79,1.05.32,2.08.63,3.14.95,3.91,1.21,5.1,1.7,5.73,2.71.15.23.36.47.42.68.24.7-1.56.79-4.53.02-8.77-2.29-17.56-5.85-26.44-9.15-.41-.16-.82-.31-1.24-.43l-.63-.19-.16-.05c-.06-.02-.11-.03-.09-.03,0-.01,0,0,0,0,0,0,0,0-.01,0h0s0,0,0,0c0,.03,0-.04,0,.07v.33c-.03.87-.05,1.74-.06,2.61-.04,3.49,0,7.01.09,10.52h-.07Z"/><path class="cls-2" d="m111.58,421.56c1.91,6.11,11.51,9.56,20.63,4.3,9.12-5.27,11.33-21.3,10.74-26.59-.6-5.28-5.7-9.44-5.7-9.44,0,0-7.23-2.68-10.65-2.1-3.42.58-10.2,5.52-14.64,11.78-4.43,6.25-2.29,15.94-.38,22.05Zm10.05-9.83l4.42-14.91,3.76,10.4-8.18,4.51Z"/><path class="cls-6" d="m126.57,400.36c0-.06-.02-.15-.05-.25-.02-.05-.04-.11-.06-.16-.02-.07-.09-.1-.11-.06-.07.04-.12.12-.18.21-.03.05-.06.1-.09.16l-.02.04-.08.19-.16.42c-.3.83-.52,1.69-.81,2.53-1.03,2.97-1.94,6-2.88,9.03-.4,1.35-.73,2.72-1.03,4.08-.19.88-.38,1.75-.6,2.62-.21.87-.48,1.73-.91,2.55-.27.51-.42.41-.66-.12-.12-.27-.31-.65-.43-1.09-.15-.45-.22-.95-.15-1.47.19-1.84.56-3.65.98-5.45.43-1.79.88-3.59,1.52-5.34.75-2.1,1.23-4.36,1.93-6.54.19-.6.4-1.2.61-1.8l.43-1.16.28-.69.33-.59c.22-.37.42-.83.67-1.04l.36-.4c.13-.1.28-.16.42-.24.13-.1.38-.07.52,0,.16.06.29.14.42.24.27.19.52.45.77.79.3.42.58.95.82,1.49.25.53.5,1.14.61,1.43l.83,2.17c.8,2.19,1.6,4.38,2.39,6.55.63,1.68,1.38,3.27,2.07,4.9.15.36.32.7.46,1.07.51,1.36.46,1.86,0,2.36-.11.11-.21.25-.32.34-.39.29-.97-.13-1.51-1.08-1.5-2.82-2.65-5.94-3.83-9.05-.43-1.15-.87-2.31-1.3-3.46-.22-.58-.44-1.14-.68-1.71l-.62-1.43.05-.04Z"/><path class="cls-6" d="m136.99,419.35c3.42-4.41,5.25-10.12,5.09-15.75-.02-2.07-.5-4.08-1.1-6.01-1.03-3.42-3.26-6.34-6.38-8-3.1-1.67-6.94-1.85-10.29-.55-3,1.19-5.77,3.22-7.95,5.6-1.42,1.54-2.56,3.31-3.51,5.17-.98,1.86-1.68,3.82-2.56,5.84-.54,1.27-.36,1.13-.42-.05-.04-.59-.19-1.47-.17-2.52.03-.52.04-1.1.13-1.71.14-.58.28-1.22.53-1.84,1.71-4.42,4.96-8.25,8.95-10.82,1-.65,2.02-1.22,3.13-1.72,1.13-.5,2.31-.92,3.54-1.13,2.44-.47,5.01-.35,7.36.45,2.81.91,5.4,2.65,7.3,4.97.98,1.14,1.7,2.48,2.32,3.82l.76,2.06c.2.7.36,1.41.53,2.11,1.24,6.25.04,12.77-2.97,18.24-1.87,3.35-4.46,6.36-7.7,8.47-2.42,1.65-5.21,2.69-8.09,3.21-2.88.5-5.99.19-8.65-1.18-2.06-1.06-3.79-2.64-5.13-4.47-1.35-1.85-2.21-3.97-2.81-6.14-.23-.97-.49-1.91-.57-2.92-.05-.46-.1-.89-.13-1.27,0-.39,0-.74.01-1.06.03-.64.04-1.16.15-1.58.23-.84.51-1.3.91-1.64.18-.15.37-.36.54-.44.29-.13.52.18.68.82.17.64.23,1.61.34,2.83.09,1.81.46,3.6.95,5.33.53,1.72,1.32,3.34,2.31,4.8,1.05,1.41,2.34,2.59,3.83,3.41,1.48.87,3.23,1.16,4.98,1.2,2.62,0,5.37-.82,7.79-2.14,2.44-1.32,4.57-3.2,6.26-5.43l.06.03Z"/><path class="cls-6" d="m128.87,409.54c-1.14.39-2.27.73-3.39,1.06-.41.12-.79.32-1.19.43-1.45.38-2.89.7-4.27,1.19-.62.2-1.2.48-1.78.76-.71.41-1.47.7-2.34.9-.27.06-.32-.07-.27-.39.07-.29.16-.92.5-1.36.16-.17.33-.33.49-.49l.25-.24.28-.19c.38-.25.77-.47,1.17-.68.8-.42,1.66-.68,2.52-.89,1.04-.24,2-.77,3.01-1.09,1.1-.36,2.21-.7,3.29-1.08.67-.23,1.32-.48,1.97-.75.97-.43,1.95-.85,2.82-1.45.68-.45,1.22-1.06,1.79-1.62.13-.12.22-.28.35-.4.47-.45.74-.44,1.32,0,.13.1.27.2.39.31.41.37.49.89.18,1.35-.9,1.37-2.29,2.37-3.74,3.17-1.08.62-2.22,1.06-3.35,1.52l-.03-.06Z"/><path class="cls-6" d="m60.64,345.84l.13,6.65c.02,1.02.05,2.61.02,2.44-.03.07.07.07.1.11l.07.05.04.02.16.08,1.46.78c1.43.75,2.9,1.41,4.33,2.15,5.04,2.61,10.12,5.19,15.24,7.69,2.27,1.11,4.61,2.11,6.9,3.13,1.46.67,2.96,1.28,4.41,2,.71.38,1.45.72,2.13,1.17.68.46,1.36.91,2.04,1.37.84.59.69.59-.21.52-.45-.03-1.1-.06-1.89-.08-.39-.02-.83,0-1.26-.06-.43-.08-.87-.18-1.32-.31-3.14-1.04-6.19-2.28-9.19-3.67-3-1.37-5.99-2.82-8.93-4.38-3.51-1.89-7.32-3.53-10.95-5.38l-2.99-1.54-1.6-.84-1.2-.62-.3-.16s-.06-.02-.07-.04v-.09s0-.17,0-.17l-.02-.68-.05-7.15c-.02-2.75-.04-5.51-.06-8.26-.04-4.17,0-8.37.01-12.51-.03-3.22-.05-6.39-.08-9.57,0-.7-.02-1.39,0-2.1.08-2.62.34-3.44,1.15-3.96.19-.12.37-.27.56-.34.62-.21,1.06.88,1.13,2.79.21,5.68.07,11.61.08,17.58.01,2.22.02,4.44.04,6.67l.2,6.69h-.07Z"/><path class="cls-6" d="m104.81,367.13l20.73-8.79c2.51-1.09,4.99-2.26,7.51-3.31l9.02-3.81,4.52-1.86c.75-.32,1.51-.62,2.24-.96l1.04-.49c.13-.08.34-.11.4-.25.03-.15.03-.35.05-.54l.05-1.16.08-2.33.13-4.68c.12-4.28.14-8.59.15-12.83.05-5.46,0-10.94.48-16.4.22-1.7.39-1.47.8-.03.22.72.44,1.74.68,2.98.25,1.24.45,2.69.5,4.26l.27,7.83c0,2.61.02,5.23.02,7.84-.01,2.62-.02,5.23-.08,7.86l-.12,3.94-.08,1.98-.02.5c0,.17,0,.29-.05.61-.08.55-.09,1.09-.23,1.63-.37.42-.78.84-1.38,1.1l-.41.22-.25.11-.5.23c-6.12,2.92-12.44,5.87-18.72,8.71-6.92,3.05-13.88,6.03-20.83,9.02-4.19,1.8-8.37,3.6-12.56,5.4l-1.3.19-.36.05-.18.03h-.09s-.05.02-.05.02h-.02c-.04.06.05-.08.04-.07h0s-.01,0-.01,0c-.18-.11-.26-.29-.36-.51-.18-.41-.33-.95-.36-1.6-.07-1.23-.09-2.77-.09-3.47v-5.31c0-3.53,0-7.05,0-10.56-.02-5.44-.21-10.78-.24-16.17,0-1.19-.04-2.35-.02-3.55.08-4.44.4-5.86,1.37-6.76.22-.21.44-.48.65-.59.7-.38,1.2,1.44,1.29,4.66.32,9.58.4,19.7.47,29.85.01,2.46.08,4.93.14,7.39l.05,1.83v.03s-.02.03-.02.06c0,0,.02,0,.04,0,.06-.03.13-.05.2-.08l1.78-.77,3.61-1.56.05.08Z"/><path class="cls-6" d="m135.29,342.98c-.69,1.01-1.41,1.99-2.15,2.95l-1.14,1.43c-.26.28-1.08,1.44-1.85,1.92-1.03.4-2.76-.23-3.23-.34-.74-.21-1.46-.45-2.18-.7-1.37-.48-2.75-.95-4.08-1.6-2.3-1.16-4.66-2.56-6.34-4.98-.82-1.2-1.34-2.81-1.16-4.35.05-.38.09-.76.21-1.11l.16-.53.22-.49c.16-.32.3-.66.48-.97l.65-.89c.86-.96,1.93-1.81,3.15-2.19,1.19-.43,2.44-.61,3.64-.5,1.54.1,3.04.47,4.41,1.14.68.34,1.31.8,1.89,1.32.27.29.56.54.79.86.21.34.45.64.58,1.03.35.95,0,.85-.73.48-.77-.36-2-.67-3.28-1.07-1.11-.44-2.31-.72-3.46-.75l-.85.02c-.27.04-.54.09-.81.11-.26.04-.5.12-.76.17-.25.06-.46.18-.69.26-.87.4-1.52,1.05-1.99,1.98-.54.93-.71,1.81-.49,2.78.29,1.18,1.38,2.34,2.68,3.26,1.32.91,2.83,1.67,4.38,2.31,1.03.43,2.08.82,3.16,1.16.54.17,1.07.33,1.61.47l.47.13c.11.01.24.1.33.03l.31-.34.69-.86c.46-.59.92-1.19,1.36-1.79,1.37-1.88,2.66-3.83,3.75-5.87.81-1.54,1.54-3.13,1.98-4.75.22-.81.35-1.62.33-2.39,0-.75-.23-1.51-.59-1.94-.31-.31-.68-.52-1.17-.56-.49-.02-1.03.04-1.56.26-1.06.39-2.06,1.11-2.87,1.96-.19.17-.34.39-.5.58-.17.19-.32.39-.47.6-.58.75-.86,1.29-1.19,1.62-.38.32-.66.5-1.16.6-.22.05-.44.14-.64.17-.34.04-.58-.19-.7-.71-.14-.52-.11-1.32.27-2.23.55-1.35,1.4-2.61,2.53-3.6,1.12-1,2.45-1.83,4.1-2.28.4-.13.88-.16,1.31-.23.48-.01.96-.03,1.48.07,1.04.15,2.18.74,2.97,1.65.34.44.67.97.86,1.43.19.47.32.93.4,1.38.14.9.15,1.78.05,2.56-.29,2.36-1.12,4.32-2.01,6.17-.91,1.85-1.96,3.57-3.06,5.24l-.07-.04Z"/><path class="cls-6" d="m78.76,306.46l-10.93,4.08-2.43.92-.5.17c-.16.07-.42.12-.53.22l.48.21.3.13.16.07.08.04.33.13,3.03,1.22c3.37,1.38,6.77,2.67,10.13,4.07,5.9,2.43,11.83,5.01,17.72,7.12l1.05.32c.09,0,.16.03.25.07.09.02.21-.06.31-.07l.18-.04.28-.08.56-.16c.37-.11.74-.22,1.12-.34,1.51-.48,3.02-.99,4.53-1.5,3.02-1.04,6.04-2.09,9.05-3.16,5.35-1.9,10.68-3.96,15.95-5.96,3.39-1.28,6.74-2.66,10.15-3.91,3.42-1.22,6.83-2.44,10.33-3.43,2.23-.5,1.95-.4.35.75-.79.59-1.95,1.35-3.36,2.27-1.42.88-3.13,1.8-5.03,2.68l-2.54,1.14-2.58,1.04-5.16,2.06c-3.44,1.36-6.9,2.71-10.38,3.98-6.98,2.55-13.93,5.07-21.17,7.28l-.84.24-.42.12c-.18.05-.41.09-.61.13-.21.04-.42.08-.63.1-.23-.02-.46-.05-.7-.09-.54-.08-.7-.18-1.03-.27-1.18-.36-2.23-.75-3.31-1.15-2.13-.81-4.28-1.62-6.43-2.44-4.28-1.65-8.57-3.32-12.81-5.02l-6.14-2.45-3.07-1.22-2.28-.89-2.51-.95-.68-.33c-.1-.05-.25-.11-.31-.16l-.13-.15-.51-.61-.26-.3-.13-.15s-.05-.04-.06-.08c0-.05.02-.07.04-.1.12-.21.25-.39.41-.61.17-.21.39-.44.71-.68.28-.24.69-.49,1.21-.71,1.05-.43,2.15-.84,3.2-1.22l4.33-1.66,3.95-1.48c5.8-2.13,11.6-4.27,17.4-6.4,3.99-1.45,7.98-2.91,11.97-4.36,2-.72,4-1.43,5.99-2.14l3-1.05,1.51-.51.77-.25c.28-.08.7-.23,1.05-.24.3.04.63.1.91.17l.67.19c.44.12.85.26,1.27.39,6.87,2.26,13.6,4.47,20.38,6.71,1.49.49,2.95.96,4.46,1.45,5.55,1.88,7.23,2.67,8.13,3.97.21.3.5.62.6.88.33.88-2.18.76-6.33-.45-5.04-1.47-10.13-3.12-15.27-4.86-2.56-.88-5.14-1.77-7.73-2.66-1.29-.44-2.58-.88-3.88-1.33l-1.92-.64c-.33-.11-.62-.19-.92-.28l-.33-.1s0,0,0,0c0,0,0,0,0,0l-.19.06-.82.26-1.69.57c-1.14.4-2.28.8-3.42,1.2-9.42,3.35-18.91,6.75-28.3,10.3l-.04-.07Z"/><path class="cls-6" d="m239.81,451.43s-4.55-7.44-8.95-4.65c-2.68,1.7-1.35,3.22.2,6.21,1.55,2.99,4.29,3.25,5.93,3.41,1.64.16,2.82-4.98,2.82-4.98Z"/><path class="cls-5" d="m265.46,415l-71.53-28.42s9.55-5.2,14.1-7.49,3.99,2,3.99,2l2.74,6.15,51.79,21.75-1.08,6.01Z"/><path class="cls-6" d="m210.77,392.25l15.48,6.52c1.88.79,3.8,1.5,5.67,2.3,6.62,2.81,13.19,5.7,19.85,8.37,2.95,1.18,5.97,2.25,8.95,3.29l1.44.5c.44.15,1.1.38,1.18.39.11-.01.2-.07.31-.11.21-.08.44-.17.66-.27.45-.19.9-.4,1.36-.61,1.82-.85,3.65-1.75,5.76-2.29.68-.16,1.06-.03,1.04.14,0,.18-.3.43-.71.81-.42.39-.98.91-1.69,1.52-.7.62-1.56,1.27-2.61,1.83l-1.42.74c-.24.12-.49.24-.74.36l-.38.17-.46.2c-.24.1-.49.16-.73.24l-.37.11c-.12.06-.25-.04-.37-.06l-1.11-.34-1.5-.46c-2-.59-3.95-1.34-5.92-2.04-3.92-1.44-7.8-3-11.65-4.67-4.61-1.99-9.5-3.8-14.24-5.72l-15.63-6.39c-3.21-1.3-6.42-2.59-9.65-3.85-3.29-1.27-5.8-2.28-10.6-4.05-.72-.51-1.48-.99-2.17-1.52.4-.62.91-1.19,1.98-1.85,2.13-1.14,4.23-2.28,6.33-3.41,1.76-.96,3.51-1.92,5.27-2.88.78-.42,1.52-.86,2.31-1.27,2.95-1.46,3.99-1.69,5.05-1.14.24.12.53.22.71.38.63.51-.31,1.7-2.38,2.98-3.06,1.92-6.32,3.62-9.62,5.34-.83.42-1.66.85-2.49,1.27l-.16.08h0s0,.01,0,.01h0s0,.03,0,.03c0,.02.04.01.04.01,1.78.7,3.56,1.39,5.35,2.09l7.87,3.14-.02.08Z"/><path class="cls-1" d="m315.92,393.39s3.74,46.83,1.31,48.65c-2.43,1.82-52.86,36.64-53.66,33.26-.8-3.39,1.88-60.31,1.88-60.31l12.31-1.32,38.16-20.29Z"/><path class="cls-6" d="m190.75,445.61c-.14-1.06-.26-2.12-.3-3.19-.03-.39-.06-.77-.06-1.16,0-1.37.07-2.73.2-4.09.05-.6.1-1.2.18-1.8.1-.76.23-1.52.45-2.26.07-.23.14-.18.21.03.07.21.16.6.16,1.04-.02.77.04,1.55-.01,2.31-.05.75-.09,1.51-.14,2.3-.07.92.04,1.88.12,2.82.09,1.03.18,2.07.34,3.1.09.63.2,1.26.33,1.89.2.95.43,1.9.75,2.81.25.71.59,1.36.93,2.02l.23.43c.26.54.25.76-.04,1.03-.07.06-.13.13-.2.19-.24.18-.56.04-.82-.35-.76-1.16-1.28-2.53-1.66-3.93-.29-1.04-.5-2.11-.68-3.17h.03Z"/><path class="cls-6" d="m315.71,438.11c.23-.96.42-1.94.58-2.93.05-.36.06-.73.12-1.09.19-1.28.34-2.57.47-3.86.07-.57.08-1.15.1-1.73.02-.37,0-.74.04-1.1.06-.37.14-.74.23-1.1.06-.23.13-.2.27,0,.12.2.37.56.5.98.16.76.12,1.51.14,2.27,0,.76-.04,1.52-.18,2.28-.14.91-.14,1.86-.24,2.8-.11,1.03-.27,2.05-.46,3.07-.1.63-.27,1.25-.4,1.87-.24.94-.51,1.88-.85,2.79-.13.36-.23.72-.38,1.08-.13.36-.26.72-.47,1.07-.08.15-.17.3-.26.45-.43.51-.68.58-1.02.41-.08-.04-.16-.07-.23-.12-.23-.17-.24-.52-.07-.88.45-1.08.94-2.19,1.32-3.44.31-.91.55-1.87.77-2.83h.04Z"/><path class="cls-6" d="m265.18,474.43l.07-.03.68-.42,1.4-.87,2.8-1.76,5.59-3.54,11.14-7.16c2.68-1.78,5.37-3.56,8.05-5.34l14.27-9.28,3.54-2.35,1.75-1.19,1.42-.99c.16-.07.15-.24.16-.39l.05-.84.09-2.11.13-4.24c.13-5.03.12-10.09.06-15.09-.03-3.21-.06-6.42-.09-9.64.04-3.21.13-6.43.37-9.64.33-2.01.23-1.75.76-.07.52,1.67,1.45,4.78,1.8,8.49.2,3.29.3,6.57.39,9.86.02,3.29.02,6.58-.02,9.87-.04,3.29-.11,6.59-.23,9.9l-.11,2.5-.09,1.47c-.11.74-.21,1.47-.81,1.95-.28.24-.6.48-.86.67l-.53.37-1.04.7-2.08,1.37c-6.66,4.31-13.4,9.04-20.17,13.5-7.44,4.89-14.91,9.74-22.43,14.53l-3.48,2.2-2.3,1.43c-.87.54-1.82,1.1-2.44,1.08-.15-.01-.27-.06-.4-.08l-.19-.03s-.06-.01-.1-.02c0,0-.02,0-.03-.02h0c.03-.05-.25.42-.13.22h0s0-.03,0-.03v-.08s-.17-1.25-.17-1.25l-.32-2.5c-.02-.22-.07-.4-.06-.64l.03-.76c0-.34.05-.68.04-1.03l.02-2.05c.08-8.29.2-16.63.23-24.86.02-6.4-.14-12.68-.17-19.02,0-1.4-.04-2.76-.02-4.17.07-5.22.33-6.87,1.26-7.96.2-.25.4-.58.59-.72.63-.48,1.19,1.66,1.26,5.47.28,11.3.24,23.21.21,35.18-.02,4.44-.04,8.9-.07,13.36l-.02,3.34v1.67c.02.27.03.57.05.82,0,.01.03.02.02.03l-.02.16s.08-.03.14-.06l.02.09Z"/><path class="cls-6" d="m191.88,443.06c0,1.72,0,3.45.08,5.15l.05,1.27v.28s0,.06,0,.06c0,.03,0,.06,0,.1-.01.08.07.1.12.14.04.02-.03,0,.09.06l.27.14.55.29c3,1.54,6.15,2.99,9.27,4.42,2.29,1.04,4.62,1.98,6.92,3,8.1,3.6,16.24,7.13,24.46,10.44,3.65,1.47,7.37,2.8,11.05,4.1,2.36.83,4.75,1.6,7.13,2.38,2.36.85,4.71,1.7,6.99,2.81.68.46.97.69.92.77-.05.09-.44.07-1.17.2-.73.14-1.72.17-2.93.21-1.2,0-2.56-.16-3.99-.49-2.5-.69-4.94-1.53-7.39-2.35-2.44-.84-4.88-1.68-7.27-2.65-4.81-1.88-9.56-3.9-14.29-6.04-5.65-2.56-11.67-4.89-17.47-7.45-3.19-1.41-6.37-2.85-9.53-4.34-1.58-.75-3.16-1.5-4.74-2.33-.3-.17-1.08-.55-1.5-.99-.25-.21-.49-.44-.51-.78-.08-.31-.12-.64-.16-.97l-.03-1.52v-1.31c0-4.29-.02-8.58-.03-12.87.01-6.49.02-13.01.04-19.45-.03-5.01-.22-9.92-.29-14.87-.01-1.09-.07-2.16-.06-3.26.02-4.08.27-5.38,1.15-6.23.2-.19.39-.45.58-.56.63-.37,1.16,1.3,1.27,4.28.39,8.83.44,18.14.46,27.5.02,6.95-.01,13.93.05,20.88h-.08Z"/><path class="cls-6" d="m220.26,442.68s-4.61-7.55-8.3-3.82c-3.7,3.73.77,6.9,3.33,7.59s5.05-1.23,5.05-1.23l-.08-2.54Z"/><path class="cls-6" d="m240.74,435.95c-2.73.37-18.45-7.39-18.45-7.39l-1.98-12.18,20.2,12.49.23,7.09Z"/><path class="cls-6" d="m232.76,435.22c-.94-.46-1.87-.92-2.79-1.42-.33-.18-.69-.3-1.02-.5-1.15-.69-2.28-1.39-3.38-2.12-.49-.33-1-.61-1.51-.9-.33-.17-.66-.36-.96-.59-.31-.21-.59-.47-.81-.82-.14-.21-.07-.27.21-.36.2-.06.41-.13.57-.18.22-.05.44-.05.66,0,.77.15,1.41.52,2.1.82.68.31,1.33.68,1.94,1.13.74.52,1.64.82,2.47,1.21.92.42,1.82.89,2.74,1.3.56.26,1.14.51,1.71.74.88.34,1.76.69,2.66.91.71.17,1.43.17,2.14.21.16.01.31,0,.47.01.57.06.72.25.74.92,0,.15.02.31.01.46-.02.51-.33.88-.81.93-1.42.18-2.84-.14-4.2-.57-1.01-.32-1.99-.73-2.97-1.14l.02-.05Z"/><path class="cls-6" d="m219.27,421.06c-.01-.18-.06-.36-.1-.53l-.06-.26v-.07c-.11-.02-.05-.08-.08-.12l-.04-.26-.33-2.07-.66-4.07c1.16.39,2.4.81,3.56,1.25l1.75.66c.55.19,1.27.53,1.48.63,1.3.59,2.54,1.25,3.77,1.93,2.46,1.36,4.82,2.83,7.12,4.39,1.07.72,2.13,1.44,3.19,2.19l.79.58.45.34c.21.18.42.36.61.55.39.39.49.95.6,1.49l.15,1.02c.57,4.51.87,8.98.98,13.5.04,2.26.02,4.52-.15,6.81-.08,1.14-.24,2.29-.47,3.44-.25,1.15-.52,2.32-1.25,3.5-.65,1.08-1.8,1.8-2.95,2.08-1.16.29-2.36.21-3.46-.15-.54-.18-1.1-.44-1.53-.74-.46-.28-.9-.6-1.31-.96-.82-.71-1.54-1.55-2.08-2.51-.69-1.22-1.12-2.66-1.03-4.12.05-.73.2-1.46.49-2.14.3-.69.74-1.33,1.28-1.85.54-.53,1.21-.9,1.91-1.15.72-.22,1.47-.27,2.18-.18,1.45.15,2.68.92,3.6,1.84.57.59.75.89.71.9-.06.03-.36-.23-.95-.55-.58-.32-1.51-.6-2.52-.63-.51.02-1.03.07-1.51.28-.12.03-.24.11-.35.16-.11.05-.23.1-.33.21-.23.09-.44.24-.64.38-.73.53-1.14,1.32-1.27,2.25-.11.91.07,1.88.46,2.79.41.91,1.06,1.73,1.87,2.4.39.32.88.65,1.29.86.39.2.83.34,1.26.4.88.12,1.73-.11,2.23-.57.26-.24.43-.5.62-.96.17-.47.33-1,.43-1.57.43-2.3.59-4.85.68-7.39.09-3.05-.08-6.19-.36-9.33-.14-1.57-.32-3.15-.52-4.71-.1-.78-.2-1.56-.32-2.32-.16-.81.07-.45-.63-1.02-2.72-2.05-5.64-3.96-8.59-5.72-1.49-.86-2.99-1.7-4.52-2.45-.38-.2-.77-.36-1.16-.54l-.42-.2-.26-.11c-.35-.16-.72-.3-1.11-.44-.03-.02-.03,0-.02.03l.2,1.41.07.64c.02.27.07.53.1.8l.22,1.59c.28,2.12.51,4.25.69,6.39.27,3.28.39,6.59.17,9.91-.12,1.66-.33,3.34-.79,5-.25.83-.52,1.66-.97,2.45-.4.8-1.03,1.56-1.8,2.16-.33.2-.64.45-1.01.56-.36.15-.73.28-1.11.31l-.57.08-.55-.02-.55-.02c-.18-.03-.36-.07-.54-.1-1.43-.28-2.74-1.03-3.77-2.01-1.03-.99-1.8-2.21-2.28-3.57-.47-1.35-.65-2.86-.33-4.37.27-1.33,1.04-2.61,2.09-3.51.98-.86,2.25-1.29,3.26-1.25,1.01.03,1.72.34,2.22.62.98.61,1.29,1.19,1.43,1.78.06.27.16.58.14.8-.04.37-.47.38-1.17.18-.68-.18-1.72-.59-2.56-.46-.58.1-1.14.48-1.62,1.15-.43.59-.65,1.3-.69,2.08-.08,1.58.71,3.42,1.96,4.51.62.55,1.32.91,2.05,1.05.76.14,1.34.05,1.78-.24.46-.29.94-.95,1.3-1.82.36-.86.63-1.86.8-2.92.53-3.15.52-6.59.36-10-.18-3.42-.58-6.85-1.08-10.28l.07-.02Z"/><path class="cls-6" d="m271.58,114.22c.14.27.28.55.41.83.06.14.13.27.19.41.04.09.22.51.11.25.27.66.51,1.33.7,2.01.09.33.17.66.23,1,.01.07.08.49.06.33-.03-.18,0,.04,0,.06.01.11.02.22.03.32.02.31.02.63,0,.95,0,.08-.02.16-.02.24,0-.02.06-.26.01-.1s-.07.35-.12.52c-.02.06-.17.43-.08.26.08-.16-.09.17-.13.23s-.08.13-.12.19c-.05.08-.17.16.02-.03-.13.12-.25.25-.37.38-.03.03-.22.19-.02.03-.05.04-.11.08-.16.11-.12.08-.25.15-.38.23-.24.13-.03.01.03,0-.07.03-.15.05-.22.07-.15.04-.5.09-.16.06-.15.01-.3.02-.45.02-.06,0-.47-.04-.25-.01.2.03-.18-.04-.25-.06-.17-.04-.34-.09-.5-.15-.11-.04-.41-.17-.14-.05-.13-.06-.25-.12-.38-.18-.29-.15-.57-.31-.84-.49-.29-.19-.57-.38-.85-.59-.09-.07-.42-.32-.17-.12-.14-.11-.27-.21-.4-.32-.52-.42-1.04-.85-1.59-1.24-.64-.46-1.7-.13-2.05.54-.41.78-.14,1.56.54,2.05.09.07.2.13.28.21-.31-.32.03.02.11.09.24.19.48.38.72.57.62.49,1.24.97,1.9,1.4,1.26.81,2.79,1.48,4.32,1.33,1.73-.17,3.38-1.25,4.15-2.84s.7-3.29.37-4.95c-.36-1.78-1.09-3.48-1.92-5.09-.36-.7-1.4-.96-2.05-.54-.71.46-.92,1.3-.54,2.05h0Z"/><path class="cls-6" d="m284.2,137.37c2.45-.09,4.39-1.52,5.31-3.76s.48-4.83-.48-7c-.35-.78-1.54-1.02-2.22-.58-.81.52-.95,1.39-.58,2.22.18.41-.11-.31.04.1.04.12.09.24.13.37.07.22.14.44.2.67s.09.44.14.66c.07.37-.02-.3,0,.04,0,.12.02.23.03.35.01.23.01.46,0,.68,0,.09-.01.18-.02.28,0,.05,0,.11-.02.16.03-.23.04-.29.02-.16-.08.4-.17.78-.3,1.16-.1.3.16-.31,0-.02-.04.07-.07.15-.11.22-.09.16-.18.3-.28.46-.17.28.22-.25.02-.03-.06.07-.12.14-.19.21s-.13.13-.2.2l-.07.06c-.13.11-.1.08.11-.08-.14.04-.32.21-.44.28-.05.03-.18.06-.21.11.24-.1.28-.11.12-.05l-.09.03c-.19.07-.39.11-.58.15-.31.07.37-.02.02,0-.11,0-.22.01-.32.02-.85.03-1.67.73-1.62,1.62s.71,1.66,1.62,1.62h0Z"/><path class="cls-6" d="m172.98,206.51c-.24.1-.44-.14-.61-.56-.05-.14-.04-.54.03-.6.14-.11.28-.23.42-.31.09-.05,1.43-.31,1.89-.43.44-.11.89-.16,1.33-.18l2.68-.18c.2-.01.39,0,.59.05.67.18,1.34.19,2,.12.11-.01.22,0,.33-.1.19-.16,1.95-.27,2.17-.21.56.17,1.12.24,1.67.34.08.01.15-.05.24.09.2.3.37.25.53.25.23,0,.48.04.71.09.12.03.27.16.42.26.14.09.2.51.17.56-.08.16.07.33.13.49.02.06.05.13.05.18.05.11-1.4,1.3-1.59,1.31-.06.09-2.34.37-2.58.4-.13.03-.27-.05-.4-.09-.07-.01-1.83.15-1.89.13-.36-.05-.72.02-1.07-.25-.07-.05-.14-.04-.21-.05-.62,0-1.22-.17-1.82-.29-.31-.06-.62-.07-.93-.1-.06,0-.11-.05-.17-.07-.07-.03-.14-.06-.21-.07-.73-.06-1.46-.24-2.19-.23-.17,0-.96-.29-1.16-.28-.11,0-.46-.32-.55-.27Z"/><path class="cls-6" d="m182.66,187.38c-.25-.08-.1-.39.27-.84.12-.14.57-.44.67-.44.19,0,.38.02.53.06.09.02.98.8,1.3,1.05.31.24.55.54.77.84l1.4,1.83c.1.14.18.29.24.46.19.58.52,1.06.91,1.5.06.07.11.16.24.18.22.03,1.16,1.31,1.21,1.53.13.53.33,1.01.49,1.52.02.07.1.11.04.24-.14.28,0,.38.06.53.1.2.19.4.24.63.02.11-.04.29-.08.45-.04.14-.4.33-.46.33-.16,0-.28.17-.41.27-.05.04-.11.08-.15.1-.09.05-1.39-.58-1.46-.7-.01-.01-.32-.36-.65-.73-.33-.37-.67-.75-.76-.82-.08-.07-.1-.2-.12-.31-.01-.05-1.01-1.15-1.04-1.2-.14-.27-.39-.47-.37-.85,0-.08-.04-.12-.08-.17-.32-.41-.54-.9-.78-1.37-.12-.24-.3-.44-.44-.67-.03-.04-.02-.1-.04-.15-.02-.06-.03-.13-.06-.18-.37-.51-.62-1.11-1.06-1.57-.1-.11-.27-.83-.39-.95-.07-.07.07-.54-.03-.57Z"/><path class="cls-6" d="m197.78,196.91c.25.2.04.54-.41.97-.14.14-.66.35-.77.3-.21-.09-.42-.19-.59-.31-.11-.06-1.06-1.53-1.36-2.07-.32-.5-.52-1.04-.69-1.59-.35-1.12-.61-2.27-.76-3.44-.04-.26-.04-.52.01-.79.15-.9.12-1.78.07-2.68,0-.15.02-.3-.1-.45-.11-.12-.12-.8-.09-1.48.04-.68.15-1.37.22-1.52.35-.74.64-1.48,1.01-2.18.05-.1.03-.23.21-.28.4-.13.41-.37.5-.59.12-.31.31-.59.53-.85.11-.13.36-.21.56-.3.18-.08.64.17.68.23.11.19.37.17.58.23.07.02.16.05.21.08.09.07.53,1.96.46,2.11,0,.01-.04.16-.07.4-.03.23-.08.54-.12.85-.06.63-.12,1.29-.1,1.43.01.14-.09.27-.16.4-.07.06.01,1.97.02,2.04-.08.39.04.78-.26,1.17-.06.08-.04.16-.04.24.05.68-.04,1.36-.05,2.05-.01.35.08.69.11,1.04,0,.06-.03.13-.04.2-.01.08-.03.17-.02.25.13.82.13,1.68.44,2.46.05.18.02,1.16.13,1.37.05.11-.2.65-.09.73Z"/></svg>