<?xml version="1.0" encoding="UTF-8"?><svg id="Layer_1" xmlns="http://www.w3.org/2000/svg" width="520" height="520" viewBox="0 0 520 520"><defs><style>.cls-1{opacity:.35;}.cls-1,.cls-2,.cls-3{fill:#231f20;stroke-width:0px;}.cls-4{opacity:.45;}.cls-2{opacity:.55;}</style></defs><path class="cls-3" d="m338.35,143.06s8.42,5.7,6.34,16.14c-1.27,6.39,4.19-11.09,2.13-14.29-2.13-3.3-9.05-7.82-9.05-7.82l.58,5.97Z"/><path class="cls-3" d="m429.42,496.58l5.42.12c.66,0,1.32-.04,1.98-.01,2.33.1,4.66.2,6.98.26,1.03.05,2.07.04,3.1.04,1.32-.04,2.64.04,3.96.24.41.06.35.2,0,.39-.35.19-.98.5-1.73.66-2.66.4-5.33.67-8.03.54-1.62-.07-3.29.14-4.95.2-1.82.05-3.64.05-5.46.07l-3.36.02c-1.7.02-3.41,0-5.1.06-1.32.03-2.6.19-3.94.21-.3,0-.59.03-.89,0-.57-.03-.96-.18-1.27-.38-.15-.11-.27-.23-.39-.42-.08-.14-.23-.49-.08-.72.15-.2.34-.16.45-.09.05.03.09.07.12.11.02.02.12.11.08.07-.02-.03-.16-.09-.16-.1-.06-.02-.06,0,0-.04.06-.03.09-.07.13-.14.07-.09.14-.19.18-.31.08-.19.06-.1.08-.15.01-.02.03-.03.06-.04.08-.05.24-.09.4-.11,1.02-.14,2.21-.28,3.38-.39.59-.05,1.19-.11,1.79-.14l1.81-.02c1.81,0,3.63.02,5.44.02v.06Z"/><path class="cls-3" d="m437.97,494.18c.82.06,1.64.11,2.47.14.3,0,.6-.03.9,0,1.06.08,2.13.12,3.2.11.47,0,.95-.04,1.41-.07.6-.05,1.2-.11,1.81-.04.19.02.17.08.02.2-.15.1-.42.32-.76.42-1.2.27-2.41.54-3.66.6-.74.03-1.51.21-2.26.3-.84.07-1.68.09-2.52.11-.52,0-1.03.02-1.55.02-.78.02-1.57,0-2.34.05-.6.05-1.19.21-1.78.32-.13.02-.26.07-.39.08-.49.05-.65-.1-.75-.68-.02-.13-.06-.27-.07-.4-.05-.45.15-.82.51-.95,1.05-.38,2.16-.4,3.27-.36.82.04,1.65.08,2.48.11v.04Z"/><path class="cls-1" d="m418.48,473.82c.38.92.58,6.33,0,6.38-.58.05-18.81,7.77-20.31,9.32-1.5,1.54.33,3.5,1.56,3.96,4.24,1.59,8.74,0,8.74,0,0,0-.72,3.49,1.73,4.42,2.45.94,16.96-1.87,21.46-3.46s10.58-4.94,10.58-4.94l-.22-16.43-11.46.51-12.07.24Z"/><path class="cls-3" d="m423.4,472.83c.63.08,1.27.16,1.9.25.23.03.46,0,.69.02.82.11,1.64.15,2.47.22.37.03.73,0,1.1-.02.46-.09.94.03,1.43.1.15.03.14.07.03.19-.11.11-.31.35-.56.54-.22.2-.45.26-.69.32-.24.07-.47.13-.71.18-.48.09-.96.18-1.46.12-.59-.05-1.19.08-1.79.1-.66.01-1.32.02-1.98-.03-.41-.03-.81-.06-1.21-.08-.61-.03-1.22-.11-1.83-.11-.47,0-.95.12-1.42.19-.1.02-.21.05-.31.04-.39-.01-.5-.17-.52-.74,0-.13-.02-.26-.02-.38,0-.43.19-.77.48-.89.84-.34,1.68-.28,2.53-.24.63.06,1.26.11,1.9.17v.05Z"/><path class="cls-3" d="m435.66,472.38c.52.06,1.04.13,1.56.16.19,0,.38-.03.57,0,.67.09,1.36.18,2.03.2.3.01.6-.04.89-.09.38-.05.75-.14,1.15-.02.13.04.16.34.12.67-.05.33-.17.72-.39.82-.75.39-1.57.41-2.39.32-.49-.07-.98.08-1.48.11-.54.02-1.09-.03-1.64-.06-.34-.02-.67-.04-1-.06-.51-.02-1.01-.09-1.51-.06-.39.02-.77.15-1.16.22-.09.01-.17.05-.26.05-.32,0-.41-.14-.45-.7l-.02-.38c0-.42.14-.77.37-.89.34-.18.68-.3,1.03-.38.34-.06.69-.06,1.04-.05.52,0,1.03.06,1.55.08v.05Z"/><path class="cls-3" d="m415.31,288.17s23.97,9.06,46.56,6.19l7.26-1.42,6.01,170.28s-54.49,18.13-83.43,2.97c0,0-1.55-1.92-1.22-4.99.33-3.07,24.82-173.02,24.82-173.02Z"/><path class="cls-2" d="m310.69,161.56l28.39,13.76s5.3-8.2,3.73-9.84-36.22-20.05-36.22-20.05l-1.29,4.7s2.08,6.7,3.3,9.89c1.23,3.19,2.08,1.55,2.08,1.55Z"/><path class="cls-3" d="m320.69,165.93l2.27,1.18c.75.41,1.51.8,2.28,1.18.56.28,1.15.49,1.71.77,1.98.99,3.96,1.99,5.93,2.98.88.43,1.8.8,2.7,1.17.58.23,1.17.45,1.74.7.56.29,1.09.66,1.64.98.33.21.21.37-.19.49-.2.06-.47.11-.79.13-.32.03-.69.08-1.06.05-2.46-.69-4.9-1.47-7.23-2.61-1.37-.72-2.92-1.19-4.37-1.81-1.6-.69-3.19-1.39-4.75-2.17l-2.88-1.44c-1.46-.72-2.89-1.51-4.34-2.24-1.14-.55-2.31-1.01-3.43-1.65-.25-.14-.51-.26-.75-.42-.11-.08-.21-.14-.3-.21-.08-.09-.14-.18-.2-.27-.11-.17-.19-.32-.23-.46-.09-.28-.06-.53.05-.82.05-.13.09-.27.16-.38.21-.36.8-.39,1.52-.24.52.12,1.01.36,1.49.56.5.21,1,.42,1.5.64,1,.46,1.98,1,3,1.51,1.5.77,3.02,1.57,4.56,2.31l-.03.06Z"/><path class="cls-3" d="m330.5,153.59c-1.78-1.11-3.59-2.19-5.43-3.21-.67-.38-1.38-.67-2.05-1.06-2.34-1.38-4.71-2.73-7.11-4.02-1.06-.59-2.15-1.12-3.24-1.63-1.4-.65-2.82-1.27-4.02-2.44-.33-.43-.22-.43.29-.51.49-.07,1.41-.28,2.26-.04.78.17,1.51.46,2.24.75.73.29,1.46.58,2.19.9,1.47.6,2.85,1.38,4.23,2.2,1.64.99,3.49,1.72,5.23,2.61,1.89,1.02,3.76,2.09,5.62,3.17l3.4,2.06c1.72,1.05,3.39,2.18,5.08,3.26.65.44,1.31.83,1.98,1.22.67.4,1.31.84,1.97,1.27.28.2.59.35.85.59,1.01.85,1.1,1.37.81,2.03-.07.16-.12.32-.21.46-.29.45-1,.44-1.81.04-2.25-1.34-4.57-2.8-6.96-4.29-1.75-1.12-3.54-2.24-5.37-3.3l.03-.07Z"/><path class="cls-3" d="m339.42,153.96c-.54,2.75-1.23,5.45-2.23,8.04-.34.95-.61,1.93-1.05,2.84-1.4,3.27-3.23,6.34-5.3,9.19-.88,1.29-1.9,2.49-2.87,3.7-.67.74-1.4,1.43-2.11,2.13-.34.36-.78.63-1.18.94l-.61.43c-.21.14-.46.22-.69.33-.59.24-.56.13-.35-.44.11-.27.2-.74.45-1.12.23-.4.53-.81.91-1.19,2.56-2.88,4.82-5.97,6.83-9.34.64-.98,1.09-2.1,1.59-3.19.46-1.11.82-2.27,1.26-3.39.38-1.26.82-2.51,1.15-3.79.28-1.29.69-2.55.88-3.86.14-.8.3-1.6.42-2.41l.24-2.43c.14-1.23.08-2.46.13-3.7-.02-1.23-.15-2.46-.27-3.67-.18-.93-.41-1.84-.66-2.74-.26-.89-.68-1.73-.94-2.61-.12-.39-.28-.75-.45-1.12-.31-.68-.3-1.21-.27-1.61.05-.4.22-.7.51-1.01.13-.14.25-.31.39-.42.45-.37,1.16.02,1.95,1.03.59.75,1,1.6,1.34,2.47.19.43.34.88.49,1.33.15.45.31.91.39,1.38.19.93.37,1.88.52,2.83.1.95.15,1.92.21,2.88.09,1.43-.04,2.85-.08,4.28-.17,1.41-.29,2.83-.53,4.22h-.08Z"/><path class="cls-3" d="m64.95,44.39s1.63-9.98,9.61-12.95c2.69-1-12.63,1.25-12.55,2.97.09,1.72,2.93,9.98,2.93,9.98Z"/><path class="cls-3" d="m61.65,41.21c-.32-.89-.62-1.8-.89-2.76-.13-.48-.25-.98-.34-1.51l-.06-.48c-.03-.21-.05-.42-.02-.63l.05-.62.14-.6c.34-.59.82-1.08,1.36-1.49.59-.36.9-.49,1.33-.67.8-.33,1.57-.56,2.34-.78,1.53-.41,3.04-.72,4.56-.99,1.78-.32,3.54-.64,5.32-.85,6.27-.71,12.56-.91,18.83-.83,2.79.04,5.59.09,8.35.25,1.78.13,3.56.31,5.33.59.89.14,1.76.35,2.63.58.44.1.87.25,1.3.38.43.14.82.42,1.22.64.97.64.87.41-.11.48-.25.03-.54.05-.89.14-.09.03-.17.03-.27.09l-.27.02c-.19.01-.38.02-.58.04-.81.05-1.74.08-2.73.03-1.75-.15-3.51-.24-5.28-.29-1.76-.08-3.53-.18-5.31-.23-3.55-.09-7.13-.1-10.73-.05-4.31.07-8.77.62-13.11,1.24-2,.29-4,.63-5.94,1.07-.97.23-1.94.47-2.83.79-.46.15-.89.33-1.26.52-.21.12-.26.13-.36.21-.09.06-.16.15-.22.24-.05.17-.05.31-.02.53.04.32.12.68.21,1.03.74,2.75,1.93,5.54,3.14,8.25,1.87,4.11,3.92,8.19,6.19,12.06,1.78,3.01,3.74,5.82,5.81,8.55.45.61.93,1.16,1.39,1.76,1.72,2.2,2.16,2.93,1.97,3.93-.04.23-.05.49-.13.67-.24.63-1.49.13-2.98-1.45-4.36-4.72-7.79-10.42-10.95-16.26-2.32-4.36-4.46-8.82-6.25-13.54l.07-.03Z"/><path class="cls-2" d="m92.53,55.11c17.21,15.06,82.3,41.36,82.3,41.36,0,0,1.64-5.8,7.83-6.27,20.55-1.55,9.78-.73,9.78-.73,0,0-89.06-42.22-97.31-42.15-3.19.03-3.72,6.81-2.6,7.78Z"/><path class="cls-2" d="m249.18,116.54s37.34,18.01,40.18,20.79c2.84,2.78,5.04,8.75,5.04,8.75l-7.13,4.54-19.04-9.67s-1.33-6.92-4.87-9.75c-7.53-6.02-17.62-2.32-17.62-2.32,0,0,1.12-3.55,2.28-7.95l1.15-4.4Z"/><path class="cls-3" d="m146.27,60.41l18.6,8.44c2.26,1.04,4.56,1.97,6.8,3.04,7.89,3.79,15.79,7.58,23.57,11.61,3.45,1.79,6.92,3.59,10.35,5.37,2.19,1.16,4.37,2.36,6.51,3.64,2.14,1.26,4.24,2.64,6.12,4.31,1.15,1.07.92.97-.23.34-1.15-.64-3.43-1.47-5.94-2.76-2.23-1.13-4.52-2.19-6.8-3.24-2.27-1.08-4.56-2.13-6.85-3.18-2.29-1.06-4.58-2.11-6.88-3.17-2.28-1.1-4.54-2.25-6.81-3.39-5.43-2.75-11.28-5.17-16.95-7.74-6.24-2.82-12.48-5.64-18.71-8.47-3.85-1.7-7.71-3.41-11.56-5.11-5.85-2.54-11.73-5.12-17.59-7.51-4.56-1.86-9.11-3.48-13.67-5.2-1-.39-1.99-.74-2.99-1.15-1.86-.74-3.05-1.31-3.84-1.83-.79-.51-1.19-.94-1.46-1.44-.12-.23-.3-.47-.35-.66-.17-.63,1.54-.51,4.4.27,2.09.65,4.19,1.34,6.31,2.07,2.1.76,4.21,1.55,6.33,2.37,4.23,1.64,8.49,3.39,12.75,5.17,6.32,2.64,12.63,5.4,18.92,8.15l-.02.08Z"/><path class="cls-3" d="m123.76,71.8c4.25,2.12,8.51,4.23,12.8,6.28l4.73,2.17,8.27,3.99,8.25,4.05c2.45,1.19,4.92,2.35,7.36,3.5,3.1,1.56,6.24,3.09,9.13,5.04.91.59.71.65-.22.45-.46-.1-1.12-.25-1.89-.45-.79-.18-1.66-.48-2.58-.86l-4.89-2.02c-1.63-.68-3.22-1.44-4.83-2.16-3.22-1.45-6.43-2.94-9.64-4.5-3.82-1.88-7.93-3.56-11.91-5.35-4.37-1.98-8.72-4-13.07-6.05-2.66-1.29-5.33-2.56-7.98-3.88-2.01-.99-4.02-1.98-6.01-3.02l-2.99-1.53c-.99-.52-1.98-1.04-2.97-1.55-.77-.39-1.54-.77-2.31-1.16-.77-.39-1.53-.79-2.29-1.18l-2.3-1.16c-.76-.4-1.51-.83-2.26-1.26-.66-.38-1.33-.72-1.98-1.12-2.37-1.6-2.97-2.35-2.99-3.33,0-.23-.04-.48,0-.67.16-.64,1.4-.4,3.16.58,5.28,2.83,10.85,5.84,16.56,8.75,4.24,2.15,8.52,4.32,12.84,6.37l-.03.07Z"/><path class="cls-3" d="m272.5,124.3c-1.93-1.01-3.87-2.01-5.84-2.97-.72-.35-1.47-.63-2.18-.98l-3.79-1.87-3.78-1.93c-1.12-.56-2.27-1.07-3.41-1.59-.73-.33-1.46-.67-2.16-1.07-.7-.4-1.42-.79-2.02-1.38-.37-.36-.23-.45.28-.5.54-.08,1.38-.08,2.25.19l1.14.39c.39.12.77.25,1.14.42l2.23.94c1.49.64,2.97,1.31,4.44,2.06,1.74.91,3.66,1.63,5.49,2.47,2.01.92,4.01,1.88,6,2.86l3.66,1.84c1.83.97,3.67,1.94,5.49,2.9,1.41.77,2.87,1.38,4.27,2.19.31.17.63.31.93.51,1.04.86,1.25,1.28,1.1,1.93-.04.15-.05.3-.11.43-.19.43-.86.43-1.74.1-1.3-.49-2.51-1.19-3.79-1.82-1.26-.65-2.55-1.32-3.83-2.02-1.91-1.02-3.85-2.05-5.81-3.03l.02-.06Z"/><path class="cls-3" d="m275.84,143.74c1.15.63,2.31,1.24,3.48,1.83.43.21.89.36,1.31.58,1.51.75,3,1.59,4.53,2.34.67.34,1.39.59,2.07.89.87.4,1.81.66,2.5,1.52.2.29.19.21-.11.3-.31.1-.95.44-1.52.4-1.97-.31-3.78-1.07-5.54-1.98-1.05-.55-2.23-.92-3.35-1.4-1.22-.54-2.43-1.11-3.63-1.68l-2.22-1.08c-1.12-.54-2.23-1.13-3.36-1.65-.88-.41-1.81-.67-2.72-1.06-.2-.08-.41-.14-.6-.24-.71-.41-.81-.75-.55-1.43.06-.16.11-.32.18-.46.25-.49.77-.71,1.33-.6,1.62.4,3.17,1.1,4.73,1.89,1.16.58,2.31,1.21,3.49,1.79l-.02.06Z"/><path class="cls-3" d="m443.98,481.46c-.07,1.28-.12,2.57-.13,3.86,0,.47.09.94.08,1.41-.07,1.68-.23,3.37-.29,5.05-.02.74-.07,1.5-.07,2.23-.01.48-.05.95-.1,1.43-.03.48-.24.95-.33,1.42-.08.29-.12.25-.27,0-.11-.18-.22-.36-.32-.51-.06-.1-.2-.22-.27-.34-.06-.12-.12-.25-.17-.38-.73-1.87-1.07-3.71-.98-5.64.05-1.15-.3-2.32-.37-3.51-.09-1.3-.15-2.6-.2-3.92l-.07-2.43c-.03-1.23.02-2.47-.06-3.69-.03-.95-.37-1.89-.38-2.85-.01-.21-.05-.42-.03-.63.04-.39.11-.65.31-.82.23-.17.54-.24.94-.29.18-.02.35-.06.51-.06.27-.01.51.07.79.23.29.16.55.39.64.66.29.81.66,1.63.69,2.45.09.82.12,1.65.14,2.5.02,1.25.04,2.52.03,3.8h-.09Z"/><path class="cls-3" d="m416.32,493.18c-1.26.56-2.51,1.13-3.7,1.75-.29.16-.59.31-.87.47l-.1.06h-.02s-.04.03-.04.03l-.09.04c-.11.06-.27.12-.34.26-.06.24.18.37.4.44.09.02.12.03.32.05.31.03.62.05.95.06.64.02,1.31,0,1.98-.01,4.75-.14,9.64-1.01,14.38-2.17,2.11-.52,4.19-1.19,6.19-1.96,1.29-.49,2.52-1.1,3.75-1.64.62-.28,1.2-.6,1.79-.89.59-.28,1.18-.61,1.54-1.05.21-.27.26-.42.36-.41.07,0,.22.21.18.66-.03.44-.26,1.06-.64,1.71-.2.31-.41.68-.69.98-.29.29-.61.57-.97.82-.64.43-1.27.86-1.94,1.18-.67.33-1.35.63-2.03.92-1.36.58-2.74,1.08-4.13,1.54-2.78.93-5.63,1.58-8.54,2.02-3.48.51-7.04,1.29-10.77,1.29-.51-.01-1.02-.03-1.55-.08-.56-.06-1.5-.18-2.15-.43-.71-.24-1.3-.6-1.72-1.07-.43-.46-.69-1.13-.67-1.79.16-.66.43-1.16.95-1.67.54-.48,1.18-.93,1.85-1.32.98-.55,1.82-.97,2.74-1.4,2.2-1.03,4.42-1.95,6.63-2.87,1.68-.68,3.37-1.35,5.05-2.03l2.51-1.02,1.24-.53.99-.44c.12-.07.26-.11.34-.21.06-.47-.03-2.04-.09-3.23l-.22-3.77c-.03-.61-.09-1.21-.09-1.83,0-1.15.04-1.91.23-2.44.24-.53.53-.82.94-1.04.18-.1.36-.23.53-.28.28-.08.52.12.74.53.22.41.49,1.05.52,1.87.14,1.72.26,3.48.34,5.28.04.9.07,1.81.08,2.73v1.41s0,.19,0,.19c0,.11,0,.22-.01.33l-.06.67-.03.33c-.03.1-.06.2-.09.3l-.2.6c-.45.47-.98.93-1.71,1.21l-1.24.53c-.71.29-1.42.58-2.12.87-3.57,1.5-7.16,2.96-10.63,4.56l-.04-.07Z"/><path class="cls-3" d="m411.67,484.97c-2.03.74-4.06,1.48-6.04,2.3-.72.3-1.4.68-2.12.98-1.26.53-2.5,1.1-3.64,1.76-.13.07-.32.2-.38.22-.06.02-.12.06-.19.09-.13.06-.26.14-.39.23-.13.09-.27.19-.37.33-.15.13-.06.32.04.42.18.2.46.34.74.45l.21.07.29.09c.27.08.54.16.81.22.71.13,1.41.29,2.12.39.36.05.72.14,1.09.18.18.02.37.04.56.05.19.01.42.19.62.18.48-.03.46.02.12.35-.18.12-.36.66-.73.9-.35.3-.81.61-1.33.78-.47.14-.94.2-1.41.26-.24.03-.47.04-.72.06-.23-.02-.47-.05-.7-.08-.46-.07-.93-.15-1.39-.27l-.18-.05c-.09-.03-.19-.04-.29-.07l-.56-.21c-.38-.13-.75-.28-1.08-.48-.67-.38-1.22-.83-1.57-1.34-.34-.49-.56-1.07-.48-1.72.05-.59.46-1.11.84-1.63.26-.24.51-.48.79-.71l.93-.59.57-.31.4-.2.71-.34c.46-.23.92-.46,1.39-.69.91-.48,1.82-.95,2.74-1.36,2.03-.89,4.09-1.69,6.14-2.47l3.79-1.43,2.85-1.1.67-.28c.13-.05.27-.11.4-.18.06-.03.13-.07.18-.12.04-.06.06-.13.07-.2.02-.14.03-.29.03-.44,0-.25-.02-.72-.05-1.07l-.12-1.16c-.09-.78-.22-1.56-.26-2.36,0-.36-.05-.7-.02-1.07.03-.68.15-1.14.37-1.44.18-.3.51-.45.89-.51.17-.03.34-.08.48-.08.44.01.95.58,1.12,1.43.12.66.24,1.33.37,1.99.07.68.13,1.39.17,2.11l.05,1.11v.58s0,.7,0,.7c-.03.7-.14,1.43-.51,2-.11.35-.42.52-.68.74-.15.1-.29.2-.45.29l-.5.23-1.73.73-1.54.61-3.06,1.19-.03-.07Z"/><path class="cls-3" d="m477.29,456.96c0,1.43-.02,2.85-.05,4.29l-.02.55c-.01.26,0,.61-.04.93-.01.17-.02.33-.05.49-.02.16-.03.33-.12.45-.07.14-.16.25-.24.37l-.06.09-.03.04c-.13-.07.16.13.12.11l-.02.02-.17.15c-.23.19-.44.4-.7.57l-.92.43-1.11.5c-2.71,1.15-5.45,2.16-8.25,2.95-5.58,1.61-11.26,2.64-16.96,3.35-11.4,1.36-22.89,1.55-34.31.59-4.17-.37-8.33-.87-12.47-1.69-2.07-.4-4.14-.87-6.2-1.51-1.03-.35-2.06-.71-3.07-1.2-1.03-.54-1.99-.97-3.03-2.11l-.73-.92c-.05-.37-.24-.72-.16-1.13,0-.18.02-.44.03-.55l.03-.35.06-.69.29-2.74.63-5.45,1.34-10.87,2.84-21.71c1.96-14.46,4-28.91,6.09-43.35,1.86-12.81,3.74-25.7,5.59-38.41,1.22-8.16,2.45-16.34,3.78-24.51,1.33-8.16,2.73-16.32,4.66-24.36,1.24-5,1.27-4.29,1.02.09-.13,2.19-.25,5.3-.61,9.03-.17,1.86-.35,3.89-.61,6.03-.28,2.14-.6,4.4-.98,6.74-5.23,33.26-10.08,66.58-14.91,100.2-1.43,10.05-2.82,20.33-4.09,30.67-.64,5.17-1.27,10.36-1.84,15.54l-.39,3.87-.05.69c0,.05,0,.11,0,.16l.11.12.11.12.3.23c.23.15.39.34.67.47,1.99,1.18,4.45,1.99,6.88,2.63,5.42,1.39,11.08,1.99,16.73,2.41,5.66.37,11.34.47,17.01.27,5.67-.19,11.34-.64,16.94-1.46,5.61-.8,11.16-1.98,16.51-3.71,1.64-.56,3.26-1.14,4.84-1.82.4-.16.79-.34,1.17-.53l.57-.28.28-.12.27-.14c.04-.09.03-.2.04-.3v-.32s0-.6,0-.6l-.18-10.52c-.18-7.03-.35-14.06-.53-21.08-.62-21.29-1.29-42.68-2.15-63.81-.66-16.42-1.54-32.51-2.42-48.74-.2-3.57-.41-7.06-.61-10.67-.35-6.67-.57-11.07-.57-14.17.02-3.1.22-4.89.51-6.35.13-.66.22-1.54.32-1.93.19-.66.5.36,1,2.76.51,2.4,1.01,6.2,1.36,11.09,1.1,14.5,1.94,29.41,2.69,44.53.76,15.12,1.4,30.46,1.94,45.83.8,22.84,1.54,45.76,1.98,68.71l-.08.03Z"/><path class="cls-3" d="m94.53,53.11c-1.53,3.42-2.76,7.01-3.45,10.69-.26,1.34-.38,2.7-.48,4.05-.16,2.35-.11,4.82.55,6.96.77,2.12,2.31,4.04,4.09,5.67,1.59,1.45,3.35,2.75,5.16,3.93,1.15.78,2.38,1.44,3.53,2.24,1.17.77,2.34,1.55,3.56,2.24.75.45.62.44-.08.18-.42-.17-.91-.36-1.43-.56-.6-.23-1.32-.46-2.07-.77-.66-.28-1.35-.54-1.99-.87-.63-.34-1.28-.67-1.91-1.04-1.27-.7-2.5-1.48-3.72-2.31-2.37-1.72-4.65-3.77-6.18-6.52-.22-.41-.4-.86-.6-1.28-.18-.44-.3-.92-.46-1.38l-.29-1.37c-.06-.46-.14-.92-.19-1.38-.19-1.84-.16-3.69.04-5.49.43-3.96,1.46-7.81,2.86-11.49.86-2.27,1.87-4.47,3.01-6.61,1.73-3.24,3.83-6.29,6.23-9.06,1.89-2.12,3.86-4.17,6.3-5.74.55-.33,1.05-.7,1.65-.97,2.17-1.05,3.04-.99,3.66-.51.15.11.32.22.42.34.16.21.04.48-.29.77-.33.28-.87.57-1.56.94-2.07,1.02-3.95,2.49-5.75,4.11-1.79,1.63-3.45,3.49-4.93,5.51-2.22,2.99-4.11,6.29-5.63,9.75l-.05-.02Z"/><path class="cls-3" d="m416.53,173.03c-.57.63-1.13,1.05-1.93,1.42-.14.06-.19.08-.42.16-.2.07-.4.12-.61.17-.44.1-.6.12-1.07.14-1.71.07-3.28-.48-4.73-1.48-.56-.38-1.39-.1-1.71.45-.36.62-.11,1.33.45,1.71,3.58,2.47,8.72,2.55,11.79-.8.46-.5.49-1.28,0-1.77-.46-.46-1.31-.5-1.77,0h0Z"/><path class="cls-3" d="m166.84,150.65c3.17,2.51,8.57,2.7,11.3-.59.47-.57.56-1.39,0-1.94-.49-.49-1.47-.57-1.94,0-.15.18-.3.35-.47.51-.07.07-.15.14-.23.2-.27.25.2-.12-.1.08-.17.11-.33.22-.51.31-.09.05-.17.09-.26.13-.11.05-.23.1-.05.03-.41.15-.82.25-1.24.34-.26.06.13,0-.04,0-.1,0-.19.02-.29.03-.21.02-.43.02-.64.02-.19,0-.39-.01-.58-.03-.1,0-.19-.02-.29-.03.33.03-.04,0-.09-.02-.39-.07-.77-.16-1.14-.28-.19-.06-.37-.13-.56-.2.31.12-.14-.07-.24-.12-.15-.08-.29-.16-.43-.24-.1-.06-.56-.4-.25-.16-.58-.46-1.38-.57-1.94,0-.48.48-.59,1.48,0,1.94h0Z"/><path class="cls-3" d="m467.89,286.89c.21-1.04.4-2.08.56-3.12.05-.38.09-.76.14-1.15.19-1.35.36-2.7.47-4.06.05-.6.07-1.21.09-1.81.02-.77.04-1.54.08-2.31.02-.48.21.13.3,1.02.09,1.58.13,3.16.03,4.75-.04.99-.08,1.95-.12,2.92-.07,1.07-.16,2.14-.28,3.21-.07.66-.16,1.31-.25,1.96-.15.99-.3,1.98-.45,2.96-.1.76-.14,1.53-.21,2.29-.01.17-.02.33-.04.5-.09.62-.22.8-.6.87-.09.01-.18.04-.26.04-.29,0-.47-.29-.46-.75.02-1.37.25-2.77.47-4.17.17-1.04.34-2.1.51-3.14h.03Z"/><path class="cls-3" d="m412.43,154.01c-1.19.6-2.37,1.23-3.53,1.89-.42.24-.8.55-1.23.79l-2.21,1.25c-.16.07-.32.14-.51.24-.08.05-.22.09-.24.18.03.08.08.15.13.23.1.13.23.27.38.38l.11.09s.13.12.2.17l.41.38c.36.32.73.61,1.09.92.33.34.62.75.95,1.08.2.21.15.33-.2.45-.34.1-1.06.27-1.71.14-.52-.2-.97-.47-1.44-.74-.23-.14-.46-.27-.67-.42l-.16-.12s-.06-.07-.15-.06l-.15-.12-.6-.48-.55-.52c-.17-.18-.28-.37-.41-.55-.16-.37-.18-.72-.27-1.03,0-.07-.06-.18.07-.25l.13-.24.28-.47c.21-.31.62-.57,1.01-.81.39-.23.77-.46,1.15-.69.27-.16.53-.33.79-.51.52-.35,1.03-.71,1.57-1.03,1.18-.7,2.38-1.36,3.58-2.02l2.22-1.21c1.12-.62,2.27-1.18,3.36-1.82.85-.5,1.62-1.12,2.47-1.67.19-.12.36-.26.56-.36.74-.39,1.08-.3,1.51.36.1.15.21.3.29.46.28.54.16,1.11-.27,1.48-1.29,1.1-2.82,1.96-4.39,2.81-1.17.63-2.35,1.26-3.53,1.9l-.04-.06Z"/><path class="cls-3" d="m409.18,173.65c-.71,4.11-.57,8.39.92,12.24.52,1.38,1.32,2.63,2.21,3.8,1.58,2.05,3.69,3.72,6.13,4.86,2.44,1.12,5.16,1.76,7.91,1.9,2.45.14,4.93-.2,7.29-.8,1.52-.38,3-.92,4.43-1.57.72-.31,1.45-.62,2.15-.98.36-.17.71-.35,1.05-.55.35-.18.74-.32,1.1-.52.93-.43.84-.35.36.43-.24.39-.55,1.02-1.08,1.61-.52.59-1.19,1.25-2.02,1.81-3.02,1.79-6.45,2.97-9.98,3.23-3.52.31-7.14-.07-10.5-1.32-2.01-.74-3.99-1.7-5.79-3-1.82-1.27-3.42-2.92-4.59-4.81-.67-1.03-1.18-2.14-1.62-3.27-.33-1.15-.74-2.28-.99-3.44l-.28-1.76c-.09-.59-.2-1.17-.19-1.76-.01-1.18-.16-2.36-.01-3.53l.17-2.15.37-2.12.19-1.06.27-1.03.55-2.06c1.26-4.12,3.18-7.99,5.29-11.65,1.67-2.83,3.34-5.6,5.34-8.21.45-.56.86-1.15,1.34-1.7,1.81-2.03,2.7-2.4,3.68-2.15.23.06.48.09.66.18.6.32.2,1.46-.96,2.9-1.73,2.16-3.38,4.47-4.94,6.88-.81,1.18-1.52,2.45-2.28,3.68-.67,1.28-1.43,2.52-2.02,3.84-1.87,3.86-3.38,7.93-4.04,12.09h-.08Z"/><path class="cls-3" d="m442.22,121.3c-7.55-.34-23.69,12.92-25.81,21.25,0,0,20.45,8.32,26.73,10,6.28,1.68,8.83,2.45,8.83,2.45,0,0-5.89,17.17-4,17.54,1.89.37,8.59-.57,10.61,1.81,2.01,2.37.38,9.34-.97,10.24-1.35.9-1.9,11.76,2.21,12.89,4.1,1.13,27.84-2.83,31.6-8.34,3.77-5.5-3.02-8.43-3.87-15.22-.85-6.8-1.83-26.56-3.66-30.66-1.84-4.09-4.58-10.41-7.48-11.01-2.91-.61-10.92-.31-11.88-.51-.96-.2-5.67,3.79-5.67,3.79,0,0-1.78-7.18-3.79-9.33-4.64-4.96-12.85-4.9-12.85-4.9Z"/><path class="cls-3" d="m354.56,187.46c-.25.59-.52,1.18-.8,1.77-.1.21-.14.45-.26.66-.39.75-.91,1.43-1.42,2.1-.22.3-.43.61-.64.92-.29.37-.5.87-1.06.98-.17.04-.34-.2-.5-.53-.08-.17-.16-.37-.23-.56-.05-.18-.06-.32,0-.4.43-.64.81-1.32,1.36-2,.33-.41.43-.95.64-1.44.22-.54.45-1.09.64-1.66.12-.35.25-.7.35-1.06.15-.54.33-1.09.4-1.65.05-.44-.04-.89-.08-1.34,0-.1-.04-.2-.03-.3.06-.36.25-.44.88-.4.14,0,.29.01.43.03.48.05.84.27.97.56.32.85.16,1.67-.03,2.51-.15.62-.37,1.22-.57,1.83h-.05Z"/><path class="cls-3" d="m345.45,192.01c-.19.38-6.26,13.53-3.81,13.63,2.45.09,8.81-11.18,8.81-11.18l-5-2.45Z"/><path class="cls-3" d="m342.92,162.21c.66-2.02,1.23-4.07,1.64-6.15.15-.76.22-1.52.33-2.28.43-2.66.52-5.36-.16-7.86-.32-1.11-.92-2.13-1.56-3.11-.43-.62-.93-1.21-1.41-1.81-.47-.62-.95-1.25-1.46-1.87-.3-.39-.19-.43.25-.3.44.14,1.29.36,2.11.88.37.23.71.49,1.02.79.33.28.63.59.94.9.6.64,1.2,1.32,1.6,2.14.86,1.6,1.38,3.43,1.36,5.2,0,2.09,0,4.22-.33,6.25-.35,2.24-.94,4.4-1.6,6.53-.41,1.31-.86,2.6-1.33,3.88-.72,1.94-1.55,3.84-2.34,5.73-.63,1.46-1.18,2.93-1.87,4.35-.15.31-.28.63-.45.94-.64,1.14-.99,1.41-1.55,1.4-.13,0-.27.01-.38-.01-.38-.08-.4-.7-.09-1.58.49-1.31.99-2.63,1.49-3.96.53-1.32,1.06-2.66,1.6-4,.77-2,1.51-4.02,2.12-6.08h.06Z"/><path class="cls-3" d="m133.28,100.85c.65-.07,1.32-.11,1.98-.2.24-.03.47-.11.72-.14.86-.11,1.74-.22,2.6-.33.39-.06.77-.12,1.16-.18.25-.04.5-.09.75-.1.25-.03.52,0,.78.1.16.06.13.2.01.41-.06.11-.14.24-.24.37-.09.12-.2.2-.33.25-.45.15-.9.29-1.36.44-.47.11-.96.18-1.47.22-.6.05-1.19.29-1.8.42-.67.15-1.34.28-2.02.39-.42.07-.85.11-1.27.17-.65.06-1.3.13-1.94.19-.5.04-1,.19-1.53.23-.12,0-.23.05-.35.03-.44-.03-.57-.17-.56-.66,0-.11,0-.22,0-.33.04-.37.25-.65.52-.72.78-.22,1.56-.27,2.41-.37.62-.07,1.27-.13,1.92-.23v.04Z"/><path class="cls-3" d="m310.76,129.75c.22-.7.44-1.41.61-2.13.07-.26.07-.53.13-.8.21-.93.38-1.88.46-2.83.06-.42.04-.85.03-1.26-.02-.26-.04-.53-.08-.79-.02-.13-.02-.26,0-.4,0-.13,0-.26,0-.41.01-.17.1-.19.29-.09.16.1.54.31.66.63.36,1.16.53,2.35.3,3.51-.12.69-.09,1.42-.18,2.12-.1.77-.24,1.54-.41,2.3-.11.47-.24.93-.37,1.39-.19.7-.44,1.39-.63,2.08-.15.54-.23,1.1-.39,1.65-.03.12-.05.25-.1.36-.18.43-.36.52-.8.4-.1-.03-.21-.05-.3-.08-.33-.12-.51-.42-.48-.74.09-.96.34-1.88.63-2.81.22-.69.43-1.39.61-2.11h.04Z"/><path class="cls-3" d="m296.25,119.32c.41,1.43.66,2.91.79,4.43.02.56.14,1.11.11,1.69-.02,1-.19,2.05-.58,3.06-.13.27-.27.55-.48.81-.25.27-.51.52-.91.64-.76.24-1.43-.01-1.88-.27-.83-.48-1.46-1.05-2.02-1.68-.73-.79-1.35-1.65-1.9-2.55-.17-.28-.09-.29.18-.16.27.14.77.37,1.25.73.83.66,1.74,1.21,2.5,1.72.38.27.78.45,1.01.5.05,0,.12.04.12.02,0,0,.04.03.03,0,0,.03.04-.02.12-.08.04-.08.09-.16.15-.24.05-.11.08-.25.12-.37l.11-.39.04-.43c.03-.28.05-.57.02-.88-.02-.3,0-.6-.05-.9-.08-1.34-.38-2.71-.7-4.08-.19-.84-.42-1.69-.69-2.52-.4-1.26-.85-2.52-1.41-3.72-.43-.93-.96-1.79-1.46-2.67-.11-.2-.24-.37-.34-.57-.34-.76-.36-1.04-.07-1.42.06-.08.12-.18.19-.25.23-.23.64-.07,1.11.39,1.3,1.42,2.38,3.11,3.15,4.95.59,1.36,1.1,2.76,1.54,4.2l-.05.02Z"/><path class="cls-3" d="m300.69,144.63c.48.17.95.29,1.39.54.22.11.45.22.66.34.21.14.41.29.61.44.3.19.58.43.83.68.86.95,1.38,2.08,1.68,3.18.08.51.24.99.27,1.48.03.31.11.62.09.93,0,.31-.09.63-.16.93-.05.19-.17.16-.36,0-.17-.15-.52-.42-.64-.72-.07-.28-.2-.54-.3-.79-.1-.26-.2-.51-.33-.74-.24-.47-.38-.95-.58-1.43-.14-.27-.29-.56-.54-.75l-.35-.31c-.13-.08-.26-.17-.38-.26-.55-.39-1.15-.73-1.84-.94-.41-.15-.86-.21-1.31-.28-.68-.03-1.4-.05-2.08.15-.53.14-.98.49-1.44.77-.1.06-.18.16-.28.22-.37.22-.57.11-.98-.49-.09-.14-.19-.27-.28-.41-.29-.47-.31-.96-.02-1.27.85-.92,2.1-1.42,3.4-1.54.97-.13,1.98,0,2.95.2v.06Z"/><path class="cls-3" d="m121,118.81c.65-.04,1.3-.04,1.94,0,.23,0,.46-.03.69,0,.81.13,1.6.31,2.35.6.33.12.67.2,1,.31.41.17.84.31,1.14.71.09.14,0,.26-.19.45-.2.2-.51.45-.75.47-.87.12-1.56-.02-2.32-.35-.45-.21-.95-.11-1.43-.13-.53-.01-1.07-.01-1.61.05-.33.03-.66.07-.99.15-.49.11-.99.24-1.44.46-.34.19-.61.51-.87.79-.06.06-.11.14-.17.19-.23.2-.4.12-.82-.34l-.29-.32c-.31-.37-.42-.77-.27-1.04.45-.81,1.23-1.31,2.06-1.64.62-.24,1.29-.34,1.94-.44v.05Z"/><path class="cls-3" d="m122.24,101.24l-2.99-2.04c-.36-.24-.75-.45-1.11-.7-1.28-.87-2.55-1.75-3.85-2.57-.58-.36-1.17-.71-1.76-1.05-.75-.44-1.55-.81-2.23-1.38-.21-.19-.12-.28.17-.34.3-.08.79-.1,1.26.1.82.36,1.64.74,2.44,1.15.78.45,1.54.93,2.28,1.46.89.62,1.89,1.13,2.83,1.7l3.08,1.92,1.9,1.18c.96.58,1.92,1.19,2.91,1.71.76.41,1.56.73,2.35,1.07.17.08.35.14.52.22.63.31.78.51.7.98-.02.11-.02.22-.05.32-.1.34-.49.46-1,.3-1.51-.47-2.99-1.18-4.38-2.05-1.04-.63-2.06-1.31-3.08-1.97l.02-.03Z"/><path class="cls-3" d="m225.26,448.1c-.64-.04-1.27-.08-1.91-.11-.23,0-.46.05-.69.03-.81-.03-1.64-.18-2.45-.19-.36-.01-.72.02-1.07.06-.45.07-.9.11-1.38-.06-.15-.08-.15-.17-.06-.38.09-.24.26-.57.51-.7.44-.26.91-.31,1.37-.42.46-.08.93-.13,1.41-.11.57.02,1.14-.17,1.71-.21.63-.05,1.26-.08,1.9-.11.39-.02.78-.04,1.16-.06.59-.05,1.18-.06,1.75-.18.45-.08.86-.3,1.29-.47.09-.04.18-.09.28-.12.35-.09.49.06.67.69.04.14.09.29.12.43.11.49.02.93-.23,1.12-.75.54-1.59.78-2.45.82-.64.04-1.28.01-1.92.02v-.06Z"/><path class="cls-3" d="m265.17,443.34c-.73-.03-1.46-.09-2.19-.19-.26-.03-.53-.02-.79-.06-.92-.15-1.84-.31-2.76-.46-.4-.06-.81-.11-1.21-.15-.51-.08-1.03-.17-1.53-.34-.16-.05-.12-.14.03-.25.15-.1.42-.24.72-.27,1.06-.14,2.08-.06,3.13.04.62.08,1.28-.01,1.91-.03.7-.02,1.4-.03,2.1-.05.43,0,.87-.02,1.3-.05.65-.05,1.31-.08,1.95-.22.5-.1.96-.34,1.43-.53.1-.04.2-.1.31-.13.39-.12.55,0,.75.52.05.12.1.24.14.36.13.41.04.79-.25.98-.83.57-1.82.72-2.81.81-.73.06-1.48.06-2.22.06v-.04Z"/><path class="cls-3" d="m180.97,254.61s13.15,6.42,24.99,6.83,30.58-.48,38.15-2.5c7.58-2.02,14.38-4.96,14.38-4.96,0,0,3.72,38.4,9.44,55.31,5.72,16.91,28.6,85.68,29.64,88.35,1.05,2.67,9.76,22.75,9.76,22.75,0,0-5.16,9.52-16.94,13.43-11.78,3.91-37.83,8.95-40.24,5.94-2.41-3.02-17.13-56.3-17.13-56.3l7.75,54.83s-41.37,17.13-62.38,4.59c-9.43-5.63-7.07-66.6-7-69.24.07-2.64,7.11-84.31,7.11-84.31l2.46-34.72Z"/><path class="cls-3" d="m200.73,92.44c-9.99-2.48-29.78,5.3-24.13,22.59,1.14,3.49,8.46,6.55,15.84,6.41,9.95-.2,11.75-1.03,11.75-1.03,0,0-4.3,10.24-2.3,17.4,2,7.15,7.27,11.44,7.27,11.44,0,0-12.04,3.47-13.87,11.28-1.83,7.81-1.13,17.21,1.67,20.14,2.8,2.93-3.2,6.54-2.56,11.52s4.23,11.58,9.31,12.49c5.08.9,13.34-4.98,13.34-4.98,0,0-3.64,6.7,0,9.99,3.64,3.29,10,6.35,15.83,5.27,5.84-1.09,12.87-8.79,12.87-8.79,0,0,11.6,3.28,14.99,1.72,3.39-1.55,12.22-4.52,14.46-10.98,2.24-6.46,2.97-13.19,2.02-16.93-.95-3.73-4.17-12.31-7.51-15.65-3.35-3.33-7.92-8.07-7.92-8.07,0,0,5.19-7.12-1.24-17.79-5.86-9.74-17.33-9.84-17.33-9.84,0,0,3.36-4.68,3.84-8.21.87-6.43-1-16.24-15.45-21.32-11.11-3.9-18.45,2.8-18.45,2.8,0,0-3.4-7.2-12.45-9.45Z"/><path class="cls-3" d="m229.26,482.85c-.4,1.2-.9,2.38-1.27,3.59-.15.44-.2.9-.35,1.34-.49,1.56-1.02,3.12-1.4,4.71-.18.71-.26,1.43-.37,2.14-.16.91-.2,1.84-.64,2.73-.12.28-.25.23-.46-.03-.11-.13-.24-.32-.39-.54-.16-.23-.29-.49-.31-.76-.27-1.95-.04-3.89.44-5.78.29-1.13.39-2.34.62-3.5.27-1.28.59-2.54.93-3.8l.68-2.3c.33-1.16.72-2.31.97-3.48.2-.91.2-1.85.28-2.78.02-.2,0-.41.06-.61.1-.36.22-.59.44-.71.24-.12.53-.14.94-.11.19.01.37.01.54.04.3.04.54.17.75.37.21.2.4.47.43.77.18.9.05,1.73-.08,2.58-.14.84-.37,1.67-.6,2.5-.35,1.23-.77,2.44-1.14,3.67l-.08-.02Z"/><path class="cls-3" d="m264.74,481.61c.27,1.3.57,2.6.89,3.9.11.48.31.92.41,1.4.34,1.7.71,3.4,1.11,5.1.17.76.43,1.49.69,2.2.3.94.64,1.87.53,2.94-.02.33-.29.38-.75.27-.23-.06-.52-.15-.82-.28-.31-.12-.6-.3-.75-.54-.29-.43-.59-.85-.84-1.29-.21-.46-.4-.92-.58-1.39-.18-.47-.34-.94-.49-1.43-.13-.49-.22-.99-.3-1.5-.19-1.22-.77-2.36-1.13-3.55-.42-1.3-.69-2.66-1.01-3.99l-.56-2.48c-.29-1.25-.53-2.51-.87-3.73-.29-.94-.7-1.84-1.04-2.77-.07-.2-.17-.4-.22-.61-.17-.79.06-1.1.78-1.42.17-.07.33-.16.5-.22.56-.19,1.13.02,1.52.53,1.01,1.52,1.57,3.21,2.03,4.94.33,1.29.66,2.58.99,3.88l-.08.03Z"/><path class="cls-3" d="m252.94,474.66c-4.46.04-8.92.08-13.37.17l-4.87.19c-5.73.1-11.46.19-17.19.4-2.54.1-5.09.25-7.61.43-3.23.24-6.46.62-9.74.28-1.02-.15-.9-.33-.09-.83.41-.26.99-.57,1.7-.92.71-.32,1.56-.58,2.49-.74,3.29-.48,6.61-.68,9.92-.92,3.32-.18,6.65-.25,10-.25,4,0,8.15-.34,12.24-.49,4.49-.16,8.99-.27,13.48-.38,2.77-.06,5.53-.12,8.3-.19,4.19-.11,8.4-.16,12.55-.33,3.23-.13,6.39-.46,9.58-.69.7-.05,1.39-.14,2.1-.17,2.63-.12,3.47.08,4.06.97.13.2.31.4.39.61.27.69-.79,1.29-2.71,1.53-5.69.72-11.7.97-17.73,1.13-4.48.09-8.99.18-13.48.28v-.08Z"/><path class="cls-3" d="m228.63,472.92c-4.25,1.15-8.43,1.55-12.65,1.7-1.54.05-3.08.14-4.63.04-1.78-.11-3.56-.31-5.37-.72-.93-.26-1.78-.4-2.83-.88-.33-.11-.62-.31-.91-.5l-.44-.28-.36-.35-.36-.35c-.09-.13-.17-.28-.26-.41-.18-.27-.31-.57-.44-.87-.05-.16-.04-.34-.06-.51-.02-.17-.04-.34,0-.52.03-.35.15-.68.29-.99.28-.64.81-1.15,1.33-1.62.27-.19.59-.46.81-.58.22-.13.45-.28.67-.39.45-.25.9-.46,1.34-.65,2.27-1,4.56-1.7,6.82-2.37l2.19-.62c.74-.18,1.48-.33,2.22-.47.74-.13,1.49-.25,2.25-.33.38-.04.75-.08,1.13-.11.38-.02.78.05,1.17.07.98.13.87.38.19,1.05-.34.32-.8.89-1.4,1.27-.59.41-1.3.82-2.1,1.09-2.69,1.02-5.46,1.7-8.06,2.67-1.29.49-2.59.92-3.7,1.48-.28.13-.53.28-.77.41l-.2.08c-.11.05-.29.17-.27.34-.02.06-.01.12.01.17.03.1.11.19.21.27.07.06.06.05.24.15.15.09.33.17.52.24.73.33,1.6.47,2.47.61,1.75.25,3.59.31,5.4.33,4,.04,8.08-.28,12.01-1.07,1.2-.25,2.4-.54,3.53-.93,1.1-.38,2.27-.89,2.88-1.5.19-.15.31-.4.35-.64l.04-.59c0-.23.04-.45.03-.68,0-.92-.04-1.84-.12-2.77-.17-1.86-.51-3.73-.93-5.57-.65-2.86-1.64-5.6-2.53-8.4-.2-.62-.42-1.21-.6-1.85-.35-1.17-.42-1.99-.39-2.57.02-.3.09-.54.19-.76.13-.22.3-.41.48-.58.16-.16.3-.35.44-.44.41-.31,1.45.45,2.06,2.09,1.89,4.86,3.56,10.19,4.45,15.94.16,1.07.28,2.16.34,3.28.04.56.03,1.13.04,1.7,0,.29-.02.58-.04.87l-.03.46c0,.12,0,.22-.02.34-.01.13-.08.24-.1.37l-.19.74c-.11.23-.24.45-.37.67-.23.44-.68.82-.95,1.11-.29.23-.59.46-.89.66l-.86.49c-1.12.57-2.2.93-3.28,1.27l-.03-.08Z"/><path class="cls-3" d="m220.75,452.8c.2.94.37,1.88.55,2.82.07.34.2.67.24,1.02.13,1.24.25,2.47.33,3.7.02.55.1,1.09.18,1.62.1.68.2,1.37-.08,2.1-.12.23-.19.21-.47.06-.32-.14-.78-.41-.95-.77-.36-.63-.49-1.29-.7-1.95-.08-.33-.18-.65-.22-.99-.03-.34-.06-.68-.07-1.03-.02-.84-.37-1.63-.58-2.45l-.6-2.73c-.13-.56-.27-1.12-.43-1.67-.24-.84-.46-1.69-.79-2.49-.26-.62-.67-1.18-1.03-1.75-.08-.13-.18-.24-.24-.38-.26-.49-.06-.75.56-1.11.14-.08.27-.17.4-.24.41-.21,1.03-.21,1.36.1.89.95,1.38,2.13,1.81,3.35.31.9.55,1.84.81,2.77l-.06.02Z"/><path class="cls-3" d="m290.94,459.68c.52.51.89,1.1,1.19,1.73l.1.36c-.03.13.03.25.04.37.07.24.04.49.02.74-.06.49-.26.95-.54,1.38-.1.23-.33.4-.49.61-.17.2-.35.39-.58.56l-.64.51-.48.29c-1.17.7-2.32,1.19-3.48,1.64-2.31.88-4.65,1.53-7.01,2.06-1.87.42-3.74.82-5.66,1.02-1.69.17-3.39.26-5.13.18-.87-.05-1.74-.13-2.63-.31-.88-.16-1.79-.41-2.68-.9-.22-.1-.45-.25-.67-.44-.24-.17-.4-.36-.59-.55-.34-.38-.62-.78-.85-1.17-.47-.8-.82-1.6-1.13-2.41-.6-1.62-1.02-3.24-1.39-4.87-.63-2.9-1.13-5.81-1.57-8.69-.26-1.85-.59-3.7-.69-5.57-.07-.93-.11-1.87-.13-2.81l-.02-1.4c.02-.47.08-.94.17-1.41.36-1.19.27-1.02.82-.08.64.94,1.42,2.67,1.78,4.76.14.93.36,1.85.46,2.78l.35,2.79c.25,1.86.52,3.7.83,5.54.32,1.83.67,3.65,1.09,5.43.44,1.75.95,3.55,1.75,4.91.24.38.51.72.75.89.36.21.77.42,1.25.56.96.29,2.05.38,3.16.4,2.22.02,4.51-.29,6.74-.69,2.47-.44,4.92-1.06,7.3-1.83,1.19-.39,2.36-.83,3.48-1.33.56-.25,1.1-.52,1.62-.81.26-.13.51-.32.72-.44.11-.08.24-.16.34-.26.24-.19.49-.54.29-.85-.12-.26-.34-.46-.6-.6-.08-.03-.08-.05-.21-.1l-.35-.11c-.24-.06-.49-.13-.75-.18-1.06-.19-2.23-.22-3.41-.16-2.06.08-4.17.35-6.33.54-1.08.09-2.17.18-3.33.13-.3-.02-.59-.03-.9-.08-.29-.03-.72-.14-1.06-.26-.35-.13-.68-.32-.95-.58l-.2-.2-.14-.24c-.1-.16-.19-.32-.26-.49-.11-.31-.21-.61-.32-.91l-.24-.78c-1.06-3.68-1.71-7.32-1.99-11.07-.06-.83-.12-1.64-.12-2.48.03-1.56.14-2.6.4-3.3.28-.7.63-1.07,1.07-1.33.2-.12.41-.28.59-.33.31-.08.53.2.69.76.07.28.15.62.22,1.04.08.41.07.88.1,1.41.07,2.6.34,5.28.76,7.96.22,1.34.47,2.68.77,3.99.16.65.32,1.31.51,1.94.08.32.2.63.29.94.05.15.1.31.16.46l.06.17s0,0,0,0h0s0,0,0,0l.24.03c.2.01.41.03.66.03,2.18,0,4.81-.43,7.45-.64,1.33-.11,2.71-.18,4.18-.1.74.05,1.5.12,2.32.33.4.11.82.26,1.25.46.15.07.31.14.46.22.14.09.25.19.38.27.24.19.5.35.72.55l-.05.06Z"/><path class="cls-3" d="m228.73,263.09c-4.11.25-8.22.33-12.32.24-1.5-.02-3-.01-4.49-.1-2.64-.18-5.27-.41-7.89-.79-2.62-.35-5.23-.81-7.8-1.41-2.29-.5-4.58-1.1-6.82-1.75l-2.15-.69c-.71-.27-1.4-.58-2.09-.87-1.37-.64-2.71-1.37-3.82-2.45-.7-.65-.56-.61.28-.53.42.05,1.05.03,1.73.13.35.04.74.04,1.11.12.37.08.76.19,1.14.33,1.4.44,2.79.86,4.17,1.33,1.39.43,2.8.85,4.23,1.19,2.85.71,5.76,1.32,8.71,1.85,3.53.64,7.29.76,10.96.87,4.05.13,8.11.09,12.16-.14,2.49-.16,4.99-.33,7.47-.63,3.76-.44,7.53-.98,11.18-1.84,2.84-.67,5.55-1.61,8.17-2.68.57-.25,1.14-.49,1.7-.75,1.06-.46,1.74-.76,2.3-.82.54-.1.91-.05,1.32.15.18.09.4.15.55.26.25.18.22.48-.07.9-.28.43-.82.95-1.61,1.44-4.76,2.74-10.25,4.13-15.74,5.19-4.09.76-8.24,1.22-12.38,1.53v-.07Z"/><path class="cls-3" d="m342.31,168.45c1.58-3.95,2.47-8.19,3.53-12.53l.18-.63c.07-.27.16-.54.24-.81.17-.53.37-1.04.62-1.45.25-.41.53-.7.89-.9.41-.26.87-.05,1.3-.03l.6.28.3.14.27.21c.21.18.45.3.63.53l.56.66c.16.25.3.53.44.79.16.25.28.57.33.75.29.81.4,1.6.49,2.37.14,1.55.06,3.03-.08,4.48-.3,2.91-.88,5.71-1.45,8.49-.25,1.23-.49,2.47-.7,3.69-.1.61-.19,1.22-.25,1.82-.06.59-.11,1.2-.06,1.68.02.25.05.31.13.44.68,1.01,1.69,1.93,2.8,2.59.55.36,1.14.67,1.77.97.62.3,1.29.52,1.88,1.06.37.47.54.66.52.69-.03.04-.26-.03-.77.16-1,.38-2.76.58-4.71-.39-.77-.41-1.49-.95-2.14-1.56-.33-.3-.63-.63-.92-.97l-.41-.52-.43-.62c-.11-.29-.27-.56-.36-.87-.07-.33-.12-.6-.12-.8-.04-.46-.01-.82,0-1.19.05-.72.14-1.38.25-2.03.2-1.3.47-2.55.74-3.79.53-2.48,1.1-4.92,1.53-7.36.3-1.74.47-3.55.32-5.25-.06-.84-.23-1.72-.49-2.34-.12-.29-.29-.54-.57-.69-.09-.02-.2-.14-.29-.06-.12.13-.17.31-.24.48l-.09.28-.02.08-.05.2-.1.4-.83,3.22c-.56,2.16-1.15,4.33-1.87,6.48-.87,2.66-2.03,5.19-3.19,7.67-.88,1.88-1.82,3.74-2.66,5.6-.21.46-.41.93-.58,1.38-.05.12-.08.22-.11.33-.04.11-.07.22-.07.28-.05.13.01.42,0,.62-.02.45.15.88.26,1.32.17.43.36.86.61,1.26.76,1.27,1.87,2.34,3.06,3.27,1.2.94,2.49,1.76,3.82,2.52.6.32,1.18.62,1.79.93,2.26,1.15,2.94,1.51,3.24,2.27.07.17.19.35.22.5.13.5-1.1.57-2.94-.14-2.71-1.07-5.38-2.46-7.83-4.45-1.22-.99-2.39-2.13-3.32-3.61-.26-.34-.43-.78-.63-1.18-.22-.39-.33-.86-.46-1.32-.16-.45-.19-.94-.21-1.44l-.02-.37c0-.12-.02-.23.02-.44.02-.16.06-.4.1-.5l.1-.35c.42-1.26.88-2.22,1.34-3.27l1.4-3.03c.93-2.01,1.83-4.01,2.61-6.02l.06.02Z"/><path class="cls-3" d="m154.56,44.85c11.27,4.61,22.32,9.62,33.4,14.55,11.07,4.96,22.1,9.99,33.11,15.08,8.03,3.71,16.09,7.37,24.08,11.16,14.09,6.68,28.12,13.5,42.05,20.51l5.22,2.65,1.3.66.32.16c.07.02.13.05.19.07.13.08.23.05.33.09.19,0,.41-.05.73-.21.33-.19.7-.43,1.15-.72.84-.57,2.08-1.16,3.37-1.17,1.28-.03,2.41.4,3.38.87,1.87.92,3.62,2.25,4.95,3.94,1.36,1.66,2.16,3.69,2.89,5.38.37.85.79,1.52,1.22,1.75l2.58,1.4c3.44,1.86,6.84,3.78,10.2,5.79,2.99,1.76,5.94,3.6,8.86,5.5,2.91,1.91,5.79,3.88,8.55,6.06,1.37,1.11,2.74,2.2,4,3.5.63.65,1.25,1.31,1.8,2.15.15.18.26.44.38.69.11.25.25.51.28.74.1.47.27.96.29,1.42.36,3.71-.22,7.17-.95,10.6-2.09,8.72-5.87,17.05-11.34,24.19-1.4,1.76-2.85,3.48-4.46,5.05l-.59.6-.3.3c-.09.09-.21.23-.4.36-.34.26-.84.38-1.19.42-.34.03-.67.04-.97.02-1.23-.08-2.33-.34-3.42-.62-2.18-.59-4.28-1.33-6.35-2.11-2.07-.81-4.06-1.78-6.06-2.73-2.48-1.21-3.53-1.77-3.44-1.77.09,0,1.33.52,3.55,1.22,2.21.73,5.45,1.52,9.25,2.58,1.89.48,4.02,1.03,6.09,1.17.25.01.5.02.72,0,.11,0,.21-.02.3-.03.1-.02.15-.03.14-.03,0,0,.01,0,.01-.02l.15-.17.59-.66c.77-.9,1.64-1.73,2.38-2.73,5.61-6.7,9.57-14.77,11.85-23.19.52-2.11,1.03-4.24,1.3-6.37.18-1.06.24-2.12.31-3.17v-1.54c-.05-.47-.05-.99-.14-1.41l-.14-.62c-.04-.21-.13-.27-.17-.42-.05-.13-.23-.33-.33-.5-.1-.17-.25-.35-.43-.54-.32-.37-.65-.74-1.04-1.1-.37-.37-.75-.73-1.16-1.08-1.6-1.43-3.36-2.77-5.15-4.07-7.2-5.18-14.96-9.75-22.82-14.1l-2.97-1.61-.74-.4-.38-.21c-.21-.13-.41-.27-.61-.41-.73-.6-1.19-1.31-1.48-1.89-.62-1.2-.96-2.22-1.42-3.16-.44-.94-.96-1.78-1.57-2.53-.6-.77-1.33-1.42-2.14-2-.41-.29-.82-.56-1.28-.79-.22-.11-.45-.26-.66-.35l-.62-.27c-.84-.29-1.46-.28-2.15-.01-.36.16-.75.38-1.22.7-.48.31-1.04.71-1.88.99-.49.16-1.12.25-1.69.16-.58-.05-1.09-.3-1.48-.47l-1.82-.93c-1.21-.62-2.43-1.23-3.65-1.85-2.45-1.22-4.91-2.45-7.37-3.68-4.94-2.44-9.94-4.86-14.95-7.27-10.03-4.82-20.17-9.56-30.23-14.26-22.11-10.32-44.35-20.41-66.71-30.2-13.75-6-27.68-11.63-41.91-16.28-2.7-.86-5.4-1.7-8.13-2.44-1.36-.36-2.73-.71-4.09-1.01l-.88-.18c-.1-.04-.18,0-.28.03l-.4.12c-.32.1-.65.19-.97.3l-.95.37c-2.53,1-4.87,2.49-6.96,4.29-2.1,1.79-3.96,3.86-5.61,6.1-3.28,4.49-5.76,9.6-7.41,14.91-.81,2.66-1.43,5.39-1.67,8.11-.11,1.36-.13,2.72.06,4,.08.65.26,1.24.48,1.77.15.27.33.53.49.8.16.27.32.54.55.79,2.56,3.12,6.11,5.58,9.59,7.9,3.52,2.31,7.16,4.44,10.84,6.49,3.68,2.05,7.4,4.02,11.14,5.96,3.73,1.89,7.45,3.79,11.19,5.69.17.08.28.07.53.04.75-.11,1.68-.4,2.59-.65.93-.25,1.88-.52,2.94-.68,1.45-.21,3.13-.13,4.16.8.53.45.85,1.16.85,1.83.02.68-.21,1.39-.58,2.08-.17.32-.36.64-.55.94-.12.19-.23.38-.35.56-.1.16-.18.31-.22.4-.04.04,0,.1-.07.06-.09-.03-.19-.05-.29-.07-.07-.02-.13-.04-.2-.05-.16-.01-.25-.03-.33-.02-.18.01-.21.05-.17.02.05-.04.03-.04.11-.13.03-.04.05-.07.07-.11v-.03c.16-.28-.31.61.34-.64h0s.03.02.03.02c.18.09.35.18.53.27.35.18.69.35,1.02.52,1.33.69,2.54,1.31,3.64,1.88,2.2,1.15,3.96,2.11,5.39,2.93,2.87,1.65,4.44,2.76,5.6,3.86.53.5,1.26,1.1,1.53,1.47.91,1.24-4.53-.9-13.95-5.49-1.59-.78-3.19-1.56-4.79-2.34l-.3-.15c-.13-.08-.09-.01-.53-.3-.15-.1-.36-.31-.5-.49-.15-.22-.28-.47-.33-.7-.14-.51-.08-.84-.03-1.14.12-.54.28-.82.41-1.09.14-.26.27-.48.39-.69l.15-.25.04-.07.07-.14c.04-.09.08-.19.07-.28-.01-.22-.29-.28-.46-.26-.05,0-.09,0-.14.01l-.22.04c-.38.06-.78.15-1.2.25-.83.2-1.69.46-2.63.71-.47.13-.97.25-1.54.35-.26.03-.75.12-1.16.06-.21-.01-.43-.02-.63-.1-.1-.02-.2-.08-.31-.07l-.3-.12c-2.75-1.39-5.52-2.79-8.3-4.2-2.73-1.4-5.47-2.82-8.2-4.29-5.47-2.94-10.95-5.98-16.29-9.45-2.67-1.74-5.32-3.56-7.83-5.75-1.26-1.08-2.48-2.3-3.61-3.74-.28-.38-.53-.83-.78-1.24-.13-.21-.26-.42-.37-.64l-.3-.77c-.34-1.01-.49-1.95-.57-2.86-.26-3.62.34-6.9,1.13-10.13.82-3.22,1.94-6.33,3.32-9.33,1.31-2.89,2.91-5.67,4.74-8.29,1.84-2.63,3.98-5.08,6.45-7.22,2.46-2.15,5.3-3.95,8.44-5.15.39-.15.78-.31,1.18-.42l1.42-.43c.17-.05.36-.12.54-.15l.56.11.82.17c.39.08.79.16,1.17.25,1.54.35,3.05.75,4.55,1.17,11.93,3.42,23.41,7.8,34.8,12.38v.09Z"/><path class="cls-3" d="m311.74,122.56c.28,2.36.35,4.73.25,7.09-.07.86-.03,1.72-.18,2.58-.42,3.01-1.19,5.95-2.25,8.75-.46,1.25-.98,2.47-1.49,3.69-.75,1.5-1.25,3.19-2.78,4.23-.43.35-.28.35-.21-.11.03-.23.03-.6-.04-1.06-.03-.23.01-.44.03-.67,0-.12.04-.23.04-.35.04-.1.09-.21.14-.31,1.39-3.01,2.39-6.11,3.38-9.27.6-1.9.73-3.98.87-6,.16-2.22.15-4.47-.06-6.71-.14-1.37-.33-2.75-.63-4.1-.22-1.02-.44-2.08-.8-2.96-.38-.92-.9-1.82-1.49-2.66-.92-1.3-2.11-2.38-3.32-3.25-.27-.17-.55-.35-.81-.49-.97-.56-1.06-.74-1.24-1.44-.04-.16-.12-.32-.16-.48-.07-.27.03-.49.38-.66.18-.08.41-.14.66-.13.26,0,.57.03.85.13.89.26,1.62.73,2.3,1.23.69.5,1.28,1.07,1.86,1.67,1.12,1.22,2.1,2.57,2.88,4.1.29.58.56,1.16.77,1.84.12.35.18.63.26.92l.22.87c.26,1.17.48,2.35.64,3.54h-.06Z"/><path class="cls-3" d="m304.9,112.94c.53,1.17.96,2.35,1.32,3.55.14.43.31.86.42,1.3.37,1.57.59,3.16.68,4.75,0,.71.05,1.42.03,2.13-.09.9-.22,1.84-.76,2.63-.15.25-.18.19-.26-.07-.06-.18-.13-.37-.18-.52-.09-.21-.19-.45-.2-.69-.05-.42-.1-.84-.2-1.25-.05-.41-.07-.82-.11-1.24-.11-.83-.14-1.67-.21-2.53-.08-1.04-.47-2.06-.8-3.06-.36-1.11-.77-2.21-1.27-3.26-.3-.65-.64-1.28-1.02-1.88-.58-.89-1.24-1.79-2.05-2.28-.31-.18-.65-.26-.86-.22-.22.04-.36.2-.48.34-.05.11-.1.19-.16.3-.22.41-.48.53-1.11.4-.14-.03-.29-.04-.43-.07-.46-.11-.73-.54-.59-1.21.17-.47.41-1,.96-1.44.51-.5,1.33-.73,2.08-.69.79.06,1.35.34,1.83.64.48.3.85.65,1.2,1,.99,1.06,1.63,2.21,2.22,3.37l-.05.03Z"/><path class="cls-3" d="m309.07,172.24c-1.17,8.49-3.77,16.6-7.16,24.32-1.25,2.81-2.53,5.61-4.02,8.3-5.29,9.45-12.02,18.13-20.25,25.19-3.64,3.13-7.6,5.95-11.77,8.28-2.67,1.51-5.49,2.8-8.39,3.81-2.9,1.03-5.93,1.71-8.98,1.98-1.93,0-1.67-.14-.2-.93.73-.39,1.77-.89,3-1.47,1.22-.62,2.65-1.26,4.23-1.84,11.14-4.33,20.82-11.77,28.92-20.87,4.85-5.45,8.88-12.01,12.23-18.69,3.69-7.35,6.6-15.15,8.27-23.2,1.01-4.95,1.57-10.02,1.17-14.99-.33-3.72-1.25-7.53-3.51-10.29-.57-.67-1.22-1.26-1.94-1.73-.73-.44-1.53-.85-2.35-1.02-1.63-.44-3.35-.1-4.87.76-2.4,1.34-4.31,3.6-6.06,5.87-1.76,2.31-3.34,4.79-5.03,7.25-.74,1.09-1.46,2.18-2.31,3.23-1.58,1.96-2.83,3.15-3.86,3.82-.5.35-.97.55-1.37.68-.43.1-.77.13-1.11.1-.31-.04-.67-.04-.85-.12-.32-.14-.05-.51.48-1.15.53-.66,1.39-1.57,2.42-2.93,3-4.08,5.65-8.85,9.15-13.42.88-1.15,1.86-2.26,2.94-3.33,1.09-1.06,2.31-2.09,3.79-2.92,1.46-.83,3.25-1.43,5.14-1.44,1.9-.01,3.68.57,5.19,1.43,2.3,1.3,4.01,3.38,5.08,5.52,1.1,2.16,1.73,4.41,2.09,6.64.72,4.47.55,8.87.03,13.16h-.08Z"/><path class="cls-3" d="m164.71,128.96c-.04-.94-.04-1.88.17-2.61.11-.36.26-.66.45-.9.1-.12.19-.23.33-.33.15-.13.28-.12.4-.16.19-.04.35-.12.63-.11.25,0,.48-.05.82.08l.1.03c.55.23,1.08.42,1.6.6l.35.12.2.08c.14.05.27.09.41.15.54.22,1.09.39,1.66.49.51.09,1.02.03,1.52,0,.32-.03.63-.11.95-.16.32-.05.67-.04,1.04-.05.24,0,.35.28.33.7-.02.41-.16,1.07-.57,1.41-.37.25-.78.44-1.2.61-.42.16-.86.31-1.3.3-.89.04-1.75-.09-2.55-.38-.4-.13-.79-.24-1.18-.35l-.35-.1s-.1-.04-.16-.07c-.15-.07-.46-.29-.47-.05-.06.15-.1.33-.13.54-.02.13-.03.27-.04.42,0,.24.02.57.04.85.08.88.18,1.79.49,2.6.24.63.68,1.16,1.08,1.59.09.09.2.16.28.26.3.32.23.49-.19,1.14l-.28.44c-.31.49-.87.68-1.39.36-1.49-.98-2.12-2.53-2.54-3.95-.15-.54-.27-1.08-.35-1.63l-.11-.82-.11-1.11h.08Z"/><path class="cls-3" d="m167.86,157.91c-1.4-3.62-1.96-7.46-1.92-11.27.04-1.39.06-2.79.31-4.16.42-2.41,1.18-4.75,2.15-6.96.99-2.2,2.19-4.28,3.54-6.24,1.18-1.75,2.55-3.37,3.9-4.95.46-.49.9-.99,1.37-1.47l1.47-1.37c.5-.44,1.03-.85,1.56-1.26.25-.22.55-.38.85-.54.3-.16.57-.35.89-.48.84-.26.76-.17.51.61-.26.78-.74,2.14-1.72,3.2-1.67,1.98-3.31,3.94-4.78,6.01-1.46,2.07-2.94,4.14-4.15,6.4-1.48,2.7-2.2,5.85-2.57,8.93-.37,3.39-.11,6.9.8,10.23.53,2.06,1.42,4.02,2.48,5.88,1.65,2.79,3.83,5.32,6.37,7.38,1.98,1.6,4.17,2.83,6.41,3.96.5.24.99.48,1.49.72,1.85.92,2.36,1.38,2.44,2.28.02.2.07.42.05.61-.06.62-1.06.71-2.58.19-4.46-1.58-8.86-4.31-12.55-7.97-2.71-2.74-4.93-6.06-6.39-9.69l.07-.03Z"/><path class="cls-3" d="m202.74,132.02c-.23,1.79-.06,3.59.31,5.36.19.63.42,1.25.64,1.87.68,2.25,1.95,4.34,3.53,6.19.66.87,1.56,1.52,2.39,2.22.58.38,1.16.77,1.71,1.23.58.4,1.16.8,1.71,1.29.33.33.25.38-.2.44-.44.04-1.29.14-2.14-.12-1.5-.47-2.81-1.35-4.08-2.29-.64-.46-1.18-1.05-1.76-1.59-.56-.56-.97-1.27-1.43-1.91-.53-.79-.99-1.65-1.54-2.45l-.68-1.3c-.24-.43-.44-.88-.57-1.35l-.48-1.54c-.13-.52-.2-1.05-.3-1.58-.24-1.05-.2-2.12-.28-3.18.06-1.3.09-2.6.36-3.87.09-.48.16-.96.26-1.44l.41-1.4c.15-.46.24-.94.42-1.39l.49-1.35c.12-.35.23-.71.34-1.06l.39-1.04c.26-.69.47-1.41.77-2.09.14-.29.25-.6.41-.89.58-1.08,1.01-1.27,1.86-1,.2.06.4.11.59.19.62.29.84,1,.61,1.81-.19.59-.42,1.17-.66,1.74-.19.59-.41,1.16-.64,1.73l-.36.85-.3.87c-.19.58-.46,1.15-.62,1.73-.49,1.74-1,3.5-1.06,5.3h-.08Z"/><path class="cls-3" d="m197.68,160.44c-1.09,1.93-1.9,4.06-2.3,6.29-.17.81-.18,1.64-.27,2.46-.25,2.9.1,5.91,1.29,8.65.5,1.23,1.26,2.34,2.13,3.32,1.13,1.26,2.42,2.34,3.73,3.51.38.41.21.6-.4.7-.62.12-1.7.11-2.66-.49-1.72-1.01-3.13-2.5-4.28-4.14-1.14-1.66-1.95-3.55-2.3-5.51-.42-2.33-.83-4.76-.66-7.17.15-2.64.91-5.21,1.97-7.59.66-1.46,1.47-2.87,2.42-4.15,1.42-1.98,3.21-3.68,5.18-5.07,1.52-1.1,3.1-2.14,4.88-2.83.38-.18.77-.32,1.18-.42.76-.21,1.29-.23,1.67-.11.38.11.62.36.82.79.09.19.21.38.27.57.19.66-.31,1.31-1.22,1.66-1.34.61-2.63,1.18-3.87,1.89-1.23.72-2.4,1.56-3.48,2.54-1.59,1.45-3.01,3.18-4.03,5.16l-.08-.04Z"/><path class="cls-3" d="m235.74,215.7c-2.58.67-5.2.88-7.76.82-.92,0-2.02-.03-2.97-.25-3.43-.83-6.42-2.81-8.52-5.5-.93-1.2-1.68-2.55-2.23-3.97-.11-.48-.28-.94-.36-1.42-.06-.48-.14-.97-.17-1.45.02-.49.09-.97.15-1.44.1-.47.26-.93.4-1.38.2-.56.5-.4.88.12.19.26.41.6.62.99.19.39.5.8.61,1.23.19.76.38,1.5.7,2.18.26.69.51,1.39.89,2.04.72,1.32,1.74,2.54,2.98,3.61,1.48,1.32,3.56,1.91,5.49,2.2,1.02.12,2.28.11,3.44.06,1.17-.05,2.34-.18,3.49-.4,1.43-.24,2.79-.7,4.11-1.25,1.98-.88,3.83-2.12,5.29-3.72,1.13-1.25,1.93-2.72,2.59-4.24.16-.32.25-.68.4-1.01.29-.61.48-1.02.75-1.25.3-.22.62-.29,1.04-.29.19,0,.39-.02.57,0,.3.04.51.24.64.58.13.34.19.83.05,1.38-.44,1.61-1.13,3.24-2.11,4.73-.99,1.49-2.24,2.87-3.67,4.04-2.14,1.73-4.68,2.93-7.27,3.66l-.03-.07Z"/><path class="cls-3" d="m292.4,430.56c3.72-1.61,7.44-3.44,10.47-5.78.74-.58,1.42-1.21,1.94-1.84.24-.31.46-.62.58-.89.12-.27.16-.46.16-.56.15.15-.53-1.27-.92-2.13l-1.32-2.89c-.91-1.92-1.69-3.87-2.5-5.82-.79-1.95-1.64-3.88-2.39-5.85-1.5-3.93-3.08-7.83-4.49-11.78l-3.18-8.62-3.05-8.66c-3.45-10.23-6.76-20.49-9.85-30.82l-2.33-7.74-2.23-7.77c-1.52-5.17-2.9-10.39-4.32-15.59-1.27-4.61-2.41-9.28-3.64-13.9-1.17-4.65-2.28-9.3-3.4-13.91-.66-2.98-1.32-5.97-1.98-8.95-.68-2.98-1.17-6.01-1.76-9.02-.6-3-1.02-6.05-1.37-9.1-.15-1.53-.39-3.04-.44-4.58-.06-.77,0-1.55,0-2.32.03-.77,0-1.54.06-2.31.1-1.92.18-2.74.28-2.69.11.05.27.98.72,2.55.44,1.58,1.16,3.79,1.79,6.46.35,1.34.74,2.78,1.06,4.33.32,1.55.54,3.19.88,4.91l1.68,9.11,1.94,9.08c.61,3.03,1.4,6.04,2.08,9.06.7,3.02,1.41,6.04,2.2,9.05,2.96,12.06,6.34,24.06,9.73,36.12,4.11,14.4,9.18,29.16,14.31,43.59,2.81,7.94,5.8,15.81,8.91,23.62,1.65,3.86,3.19,7.78,5,11.55l1.32,2.85c.12.27.2.4.37.84.15.37.24.79.25,1.19.04.81-.17,1.55-.45,2.17-.58,1.23-1.39,2.11-2.22,2.91-.83.79-1.72,1.47-2.62,2.11-2.22,1.55-4.56,2.82-6.94,3.97-2.38,1.15-4.81,2.17-7.27,3.09-4.92,1.85-9.96,3.35-15.08,4.49-3.89.86-7.85,1.51-11.86,1.81-4.01.27-8.05.27-12.14-.79-.68-.17-1.31-.68-1.69-1.09-.41-.42-.73-.87-1.01-1.32-.58-.89-1.02-1.81-1.49-2.71-.9-1.81-1.66-3.65-2.37-5.5-1.4-3.7-2.6-7.44-3.7-11.2-3.39-11.71-6.08-23.37-7.99-35.28-.42-2.63-.82-5.2-1.13-7.86-.53-4.95-.66-8.24-.6-10.55.04-1.16.12-2.07.25-2.83.15-.76.36-1.36.56-1.89.19-.49.36-1.13.52-1.41.47-.94,1.26,3.06,1.97,10.17,1.23,10.55,3.05,21.35,5.47,32.17,1.21,5.41,2.56,10.82,4.1,16.19,1.55,5.34,3.24,10.74,5.49,15.67.23.49.47.97.71,1.44.27.45.56.89.85,1.27.55.79,1.34,1.45,1.1,1.26l.5.12c.19.05.4.08.59.13.39.09.81.14,1.21.21.82.12,1.66.2,2.51.25,1.7.1,3.43.07,5.18-.02,3.49-.21,7.01-.73,10.5-1.43,6.97-1.44,13.89-3.54,20.43-6.35l.05.07Z"/><path class="cls-3" d="m297.15,116.49c.44,1.95.83,3.94,1.09,5.99.22,2.05.44,4.17-.19,6.52l-.12.34c-.06.15-.1.31-.17.45-.14.28-.3.54-.45.81-.33.5-.72.96-1.2,1.22-.47.3-1.09.29-1.61.1-.54-.18-1.06-.53-1.53-.95-.13-.11-.29-.24-.39-.35l-.24-.24-.46-.48c-.3-.32-.58-.65-.85-.97l-1.6-1.91c-.68-.79-.66-.8-.91-1.07-.11-.11-.23-.23-.38-.31-.07-.04-.16-.07-.24-.04-.07.03-.12.1-.17.15-.19.29-.2.66-.17,1.03,0,.09.09.58.18.97.09.41.21.81.33,1.22.64,2.09,1.58,4.14,2.51,6.17,1.15,2.62,2.51,5.26,2.83,8.3-.14,1-.26.85-.95.25-.37-.29-.74-.72-1.19-1.23-.41-.52-.94-1.1-1.26-1.84-.59-1.24-1.23-2.47-1.85-3.73-.57-1.28-1.15-2.58-1.69-3.92-.53-1.35-1.04-2.72-1.42-4.22-.1-.37-.18-.76-.25-1.16l-.08-.46c-.03-.17-.05-.33-.06-.49l-.03-.95c.03-1.25.45-2.19,1.1-2.91.24-.22.51-.43.85-.54.61-.17,1.12-.02,1.68.22.56.25,1.13.78,1.66,1.31.27.27.53.55.79.83l.48.54.9,1.04c.6.68,1.19,1.36,1.79,1.98l.45.44.21.19c.11.09.23.19.38.23.09.03.16-.04.21-.1.06-.05.1-.13.16-.19.08-.16.14-.22.26-.71.19-.8.24-1.72.21-2.65-.06-1.87-.4-3.8-.8-5.72-.49-2.37-1.08-4.74-1.56-7.21-.14-.75-.25-1.6-.21-2.31.05-.7.23-1.34.9-1.67.79-.33,1.63-.11,2.39.3.38.21.75.5,1.08.83.18.15.34.32.49.5.12.14.24.27.34.41.88,1.08,1.58,2.24,2.21,3.43,1.36,2.63,2.44,5.35,2.98,8.31.11.65.22,1.3.26,1.98.02,2.53-.5,3.37-1.34,3.67-.2.07-.4.17-.58.18-.63.02-.77-.94-.83-2.47-.14-2.29-.58-4.67-1.37-7-.79-2.3-1.84-4.68-3.28-6.48-.08-.1-.2-.21-.26-.28,0-.01,0,0,0,0h0s0-.02-.01-.02c-.01,0-.02,0-.02,0,0,0,0,.01,0,.02,0,.02-.01-.03,0,.04l.05.23.1.47c.28,1.26.62,2.57.94,3.88l-.07.02Z"/><path class="cls-3" d="m487.61,159.09c.65,6.37,1.16,12.7,2.56,18.75.52,2.2,1.26,4.32,2.11,6.34.14.33.27.67.43.98l.52,1.08c.2.35.31.74.37,1.13.03.4,0,.8-.11,1.18-.11.38-.29.75-.5,1.09l-.39.45-.32.32c-.83.8-1.64,1.41-2.49,1.94-1.69,1.06-3.44,1.86-5.21,2.6-3.54,1.44-7.18,2.52-10.88,3.33-3.62.77-7.32,1.36-11.06,1.38-1.52,0-3.05-.1-4.59-.41-.77-.15-1.54-.37-2.3-.67-.38-.15-.75-.32-1.11-.53-.38-.22-.66-.37-1.16-.8l-.18-.18c0-.11-.08-.15-.1-.23-.08-.13-.13-.29-.19-.45-.05-.35-.05-.7-.06-1.02,0-.48.02-.91.04-1.36.03-.89.2-1.77.46-2.65.21-.69.42-.99.48-.99.08,0,.04.29.14.81.06.26.14.58.26.94.12.36.31.77.44,1.21.16.44.32.92.5,1.41l.14.36s.05.06.06.06c.03,0,.05,0,.08,0,.04.01-.04-.05.12.04l.33.19c1.63.9,3.82,1.24,6.01,1.32,2.21.07,4.48-.11,6.75-.43,4.54-.66,9.08-1.81,13.47-3.36,1.88-.68,3.74-1.51,5.45-2.53.84-.51,1.65-1.08,2.27-1.69.15-.16.26-.33.36-.48.05-.03.09-.13.13-.2.08-.15.06-.34-.03-.49,0,.04-.05-.08-.1-.18l-.15-.29-.3-.58c-.21-.38-.37-.79-.55-1.18-.37-.79-.66-1.59-.95-2.4-1.11-3.16-1.78-6.39-2.31-9.62-.52-3.22-.88-6.45-1.22-9.65-.41-3.95-.78-7.88-1.37-11.76-.45-2.93-1.02-5.84-1.9-8.63-.86-2.78-2.14-5.43-4-7.51-1.44-1.59-3.35-2.74-5.28-3.29-1.96-.46-4.12-.3-6.1.29-.88.26-1.7.62-2.5,1.03-1.49.77-2.33,1.46-3.02,1.85-.65.43-1.17.57-1.76.61-.27.01-.58.09-.81.06-.39-.05-.47-.45-.22-1.22.25-.75.95-1.79,2.15-2.78,1.77-1.49,3.94-2.49,6.24-3.05,2.31-.52,4.79-.63,7.32.15,2.44.83,4.56,2.24,6.25,4.08,1.69,1.83,2.91,3.96,3.82,6.11,1.36,3.21,2.11,6.51,2.71,9.77.57,3.26.95,6.51,1.32,9.73l-.08.02Z"/><path class="cls-3" d="m462.99,224.43c2.28,3.49,3.48,7.25,4.44,10.99.93,3.75,1.52,7.52,1.98,11.29.89,7.54,1.18,15.08,1.31,22.6.08,5.49.16,10.97.05,16.43l-.08,3.61-.08,4.86c-1,.17-2.03.33-3.04.46l-1.81.25-3.64.37c-4.86.41-9.74.51-14.6.29-9.72-.44-19.39-2.12-28.64-5.12-1.03-.31-2.04-.7-3.07-1.04-1.03-.34-2.04-.72-3.04-1.12l-1.05-.41-1.12-.45-.28-.12-.14-.06-.07-.03.02-.07.14-.59.29-1.17.83-3.35c1.04-4.15,2.07-8.3,3.16-12.39,2.79-10.53,5.24-21.13,8.41-31.56.59-1.61.84-2.31.85-2.26.03.05-.13.87-.16,2.33-.03,1.46-.13,3.53-.32,6.02-.11,1.24-.19,2.6-.39,4.02-.21,1.42-.48,2.91-.79,4.46-.29,1.37-.57,2.73-.89,4.09l-1.02,4.06-2.11,8.08c-1.39,5.39-2.98,10.71-4.4,16.07l-.12.46v.02s-.02.03-.03.05c0,.01.01.02.03.03h.03s.01.01.01.01l.19.08c1.25.55,2.53,1.02,3.82,1.5,2.58.93,5.21,1.69,7.86,2.4,5.31,1.38,10.76,2.34,16.26,2.91,6.58.71,13.37.68,20.13.06,1.69-.2,3.38-.35,5.06-.63l.55-.08.2-.03s.01-.14.02-.21v-1.77c-.04-3.45-.05-6.89-.03-10.31.02-7.52-.05-15.04-.51-22.53-.48-7.46-1.21-14.97-3.15-22.1-.61-2.18-1.35-4.32-2.33-6.31-.99-1.99-2.19-3.79-3.86-5.15-3.45-2.75-7.64-4.86-11.76-6.88-12.62-6.02-25.81-11.14-38.78-16.25-10.1-3.95-20.09-7.62-30.02-11.77-2.19-.92-4.33-1.81-6.51-2.81-8.07-3.73-10.41-5.56-11.57-7.28-.26-.4-.63-.87-.73-1.17-.28-1.03,2.81.64,8.62,3.3,8.6,4,17.76,7.56,27.03,11.21,9.28,3.64,18.73,7.27,28.17,11.05,7.01,2.81,14.02,5.69,20.95,8.84,3.47,1.58,6.91,3.24,10.3,5.12,1.69.96,3.37,1.94,5.02,3.14.41.31.82.58,1.23.93l1.21,1.07,1.1,1.22c.33.42.63.86.95,1.29l-.05.06Z"/><path class="cls-3" d="m370.97,222.65c4.07,1.82,8.14,3.63,12.24,5.4,1.49.64,3.02,1.21,4.51,1.86l15.77,6.93c2.33,1.04,4.73,1.94,7.05,2.93,1.5.64,3.02,1.21,4.5,1.89.73.35,1.46.72,2.19,1.1.73.37,1.44.76,2.13,1.23.86.57.67.66-.27.69-.96.06-2.66.05-4.47-.46-6.34-1.99-12.4-4.65-18.47-7.48-3.61-1.73-7.52-3.17-11.28-4.77-4.14-1.76-8.27-3.56-12.39-5.37-2.53-1.12-5.07-2.25-7.6-3.37-3.83-1.73-7.67-3.47-11.47-5.19-1.48-.66-2.95-1.31-4.43-1.93-1.48-.64-2.94-1.3-4.41-1.97-.64-.32-1.28-.61-1.92-.95-1.2-.59-1.91-1.16-2.36-1.63-.45-.46-.61-.88-.63-1.35-.01-.21-.06-.44-.03-.62.1-.57,1.32-.47,2.99.33,5.18,2.33,10.6,4.76,16.06,7.21,4.09,1.81,8.19,3.66,12.32,5.44l-.02.07Z"/><path class="cls-3" d="m380.11,233.85l8.52,4.36c1.04.53,2.11.98,3.15,1.51,3.64,1.9,7.26,3.84,10.85,5.85,1.6.87,3.23,1.7,4.86,2.5,1.02.55,2.05,1.11,3.07,1.66l.76.44.72.51c.47.35.94.69,1.42,1.04.58.45.42.54-.26.53-.34,0-.82-.03-1.39-.07-.28-.02-.59-.05-.91-.09-.16-.02-.32-.06-.49-.07-.15-.06-.31-.11-.46-.17l-3.31-1.31c-1.09-.47-2.14-1-3.2-1.51-2.12-1.04-4.23-2.12-6.31-3.29-2.46-1.45-5.2-2.59-7.82-3.88l-8.63-4.26-5.32-2.61c-2.7-1.3-5.38-2.66-8.09-3.87-2.11-.95-4.25-1.71-6.37-2.56-.47-.19-.94-.34-1.4-.55-.85-.41-1.38-.73-1.7-1.07-.31-.36-.41-.73-.44-1.14-.01-.19-.06-.37-.05-.52.02-.25.25-.38.67-.49.43-.11,1.02-.1,1.68.1,3.96,1.16,7.86,2.94,11.8,4.73,2.92,1.33,5.81,2.76,8.7,4.17l-.03.07Z"/><path class="cls-3" d="m111.24,104.16c.46,1.66,1.1,3.3,1.78,4.95.26.6.59,1.17.85,1.77.93,2.13,1.96,4.26,2.86,6.47.38.99.79,1.98,1.13,3,.21.66.38,1.33.46,2.03.03.35.07.7.04,1.06l-.03.53c-.03.18-.12.35-.18.52-.18.42-.21.34-.44-.02-.29-.37-.68-.94-.91-1.59-.41-1.17-.9-2.32-1.46-3.48-.58-1.15-1.14-2.35-1.66-3.61-.62-1.5-1.58-2.92-2.35-4.42-.85-1.65-1.61-3.37-2.24-5.16-.38-1.1-.72-2.22-.98-3.36-.41-1.73-.58-3.52-.61-5.3-.02-1.38-.03-2.76.17-4.15.06-.3.09-.6.16-.91.29-1.11.64-1.38,1.38-1.34.17.01.35,0,.51.04.55.12.84.69.75,1.43-.09,1.11-.2,2.19-.22,3.28-.03,1.09-.06,2.18.05,3.29.14,1.64.44,3.32.97,4.97l-.06.02Z"/><path class="cls-3" d="m52.67,20.93l.02.02c.48.56.77,1.27.7,2l-.07.55-.2.55c-.1.37-.38.7-.57,1.05-.12.2-.19.27-.27.38l-.24.3c-.16.2-.33.36-.5.55-.34.35-.68.68-1.03.98-1.4,1.23-2.9,2.23-4.44,3.17-1.13.67-2.25,1.35-3.43,1.91-2.09.97-4.27,1.78-6.56,2.28-2.26.47-4.74.68-7.07-.26-.26-.1-.52-.28-.77-.41-.25-.15-.47-.4-.69-.6-.38-.5-.65-1.11-.66-1.71-.06-1.21.42-2.24.96-3.13,1.44-2.27,3.57-3.98,5.95-5,.74-.32.73-.07.26.47-.48.51-1.33,1.42-2.34,2.35-.91.81-1.75,1.71-2.36,2.7-.6.95-1.01,2.12-.75,2.77.1.33.3.57.71.77.36.22.96.36,1.48.47,1.1.18,2.31.12,3.52-.05,2.93-.4,5.86-1.76,8.57-3.25,1.49-.83,2.94-1.75,4.3-2.76.67-.51,1.33-1.05,1.94-1.62.29-.29.59-.58.85-.88.26-.29.53-.66.6-.76.18-.26.35-.7.06-.96-.25-.23-.63-.23-.97-.15-.49.12-1.13.39-1.66.72-1.28.77-2.41,1.87-3.19,3.1-.37.62-.65,1.29-.71,1.95-.02.33-.04.65.07.96.05.32.2.6.34.89.53.87,1.5,1.49,2.54,1.88,1.04.39,2.18.57,3.3.59.5.02.97-.05,1.46-.09.44-.07.81-.1,1.11-.16.31-.03.55-.06.75-.07.43.01.72.1,1.07.34.16.11.36.2.5.31.24.2.23.5-.06.88-.14.2-.36.41-.65.58-.29.19-.65.37-1.06.49-2.48.76-5.17.66-7.75-.43-1.27-.56-2.58-1.42-3.5-2.86-.2-.38-.41-.77-.56-1.18-.11-.43-.25-.86-.28-1.3-.08-.89.05-1.74.29-2.5.76-2.26,2.26-3.77,3.91-4.96.84-.59,1.74-1.09,2.8-1.45.41-.15,1.44-.4,2.22-.33.81.06,1.55.36,2.09.89l-.04.05Z"/><path class="cls-3" d="m141.48,99.93c.72.08,1.27.48,1.78,1.04.66,1,.78,2.15.3,3.25-.24.56-.6,1.12-1.05,1.64-.21.26-.48.5-.71.75l-.31.29-.24.21c-.62.53-1.21,1.06-1.86,1.49-1.14.77-2.3,1.45-3.44,2.12-.57.33-1.14.67-1.64,1-.44.3-.77.65-1.1,1.15-.54.88-.94,1.93-1.15,2.98-.24,1.39-.31,2.68-.4,4.12.03.45-.02.46-.43.2-.22-.13-.49-.35-.83-.67-.15-.16-.35-.34-.48-.56-.1-.21-.2-.45-.26-.7-.08-.44-.19-.88-.17-1.32.01-.44.03-.87.1-1.3.11-.86.3-1.7.61-2.53.35-.81.78-1.61,1.44-2.37.3-.36.79-.78,1.15-1.01.37-.24.72-.43,1.07-.62,1.66-.89,3.16-2.02,4.59-3.11.38-.29.75-.59,1.1-.9l.34-.29c.07-.06.15-.13.22-.2.27-.27.62-.76.36-1.19,0-.03-.02-.04-.03-.06-.19-.24-.51-.18-.79-.14-.31.07-.52.12-1.02.31-1.78.69-3.64,1.44-5.64,1.9-.78.18-1.59.33-2.45.36-.86.03-1.78-.09-2.65-.47-.39-.16-.75-.35-1.08-.61-1.16-1.04-1.09-1.67-.65-2.27.1-.14.2-.29.31-.4.39-.37,1.07-.2,1.69.12.97.44,1.64.63,2.63.57.96-.05,2.1-.32,3.29-.74.89-.3,1.81-.67,2.78-1.05l.74-.29c.42-.15.83-.33,1.32-.47.95-.29,1.88-.43,2.61-.31l-.03.07Z"/><path class="cls-3" d="m117.49,170.01c-2.12-6.03-3.7-12.24-4.73-18.54-.56-3.15-.86-6.31-1.15-9.51-.11-1.62-.15-3.25-.08-4.89.04-1.64.21-3.29.52-4.94.46-2.4,1.22-4.85,2.69-7.05,1.45-2.19,3.75-3.97,6.29-4.74.55-.23,1.12-.27,1.68-.41.28-.05.56-.12.85-.16l.91-.07c1.22-.04,2.43.15,3.56.5,2.26.71,4.13,2,5.76,3.39,3.25,2.83,5.73,6.15,8.1,9.47,4.68,6.7,8.74,13.65,13.19,20.35,3.93,5.93,8.19,11.71,13.07,16.71,3.13,3.21,6.58,6.1,10.36,8.39,1.88,1.15,3.82,2.2,5.85,3.04.5.23,1.02.39,1.53.61.5.24,1.02.43,1.54.64,1.04.41,2.12.67,3.19.99,2.7.82,2.41.67-.08.98-1.25.15-3.03.16-5.26.05-2.2-.23-4.69-1.03-7.18-2.28-4.36-2.34-8.14-5.5-11.54-8.89-3.4-3.42-6.41-7.13-9.21-10.95-5.6-7.65-10.32-15.79-15.32-23.66-1.5-2.35-3.07-4.67-4.77-6.89-1.7-2.21-3.53-4.34-5.59-6.07-2.05-1.73-4.4-3.03-6.75-3-.29-.03-.58.04-.88.05-.3.05-.61.13-.92.19-.3.08-.63.1-.91.22l-.86.33c-.3.09-.56.25-.82.4-.26.16-.53.29-.78.46-.45.4-.98.72-1.35,1.21-.48.47-.85,1.06-1.24,1.62-.32.62-.7,1.21-.94,1.9-.56,1.31-.9,2.77-1.15,4.24-.48,2.96-.47,6.04-.21,9.11.53,6.22,1.62,12.39,3.24,18.43,1.99,7.43,4.76,14.66,8.35,21.48,5.37,10.35,12.42,19.93,20.67,28.09,6.4,6.35,13.5,11.75,21.16,16.18,1.69.97,3.39,1.83,5.14,2.68,6.57,3.09,8.72,3.36,10.12,4.47.33.2.79.41,1,.58.36.29-.22.54-1.68.67-1.46.11-3.66-.32-6.31-1.22-7.82-2.8-15.01-7.32-21.74-12.53-6.72-5.23-12.89-11.35-18.37-18.05-8.14-9.95-14.66-21.33-19-33.5l.07-.04Z"/><path class="cls-3" d="m180.38,93.97c-1.95,1.21-3.64,2.82-4.84,4.71-.62.94-1.05,1.98-1.41,3.04-.14.57-.31,1.13-.44,1.7-.08.57-.22,1.14-.26,1.71-.19,1.67.07,3.32.54,4.85.84,2.72,2.78,5.11,5.35,6.74,1.27.82,2.65,1.54,4.11,2.09,1.46.54,2.99.95,4.54,1.24,2.76.46,5.64.53,8.4.13,1.78-.2,3.54-.59,5.24-1.12.85-.27,1.72-.49,2.55-.82.43-.14.84-.31,1.25-.49.42-.16.86-.31,1.26-.51,1.06-.43,1.05-.23.45.66-.56.93-1.91,2.49-3.98,3.52-1.86.81-3.82,1.34-5.8,1.72-1.99.34-4.01.42-6.03.33-4.02-.2-8.06-1.11-11.7-3.07-2.15-1.19-4.23-2.71-5.93-4.68-1.72-1.95-2.85-4.48-3.23-7.04-.44-2.84.01-5.65.86-8.25.42-1.35,1.1-2.59,1.84-3.76.78-1.16,1.69-2.2,2.69-3.15,2.5-2.28,5.52-3.88,8.69-4.8,4.81-1.45,10-1.3,14.74.07,1.84.54,3.62,1.24,5.33,2.12,1.69.89,3.28,1.97,4.76,3.21.63.57,1.29,1.08,1.85,1.73,2.14,2.35,2.42,3.41,2.08,4.4-.08.23-.14.5-.26.67-.2.29-.59.26-1.09-.05-.5-.3-1.09-.89-1.82-1.64-2.11-2.27-4.58-4.2-7.33-5.67-2.76-1.43-5.81-2.38-8.95-2.63-2.33-.2-4.7-.07-6.99.45-1.15.23-2.26.62-3.35,1.03-1.06.47-2.13.96-3.08,1.61l-.05-.06Z"/><path class="cls-3" d="m203.56,206.53c-2.49-.42-4.85-1.67-6.57-3.42-.63-.63-1.27-1.26-1.75-2.01-1.71-2.64-2.37-5.82-1.96-8.79.19-1.31.39-2.64.92-3.86.35-.77.75-1.52,1.26-2.2.24-.35.56-.64.84-.94.08-.07.14-.16.23-.21l.31-.14c.19-.1.38-.19.58-.29.49-.22.51-.07.48.47-.01.28-.03.65,0,1.11,0,.43-.08.81-.25,1.16-.58,1.28-.79,2.59-1.15,3.85-.28,1.29-.37,2.64-.27,4.03.1,1.68.98,3.28,2.02,4.61,1.17,1.47,2.7,2.64,4.51,3.21,1.11.34,2.31.52,3.53.43,1.84-.1,3.72-.58,5.41-1.44,1.31-.68,2.43-1.62,3.46-2.62.24-.2.42-.47.65-.68.86-.79,1.22-.94,2.04-.52.18.09.38.17.55.28.57.36.59,1.11,0,1.95-1.78,2.41-4.47,4.27-7.53,5.34-2.27.8-4.8,1.15-7.33.76v-.08Z"/><path class="cls-3" d="m279.84,182.65c.21,2.19.06,4.41-.2,6.6-.23,1.1-.37,2.18-.71,3.28-.32,1.08-.71,2.11-1.17,3.11-.66,1.46-1.36,2.89-2.27,4.21-1.6,2.31-3.53,4.41-5.84,6.05-2.28,1.66-4.94,2.82-7.7,3.33-2.45.46-4.97.43-7.36.05-1.54-.25-3.06-.61-4.52-1.15-.73-.27-1.4-.66-2.07-1.05-.67-.37-1.3-.82-1.93-1.26-.77-.56-.52-.73.37-.74.45-.01,1.05.02,1.75.06.72,0,1.5.11,2.32.23,1.38.42,2.74.79,4.12,1.04,1.38.21,2.76.32,4.13.27,2.73-.12,5.4-.86,7.84-2.25,2.95-1.67,5.25-4.62,6.94-7.71.94-1.7,1.71-3.52,2.22-5.36.44-1.86.74-3.82.71-5.79,0-2.42-.24-4.88-.86-7.26-.86-3.61-2.32-7.15-4.43-10.2-1.62-2.38-3.67-4.36-5.9-6.02-.47-.4-.99-.69-1.5-1.04-.47-.31-.84-.62-1.13-.89-.31-.25-.55-.47-.73-.68-.37-.42-.48-.85-.5-1.35,0-.23-.06-.46-.04-.65.04-.59,1.23-.71,3.02,0,2.55,1.2,4.88,3.02,6.94,5.12,2.02,2.15,3.66,4.68,5.01,7.33,1.95,3.97,3.21,8.29,3.57,12.72h-.09Z"/><path class="cls-3" d="m263.29,130.22c2.3,2.26,3.74,5.25,4.42,8.28l.2.83.15.79c.09.53.21,1.05.24,1.59.37,3.76,0,7.77-1.59,11.28-.71,1.55-1.58,3-2.58,4.32-1.35,1.63-2.85,3.13-4.68,4.16-.56.34-.54.23-.3-.31.15-.35.31-.73.48-1.11.17-.48.4-.99.75-1.45l.83-1.27.74-1.29c.48-.85,1.02-1.63,1.42-2.49.81-1.69,1.49-3.42,1.9-5.31.52-2.27.13-4.77-.3-7.17l-.18-1c-.07-.32-.16-.62-.24-.93-.13-.63-.39-1.22-.61-1.82-.21-.61-.57-1.14-.85-1.73-.37-.52-.68-1.09-1.09-1.59-.95-1.28-2.18-2.33-3.52-3.21-2.06-1.29-4.48-2.09-6.94-2.17-.95-.07-1.9.09-2.83.24-.46.08-.92.24-1.37.35-.45.12-.9.23-1.35.4-.39.13-.77.29-1.17.41-1.46.5-1.99.49-2.67-.21-.15-.16-.33-.3-.46-.47-.42-.56,0-1.33,1.11-2.02,3.31-2.12,7.81-2.69,12.07-1.8,3.17.71,6.14,2.36,8.47,4.63l-.06.07Z"/><path class="cls-3" d="m236.02,93.46c3.63,1.53,7.02,3.75,9.5,6.95.89,1.14,1.72,2.32,2.35,3.6,2.15,4.54,2.92,9.61,2.08,14.46-.19,1.07-.46,2.13-.8,3.17-.38,1.03-.79,2.04-1.35,2.98-1.38,2.39-3.41,4.61-6.03,5.56-.81.3-.81,0-.4-.67.2-.34.5-.77.83-1.28.18-.24.35-.52.54-.78.2-.25.44-.49.67-.75,1.73-1.75,2.85-3.96,3.5-6.31.67-2.35.86-4.87.65-7.41-.21-3.06-1.52-6.09-3.15-8.71-.89-1.45-1.98-2.77-3.22-3.88-1.32-1.08-2.72-2.1-4.29-2.85-.93-.52-1.95-.87-2.94-1.27-1.03-.3-2.05-.64-3.11-.8-3.17-.58-6.55-.57-9.54.57-2.33.85-4.3,2.35-5.78,4.2-.38.36-.58.86-.91,1.27-.61.75-.94,1.31-1.32,1.61-.38.31-.78.39-1.31.36-.24-.01-.51,0-.73-.04-.77-.14-.85-1.21-.15-2.81,1.18-2.27,2.95-4.42,5.25-5.99,2.32-1.54,5.03-2.49,7.77-2.88,4.09-.58,8.21.13,11.92,1.6l-.02.08Z"/><path class="cls-3" d="m187.3,447.64c-2.39-.43-4.77-1.01-7.1-1.85-.58-.2-1.16-.44-1.74-.68l-.86-.38c-.36-.19-.82-.47-1.16-.74-1.34-1.15-1.95-2.41-2.49-3.6-1.06-2.41-1.6-4.77-2.08-7.14-.46-2.36-.79-4.72-1.07-7.07-1.05-9.41-1.28-18.79-1.37-28.16-.03-6.84-.04-13.67.16-20.49.72-24.05,2.45-48.03,4.66-71.95,1-10.61,2.04-21.28,3.19-31.8.73-6.76,1.5-13.53,2.45-20.27.91-6.75,2.02-13.48,3.56-20.11.98-4.13,1.1-3.53,1.05.09-.03,1.81-.01,4.38-.15,7.47-.06,1.54-.12,3.22-.26,4.99-.16,1.77-.35,3.63-.59,5.57-3.39,27.46-6.22,54.99-8.49,82.81-1.35,16.64-2.02,34.02-2.28,51.08-.14,9.38-.11,18.76.34,28.11.24,4.67.57,9.34,1.18,13.94.3,2.3.67,4.59,1.19,6.82.51,2.21,1.19,4.44,2.25,6.18.35.48.71.97,1.09,1.17.12.12.52.28.82.42.31.15.64.27.96.41,1.29.52,2.62.96,3.98,1.32,2.72.72,5.53,1.17,8.36,1.43,5.67.53,11.43.32,17.13-.23,5.38-.54,10.74-1.4,16.03-2.57,2.64-.59,5.26-1.25,7.83-2.03,1.28-.39,2.55-.81,3.77-1.3.3-.12.6-.25.9-.38l.35-.16.25-.13c.16-.1.33-.19.46-.34.14-.16-.02-.37,0-.55-.31-1.54-.62-3.07-.92-4.6-.31-1.63-.63-3.26-.94-4.89-.62-3.25-1.22-6.5-1.79-9.74-2.38-13.34-4.43-26.49-5.66-39.86-.27-2.94-.54-5.83-.71-8.8-.34-5.52-.37-9.17-.26-11.73.08-2.56.42-4.03.86-5.22.2-.54.4-1.25.59-1.56.65-1.05,1.28,3.43,1.73,11.43.7,11.88,2.01,24.02,3.78,36.28,1.77,12.26,4.01,24.64,6.47,37.02l.13.68c.08.43.19.87.24,1.3.03.26-.01.52-.02.77-.01.26,0,.52-.13.75-.2.49-.54.88-.95,1.24-.43.34-.92.63-1.43.89l-.61.29-.44.19c-1.17.49-2.3.88-3.43,1.25-2.27.73-4.54,1.33-6.82,1.88-4.56,1.08-9.16,1.92-13.79,2.53-4.64.61-9.31,1-14.01,1.07-4.7.05-9.44-.12-14.16-.94v-.08Z"/><path class="cls-3" d="m352.16,195.84c-1.48,2.33-3.04,4.62-4.84,6.78-.66.79-1.3,1.61-2.09,2.33-.67.65-1.46,1.22-2.35,1.74l-.72.36c-.27.09-.55.18-.83.25-.3.05-.62.07-.93.09-.32-.04-.66-.09-.98-.18-.3-.14-.59-.27-.88-.46-.3-.22-.56-.49-.74-.79-.37-.6-.49-1.22-.53-1.76-.05-1.09.17-2.01.39-2.91.43-1.58.94-3.07,1.46-4.54l.49-1.41c.18-.46.38-.91.59-1.36.39-.91.87-1.75,1.53-2.54.4-.5.44-.42.63.19.09.3.28.77.37,1.29.05.26.12.55.13.84,0,.28-.04.56-.11.84l-.38,1.48c-.13.49-.34.94-.5,1.4-.35.92-.69,1.84-1,2.74-.31.9-.58,1.8-.75,2.63-.18.82-.19,1.62-.15,1.77,0,.04.01.05.02.09.04.03.1.07.15.11.05.06.11.07.17.09.06,0,.11.08.2.05.3.05.75-.11,1.19-.32.89-.49,1.73-1.35,2.53-2.2,1.76-1.91,3.31-4.13,4.75-6.39.89-1.4,1.74-2.83,2.55-4.29,1.21-2.21,2.41-4.45,3.41-6.75.78-1.79,1.34-3.63,2.01-5.42.15-.4.25-.79.41-1.19.61-1.44.93-1.84,1.58-2,.15-.04.3-.1.44-.11.45-.04.64.72.47,1.93-.12.9-.32,1.78-.56,2.66-.25.88-.46,1.77-.81,2.62-.66,1.71-1.43,3.4-2.25,5.07-1.21,2.48-2.58,4.9-4.01,7.29l-.06-.03Z"/><path class="cls-3" d="m413.91,138.13l-.41.61-.16.25s-.01.02-.02.03c-.04.04-.06.1-.03.15.01.03.02.05.04.08.06.09.24.25.37.37.3.27.67.55,1.05.81,1.57,1.06,3.44,1.97,5.33,2.8,3.8,1.65,7.8,3.03,11.81,4.32,2.94.94,5.93,1.72,8.88,2.61l7.86,2.29,2.09.61c.55.16,1.11.32,1.6.53.21.14.41.28.59.41.1.07.18.13.25.22.02.13.07.24.08.35.12.43.15.92,0,1.47-.06.27-.14.54-.22.82l-.23.73-.66,1.97c-.9,2.59-1.8,5.16-2.52,7.74-.35,1.22-.71,2.86-.72,3.16-.01.15-.02.31,0,.47.02.08.04.15.09.21.06.05.15.01.22,0l.46-.09.58-.1c1.28-.2,2.63-.26,3.97-.04,1.34.21,2.68.72,3.82,1.52.58.41,1.05.83,1.55,1.42.49.6.83,1.3,1.02,2,.38,1.41.31,2.81,0,4.12-.41,1.67-1.18,3.29-2.41,4.55-1.19,1.29-2.75,2.17-4.38,2.65-1.63.49-3.33.62-5,.38-.83-.13-1.65-.37-2.4-.79-.76-.37-1.44-.95-1.96-1.61-.15-.22-.28-.41-.37-.57-.06-.18-.11-.32-.15-.44-.07-.23-.08-.33-.05-.33.04,0,.13.1.27.28.08.09.16.2.26.31.13.1.27.21.43.33.65.46,1.75.77,3.03.72,1.26.02,2.71-.11,4.18-.56,1.3-.36,2.46-1.04,3.39-1.85.93-.81,1.62-1.84,2-3.05.38-1.18.45-2.48.13-3.4-.07-.23-.17-.43-.28-.59-.11-.17-.2-.27-.46-.51-.44-.4-.9-.75-1.42-1-1.03-.53-2.28-.73-3.62-.66-.33.01-.67.05-1.02.1l-.32.05-.56.11c-.37.07-.75.17-1.11.23-.37.07-.72.1-1,.03-.27-.08-.49-.19-.72-.28l-.18-.07s-.06-.04-.11-.04l-.08-.09c-.11-.12-.2-.24-.28-.35-.09-.12-.16-.24-.23-.37-.08-.12-.14-.25-.17-.41-.21-.56-.2-1.29-.17-2l.15-1.09c.07-.42.11-.53.15-.77.19-.83.41-1.63.64-2.41.47-1.57,1-3.09,1.52-4.61.31-.9.63-1.81.94-2.72.28-.86.57-1.72.85-2.58.05-.14.09-.28.13-.43.1-.2-.16-.2-.28-.25l-.74-.21-1.41-.37c-3.78-.99-7.6-1.96-11.36-3.07-4.13-1.23-8.24-2.53-12.3-4.02-2.03-.75-4.05-1.54-6.05-2.44-1.99-.91-3.97-1.87-5.85-3.28-.29-.22-.57-.46-.85-.73-.14-.14-.28-.27-.41-.43-.16-.17-.32-.39-.46-.59-.29-.42-.48-.88-.57-1.36-.04-.48.09-.95.34-1.39.1-.22.25-.44.37-.65.09-.15.19-.3.29-.44.19-.29.39-.57.59-.84.4-.55.81-1.09,1.23-1.62,1.69-2.11,3.53-4.07,5.51-5.89,2.99-2.76,6.34-5.19,10.04-6.97,3.7-1.78,7.82-2.79,11.95-2.68,3.2.12,6.35.89,9.22,2.18,1.45.62,2.85,1.41,4.17,2.34,1.27.99,2.52,2.09,3.46,3.47.47.57.78,1.22,1.17,1.84.3.66.65,1.31.86,2.01.87,2.58.94,4.33.95,5.5,0,1.18-.19,1.83-.5,2.41-.13.26-.24.61-.38.8-.23.32-.6,0-1-.93-.41-.91-.65-2.35-1.01-4.05-.51-2.53-1.47-4.83-3.06-6.7-1.61-1.85-3.78-3.27-6.2-4.31-2.43-1.05-4.99-1.67-7.6-1.77-2.61-.12-5.24.37-7.76,1.22-3.75,1.3-7.25,3.49-10.4,6.12-3.15,2.62-5.97,5.77-8.27,9.11l-.07-.04Z"/><path class="cls-3" d="m178,130.63c3.3,3.6,9.51,1.26,11.22-2.83.28-.67-.3-1.54-.96-1.69-.8-.18-1.39.25-1.69.96.17-.41-.05.06-.12.17s-.4.51-.14.23c-.25.28-.5.56-.78.81-.08.07-.16.13-.24.2-.07.06.19-.13-.06.04-.16.11-.32.22-.49.33-.19.11-.38.22-.57.32-.1.05-.2.09-.3.14-.33.15.26-.08-.08.03-.4.13-.81.21-1.21.33-.1.03.25-.01-.06,0-.09,0-.18.01-.27.02-.21,0-.43,0-.64-.02.35.03.03,0-.06-.02-.1-.02-.21-.05-.31-.08s-.2-.07-.31-.1c.3.1-.01-.01-.07-.04-.1-.05-.2-.11-.29-.17-.06-.03-.33-.24-.1-.06-.19-.15-.37-.33-.53-.51-.5-.55-1.44-.51-1.94,0-.55.55-.5,1.4,0,1.94h0Z"/><path class="cls-3" d="m420.93,154.13c.32-.36.61-.78.99-1.04.18-.14.38-.24.59-.31.2-.07.42-.14.64-.11.44.02.89.18,1.32.34.25.1.29.13.44.19l.36.17c.35.16.72.25,1.06.43,1.17.65,2.35,1.3,3.53,1.95.52.3,1.05.56,1.58.81.7.28,1.35.69,1.89,1.31.16.2.08.29-.2.41-.29.13-.78.35-1.24.34-1.55-.2-2.96-.7-4.27-1.53-.79-.49-1.72-.7-2.59-1.03l-.7-.3-.35-.15-.17-.07-.07-.04c-.09-.05-.19-.1-.3-.14-.12-.03-.2.06-.29.12-.05.04-.11.09-.16.14-.05.05-.1.1-.2.22-.18.22-.35.45-.48.68-.2.34-.37.76-.37.97,0,.02,0,.04,0,.07,0,0,0,.01,0,.02h0s-.38.26-.38.26h0s0,0,0,0h0s0,0,0,0h0s-.03.02,0-.02c.06-.14,0-.15-.01-.42-.01-.04.22-.11.36-.24.5-.39.9-1.01,1.22-1.58.07-.13.12-.26.19-.38.25-.45.38-.45.99-.35l.4.05c.41.03.75.52.56,1.07-.24.79-.65,1.45-1.15,2.06-.26.31-.53.6-.9.89-.08.07-.19.15-.3.22-.1.07-.23.15-.4.23-.11.07-.41.17-.69.21-.17.03-.52.01-.77-.06-.24-.04-.69-.33-.91-.62-.32-.46-.38-.76-.44-1.07-.07-.34-.04-.55-.03-.81.05-.44.16-.83.28-1.15.12-.33.26-.63.42-.91l.24-.42c.09-.15.16-.23.29-.47l.05.04Z"/><g class="cls-4"><path class="cls-3" d="m397.88,208.29c-.06.4-.12.81-.12,1.22s.05.81.11,1.22c.11.78.38,1.54,1.02,2.04.54.42,1.24.51,1.88.25.56-.24.92-.69,1.11-1.26.07-.2.09-.43.1-.64,0-.1,0-.2,0-.29-.04-.38-.11-.76-.23-1.12-.23-.69-.55-1.36-.99-1.94-.09-.17-.22-.32-.39-.42-.14-.13-.31-.22-.51-.27-.36-.1-.84-.05-1.16.15s-.6.51-.69.9-.09.84.15,1.16c.28.36.5.76.68,1.18l-.15-.36c.15.36.27.73.33,1.12l-.05-.4c.01.12.02.23,0,.35l.05-.4c-.01.09-.03.17-.07.25l.15-.36s-.04.08-.07.12l.23-.3s-.04.05-.07.07l.3-.23s-.05.03-.08.05l.36-.15s-.07.02-.1.03l.4-.05s-.05,0-.08,0l.4.05s-.07-.01-.11-.03l.36.15s-.07-.03-.1-.06l.3.23c-.05-.04-.1-.09-.14-.14l.23.3c-.05-.07-.09-.15-.13-.22l.15.36c-.12-.3-.18-.63-.22-.95l.05.4c-.06-.47-.06-.94,0-1.4l-.05.4c0-.06.02-.12.03-.17.06-.2.07-.4.03-.6,0-.2-.07-.39-.18-.56-.18-.31-.54-.61-.9-.69-.38-.09-.81-.07-1.16.15-.31.2-.63.52-.69.9h0Z"/></g><path class="cls-3" d="m369,208.55c.52.57,1.18,1.07,1.88,1.41.85.41,1.78.72,2.73.46.64-.18,1.18-.61,1.44-1.23s.24-1.38-.15-1.96c-.6-.89-1.59-1.16-2.54-1.5-.87-.31-1.74-.63-2.6-.94-.38-.14-.92-.03-1.25.16s-.66.58-.75.97c-.09.42-.07.88.16,1.25s.55.6.97.75c.62.22,1.24.45,1.85.67s1.2.4,1.77.65l-.39-.16c.14.06.27.14.4.23l-.33-.25c.06.05.1.1.15.15l-.25-.33s.05.08.08.13l-.16-.39s.02.06.03.09l-.06-.43c0,.05,0,.1,0,.15l.06-.43s-.02.09-.04.13l.16-.39s-.03.05-.05.08l.25-.33s-.06.06-.09.09l.33-.25c-.05.04-.1.06-.16.09l.39-.16c-.08.03-.16.05-.24.06l.43-.06c-.12.01-.24.01-.37,0l.43.06c-.27-.04-.53-.14-.77-.24l.39.16c-.38-.17-.74-.38-1.08-.63l.33.25c-.24-.19-.46-.39-.66-.61-.57-.63-1.72-.63-2.3,0-.62.67-.61,1.63,0,2.3h0Z"/><path class="cls-3" d="m442.71,231.05c-.77.46-1.5,1.01-2.19,1.59-.3.25-.61.52-.86.82-.27.32-.51.67-.61,1.08-.13.54-.05,1.08.23,1.56.39.69,1.19,1.02,1.96,1.03.5,0,.96-.14,1.41-.33.86-.36,1.55-.98,2.07-1.76.26-.38.45-.83.57-1.27.08-.29.11-.59.14-.89.02-.18.02-.36,0-.53-.04-.44-.15-.83-.48-1.15-.28-.28-.74-.49-1.15-.48s-.86.16-1.15.48c-.28.3-.52.73-.48,1.15.02.21.01.41-.01.62l.06-.43c-.04.25-.1.49-.2.73l.16-.39c-.11.25-.24.48-.4.69l.25-.33c-.17.21-.35.4-.56.57l.33-.25c-.19.14-.39.26-.61.36l.39-.16c-.19.08-.38.14-.59.17l.43-.06c-.11.01-.21.02-.32,0l.43.06c-.08-.01-.15-.03-.22-.06l.39.16s-.08-.04-.12-.07l.33.25s-.05-.05-.07-.08l.25.33s-.04-.06-.05-.09l.16.39s-.02-.06-.02-.09l.06.43c0-.05,0-.1,0-.15l-.06.43c.01-.05.03-.09.05-.14l-.16.39c.03-.06.07-.12.11-.18l-.25.33c.2-.25.45-.46.68-.67s.49-.42.75-.62l-.33.25c.43-.33.87-.63,1.33-.9.35-.21.64-.57.75-.97s.06-.91-.16-1.25-.56-.65-.97-.75-.87-.06-1.25.16h0Z"/><g class="cls-4"><path class="cls-3" d="m450.13,255.54c-.59.37-1.15.79-1.67,1.25-.21.19-.43.38-.62.59-.25.29-.43.56-.54.93-.14.47-.06,1,.19,1.41.06.1.17.24.25.33.02.02.04.04.06.06.11.1.25.22.4.29.33.16.62.24,1,.25.48,0,.9-.15,1.33-.34.32-.14.6-.36.86-.59s.47-.5.65-.78c.07-.11.14-.23.19-.35.1-.22.2-.44.26-.67.1-.37.15-.77.11-1.16,0-.21-.04-.4-.13-.58-.06-.19-.16-.35-.31-.48-.26-.26-.69-.46-1.06-.44s-.79.14-1.06.44c-.25.27-.48.67-.44,1.06.02.17.02.33,0,.5l.05-.4c-.03.19-.08.37-.15.54l.15-.36c-.08.19-.18.36-.3.52l.23-.3c-.12.16-.26.3-.42.42l.3-.23c-.14.11-.29.2-.46.27l.36-.15c-.14.06-.28.11-.43.13l.4-.05c-.08,0-.16,0-.24,0l.4.05s-.09-.02-.14-.04l.36.15s-.06-.03-.09-.05l.3.23s-.04-.03-.06-.06l.23.3s-.03-.04-.04-.07l.15.36s-.01-.04-.02-.06l.05.4s0-.07,0-.11l-.05.4s.02-.07.03-.11l-.15.36c.03-.06.06-.11.11-.17l-.23.3c.33-.39.75-.73,1.15-1.04l-.3.23c.28-.21.57-.41.87-.6.33-.2.59-.52.69-.9s.05-.84-.15-1.16-.51-.6-.9-.69-.81-.06-1.16.15h0Z"/></g><path class="cls-3" d="m434.12,274.2c.32.74.71,1.46,1.16,2.14.27.41.55.84.89,1.19.28.29.63.5,1.01.63.52.17,1.07.07,1.55-.16.57-.27.98-.91,1.09-1.52.1-.56.07-1.11-.09-1.66-.23-.81-.72-1.61-1.36-2.16-.83-.72-1.81-1.14-2.91-1.19-.85-.03-1.66.77-1.62,1.62.04.91.71,1.59,1.62,1.62.08,0,.16,0,.25.02l-.43-.06c.24.03.48.1.71.19l-.39-.16c.24.1.47.23.68.39l-.33-.25c.22.17.42.37.59.59l-.25-.33c.15.2.27.41.37.63l-.16-.39c.09.23.16.46.19.71l-.06-.43c.02.14.02.28,0,.42l.06-.43c-.01.09-.04.17-.07.26l.16-.39c-.02.05-.05.1-.08.14l.25-.33s-.05.06-.08.08l.33-.25s-.07.04-.1.06l.39-.16s-.05.02-.08.02l.43-.06s-.07,0-.1,0l.43.06c-.05,0-.09-.02-.14-.04l.39.16s-.09-.05-.13-.08l.33.25c-.1-.08-.18-.17-.26-.27l.25.33c-.68-.88-1.23-1.85-1.67-2.86-.15-.35-.62-.65-.97-.75-.39-.11-.91-.06-1.25.16s-.65.56-.75.97l-.06.43c0,.29.07.57.22.82h0Z"/><path class="cls-3" d="m133.04,168.19c3.54,0,3.54-5.5,0-5.5s-3.54,5.5,0,5.5h0Z"/><g class="cls-4"><path class="cls-3" d="m169.9,203.31c3.22,0,3.22-5,0-5s-3.22,5,0,5h0Z"/></g><g class="cls-4"><path class="cls-3" d="m287.2,185.05c3.22,0,3.22-5,0-5s-3.22,5,0,5h0Z"/></g><path class="cls-3" d="m205.96,244.05c3.54,0,3.54-5.5,0-5.5s-3.54,5.5,0,5.5h0Z"/><path class="cls-3" d="m254.42,220.12h-.12c-3.22,0-3.22,5,0,5h.12c3.22,0,3.22-5,0-5h-.12c-3.22,0-3.22,5,0,5h.12c3.22,0,3.22-5,0-5h0Z"/><path class="cls-3" d="m396.18,126.07c.19-.13.39.06.59.44.07.12.11.5.06.56-.1.12-.19.25-.3.35-.06.05-1.13.47-1.49.65-.35.17-.71.26-1.07.35l-2.19.54c-.16.04-.33.05-.5.04-.58-.05-1.14.06-1.69.23-.09.03-.19.03-.27.15-.13.19-1.64.54-1.85.5-.52-.09-1.02-.11-1.53-.18-.07,0-.14.05-.22-.07-.19-.27-.33-.19-.49-.19-.21,0-.43,0-.66-.07-.11-.03-.24-.19-.36-.32-.11-.12-.13-.6-.1-.66.07-.16-.04-.38-.07-.57-.01-.07-.03-.15-.03-.21,0-.13,1.1-1.05,1.24-1.05.02,0,.46-.1.93-.2.47-.1.96-.21,1.05-.24.1-.04.22.02.33.05.05.01,1.45-.31,1.51-.31.3,0,.59-.1.91.1.06.04.12.02.18.01.51-.07,1.03-.03,1.54-.01.26,0,.52-.04.78-.06.05,0,.1.02.15.03.06.01.12.03.18.03.61-.07,1.24-.02,1.85-.15.14-.03.85.12,1.01.07.09-.02.43.23.5.17Z"/><path class="cls-3" d="m403.06,120.09c.16.2-.04.44-.42.69-.12.08-.53.16-.6.11-.14-.09-.29-.18-.41-.28-.06-.07-.66-1.11-.94-1.43-.24-.32-.43-.65-.61-.98-.33-.69-.66-1.37-1.04-2.02-.08-.15-.13-.31-.17-.48-.12-.59-.41-1.09-.78-1.54-.06-.07-.1-.17-.24-.19-.21-.05-1.16-1.27-1.22-1.47-.15-.51-.38-.97-.6-1.45-.03-.07-.12-.1-.06-.23.12-.31-.02-.39-.11-.53-.12-.19-.25-.37-.33-.6-.04-.11.01-.31.04-.49.02-.16.4-.46.46-.47.18-.03.28-.25.41-.39.04-.05.1-.11.15-.15.09-.1,1.61.41,1.7.55.01.01.38.39.78.79.37.41.76.83.85.93.09.09.11.23.14.36.04.04,1.09,1.35,1.1,1.43.15.32.39.58.34,1-.01.08.03.14.07.2.3.51.46,1.09.64,1.66.09.29.22.56.33.84.02.05,0,.11.01.17,0,.07,0,.15.03.21.28.65.34,1.38.57,2.04.06.15-.01.98.05,1.15.04.1-.2.51-.14.58Z"/></svg>