<?xml version="1.0" encoding="UTF-8"?><svg id="Layer_1" xmlns="http://www.w3.org/2000/svg" width="520" height="520" viewBox="0 0 520 520"><defs><style>.cls-1{opacity:.35;}.cls-1,.cls-2,.cls-3,.cls-4{fill:#231f20;stroke-width:0px;}.cls-2{opacity:.45;}.cls-3{opacity:.3;}</style></defs><ellipse class="cls-2" cx="304.62" cy="65.4" rx="3.81" ry="3.09"/><path class="cls-4" d="M43.17,438.16l-3.47.04c-.42,0-.84.09-1.26.09-1.49-.02-2.99-.09-4.48-.08-.66,0-1.32.09-1.97.09-.84,0-1.68.14-2.54-.15-.27-.12-.25-.24-.05-.54.19-.35.56-.81,1.03-.96l1.26-.39c.42-.12.84-.26,1.27-.25.86-.05,1.72-.06,2.59,0,1.04.08,2.1-.17,3.16-.21l3.49-.11,2.15-.08c1.08-.06,2.17-.08,3.24-.21.83-.1,1.63-.38,2.45-.49.18-.01.36-.04.54-.03.68.01.92.22,1.11.69.04.11.1.21.12.31.09.32-.15.71-.62.99-1.39.99-2.96,1-4.51,1.18-1.16.1-2.33.13-3.49.2v-.06Z"/><path class="cls-4" d="M399.45,451.51c1.55.09,3.11.17,4.67.21.57.01,1.14-.06,1.71-.05,2.01.03,4.04.2,6.06.23.9,0,1.8,0,2.69-.05,1.14-.04,2.29-.23,3.46.29.36.14.32.19.03.45-.29.22-.81.96-1.45,1.14-1.15.22-2.3.42-3.46.57-1.16.12-2.33.12-3.51.07-1.41-.06-2.87.16-4.31.19-1.59.03-3.18.03-4.77,0l-2.94-.05c-1.49-.03-2.97-.15-4.45-.15-.57,0-1.14.04-1.71.09-.57.04-1.14.04-1.71.04-.25,0-.5.02-.75-.04-.93-.16-1.2-.51-1.35-1.05-.03-.13-.08-.25-.1-.37-.05-.39.36-.74,1.05-1.03.51-.16,1.02-.31,1.53-.4.51-.08,1.03-.22,1.54-.22,1.03-.07,2.07-.06,3.11-.06l2.33.03c.78.04,1.56.06,2.34.08v.08Z"/><path class="cls-4" d="M442.52,464.03c-.38-.02-.76-.04-1.13-.07-.14,0-.27.02-.41.02-.49-.04-.98-.11-1.46-.14-.22-.01-.43,0-.64.02-.27.04-.54.07-.82-.03-.09-.03-.09-.16-.03-.32.06-.16.18-.37.33-.44.55-.13,1.1-.2,1.67-.15.34.03.68-.07,1.03-.08.37,0,.76-.01,1.13-.02.23,0,.47,0,.7-.01.35-.01.71,0,1.05-.06.27-.04.53-.16.79-.25.06-.02.11-.05.17-.05.22-.01.3.08.37.41l.05.22c.04.25-.03.47-.18.59-.45.34-.96.34-1.47.38-.38.02-.76,0-1.14,0v-.03Z"/><path class="cls-4" d="M448.47,464.04c-.57.01-1.14.02-1.71.04-.21,0-.41.05-.62.05-.73.02-1.46.03-2.19.07-.32,0-.65.04-.97.07-.41.04-.82.09-1.24.08-.26,0,.01-.41.47-.57.82-.23,1.63-.46,2.48-.46.51-.01,1.02-.15,1.54-.22.56-.07,1.13-.13,1.7-.2.35-.04.7-.08,1.04-.12.53-.07,1.06-.11,1.58-.21.4-.07.79-.2,1.19-.27.09,0,.17-.03.26-.03.34,0,.45.07.56.32.02.06.05.11.07.16.06.18-.05.36-.28.51-.18.11-.35.21-.51.31-.18.08-.36.15-.54.21-.36.15-.74.18-1.12.21-.57.05-1.14.06-1.71.09v-.03Z"/><path class="cls-4" d="M460.56,462.64c-.82,0-1.64-.03-2.45-.01-.3,0-.59.05-.89.05-1.05.02-2.12.04-3.17.06-.47.02-.94.07-1.4.12-.59.08-1.2.09-1.8.1-.19,0-.17-.03-.02-.11.15-.08.41-.25.74-.39.58-.24,1.18-.39,1.78-.51.6-.13,1.21-.23,1.83-.28.74-.03,1.5-.17,2.26-.24.83-.07,1.66-.12,2.49-.15.51-.01,1.03-.03,1.54-.04.78-.02,1.55-.02,2.32-.06.6-.04,1.18-.16,1.77-.23.13-.02.26-.05.39-.06.49,0,.64.16.75.5.02.08.05.16.07.24.05.26-.15.5-.5.65-1.04.31-2.14.32-3.24.36-.82.01-1.64.03-2.46.04v-.03Z"/><path class="cls-4" d="M460.78,461.39c-.41-.06-.83-.11-1.25-.14-.15-.01-.3,0-.45,0-.54-.04-1.07-.1-1.61-.12-.24,0-.48,0-.71.03-.3.03-.6.07-.91.03-.19-.02,0-.51.34-.61.61-.14,1.23-.24,1.87-.22.38.01.77-.06,1.15-.08.42-.02.85-.02,1.27-.02.26,0,.53,0,.78.01.4,0,.79.04,1.18.02.3-.01.6-.11.91-.15.07,0,.13-.03.2-.03.25,0,.33.08.37.4l.03.22c.02.25-.09.45-.27.53-.54.26-1.09.24-1.65.23-.41-.01-.83-.04-1.25-.07v-.03Z"/><path class="cls-4" d="M461.47,463.8c-.86-.03-1.71-.04-2.56-.1-.31-.02-.62,0-.93-.02-1.09-.08-2.2-.17-3.29-.25-.49-.04-.97-.05-1.45-.06-.62-.03-1.24.04-1.85-.19-.19-.06-.16-.12,0-.24.16-.09.47-.4.82-.4,1.26-.09,2.51-.2,3.78-.09.76.06,1.55-.02,2.32-.04.85-.02,1.7-.02,2.56-.01.53,0,1.05,0,1.58-.01.79-.02,1.59-.02,2.38-.1.61-.06,1.2-.21,1.8-.32.13-.03.26-.05.39-.06.5-.05.67.08.8.43.03.08.07.15.09.23.07.24-.11.53-.47.67-1.06.43-2.22.48-3.37.55-.86.04-1.72.04-2.59.05v-.04Z"/><path class="cls-4" d="M486.75,459.59c.34.04.68.08,1.02.11.12.01.25,0,.37.01.43.06.86.11,1.29.2.19.03.38.05.57.06.24.02.49.03.72.11.15.04-.06.35-.34.42-.49.07-.98.18-1.47.1-.29-.05-.6,0-.9.02-.33,0-.66,0-.99.01-.2,0-.41.01-.61.02-.31.02-.62.02-.92.08-.23.05-.45.17-.68.27-.05.02-.1.05-.15.07-.18.07-.26-.04-.35-.38l-.06-.23c-.05-.24-.01-.51.12-.61.4-.27.86-.32,1.32-.33.34,0,.69.02,1.03.03v.03Z"/><path class="cls-4" d="M486.55,457.6c.34.08.68.16,1.01.24.12.03.25.02.37.05.43.11.85.25,1.27.39.19.06.38.09.56.11.24.03.49.04.71.18.14.08-.15.69-.43.74-.49.03-.98.04-1.45-.1-.28-.1-.59-.07-.89-.09-.32-.04-.65-.07-.98-.11-.2-.02-.4-.04-.61-.06-.31-.02-.61-.05-.92-.01-.24.03-.46.15-.69.25-.05.02-.1.06-.15.07-.19.05-.25-.05-.32-.5l-.05-.3c-.04-.32.02-.64.17-.73.42-.3.89-.32,1.35-.29.35.02.69.08,1.03.13v.04Z"/><path class="cls-4" d="M377.18,230.94c.83-1.27,1.67-2.54,2.5-3.81.36-.55.13-1.41-.45-1.71-.63-.33-1.33-.14-1.71.45-.83,1.27-1.67,2.54-2.5,3.81-.36.55-.13,1.41.45,1.71.63.33,1.33.14,1.71-.45h0Z"/><path class="cls-1" d="M398.28,280.74c-7.43,1.87-17.16,9.53-19.38,16.55-3.34,10.59,2.52,16.1,11.91,16.1,0,0-19.8-1-19.76-10.07.04-9.09,4.1-13.39,8.83-16.29,4.72-2.91,18.4-6.28,18.4-6.28Z"/><path class="cls-4" d="M376.86,299.98c.43-.13.83-.3,1.2-.47l.25-.13.36-.22c.24-.15.49-.28.73-.41.36-.18.69-.42,1.08-.56,1.33-.51,2.84-.78,4.32-.41.64.17,1.3.41,1.82.86.66.56,1.07,1.34,1.14,2.12.09.48-.83.09-1.43-.3-.22-.22-.49-.34-.71-.46-.21-.14-.42-.23-.64-.3-.45-.14-.99-.18-1.62-.16-.75.02-1.52.41-2.23.8-.4.21-.8.44-1.17.7l-.68.45c-.24.14-.49.28-.73.4-.6.3-1.21.54-1.83.75-.95.32-1.93.54-3.01.63-.21.02-.42.04-.65.03-.23,0-.46,0-.73-.06l-.4-.07c-.13-.03-.25-.11-.38-.17l-.39-.19-.31-.3-.28-.27c-.07-.11-.13-.22-.19-.34-.1-.22-.22-.41-.21-.57.01-.16.05-.29.11-.39.12-.21.33-.34.68-.44.16-.04.32-.09.48-.11.54-.05,1.03.12,1.24.27.31.15.46.02.54-.03.15-.04.63,0,1.13-.07.77-.11,1.65-.32,2.48-.64l.03.06Z"/><path class="cls-4" d="M377.4,289.98c.51-.08,1.07-.17,1.64-.23.21-.02.4-.11.63-.11.83-.03,1.6.23,2.3.54.31.15.63.27.91.47.36.26.69.63.73,1.1.01.15-.2.22-.46.27-.26.05-.61.14-.76.13-.57.02-.85-.12-1.41-.34-.33-.13-.67.02-1.01.09-.4.07-.84.18-1.3.32-.28.09-.57.17-.87.28-.45.17-.91.26-1.42.46,0,0,0,0,0,0-.49.16-.97.4-1.64.32-.16-.03-.36-.05-.54-.18-.35-.23-.51-.59-.47-.82.04-.25.25-.4.59-.52.16-.05.31-.1.47-.12.81-.1.31-.02.43-.04.04-.03.15-.16.23-.35l.22-.6v-.03s-.03-.03-.02-.05l.03-.07c.03-.09.03-.13.03-.16l.31-.1c.38-.12.85-.18,1.34-.32l.03.06Z"/><path class="cls-1" d="M357.98,365.62c5.22-12.67,21.45-36.33,28.5-43.74,5.91-6.2,8.83-7.09,13.94-9.04,0,0-12.85-1.46-18.99,6.33-6.14,7.79-18.54,31.07-20.18,34.93-1.64,3.87-3.26,11.51-3.26,11.51Z"/><path class="cls-4" d="M382.04,346.44c.22.26.18.62.03.95-.05.1-.3.21-.39.16-.18-.1-.35-.2-.47-.28-.02-.01-.1-.1-.22-.2-.13-.08-.3-.18-.48-.28-.19-.07-.4-.09-.56-.12-.19.01-.34.04-.43.05-.19.04-.37.07-.53.08-.2.05-.37.06-.57.1-.41.08-.84.25-1.3.39-.46.14-.95.31-1.45.5-.22.09-.46.14-.7.17-.85.11-1.66.41-2.5.77-.13.06-.29.09-.4.24-.09.13-.73.39-1.45.6-.9.26-1.93.2-2.13.12-1.07-.29-2.01-.79-2.74-1.49-.1-.1-.26-.14-.28-.33-.05-.42-.29-.57-.49-.79-.26-.31-.49-.66-.57-1.07-.07-.19.04-.47.09-.69.05-.2.41-.27.47-.25.18.07.29-.12.42-.19.05-.03.11-.06.15-.08.06-.02.52.18.92.29.39.14.78.18.83.21,0,0,.11.06.27.13.16.07.38.13.61.17.45.1.88.08.96.04.09-.02.17.04.27.08-.17.12,1.73-.62,1.8-.65.42-.09.79-.32,1.3-.22.1.02.18-.02.26-.05.72-.28,1.5-.44,2.31-.6.41-.09.82-.23,1.25-.32.08-.02.16,0,.24,0,.1,0,.22.03.32.01,1.05-.13,2.23-.07,3.44.34.13.07.5.33.79.63.27.34.55.63.62.76.11.15.23.73.32.82Z"/><path class="cls-4" d="M440.36,361.46c-.24.27-.56.4-.94.49-.12.03-.28-.1-.24-.22.09-.27.17-.52.24-.72,0-.04.09-.2.25-.42.16-.22.35-.53.64-.8.52-.62,1.35-1.11,1.79-1.28.84-.35,1.76-.5,2.6-.48.87-.02,1.68.12,2.45.27.78.15,1.51.32,2.23.5.31.07.62.18.9.31.97.45,1.98.66,2.97.68.16,0,.33.05.49-.06.13-.09.84-.09,1.46-.15.62-.06,1.13-.22,1.26-.23.66,0,1.3-.27,2.12-.65.11-.06.19-.17.37-.15.43.06.6-.18.85-.35.37-.21.76-.43,1.16-.62.21-.09.46-.12.71-.16.22-.04.33.25.32.32-.07.21.15.22.25.3.03.03.08.07.1.1.03.05-.24.62-.46,1.28-.19.69-.55,1.33-.64,1.44-.04,0-.59.81-1.55,1.54-.24.17-.5.34-.75.5-.27.14-.52.27-.75.39-.47.19-.84.35-.97.38-.26.09-.55.07-.82.07-.06,0-.97.19-1.85.22-.87.04-1.71-.01-1.77-.04-.65-.14-1.3-.18-1.85-.61-.11-.08-.24-.09-.36-.13-1.07-.25-2-.71-2.91-1.08-.46-.19-.94-.32-1.39-.45-.08-.03-.16-.09-.23-.13-.1-.05-.19-.11-.3-.13-1.06-.24-2.08-.64-3.02-.46-.1.03-.42,0-.75.03-.34,0-.68.11-.8.18-.15.03-.72.17-.82.29Z"/><path class="cls-4" d="M444.19,397.98c-.39.35-.88.46-1.29.61-.13.04-.22-.07-.13-.21.18-.3.36-.59.5-.83.03-.11.58-.71,1.28-1.34.69-.64,1.54-1.28,1.99-1.59.87-.61,1.84-1.1,2.85-1.45.51-.18,1.04-.35,1.57-.47.24-.06.69-.12.99-.13.32-.01.64-.02.93,0,1.18.06,2.22.25,3.24.46.45.09.89.23,1.3.42,1.42.61,2.86,1.08,4.31,1.43.24.06.48.15.74.11.21-.03,1.29.22,2.35.46,1.06.24,2.1.44,2.33.51,1.14.39,2.29.66,3.29.66.16.01.26-.08.42.03.37.23.63.06.86-.06.34-.17.6-.39.92-.68.17-.13.4-.28.62-.46.2-.17.57.05.59.15.05.29.31.15.49.17.06,0,.14.02.18.05.02.02.02.27,0,.67-.07.39-.2.96-.54,1.48-.16.26-.38.49-.58.73-.22.2-.44.39-.65.55-.41.26-.76.46-.87.48-.02,0-.44.17-1.01.27-.59.13-1.33.19-2.06.2-1.47.03-2.86-.24-3.15-.27-.3-.04-.58-.17-.86-.29-.17,0-3.98-.91-4.1-.99-.75-.28-1.53-.43-2.19-.93-.13-.1-.28-.13-.43-.18-1.29-.39-2.51-.89-3.71-1.34-.62-.22-1.24-.35-1.81-.44-.1-.01-.21-.08-.3-.09-.12-.03-.24-.07-.36-.08-.15.02-.23,0-.43.02l-.56.06c-.38.04-.75.09-1.12.15-.74.13-1.48.34-2.18.65-.33.1-1.95.7-2.28.97-.2.12-.96.39-1.11.55Z"/><path class="cls-4" d="M471.65,426.58c-.1.15-.4.18-.58.3-.06.03-.16,0-.17-.08-.02-.15-.07-.32-.1-.51-.03-.06.02-.5.24-.97.26-.42.66-.81.88-.99.41-.37.9-.61,1.41-.77.52-.16,1.06-.26,1.63-.29.55-.05,1.05.07,1.54.17.21.05.42.13.6.24.63.37,1.24.63,1.85.81.1.03.19.08.32.03.1-.04.55.09.94.2.39.11.77.21.84.26.39.26.8.42,1.21.54.06.02.12-.02.18.08.15.26.28.19.4.18.18,0,.35-.03.56,0,.11.03.24.1.41.2.15.08.27.39.25.45-.04.16.12.28.2.4.03.04.06.1.08.14.03.06-.22.48-.63.79-.4.31-.89.54-.98.54-.01,0-.19.03-.44.05-.25.03-.58.03-.92.03-.66-.02-1.31-.14-1.45-.15-.14-.01-.26-.11-.38-.19-.02-.02-.51-.12-.94-.25-.44-.12-.84-.25-.87-.26-.3-.16-.63-.2-.83-.53-.04-.06-.1-.08-.16-.1-.5-.17-.93-.41-1.37-.57-.22-.08-.46-.09-.66-.15-.04,0-.07-.05-.11-.07-.05-.03-.09-.06-.14-.07-.49-.06-1.08-.11-1.53.13-.11.02-.71.14-.79.26-.07.02-.48.04-.5.13Z"/><path class="cls-4" d="M348.84,363.01c.15.08.11.29-.01.53-.04.08-.23.22-.28.22-.12,0-.23-.02-.31-.02-.05-.03-.74-.28-1-.25-.24,0-.46-.03-.66-.05-.42-.02-.8-.07-1.18-.02-.08.01-.16,0-.24-.04-.27-.13-.56-.06-.81.04-.04.02-.09.02-.11.12,0,.04-.06.08-.12.13-.06.05-.13.08-.29.15-.27.12-.63.23-.72.23-.46-.04-.93-.01-1.52-.14-.09-.02-.18.02-.25-.1-.17-.28-.34-.26-.55-.34-.26-.12-.56-.32-.65-.63-.06-.15,0-.35.05-.5.04-.14.37-.25.42-.26.13,0,.24-.14.37-.22.04-.03.1-.06.13-.08.02-.01.09-.03.18-.07.13-.1.06-.04.09-.08.02-.04.07-.15.1-.3.02-.14.04-.23.04-.24-.01,0,.03-.03.24-.12.19-.09.45-.23.5-.27.05-.04.14,0,.21.01.03,0,.2-.11.51-.26.33-.16.68-.26.7-.27.28-.02.57-.16.86.08.06.04.11.03.17.03.47,0,.93.15,1.35.32.22.08.44.14.65.22.04.02.07.06.1.09.04.03.08.08.13.1.49.22.87.61,1.29.9.1.07.39.6.48.69.05.06.06.38.12.4Z"/><path class="cls-3" d="M370.02,217.28c-1.11.45-5.9,6.64-5.52,10.28s2.56,6.47,4.86,3.47,4.6-11.34,4.6-11.34l-3.95-2.42Z"/><path class="cls-4" d="M206.84,138.79c-3.58.28-7.16.52-10.74.62-1.31.03-2.61.17-3.92.15-4.62.06-9.24-.17-13.84-.58-1.02-.11-2.04-.17-3.06-.29-1.02-.11-2.03-.3-3.04-.45-2.57-.45-5.15-1.05-7.55-2.12-.75-.32-.67-.21.02-.14.35.03.85.04,1.45.02.6,0,1.29.06,2.03.12,1.32.07,2.63.17,3.92.3,1.31.07,2.61.12,3.9.32,1.3.13,2.61.25,3.91.38,1.31.1,2.63.2,3.95.3,1.58.11,3.2.1,4.82.1,1.63-.06,3.26-.11,4.89-.17,3.57-.16,7.14-.35,10.71-.65,2.2-.17,4.39-.38,6.58-.62,3.32-.37,6.66-.75,9.93-1.27,2.55-.39,5.02-.99,7.53-1.43.55-.1,1.09-.2,1.65-.31,1.04-.18,1.73-.23,2.23-.16.5.05.81.18,1.07.39.12.1.27.18.35.28.26.32-.53.8-2.01,1.3-4.42,1.28-9.19,2.07-13.99,2.72-3.57.5-7.17.87-10.77,1.23v-.06Z"/><path class="cls-4" d="M49.14,415.59c.72-2.76,1.38-5.54,2-8.34.21-1.02.37-2.06.62-3.07.86-3.59,1.65-7.19,2.42-10.81.35-1.6.64-3.22.94-4.82.38-2.05.96-4.08,1.43-6.12.15-.63.16-.54.16.01-.02.55.02,1.59.02,2.81-.03,1.07-.03,2.15-.09,3.22l-.35,3.19c-.13,1.06-.27,2.12-.42,3.18-.18,1.06-.38,2.11-.61,3.16-.54,2.52-.83,5.19-1.29,7.79-.53,2.85-1.15,5.69-1.78,8.52-.4,1.74-.81,3.48-1.24,5.22-.64,2.63-1.37,5.25-2.07,7.85-.54,2.02-.94,4.05-1.51,6.07-.12.44-.21.89-.36,1.33-.32.8-.57,1.32-.87,1.62-.34.29-.66.41-1.04.45-.17.02-.35.06-.49.05-.25-.02-.4-.22-.51-.6-.1-.37-.21-.93-.05-1.52.75-3.57,1.89-7.17,2.89-10.88.74-2.75,1.51-5.52,2.16-8.33h.07Z"/><path class="cls-4" d="M51.29,413.55c-.29.25-2.27,13.85-.6,17.95,1.09,2.68,5.72,3.33,8.73,3.85,8.64,1.51-14.76,3.47-14.11,0,1.23-6.58,5.98-21.8,5.98-21.8Z"/><path class="cls-4" d="M322.28,263.42s6.3-13.39,6.26-10.24c-.04,3.15,7.69-35.94,7.69-35.94l-7.41,19.83-6.53,26.35Z"/><path class="cls-4" d="M86.78,392.98c-.36-2.28-.38-4.59-.14-6.85.08-.83.18-1.65.34-2.46.64-2.85,1.71-5.58,3.19-8.06.65-1.11,1.46-2.12,2.27-3.09,1.06-1.23,2.32-2.33,3.8-3.02.45-.23.42-.14.16.21-.17.24-.36.49-.53.72-.22.29-.4.71-.72,1-1.04,1.17-1.89,2.46-2.62,3.81-.2.33-.34.69-.55,1.01-.21.32-.39.66-.57,1-.38.67-.72,1.37-1.05,2.08-.79,1.71-1.15,3.66-1.42,5.56-.3,2.09-.42,4.22-.2,6.33.11,1.3.36,2.59.73,3.84.56,1.89,1.39,3.73,2.6,5.26.94,1.19,2.13,2.1,3.37,2.87.27.18.54.33.82.49.51.33.84.54,1.06.74.21.21.3.42.34.69.02.12.05.25.05.37-.01.37-.61.44-1.6.18-1.44-.44-2.83-1.23-4.04-2.27-1.21-1.05-2.2-2.35-3-3.74-1.21-2.07-1.91-4.36-2.32-6.66h.05Z"/><path class="cls-1" d="M124.38,397.69c-6.1,9.24-16.47,11.86-23.21,9.12-4.72-1.92-7.46-6.82-8.37-11.75-2.49-13.44,12.82-28.79,27.45-22.66,8.41,3.53,9.53,17.12,4.14,25.28Z"/><path class="cls-1" d="M145.77,303.88c-5.56,9.58-15.76,12.8-22.65,10.45-4.82-1.64-7.84-6.37-9.04-11.24-3.27-13.27,11.12-29.49,26.09-24.21,8.6,3.03,10.51,16.54,5.6,25Z"/><path class="cls-4" d="M112.91,303.43c-.57-1.97-.89-4-.96-6.05-.02-.75-.08-1.5,0-2.24.28-2.61.95-5.1,1.84-7.48.42-1.05.85-2.1,1.32-3.11.54-1.33,1.43-2.53,2.45-3.55.32-.32.39-.18.35.24-.05.42-.12,1.17-.32,1.94-.1.34-.15.69-.28,1.01-.13.32-.25.63-.36.96-.23.64-.45,1.29-.65,1.95-.37,1.32-.86,2.6-1.28,3.92-.51,1.59-.6,3.33-.65,4.99-.08,1.83.1,3.69.5,5.51.24,1.13.59,2.23,1.01,3.3.65,1.62,1.47,3.2,2.56,4.55.84,1.05,1.88,1.88,2.95,2.58.23.16.48.29.72.43.83.64,1.09.86,1.12,1.41,0,.12.04.25.03.35-.02.35-.57.45-1.49.25-2.65-.81-4.81-2.95-6.32-5.29-1.14-1.76-1.98-3.68-2.6-5.65l.06-.02Z"/><path class="cls-1" d="M167.34,209.09c-5.8,10-17.47,14.42-24.64,11.98-5.02-1.71-8.16-6.64-9.4-11.72-3.39-13.85,12.66-30.79,28.23-25.3,8.95,3.15,10.92,16.2,5.8,25.04Z"/><path class="cls-4" d="M131.67,205.71c-.06-1.07-.2-2.14-.12-3.2l.07-1.6.22-1.58.14-1.15c.08-.38.15-.76.25-1.13.63-2.64,1.57-5.23,3.03-7.51.57-1.05,1.33-1.99,1.99-2.97.5-.57.99-1.16,1.53-1.69.56-.51,1.19-.95,1.77-1.43.37-.28.32-.24.07.07-.26.31-.66.94-1.18,1.61-.4.65-.82,1.26-1.26,1.86-.4.62-.75,1.29-1.13,1.92-.7,1.31-1.28,2.66-1.93,4.01-.77,1.62-1.14,3.47-1.49,5.26-.16.99-.27,2-.36,3l-.05,1.51-.03.76.04.75c.04.62.06,1.24.12,1.86l.31,1.84c.16.93.5,1.82.74,2.73.36.87.72,1.75,1.16,2.57.39.62.79,1.21,1.19,1.8l1.43,1.59c.19.25.44.43.68.64.86.79,1.06,1.13,1.02,1.58,0,.1,0,.22-.03.31-.08.29-.6.14-1.35-.4-1.18-.74-2.09-1.85-3.03-2.94-.4-.6-.8-1.21-1.2-1.82-.38-.62-.65-1.31-.97-1.97-.11-.25-.23-.49-.34-.75l-.25-.78-.49-1.56c-.14-.53-.22-1.06-.33-1.6-.09-.53-.24-1.06-.26-1.6h.04Z"/><path class="cls-1" d="M184.89,436.94s-13.72,1.7-15.28-.63-4.22-19.58-4.9-23.21-1.71-8.04-3.05-7.75-4.99,2.86-6,8.42-1.87,13.64-1.66,18.5,1.66,14.46,1.66,14.46l30.11,1.32-.88-11.09Z"/><path class="cls-4" d="M183.4,444.63c.03-.8.09-1.6.17-2.4.02-.29.02-.58.06-.87.14-1.01.33-2.02.59-3,.1-.44.2-.88.28-1.31.09-.56.3-1.1.55-1.62.08-.16.16-.12.24.06.08.17.21.48.22.81.05.59-.07,1.13-.11,1.7-.06.56-.13,1.11-.24,1.67-.16.66-.12,1.38-.15,2.07-.03.76-.05,1.52-.03,2.28,0,.47.03.94.07,1.41.06.71.12,1.42.28,2.11.14.53.36,1.04.56,1.54.04.11.1.22.14.33.14.42.06.59-.39.81-.1.05-.2.11-.3.15-.35.15-.7.05-.9-.25-.59-.9-.9-1.96-.99-3.05-.09-.81-.1-1.62-.1-2.43h.04Z"/><path class="cls-4" d="M349.54,391.93s11.2,7.81,14.29,9.31c3.09,1.5,16.84,7.29,25.51,8.5s25.52,2.92,25.52,2.92c0,0,9.79,2.76,10.44,7.22.65,4.46-4.06,19.1-7.52,22.37-3.46,3.27-11.72,8.53-19.62,9.57-7.9,1.04-58.15,1.14-58.15,1.14l-65.79,1.14-65.57-.34s-16.61,1.5-22.51-4.52c-1.25-1.28-.3-5.26-.46-7.39-.98-13.27,6.59-41.48,11.14-47.99s13.02-5.69,13.02-5.69l42.73,2.83,50.2,5.37s20.25,1.63,25.78.82c5.53-.81,21-5.27,21-5.27Z"/><path class="cls-4" d="M456.89,445.46c.76-.12,1.54-.21,2.3-.3.28-.03.55-.11.84-.13.99-.08,1.99-.08,2.98-.03.44.02.88,0,1.31,0,.56.02,1.11.08,1.66.21.17.04.15.1,0,.21-.14.1-.41.3-.72.4l-.82.26c-.27.07-.55.09-.82.13-.55.07-1.09.13-1.64.14-.67-.02-1.34.15-2.01.25-.74.11-1.47.23-2.21.37-.45.09-.91.18-1.36.29-.68.16-1.37.32-2.03.55-.51.18-.99.46-1.48.71-.11.05-.21.12-.32.16-.42.15-.59.07-.82-.37-.05-.1-.11-.2-.16-.3-.15-.35-.07-.7.21-.91.82-.61,1.79-.91,2.79-1.19.74-.2,1.51-.35,2.27-.5v.04Z"/><path class="cls-4" d="M441.27,451.49c-.92-.09-4.14-3.44,11.07-4.94,3.97-.39-22.18.63-22.18.63,0,0,3.41,3.39,5.38,3.74s5.73.57,5.73.57Z"/><path class="cls-4" d="M427.88,441.27c-.13-.87-.25-1.72-.28-2.56-.02-.31-.08-.61-.1-.92-.06-1.09-.12-2.18-.23-3.26-.05-.48-.12-.96-.19-1.43-.07-.61-.14-1.22-.14-1.84,0-.19.07-.18.18-.03.11.15.31.41.43.75.46,1.19.65,2.42.81,3.66.08.75.29,1.51.43,2.26.14.83.28,1.66.42,2.49.09.5.2,1,.33,1.49.21.74.44,1.47.82,2.11.29.5.71.89,1.12,1.25.09.07.19.15.28.22.33.28.34.48.17.87-.04.09-.07.18-.11.27-.14.28-.47.37-.89.21-1.14-.58-1.93-1.74-2.37-2.9-.35-.87-.54-1.75-.72-2.62h.04Z"/><path class="cls-4" d="M421.13,408.25c0-1.11-.05-2.22-.1-3.32,0-.41-.08-.8-.09-1.21-.05-1.43-.14-2.86-.35-4.27-.08-.63-.25-1.24-.36-1.86-.18-.79-.37-1.57-.52-2.38-.04-.25.06-.25.25-.09.18.16.49.48.71.91.34.77.72,1.55.94,2.36.23.81.41,1.64.52,2.48.13,1.01.41,2.03.59,3.05.2,1.12.27,2.26.36,3.39l.14,2.09c.07,1.05.12,2.11.21,3.15.08.81.28,1.59.41,2.38.03.17.08.34.1.52.07.66-.06.87-.6,1.05-.12.04-.25.09-.37.12-.42.09-.79-.15-.96-.63-.48-1.4-.68-2.89-.8-4.39-.04-1.11-.09-2.23-.13-3.35h.05Z"/><path class="cls-4" d="M436.62,315.81c-1.12-1.22-2.33-2.38-3.6-3.48-.46-.41-.96-.76-1.45-1.13-1.67-1.38-3.48-2.61-5.41-3.64-.84-.5-1.74-.86-2.63-1.24-.28-.12-.58-.21-.87-.31-.29-.11-.57-.24-.86-.37-.57-.25-1.16-.47-1.75-.72-.36-.16-.31-.17.03-.2.34-.01,1-.14,1.77-.13,1.36.02,2.62.45,3.89.85.62.23,1.25.46,1.84.77.59.3,1.16.65,1.73,1,1.34.86,2.8,1.63,4.14,2.55.71.54,1.44,1.05,2.11,1.64.66.6,1.35,1.17,1.96,1.82.79.76,1.54,1.57,2.24,2.41.55.62,1.02,1.31,1.54,1.96.48.68.96,1.35,1.43,2.02.35.54.72,1.05,1.09,1.57.36.52.69,1.07,1.02,1.61.15.24.31.47.41.74.41.98.4,1.34.05,1.72-.08.09-.15.19-.24.25-.29.22-.75-.04-1.19-.63-1.29-1.75-2.51-3.59-3.97-5.29-.5-.66-1.1-1.25-1.63-1.88-.28-.31-.58-.6-.87-.9-.28-.31-.54-.63-.85-.92l.04-.05Z"/><path class="cls-4" d="M384.08,315.43c.8-.37,1.61-.71,2.42-1.02.29-.12.56-.29.87-.39,1.07-.36,2.2-.53,3.3-.74.49-.09.97-.2,1.45-.31.63-.06,1.28-.21,1.92.09.2.09.16.24.01.49-.08.13-.18.29-.3.46-.12.16-.25.26-.41.33-.54.23-1.06.46-1.62.58-.55.16-1.11.3-1.7.42-.71.14-1.34.57-2.02.84-.74.32-1.49.65-2.22,1.02-.45.23-.9.46-1.32.72-.65.39-1.31.79-1.88,1.29-.44.39-.75.9-1.1,1.35-.08.1-.14.21-.22.31-.3.35-.52.33-1.07-.05-.13-.09-.26-.16-.38-.26-.41-.31-.57-.74-.41-1.13.24-.58.57-1.1.97-1.54.41-.44.89-.8,1.38-1.16.73-.51,1.51-.94,2.3-1.36l.03.05Z"/><path class="cls-4" d="M373.16,293.2l.74-1.18c.26-.38.55-.74.83-1.11.53-.75,1.17-1.41,1.78-2.09.43-.51.91-.97,1.4-1.42,1.81-1.49,3.78-2.77,5.91-3.67.45-.24.93-.41,1.42-.58.49-.16.95-.37,1.44-.5l1.89-.46c.65-.04,1.31-.01,1.95-.02.4.01.35.03.03.18-.32.14-.88.52-1.53.83l-1.74.7c-.58.21-1.11.56-1.66.81-.56.24-1.1.55-1.65.83-.56.26-1.09.58-1.62.9-.32.19-.65.38-.95.61l-.87.74c-.6.48-1.09,1.08-1.65,1.61-.63.56-1.12,1.25-1.7,1.86-.51.67-1.02,1.34-1.48,2.05l-.79,1.34c-.26.45-.45.94-.67,1.41-.66,1.43-1.11,2.96-1.35,4.5-.05.6-.04,1.21-.03,1.8.02.59.16,1.18.22,1.76.03.26.08.5.15.75.19.94.09,1.26-.43,1.62-.12.08-.23.18-.35.24-.41.21-.85-.12-1.14-.89-.87-2.26-.9-4.96-.29-7.43.22-.92.52-1.82.85-2.71.41-.85.75-1.74,1.26-2.53l.05.02Z"/><path class="cls-4" d="M453.1,297.15s4.21-3.24,7.39-1.26c3.18,1.98-.21,6.57-2.74,6.22s-5.1-1.74-4.64-4.96Z"/><path class="cls-4" d="M436.49,260.56s1.28,11.03,0,10.1,3.18,1.96,3.18,1.96c0,0-5.45,6.49-.56,11.39,3.3,3.31,7.66,3.68,9.55.19,1.89-3.49.32-10.7.32-10.7l-3.26-4.79s-.72-8.14,1.89-10.15c2.61-2.02,4.31-2.96,4.31-2.96l-7.83-2.43-7.6,7.38Z"/><path class="cls-4" d="M449.29,257.04s-4.2,5.83-3.52,9.18,4.06,8.93,8.17,9.21,4.24,5.31,4.24,5.31c0,0,5.14,7.03,7.98,6.94,2.84-.09,9.75-7.27,3.2-15.06,0,0,3.9-6.4,2.73-10.34-2.52-8.46-7.58-8.17-7.58-8.17,0,0-.11,3.59-4.03,4.02-3.91.43-11.19-1.1-11.19-1.1Z"/><path class="cls-4" d="M425.81,257.04s-8.82,3.69-8.82,10.77,10.25,7.78,13.57,4.86c3.32-2.92,4.64-7.19,4.64-7.19l-1.64-4.55-7.75-3.88Z"/><path class="cls-4" d="M395.3,189.2c-10.84-2.93-22.55,9.94-17.51,18.5,2.73,4.64,6.26,4.4,8.19,4.32,2.93-.13,8.23-1.46,8.23-1.46,0,0,1.81,7.97,5.85,8.73s7.16,1.52,7.16,1.52c0,0-4.67,5.04-3.8,8.8s6.34,7.47,6.34,7.47c0,0,6.8-2.13,9.13,0,2.33,2.13,4.16,7.47,4.16,7.47,0,0-.33,3.93,0,6.14.33,2.21,3.19,9.85,8.24,9.89s9.89-1.6,10.94-4.01c1.05-2.4,3.42-5.72,3.42-5.72,0,0,3.21,5.09,10.39,5.72,7.18.63,11.82.04,13.47-4.71,1.66-4.75,2.56-8.28,0-11.32-2.56-3.04-11.34-7.17-11.34-7.17l-5.95.75s3.08-5.48,1.7-9.51c-1.38-4.03-3.43-7.27-5.5-8.1s-7.36-1.33-7.36-1.33c0,0,1.47-5.82,0-7.9-1.47-2.08-7.9-5.85-9.73-5.84s-8.72,2.43-8.72,2.43c0,0,.27-7.92-1.75-10.37-2.01-2.45-6.95-6.7-10.58-6.88-3.63-.18-10.24,1.66-10.24,1.66l-4.76.92Z"/><path class="cls-4" d="M171.54,449.63c-2.55-.17-5.11-.33-7.68-.45-.94-.05-1.87-.03-2.81-.09-3.31-.25-6.62-.5-9.92-.75-1.47-.11-2.94-.21-4.4-.32-.94-.07-1.87-.14-2.81-.21-.47-.06-.93-.16-1.39-.25l-.69-.15c-.23-.06-.45-.18-.68-.26-.56-.25-.48-.24.03-.46.52-.29,1.46-.7,2.54-.79,1.9-.03,3.79-.01,5.69,0,1.9.02,3.8.2,5.71.36,2.29.23,4.68.1,7.03.14,2.59.05,5.18.17,7.77.28l4.79.24c2.42.15,4.85.29,7.25.44,1.87.1,3.72.04,5.58.12.41.01.81,0,1.23.05.38.04.7.08.96.15.26.07.46.19.62.3.33.23.49.5.6.87.05.17.13.34.15.49.07.51-.61.92-1.74,1.13-3.29.16-6.68-.13-10.12-.32-2.55-.16-5.12-.34-7.7-.45v-.07Z"/><path class="cls-4" d="M154.05,412.77c.67-2.34,1.4-4.73,3.23-6.97.49-.55,1.05-1.07,1.78-1.49.16-.12.37-.2.57-.28l.76-.28c.5-.08,1.01-.08,1.52-.12,1.02.03,1.86.77,2.39,1.61.12.22.27.44.37.67.09.19.15.34.22.5.13.32.23.64.33.95.53,1.8.87,3.49,1.11,5.2.77,5.99.93,11.94,1.93,17.68.19,1.03.43,2.06.76,3.01.16.47.35.92.57,1.3.11.19.23.35.34.49.12.13.2.19.31.26.22.09.56.23.96.29,1.43.27,3.11.16,4.74.11l2.48-.11c.83-.04,1.67-.1,2.53.01,1.1.26.95.32.15.99-.8.7-2.33,1.61-4.31,1.96-1.2.2-2.43.37-3.72.4-.65.02-1.32,0-2.03-.06-.38-.06-.72-.08-1.15-.2-.21-.06-.39-.09-.63-.18-.23-.1-.47-.21-.72-.34-.47-.28-.92-.71-1.2-1.07-.28-.36-.5-.71-.67-1.05-.35-.67-.58-1.3-.77-1.91-.38-1.22-.61-2.4-.8-3.56-.38-2.33-.57-4.62-.71-6.91-.26-4.16-.79-8.44-1.47-12.5-.19-1.1-.42-2.21-.74-3.18-.08-.24-.17-.47-.26-.68-.06-.13-.09-.2-.16-.3-.11-.2-.34-.31-.57-.25-.12,0-.21.03-.31.08-.18.03-.35.17-.52.26-.18.08-.34.27-.51.41-.18.13-.33.33-.48.52-.62.76-1.15,1.71-1.57,2.73-1.07,2.5-1.69,5.28-2.1,8.06-.63,4.23-.91,8.56-.82,12.83.07,3.32.47,6.57,1.02,9.76.12.71.28,1.38.42,2.08.53,2.58.66,3.33.08,4.14-.12.18-.21.41-.33.54-.33.47-1.47-.41-2.08-2.45-.93-2.97-1.4-6.06-1.68-9.2-.27-3.14-.33-6.33-.22-9.52.17-4.75.71-9.5,1.91-14.27h.07Z"/><path class="cls-4" d="M267.8,394.5c-10.9-1.28-21.81-2.51-32.72-3.5-3.98-.36-7.97-.61-11.95-.88-3.51-.24-7.02-.45-10.51-.55-1.75-.04-3.5-.07-5.22-.02-1.71.07-3.48.19-4.96.56-.2.04-.38.09-.49.15-.13.07-.27.09-.41.17l-.84.65c-.54.58-1.11,1.12-1.58,1.82-.25.33-.52.65-.75,1l-.69,1.07c-.48.7-.88,1.46-1.3,2.21-1.62,3.03-3.02,6.22-4.12,9.52-2.03,5.84-3.3,11.98-4.18,18.07-1.13,7.85-1.26,15.79-1.7,23.75-.38,2.5-.28,2.17-.84.08-.27-1.04-.74-2.54-1.02-4.36-.27-1.82-.44-3.97-.5-6.3-.01-2.07.09-4.13.19-6.2.17-2.06.35-4.13.57-6.19.54-4.11,1.14-8.23,2.24-12.26,1.01-4.04,2.31-8.03,3.96-11.9,1.67-3.86,3.57-7.66,6.44-11.07.5-.49.96-.98,1.5-1.45.64-.44,1.17-.94,2.04-1.21,1.51-.47,2.78-.56,4.08-.65,2.59-.13,5.13-.18,7.67-.13,5.09.07,10.17.34,15.2.7,11.06.81,22.08,1.94,33.09,3.11,6.77.76,13.54,1.52,20.31,2.27,10.24,1.16,20.54,2.44,30.7,3.47,7.83.72,15.6.02,23.15-1.61,1.67-.36,3.28-.79,4.93-1.25,3.06-.85,5.05-1.49,6.48-1.86,1.44-.36,2.32-.44,3.12-.32.36.06.82.08,1.07.18.83.32-1.37,1.99-5.91,3.69-6.74,2.47-14.05,3.96-21.54,4.41-3.75.22-7.54.18-11.34-.16-3.75-.35-7.4-.78-11.11-1.18-10.98-1.25-22.01-2.5-33.02-3.75v-.08Z"/><path class="cls-4" d="M482.17,457.06c-.94-1.04-1.98-2.03-3.06-2.97-.4-.34-.84-.63-1.24-.97-1.42-1.19-2.86-2.41-4.4-3.47-.68-.48-1.4-.89-2.11-1.31-.9-.55-1.82-1.09-2.7-1.7-.27-.19-.18-.29.15-.32.32-.02.91-.03,1.51.16,2.15.64,4.07,1.74,5.89,3.02,1.07.79,2.3,1.43,3.4,2.25,1.2.89,2.37,1.84,3.49,2.86.69.62,1.35,1.29,1.99,1.98.48.53.95,1.08,1.37,1.7.21.31.41.64.59.99.16.33.37.83.4,1.31.06.37,0,.75-.11,1.11-.15.34-.34.68-.62.95-.52.58-1.33.95-2.18.88-.37-.02-.75-.1-1.09-.29-.57-.31-.78-.58-.88-.84-.1-.25-.04-.5.12-.79.07-.13.14-.27.23-.39.3-.39.84-.39,1.31-.28.42.1.45,0,.53-.06.07-.07.08-.15.07-.19-.01-.05-.04-.07-.05-.07-.01-.01,0,.02-.03-.03-.03-.11-.12-.27-.19-.42-.52-.97-1.45-2.08-2.41-3.08l.04-.05Z"/><path class="cls-4" d="M355.33,239.2c-.02-.37.03-.78.1-1.17.1-.37.21-.75.38-1.05.3-.66.68-1.14,1.06-1.62.28-.32.49-.69.79-.97.52-.5,1.06-.93,1.59-1.35l1.63-1.17c.46-.36.89-.74,1.34-1.1.28-.23.55-.48.84-.71.28-.24.65-.38.99-.56.23-.1.3.01.33.31,0,.28.09.86-.09,1.28-.4.68-.78,1.38-1.26,1.96-.52.55-1.07,1.05-1.66,1.5-.73.52-1.27,1.26-1.78,1.9-.57.7-1.05,1.41-1.18,2.05-.11.39-.1.88.04,1.34.22.71.66,1.47,1.31,2.03.5.44,1.15.68,1.76.92.14.05.28.07.41.14.48.22.54.45.34,1.19-.05.17-.08.34-.14.51-.18.56-.61.91-1.14.84-1.54-.21-2.96-1.07-4.1-2.39-.83-.98-1.54-2.32-1.64-3.89h.08Z"/><path class="cls-4" d="M335.18,233.6l-6.16,29.21c-.74,3.55-1.39,7.13-2.16,10.67l-4.09,18.76-4.28,18.72c-.63,2.77-1.25,5.55-1.88,8.32-.65,2.77-1.31,5.53-1.96,8.27-.86,3.52-1.72,7.04-2.58,10.56-.93,3.51-1.82,7.02-2.89,10.48-.67,2.16-.75,1.83-.62-.11.11-1.94.43-5.47,1.23-9.56l2.07-10.88c.73-3.62,1.3-7.27,2.12-10.88,1.59-7.22,3.22-14.45,4.89-21.7,2.04-8.67,3.73-17.78,5.56-26.71,2.02-9.81,4.04-19.63,6.06-29.45,1.25-6.04,2.49-12.09,3.74-18.13,1.9-9.15,3.81-18.34,5.7-27.42.73-3.53,1.39-7.04,2.04-10.54.67-3.5,1.34-6.99,2.01-10.49.3-1.54.57-3.06.9-4.6,1.21-5.74,1.9-7.5,3.13-8.52.26-.23.52-.56.73-.69.35-.21.5.3.61,1.41.12,1.12-.05,2.79-.41,4.91-2.18,12.55-4.89,25.68-7.58,38.89-2.03,9.8-4.06,19.65-6.09,29.47h-.09Z"/><path class="cls-4" d="M74.31,435.63l12.96.38c1.58.04,3.16.01,4.74.08,2.78.1,5.58.28,8.36.47l4.18.31,4.17.43c1.23.11,2.46.28,3.7.4,1.23.14,2.46.23,3.68.41,3.14.34,6.27.86,9.3,1.8.95.29.79.39-.07.53-.51.07-1.12.16-1.78.26-.73.07-1.57.09-2.47.02-3.2-.11-6.34-.55-9.53-.75-1.59-.15-3.18-.25-4.77-.36-1.59-.13-3.19-.26-4.79-.39-3.83-.36-7.85-.24-11.79-.28l-13.04-.07c-2.68,0-5.37-.08-8.05-.11-4.07-.08-8.15-.25-12.19-.39-3.15-.06-6.24-.13-9.35-.19-.69-.01-1.36-.03-2.05-.09-2.56-.21-3.35-.52-3.79-1.46-.1-.21-.24-.43-.29-.64-.16-.71.94-1.16,2.8-1.17,5.51.02,11.26.3,17.07.46,4.31.14,8.65.23,13,.27v.08Z"/><path class="cls-4" d="M364.39,272.44c-2.66-3.23-4.34-7.2-5.01-11.21-.19-.73-.26-1.46-.34-2.19-.09-.73-.17-1.47-.22-2.21-.13-5.19.94-10.23,2.54-15.01.72-2.12,1.51-4.23,2.47-6.24,1.24-2.55,2.5-5.25,4.89-7.02.77-.52.74-.37.65.48-.06.42.01,1.11-.16,1.73-.12.66-.36,1.35-.67,2.06-1.3,2.39-2.38,4.89-3.35,7.45-1.01,2.54-1.86,5.16-2.53,7.85-.79,3.22-.95,6.73-.59,10.04.29,3.65,1.31,7.25,3.28,10.34.65.92,1.24,1.89,2.05,2.69.39.41.73.87,1.16,1.24l1.29,1.11c2.68,2.17,5.87,3.79,9.22,4.74,2.61.72,5.27,1.04,7.94,1.05.59.04,1.16-.03,1.75.02.55.03,1,.08,1.38.12.38.03.69.07.95.14.52.17.82.39,1.08.69.12.14.27.27.35.4.13.22-.03.44-.44.67-.4.23-1.06.51-1.91.65-1.27.17-2.58.39-3.89.29-1.32,0-2.64-.15-3.98-.33-.67-.07-1.33-.24-1.99-.37-.67-.14-1.33-.27-1.99-.48l-1.97-.6-1.93-.77c-3.79-1.6-7.34-4.06-10.07-7.31l.06-.05Z"/><path class="cls-4" d="M459.83,303.33c-1.02.41-2.2.55-3.26.37-1.07-.16-2.04-.58-2.87-1.18-.6-.44-1.19-.92-1.61-1.56-.75-1.12-1.05-2.5-.89-3.73.14-1.24.63-2.4,1.42-3.32.69-.83,1.62-1.41,2.59-1.69,1.23-.39,2.64-.32,3.7.36.33.21.24.24-.09.26-.33,0-.93.18-1.51.31-1.04.16-1.95.68-2.55,1.33-.65.57-1.08,1.38-1.3,2.29-.13.55-.06,1.13.11,1.66.18.53.49.97.87,1.38.84.89,2.19,1.4,3.39,1.18.75-.13,1.49-.52,2.08-1.1.89-.87,1.45-2.14,1.22-3.38-.17-.97-.82-1.77-1.53-2.33-.15-.13-.34-.21-.5-.33-.6-.4-.7-.62-.55-1.42.03-.18.05-.37.09-.55.12-.59.74-.94,1.6-.61,2.49.94,4.32,3.96,3.7,7.1-.47,2.26-2,4.13-4.08,5.02l-.03-.06Z"/><path class="cls-4" d="M469.15,385.1c-2.91-8.17-5.95-16.29-9.2-24.33-1.18-2.94-2.48-5.82-3.7-8.73-2.17-5.13-4.4-10.24-6.76-15.28-2.37-5.03-4.87-10.01-7.7-14.76-1.28-2.08-2.58-4.18-4.1-6.04-.73-.98-1.55-1.77-2.41-2.6-.91-.8-1.85-1.57-2.81-2.29-4.94-3.75-10.58-6.38-16.66-7.96-1.9-.48-1.66-.49.05-.57,1.68-.05,4.96-.21,8.61.97,1.59.56,3.14,1.23,4.65,1.99.76.38,1.49.79,2.23,1.21.71.46,1.42.91,2.1,1.4,1.37.97,2.69,2.01,3.95,3.11.63.6,1.29,1.25,1.88,1.89l1.63,1.99c2.02,2.7,3.73,5.53,5.32,8.41.79,1.44,1.54,2.9,2.29,4.36.72,1.47,1.45,2.94,2.14,4.43,3.31,7.1,6.82,14.44,9.94,21.8,3.42,8.09,6.61,16.27,9.68,24.5,1.9,5.06,3.69,10.15,5.48,15.25,2.68,7.72,5.2,15.55,7.62,23.3,1.88,6.03,3.8,11.92,5.36,18.01.37,1.33.67,2.66.98,4.03.52,2.55.74,4.27.71,5.51.02,1.22-.27,1.97-.67,2.54-.19.26-.37.6-.56.75-.33.25-.67-.15-.98-1.02-.28-.87-.65-2.26-1.01-4.05-1.19-5.33-2.75-10.78-4.38-16.3-1.64-5.52-3.39-11.1-5.21-16.68-2.71-8.28-5.57-16.57-8.55-24.79l.07-.04Z"/><path class="cls-4" d="M480.37,461.77c-.75-.99-1.64-1.93-2.58-2.83-.35-.32-.73-.59-1.09-.9-1.22-1.15-2.56-2.17-3.92-3.2-.6-.46-1.27-.81-1.91-1.18-.42-.22-.85-.44-1.26-.68l-.31-.18-.28-.27c-.18-.18-.37-.35-.56-.54-.23-.24-.23-.14.05-.14.14,0,.35-.04.62-.12.16-.05.31-.09.45-.13.08-.03.16-.03.25-.07.07.01.14.02.22.03.5.13,1.01.25,1.5.4.48.18.95.38,1.42.59.92.45,1.84.92,2.62,1.61.95.79,2.07,1.41,3.07,2.17,1.09.85,2.12,1.78,3.11,2.77.6.62,1.18,1.26,1.73,1.96.41.54.79,1.1,1.11,1.79l.22.55c.06.21.09.44.12.66.04.46,0,.8-.09,1.24-.14.65-.49,1.32-1.05,1.77-.54.47-1.36.69-2.02.69-.29.01-.56.01-.84-.04-1.02-.22-1.3-.76-1.07-1.42.06-.15.11-.3.2-.42.37-.37.66-.65,1.08-.76.29-.05.61-.15.8-.26.15-.11.1-.16.11-.22,0-.06-.04-.05-.04-.1v-.2s0-.01,0-.02c-.07-.13-.27-.64-.62-1.08-.15-.23-.33-.46-.52-.7-.18-.24-.36-.48-.57-.72l.05-.05Z"/><path class="cls-4" d="M450.18,460.57c1.77-.62,3.51-1.48,5.4-2.35.49-.22.97-.44,1.6-.64.32-.1.88-.25,1.27-.2.32.01.61.01.9.05,1.17.12,2.27.39,3.31.72,1.52.49,2.96,1.05,4.32,1.73,1.9.96,3.69,2.03,5.46,3.02.44.25.88.49,1.32.71.27.14.36.21.57.31.36.15.86.42,1.28.16.2-.15.17-.42.09-.61-.08-.21-.21-.41-.35-.6-.17-.23-.31-.39-.56-.65-.38-.4-.8-.77-1.2-1.16-.82-.76-1.7-1.48-2.58-2.16-2.32-1.72-4.7-3.36-7.04-5.15-.72-.59-.62-.53.19-.42.84.06,2.39.25,4,.95.59.26,1.18.53,1.76.82.56.32,1.11.66,1.65,1.01,1.09.69,2.15,1.43,3.19,2.24.51.41,1.04.8,1.52,1.28l.8.79c.41.45.82.9,1.17,1.36.72.92,1.19,1.86,1.29,2.65.11.78-.03,1.54-.64,2.25-1.02,1-2.29,1.05-3.87.62-.71-.23-1.43-.52-2.14-.85l-.75-.39-.62-.34c-.82-.44-1.64-.89-2.46-1.33-1.63-.87-3.26-1.69-4.88-2.42-1.77-.79-3.6-1.44-5.36-1.57-.59-.02-.43-.06-.97.13-.41.15-.87.35-1.32.55l-2.8,1.26c-1.18.51-2.39.98-3.66,1.34-1.27.35-2.61.62-4.05.54-1.09-.08-2.16-.3-3.32-1.22-.28-.2-.48-.46-.72-.69-.19-.26-.36-.52-.49-.79-.23-.61.08-1.25.47-1.72.39-.49,1-.93,1.49-1.27.41-.28.83-.54,1.24-.78.81-.49,1.63-.97,2.44-1.45.62-.38,1.21-.77,1.77-1.18.54-.4,1.1-.86,1.42-1.29.67-.86.87-2.09.88-3.4.01-.57-.06-1.16-.1-1.76.04-2.28.1-3.07.73-3.65.14-.13.27-.3.41-.39.46-.28,1.02.61,1.49,2.37.44,1.3.56,2.69.5,4.22-.04.76-.14,1.57-.43,2.41-.28.83-.74,1.7-1.42,2.41-.66.7-1.25,1.11-1.86,1.56-.61.43-1.21.8-1.81,1.17-1.19.72-2.39,1.39-3.42,2.06l-.27.18h0s0,0-.01,0c0,0,0,0,0,.01h0c.06.02.23.12.37.15,1.19.39,3.05,0,4.78-.65l.03.07Z"/><path class="cls-4" d="M431.03,447.52s-.05-.01-.08-.01c-.21.05-.24.3.05.52.34.25.75.43,1.15.65,1.43.79,3.08,1.4,4.75,1.83.74.19,1.51.29,2.26.4.48.06.97.11,1.45.15.48,0,.96.18,1.45.21.3.04.29.11.05.31-.24.18-.73.62-1.34.76-1.07.13-2.15.23-3.19.09-1.05-.13-2.09-.35-3.1-.68-1.2-.41-2.51-.65-3.77-1.22-.35-.16-.67-.33-1.03-.55-.26-.16-.49-.31-.69-.5-.22-.17-.39-.38-.56-.58-.66-.79-.8-1.86-.31-2.72.1-.14.19-.31.3-.43.21-.15.4-.24.63-.33l.34-.13c.12-.03.26-.04.39-.06.26-.04.53-.07.79-.08.26-.01.54-.03.7-.03,1.32-.02,2.61.05,3.9.01,1-.02,1.97-.19,2.95-.26.22-.02.43-.05.64-.06.81-.01,1.06.15,1.23.74.04.13.09.27.11.4.08.45-.25.83-.85.98-1.76.48-3.6.53-5.43.58l-2.02.05-.49.02c-.11,0-.11,0-.12,0h-.04c-.05-.01-.05-.02-.08-.02l-.05-.06Z"/><path class="cls-4" d="M370.28,339.78c-1.01,1.82-2.03,3.65-2.98,5.51-.99,1.84-1.94,3.7-2.86,5.58-.69,1.36-1.25,2.78-1.91,4.16-2.32,4.86-4.53,9.79-6.52,14.8-.92,2.21-1.72,4.49-2.52,6.72-.49,1.45-.98,2.9-1.47,4.35-.53,1.44-1.1,2.86-1.76,4.25-.42.86-.64.66-.77-.23-.13-.89-.21-2.48.16-4.23,1.72-6.04,3.71-12.01,6.38-17.77,1.56-3.46,2.94-7.15,4.52-10.69.86-1.95,1.8-3.86,2.71-5.79.96-1.9,1.9-3.82,2.92-5.69l1.87-3.46,1.95-3.42c.95-1.74,2.05-3.41,3.06-5.13,1.06-1.69,2.11-3.37,3.16-5.04.84-1.28,1.64-2.58,2.42-3.88.79-1.3,1.64-2.56,2.47-3.84.37-.56.7-1.13,1.13-1.66,1.54-1.98,2.22-2.47,3.2-2.35.22.03.47.02.66.09.64.22.43,1.36-.5,2.9-2.78,4.58-5.98,9.15-8.9,13.97-1.11,1.77-2.16,3.59-3.25,5.38-1.02,1.83-2.11,3.63-3.09,5.5l-.07-.03Z"/><path class="cls-4" d="M351.77,351.7c-1.95,2.45-3.87,4.94-5.69,7.5-.68.93-1.26,1.91-1.91,2.85-2.34,3.29-4.66,6.62-6.78,10.07-.97,1.52-1.79,3.12-2.67,4.68-.54,1.01-1.09,2.02-1.63,3.03-.27.51-.56,1-.88,1.48l-.47.73c-.17.23-.4.44-.62.65-.63.49-.41.49-.41-.19-.07-.71-.09-1.97.4-3.22,1.8-4.39,4.17-8.5,6.82-12.45,1.6-2.36,3.02-4.96,4.66-7.37,1.79-2.66,3.66-5.26,5.59-7.81,1.19-1.57,2.4-3.13,3.62-4.67,1.84-2.35,3.8-4.62,5.67-6.91,1.48-1.77,2.8-3.61,4.26-5.38.32-.39.6-.8.95-1.17,1.28-1.39,1.86-1.66,2.74-1.34.2.07.42.12.6.23.59.34.44,1.27-.36,2.37-2.39,3.25-5.17,6.38-7.87,9.65-2.01,2.42-4.03,4.85-5.95,7.36l-.06-.04Z"/><path class="cls-4" d="M319.01,451.15c17.28-.2,34.63-.86,52.02-.69,3.17.04,6.35.05,9.52.13,1.59.04,3.17.06,4.76.13l4.68.19c5.26.04,10.73-.84,15.73-2.63,4.98-1.8,9.6-4.76,12.46-9.09.73-1.07,1.29-2.23,1.8-3.43.49-1.27.97-2.54,1.37-3.83.81-2.57,1.4-5.21,1.5-7.82.03-1.3-.06-2.58-.35-3.78-.31-1.2-.84-2.29-1.6-3.19-.77-.89-1.74-1.62-2.93-2.14-.56-.3-1.2-.49-1.8-.74-.64-.18-1.26-.42-1.92-.56-4.64-1.16-9.57-1.44-14.49-1.59-5.09-.25-9.97-1.1-14.82-2.19-6.21-1.39-12.31-3.39-18.15-6.01l-2.16-1.05c-.72-.34-1.44-.71-2.13-1.11-.7-.39-1.41-.77-2.1-1.17-.69-.42-1.36-.86-2.03-1.31-2.64-1.83-5.2-3.85-7.2-6.4-1.14-1.68-1.57-2.41-1.49-2.4.09,0,.76.72,2.04,1.78.72.45,1.49,1.08,2.46,1.69,1.05.52,2.02,1.32,3.29,1.94.62.33,1.24.7,1.91,1.04.68.34,1.39.65,2.09,1.04.69.39,1.46.72,2.21,1.1.75.39,1.53.77,2.34,1.13,5.68,2.68,11.7,4.66,17.81,6.21,3.06.75,6.16,1.4,9.27,1.85,1.56.26,3.12.41,4.68.58,1.39.14,3.11.12,4.72.21,3.27.14,6.57.4,9.89,1,1.66.29,3.32.71,4.99,1.26,1.65.58,3.36,1.37,4.88,2.66,1.52,1.3,2.6,3.09,3.15,4.91.57,1.83.7,3.67.64,5.43-.05,1.77-.34,3.48-.71,5.14-.37,1.67-.86,3.28-1.41,4.86-.33.95-.68,1.87-1.07,2.82-.41.97-.87,1.92-1.4,2.84-1.07,1.83-2.41,3.51-3.93,4.97-3.05,2.94-6.78,5.04-10.65,6.52-3.89,1.47-7.94,2.38-12.03,2.84-2.04.22-4.14.34-6.22.24-1.98-.07-3.96-.15-5.93-.22-17.37-.58-34.81-.06-52.27.32-5.37.11-10.75.21-16.13.25-5.37.05-10.78,0-16.12-.01-16.23-.02-32.56.64-48.72.97-12.56.25-24.91.46-37.37-.31-1.37-.08-2.73-.16-4.09-.24-1.36-.12-2.72-.24-4.1-.36-10.23-1.07-13.42-2.05-15.42-3.32-.46-.3-1.07-.62-1.31-.88-.42-.44.43-.64,2.3-.6,1.87.03,4.74.36,8.44.68,21.91,2.28,45.2,1.68,68.65.94,8.71-.27,17.47-.54,26.25-.62,8.82-.06,17.5.08,26.22-.09l.02.09Z"/><path class="cls-4" d="M211.42,133.95l34.16-2.4c4.16-.27,8.32-.63,12.5-.81,14.7-.65,29.5-.77,44.21.74,6.53.67,13.08,1.66,19.42,3.26l3.05.79c1.01.29,2.01.63,3.02.95,2.03.6,3.98,1.42,5.94,2.23.98.39,1.9.94,2.85,1.41.93.51,1.9.93,2.78,1.54.9.56,1.77,1.17,2.64,1.78.44.28.83.65,1.24.99.4.35.82.66,1.19,1.05,1.88,1.86,1.54,1.66-.56.83-1.06-.4-2.44-1.1-4.25-1.65-.89-.3-1.77-.75-2.76-1.12-1-.36-2.04-.76-3.1-1.22-7.59-3.13-15.72-4.94-23.96-6.12-8.23-1.32-16.65-1.91-25.12-2.28-10.15-.42-20.74.18-31.15.81-11.45.66-22.9,1.6-34.37,2.46-7.06.53-14.14,1.01-21.23,1.32-5.37.24-10.78.32-16.19.1-5.43-.23-10.76-.9-16.06-1.62-8.23-1.15-16.27-2.56-24.29-4.27-1.77-.38-3.49-.75-5.26-1.18-3.28-.79-5.41-1.41-6.86-2-1.46-.58-2.26-1.08-2.86-1.68-.27-.27-.65-.57-.79-.8-.48-.77,2.33-.7,7.21.1,3.59.68,7.24,1.32,10.89,2.08,3.65.74,7.33,1.47,11.04,2.15,7.41,1.36,14.97,2.47,22.56,3.14,5.54.46,11.23.43,16.93.27,5.7-.17,11.43-.54,17.16-.94l.02.09Z"/><path class="cls-4" d="M69.24,317.39l10.59-46.86c1.3-5.7,2.48-11.42,3.81-17.11,4.68-20.06,9.53-40.08,14.83-60,1.16-4.42,2.39-8.84,3.64-13.25,1.24-4.41,2.51-8.8,3.84-13.14,1.7-5.59,3.49-11.17,5.61-16.64,1.08-2.73,2.17-5.46,3.48-8.1,1.34-2.62,2.75-5.23,4.53-7.6.54-.74,1.04-1.21,1.33-1.51.3-.3.45-.41.47-.36.06.12-.47.85-1.11,2.25-.68,1.38-1.47,3.41-2.31,5.88-.2.62-.41,1.27-.63,1.94-.22.67-.4,1.39-.66,2.09-.49,1.42-1.01,2.93-1.54,4.5-3.77,11.15-6.99,22.55-10.01,34.02-3.05,11.49-6.1,23-9.17,34.56-3.62,13.86-6.74,28.45-9.97,42.74-3.53,15.73-7.06,31.47-10.58,47.21-2.17,9.69-4.33,19.38-6.5,29.06-3.28,14.67-6.68,29.39-10.03,43.94-2.62,11.31-5.03,22.43-7.86,33.58-.63,2.45-1.2,4.86-1.91,7.32-1.29,4.56-2.27,7.53-3.11,9.57-.43,1.02-.81,1.8-1.19,2.43-.41.62-.8,1.09-1.2,1.49-.36.37-.76.88-1.03,1.06-.89.64-.44-3.24,1.35-9.87,5.04-19.77,9.88-40.8,14.68-61.94,3.55-15.7,7.08-31.5,10.55-47.27h.1Z"/><path class="cls-4" d="M314.39,285.59c3.02-11.22,5.99-22.45,8.91-33.69,1.03-4.11,2.05-8.22,3.08-12.33,3.73-14.47,7.48-28.93,11.06-43.43,1.59-6.43,3.09-12.93,4.52-19.35,1.81-8.25,3.61-16.54,6.29-24.6,1.01-2.47.83-2.15.83.14,0,1.14.04,2.77-.09,4.71-.05.97-.12,2.02-.22,3.13-.04.56-.12,1.12-.17,1.71-.1.57-.21,1.16-.32,1.76l-1.26,6.36c-.42,2.12-.95,4.21-1.43,6.32-.97,4.21-1.97,8.41-3,12.61-2.04,8.41-4.17,16.81-6.43,25.22-2.68,10.06-5.12,20.62-7.73,30.94-2.88,11.35-5.84,22.68-8.82,34.01-1.85,6.97-3.71,13.93-5.56,20.89-2.84,10.54-5.69,21.13-8.51,31.59-2.15,8.14-4.13,16.16-6.2,24.23-.45,1.78-.89,3.52-1.38,5.3-1.83,6.61-2.64,8.64-3.95,9.8-.29.26-.61.63-.86.76-.83.45-.69-2.42.48-7.3,3.45-14.48,7.53-29.61,11.59-44.82,3.02-11.29,6.09-22.63,9.06-33.97h.09Z"/><path class="cls-4" d="M356.51,176.26c.27,2.21.62,4.44.98,6.67.14.82.36,1.61.49,2.43.48,2.88.81,5.81,1.15,8.71.15,1.29.37,2.58.5,3.86.22,1.64.27,3.31.15,4.98-.04.52-.08.46-.3.05-.16-.28-.32-.57-.48-.84-.21-.35-.43-.76-.58-1.21-1.22-3.2-1.7-6.47-2.16-9.81-.28-2-.81-4.03-1.24-6.06-.45-2.23-.88-4.48-1.27-6.75-.25-1.39-.44-2.8-.64-4.2-.29-2.13-.48-4.28-.71-6.4-.18-1.65-.5-3.25-.67-4.89-.04-.36-.08-.71-.09-1.08-.03-1.35.17-1.79.92-2.07.17-.07.34-.15.51-.19.58-.13,1.07.41,1.29,1.37.69,2.84.91,5.8,1.29,8.77.25,2.21.55,4.42.92,6.64l-.07.02Z"/><path class="cls-4" d="M142.55,219.21c2.93,1.17,6.2,1.5,9.41.88,1.61-.29,3.19-.78,4.74-1.43,1.54-.66,3.02-1.48,4.44-2.42,2.07-1.38,3.91-3.08,5.65-4.88,3.08-3.15,5.67-6.88,7.32-10.98.82-2.05,1.41-4.19,1.64-6.36.1-1.09.08-2.19.11-3.29l-.17-1.63-.09-.82c-.05-.27-.13-.53-.19-.79l-.36-1.41c-.13-.47-.36-.9-.54-1.35-.32-.92-.88-1.71-1.38-2.55-1.15-1.54-2.47-3-4.13-4-2.07-1.35-4.47-2.2-6.92-2.53-.62-.08-1.23-.17-1.85-.15-.62-.04-1.24-.1-1.86-.03-.62.04-1.25.04-1.86.19-.61.1-1.29.04-1.9.25-1.56.38-1.42.3-.25-.54.58-.43,1.42-1.15,2.64-1.62.61-.2,1.28-.43,2.02-.6.37-.05.76-.11,1.15-.17.39,0,.8-.07,1.21-.02,2.92.15,5.83.96,8.4,2.43,2.58,1.47,4.8,3.61,6.35,6.17.2.32.41.63.58.96l.46,1.02c.29.69.64,1.36.8,2.08.19.71.42,1.43.57,2.15l.28,2.18c.13.73.06,1.45.07,2.18-.03.73.03,1.45-.09,2.18-.12,1.46-.46,2.87-.83,4.27-.49,1.65-1.09,3.26-1.79,4.84-.72,1.57-1.54,3.09-2.44,4.57-1.84,2.93-4.03,5.68-6.6,7.99-2.82,2.54-6.03,4.7-9.6,6.15-3.54,1.48-7.5,2.17-11.39,1.72-2.39-.28-4.73-1.01-6.84-2.11-2.12-1.08-4.08-2.52-5.69-4.3-2.44-2.71-4.01-6.15-4.56-9.69-.31-1.76-.37-3.55-.25-5.32.1-1.76.37-3.51.81-5.2,1.31-5.26,3.82-10.17,7.65-14.1.84-.86,1.71-1.68,2.7-2.4,1.85-1.33,3.24-1.99,4.28-2.23,1.03-.27,1.71-.16,2.3.12.27.13.59.23.76.39.57.57-.92,1.5-3.31,3.05-3.56,2.35-6.48,5.78-8.51,9.71-2.02,3.93-3.18,8.4-3,12.74.08,1.61.31,3.19.75,4.7.44,1.51,1.13,2.92,1.99,4.2,1.71,2.58,4.38,4.52,7.35,5.71l-.03.09Z"/><path class="cls-4" d="M100.44,405.1c2.97.81,6.18.67,9.26-.14,3.08-.84,6.02-2.37,8.63-4.37,1.92-1.45,3.56-3.24,5.08-5.1,2.7-3.27,4.78-7.11,5.75-11.24.95-4.11.71-8.57-1.23-12.3-.87-1.64-2.09-3.11-3.53-4.32-1.45-1.2-3.13-2.12-4.88-2.78-2.27-.82-4.72-1.18-7.11-1.02-.6.03-1.19.11-1.78.21-.59.07-1.18.2-1.76.34l-.86.26-.83.33c-.26.14-.56.21-.86.32-.29.11-.57.24-.84.39-1.29.82-1.21.71-.39-.45.45-.51,1-1.52,2.09-2.21.53-.36,1.13-.72,1.81-1.02.33-.17.7-.27,1.06-.42.38-.11.77-.17,1.16-.24,2.83-.42,5.72-.17,8.44.65,2.73.8,5.3,2.23,7.45,4.18,1.06.99,2.01,2.11,2.82,3.33.8,1.22,1.41,2.56,1.9,3.93.91,2.76,1.15,5.68.83,8.48-.73,6.71-3.82,13.19-8.45,18.09-2.54,2.7-5.56,4.95-8.89,6.62-3.34,1.62-7.05,2.68-10.84,2.64-4.67,0-9.25-1.65-12.88-4.54-2.74-2.22-4.81-5.26-5.88-8.58-1.12-3.31-1.33-6.83-.94-10.21.63-5.24,2.6-10.31,6.13-14.37.79-.88,1.59-1.73,2.53-2.47,1.75-1.38,3.11-2.03,4.12-2.3,1.01-.27,1.67-.18,2.25.1.26.13.58.23.75.38.57.56-.86,1.5-3.12,3.05-3.37,2.35-5.93,5.84-7.51,9.76-1.53,3.93-2.13,8.34-1.31,12.42.59,3.02,1.87,5.87,3.97,8.03,1.04,1.09,2.24,2.01,3.58,2.78,1.36.77,2.81,1.33,4.3,1.7v.09Z"/><path class="cls-4" d="M147.43,312.08c-3.09,2.23-6.59,3.87-10.26,4.81-3.63.95-7.6,1.22-11.38.38-2.75-.57-5.47-1.62-7.74-3.35-1.99-1.51-3.72-3.37-4.98-5.52-1.23-2.16-2.08-4.5-2.49-6.91-.1-.6-.13-1.21-.19-1.81l-.08-.91.02-.91c.02-.6.02-1.21.06-1.81l.25-1.78c.39-2.35,1.02-4.63,1.95-6.8.82-1.92,1.77-3.78,2.92-5.51.53-.89,1.19-1.7,1.79-2.54.67-.79,1.3-1.62,2.03-2.34,1.83-1.91,3.86-3.67,6.19-4.99,1.17-.64,2.37-1.23,3.63-1.67.61-.27,1.27-.38,1.92-.51.65-.14,1.3-.26,1.96-.28,1.66,0,1.4-.02.18.68-.3.2-.67.36-1.07.63-.4.28-.84.58-1.31.91-.94.65-2.05,1.29-3.21,2.05-4.16,2.59-7.62,6.27-10.05,10.55-.59,1.08-1.15,2.17-1.62,3.3-.27.55-.47,1.13-.7,1.7-.24.57-.42,1.15-.6,1.74l-.28.88-.21.89c-.15.6-.3,1.19-.36,1.79-.08.6-.2,1.2-.25,1.8l-.07,1.81c.02,2.88.8,5.84,2.4,8.3,1.59,2.47,3.87,4.47,6.49,5.77,2.88,1.44,6.2,2.06,9.5,1.78,3.29-.27,6.62-1.24,9.62-2.77,3.68-1.91,7-4.61,9.44-8.01,3.78-5.07,5.76-11.56,5.28-17.84-.21-2.39-.93-4.71-2.06-6.76-1.15-2.04-2.69-3.83-4.5-5.19-.8-.6-1.66-1.06-2.54-1.51-.84-.37-1.53-.69-2.14-.88-.3-.1-.56-.24-.81-.34-.25-.08-.47-.17-.68-.26-.81-.39-1.29-.72-1.68-1.26-.18-.24-.44-.48-.55-.71-.19-.38.13-.69.97-.95.42-.13.96-.25,1.6-.22.65,0,1.42.02,2.25.24,4.99,1.15,9.4,4.94,11.71,9.7,1.18,2.38,1.93,4.99,2.16,7.68.08.68.08,1.33.08,1.97,0,.65.03,1.3-.03,1.95-.12,1.3-.2,2.6-.48,3.87-1.39,7.63-5.82,14.62-12.03,19.2l-.06-.07Z"/><path class="cls-4" d="M231.34,204.24c.78.23,2.78-.23,4.43-.57,1.71-.37,3.44-.81,5.2-1.23,1.28-.31,2.56-.71,3.9-.94,2.35-.41,4.8-.64,7.26-.46,2.45.17,4.93.84,7.08,1.82,1.92.83,3.75,1.69,5.59,2.22,1.19.33,2.43.52,3.67.63.62.06,1.24.14,1.87.18.31.03.63.04.95.05.32.02.64.08.97.1.82.09.74.17.1.62-.62.48-1.89,1.25-3.53,1.43-1.43.08-2.88-.07-4.3-.33-1.43-.28-2.82-.71-4.07-1.23-1.26-.52-2.44-1.04-3.59-1.47-.58-.21-1.14-.41-1.73-.54-.58-.17-1.17-.28-1.78-.39-2.92-.49-6.08.24-9.19.95-3.44.79-6.92,1.83-10.6,2.5-.6.1-1.23.18-1.92.16-.68-.02-1.45-.14-2.17-.53-.73-.38-1.31-1.05-1.64-1.71-.34-.66-.49-1.3-.62-1.88-.15-.7-.25-1.34-.41-1.86-.17-.52-.36-.85-.65-1.07-.24-.16-.48-.24-.83-.26-.35-.01-.76.05-1.17.17-.82.24-1.74.69-2.58,1.13-2.19,1.18-4.03,2.84-5.63,4.65-.36.4-.66.82-1,1.23-1.23,1.54-1.77,1.91-2.78,1.77-.23-.03-.48-.03-.68-.1-.69-.19-.73-1.28.1-2.74,1.26-2.12,2.99-4.06,5.03-5.68,1.02-.81,2.12-1.53,3.29-2.17.58-.32,1.18-.61,1.78-.88.61-.28,1.35-.57,2.18-.75.58-.12,1.24-.2,1.98-.14.77.07,1.63.35,2.31.81.55.39,1.08.93,1.4,1.46.35.54.53,1.05.68,1.51.27.91.37,1.64.49,2.22.11.58.27.92.32,1.01.05.08.01.1.31.18v.09Z"/><path class="cls-4" d="M175.47,386.65c-.84-.3-1.67-.65-2.43-1.13-.75-.45-1.48-1.07-2.04-1.63-.41-.41-.82-.72-1.17-1.01-.59-.52-1.24-.81-2.01-.86-.77-.03-1.62.23-2.41.67-.7.39-1.34.95-1.91,1.55-.7.8-1.41,1.61-2.2,2.4-.25.24-.45.06-.54-.36-.09-.41-.09-1.1.24-1.7.57-1.07,1.4-1.97,2.34-2.81.96-.81,2.15-1.51,3.56-1.74.84-.11,1.74-.1,2.6.12.87.2,1.66.67,2.26,1.13.67.52,1.19,1.02,1.75,1.37.55.4,1.16.7,1.8.98.79.31,1.64.54,2.52.66,1.33.17,2.73.19,4.09-.03,1.06-.17,2.07-.58,3.08-.95.22-.08.44-.19.66-.26.85-.26,1.17-.13,1.56.67.09.18.19.36.26.54.24.63,0,1.24-.61,1.58-1.82.97-3.98,1.43-6.25,1.52-1.69.06-3.45-.13-5.17-.63l.02-.07Z"/><path class="cls-4" d="M119.69,381.64c-1.91,1.3-3.67,2.9-5.3,4.65-.6.63-1.09,1.37-1.65,2.04-.59.66-1.12,1.38-1.68,2.08-.85,1.04-1.76,2.22-2.58,3.27-.01.08-.02.1-.04.1l-.05.03-.09.07-.19.13-.37.27-.73.56-.18.14-.09.07s-.06-.03-.08-.05c-.06-.08-.1-.17-.14-.26-.09-.18-.18-.43-.3-.63-.12-.23-.28-.47-.44-.88-.07-.2-.17-.4-.23-.69-.06-.29-.08-.68-.1-1.04-.05-.71-.09-1.35-.2-1.91-.03-.3-.08-.57-.13-.84l-.12-.5c-.48-1.68-1-3.3-1.93-4.8-.28-.48-.23-.48.3-.32.53.13,1.54.6,2.26,1.54.64.82,1.16,1.72,1.51,2.66l.26.7c.03.07.04.12.03.1h0s0,.01,0,.01c0,.01-.01.04-.02.08-.01.06-.15,1.01.17.84h.02s.01,0,.01,0c0,0,0-.02.02.06.09-.04.19-.15.29-.29l.57-.8c.63-.94,1.3-1.86,2.01-2.74,1.67-2,3.52-3.88,5.57-5.53,1.27-1.01,2.6-1.94,4-2.75,2.1-1.28,4.42-2.16,6.71-2.93.45-.14.89-.3,1.33-.46l1.35-.41c.45-.13.9-.3,1.35-.41l1.38-.28c.41-.07.81-.2,1.22-.23,1.54-.09,2.05.15,2.38,1.09.07.21.17.43.21.64.14.72-.45,1.36-1.46,1.65-2.99.92-5.95,1.56-8.8,2.71-2.1.86-4.14,1.93-6.01,3.31l-.06-.07Z"/><path class="cls-4" d="M146.13,293.71c-1.8,1.67-3.5,3.53-5.09,5.5-.29.36-.55.74-.82,1.12l-.4.57-.48.65-1.28,1.72-1.23,1.54-.6.75c-.11.17-.17.14-.25.18l-.23.09c-.3.12-.6.25-.9.38l-.22.1c-.11-.02-.14-.09-.19-.13-.09-.1-.17-.22-.25-.35-.16-.29-.35-.54-.53-.95-.18-.41-.38-.93-.44-1.68-.06-.75-.08-1.52-.15-2.19-.03-.3-.05-.6-.06-.9l-.08-.81-.15-1.08c-.11-.72-.24-1.43-.39-2.14-.36-1.82-.86-3.57-1.35-5.31-.15-.54.12-.65.71-.39.6.25,1.51.95,2,2,.88,1.85,1.5,3.77,1.9,5.71l.15.73c.02.08.01.09,0,.09,0,0,0,0,0,.01v.03s-.05.12-.07.21c-.04.19-.08.5-.11,1v.22s0,.07,0,.11c.01.03.02,0,.03.01.04-.01.08-.04.13-.09.09-.09.2-.23.31-.39l.32-.47.72-1c1.59-2.12,3.31-4.17,5.18-6.1,1.14-1.19,2.37-2.31,3.63-3.39,1.93-1.62,4.05-3,6.23-4.24,1.71-.92,3.37-1.95,5.22-2.63.4-.16.79-.35,1.21-.49,1.57-.39,2.14-.19,2.62.67.11.2.24.39.32.6.25.69-.25,1.42-1.21,1.88-2.88,1.32-5.76,2.56-8.46,4.33-2,1.3-3.91,2.83-5.67,4.57l-.07-.06Z"/><path class="cls-4" d="M166.29,197.76c-2.25,1.81-4.46,3.74-6.56,5.81-.77.75-1.44,1.6-2.2,2.36l-1.85,1.9-.51.53-.75.82-1.47,1.54-.8.55c-.14.11-.25.15-.35.18l-.32.1-.32.11s-.13.03-.18-.02c-.05-.03-.09-.07-.14-.1-.16-.15-.31-.32-.46-.52-.3-.39-.62-.99-.8-1.83-.17-.84-.3-1.69-.44-2.48l-.13-.8-.11-.63-.25-1.26c-.17-.84-.36-1.67-.55-2.49-.26-1.05-.52-2.1-.78-3.15-.23-1.06-.37-2.13-.5-3.22-.08-.68.15-.68.69-.25.53.42,1.52,1.26,2.06,2.44.79,2.14,1.4,4.3,1.96,6.46l.4,1.62c.05.19.02.12.02.15v.05s-.03.12-.03.12c-.01.1-.02.23-.02.39v.28c.01.05.01.11.04.16.02,0,.03,0,.05.01.07,0,.17-.05.28-.15.11-.06.23-.19.35-.31l.09-.09.24-.28.54-.64c.72-.85,1.44-1.7,2.2-2.52,2.08-2.23,4.26-4.4,6.57-6.43,1.43-1.24,2.91-2.43,4.44-3.56,2.32-1.72,4.82-3.22,7.44-4.48,2.03-.99,4.1-1.95,6.4-2.45.5-.12,1-.23,1.53-.29,1.96-.17,2.59.3,2.86,1.34.06.24.15.49.17.72.05.82-.71,1.37-1.84,1.63-3.37.65-6.66,1.92-9.93,3.8-2.41,1.38-4.76,3.05-6.99,4.91l-.07-.07Z"/><path class="cls-4" d="M379.23,223.23l-9.08-4.13c0-.11-.01-.04-.02-.07-.14-.13-.3.02-.39.13l-.35.46-.49.7c-1.14,1.73-2.11,3.72-2.83,5.72-.36,1-.66,2.03-.78,3.02-.02.13-.02.24-.03.36v.18s-.02.09-.02.09c0,.12,0,.25.03.37.04.25.24.49.52.49.23.01.46-.08.66-.21.07-.03.3-.23.45-.34.17-.14.33-.3.49-.46.63-.66,1.21-1.42,1.77-2.19,1.39-2.03,2.64-4.21,4.01-6.35.52-.63.56-.5.59.26.02.75-.07,2.09-.6,3.51-.46,1.26-1.05,2.47-1.74,3.65-.35.59-.71,1.19-1.13,1.75-.45.56-.92,1.1-1.5,1.63-.13.13-.31.26-.46.39l-.24.19c-.09.07-.26.15-.38.23-.27.15-.53.34-.82.42-.29.09-.57.23-.86.22-.58.11-1.15-.02-1.68-.21-.51-.25-.92-.67-1.22-1.15-.26-.51-.42-1.08-.48-1.68-.05-.69,0-.97.04-1.38.09-.76.26-1.46.46-2.13.48-1.61,1.06-3.16,1.71-4.7.68-1.54,1.38-3.05,2.49-4.5.38-.47.9-1.04,1.47-1.33.29-.14.61-.26.94-.25.33-.05.63.19.96.16l7.62,3.46,5.92,2.66c3,1.33,5.99,2.7,9,3.93,2.34.96,4.7,1.74,7.05,2.59.52.19,1.03.35,1.55.55,1.91.75,2.44,1.19,2.55,2.08.03.2.08.42.07.6-.05.63-1.01.76-2.47.34-4.32-1.26-8.71-3-13.09-4.82-3.25-1.35-6.48-2.78-9.72-4.17l.03-.07Z"/><path class="cls-4" d="M375.55,292.73c-.87,1.55-1.72,3.17-2.12,4.9-.3.85-.36,1.73-.51,2.61-.05.44-.02.87-.04,1.31v.66s.08.64.08.64c.1,1.29.55,2.37,1.15,3.4,1.05,1.81,2.94,3.21,5.1,4.15,2.17.95,4.58,1.57,7.05,1.89,2.19.31,4.43.26,6.64.22,1.42-.05,2.84-.18,4.26-.33,1.42-.13,2.85-.24,4.26-.45.87-.14.84.09.19.61-.66.49-1.95,1.34-3.61,1.84-5.89,1.48-12.21,1.67-18.29-.37-1.79-.66-3.62-1.46-5.28-2.68-.84-.58-1.6-1.33-2.29-2.12-.65-.84-1.25-1.73-1.61-2.73-1.62-4.39-.79-8.91.9-12.78,1.13-2.36,2.61-4.53,4.39-6.41,2.7-2.85,6.14-4.92,9.75-6.23,2.81-.96,5.67-1.83,8.63-2.02.65-.06,1.29-.14,1.95-.18,2.44.07,3.2.45,3.61,1.28.1.2.23.39.27.58.15.63-.86,1.11-2.5,1.26-4.86.34-9.87,1.16-14.1,3.64-3.15,1.76-5.89,4.28-7.78,7.36l-.07-.04Z"/><path class="cls-4" d="M443.69,288.93c-.37.02-.8.01-1.12-.02l-.97-.11c-.65-.11-1.29-.24-1.92-.42-1.27-.37-2.5-.93-3.6-1.7-.8-.57-1.58-1.17-2.2-1.94-1.05-1.37-1.77-2.96-2.05-4.58-.08-.38-.13-.86-.15-1.32.02-.44.04-.88.13-1.29.14-.84.41-1.62.78-2.36.64-1.28,1.5-2.57,2.83-3.3.81-.5,1.8-.77,2.74-.69.47.06.92.12,1.34.31.43.13.81.36,1.19.57.46.28.37.27-.09.25-.23,0-.55-.03-.93.03-.38.08-.8.13-1.2.27-.71.2-1.29.49-1.77.9-.49.4-.87.92-1.26,1.46-.75,1.09-1.23,2.57-1.23,3.82-.01.32.11.83.24,1.25.13.44.3.86.51,1.26.42.81.99,1.51,1.64,2.12,1.42,1.36,3.4,2.15,5.5,2.36.69.06,1.23.11,1.81,0,.58-.1,1.16-.3,1.72-.59.85-.43,1.66-1.01,2.36-1.7.69-.67,1.2-1.47,1.46-2.35.42-1.37.06-2.83-.49-4.17-.11-.3-.29-.58-.41-.88-.25-.56-.39-.94-.37-1.28.04-.34.21-.62.52-.94.14-.15.27-.31.42-.43.25-.21.55-.25.9-.13.35.11.74.38,1.04.83.9,1.34,1.62,2.99,1.76,4.94.17,1.93-.51,4.13-1.75,5.71-.94,1.19-1.94,2.04-3.16,2.8-1.2.74-2.62,1.28-4.18,1.4v-.08Z"/><path class="cls-4" d="M443.33,273.91c-.88.14-1.72.17-2.58.13-.31-.02-.63.02-.94-.04-1.11-.21-2.2-.67-3.09-1.34-.4-.28-.78-.6-1.11-.96-.21-.23-.43-.46-.56-.75-.13-.29-.2-.62-.19-.94.01-.21.26-.25.6-.24.33.02.82.01,1.06.1.38.2.7.39,1.06.54.3.23.6.45.96.7.45.31,1.04.23,1.59.24.61,0,1.29,0,1.94-.11.4-.06.8-.15,1.18-.28.57-.2,1.15-.44,1.57-.85.33-.32.46-.79.54-1.18.02-.09.02-.18.03-.26.1-.28.35-.25,1.14-.03l.54.14c.6.17,1.02.54,1.05,1.03-.04,1.42-1.11,2.54-2.18,3.19-.82.5-1.71.78-2.57.98l-.02-.07Z"/><path class="cls-4" d="M474.29,265.53c.26-1.11.28-2.3,0-3.47-.09-.43-.33-.81-.47-1.24-.29-.73-.63-1.48-1.09-2.17-.47-.68-1.02-1.33-1.67-1.88-.59-.47-1.24-.87-1.92-1.18-.43-.22-.9-.35-1.36-.52l-.35-.1-.34-.19c-.23-.11-.47-.22-.71-.39-.3-.21-.27-.1,0-.22.27-.12.87-.66,1.56-.7,1.16.07,2.36.31,3.44.83,1.05.56,2,1.32,2.75,2.24.88,1.1,1.93,2.17,2.52,3.53.66,1.47.98,3.12.92,4.72-.03.99-.2,1.97-.49,2.92-.44,1.44-1.27,2.77-2.33,3.87-.82.84-1.7,1.7-2.86,2.25-.26.12-.5.26-.79.34-1.05.27-1.46-.03-1.62-1.02-.04-.22-.08-.45-.1-.67-.02-.74.3-1.38.68-1.63,1.14-.76,2.1-1.49,2.89-2.48.59-.75,1.07-1.73,1.26-2.83h.08Z"/><path class="cls-4" d="M410.57,184.53c2.24.54,4.25,1.51,6.06,2.73.67.42,1.33.87,1.94,1.38,2.05,1.91,3.72,4.29,4.46,6.96.15.59.37,1.16.46,1.77.11.6.26,1.18.28,1.78.04.38.06.77.06,1.15l-.11,1.14-.07.57c-.04.19-.11.37-.17.55-.12.36-.25.72-.42,1.07-.21.43-.35.32-.6-.11-.26-.44-.66-1.18-.81-1.95-.1-.68-.19-1.34-.37-1.98-.06-.65-.24-1.27-.38-1.89-.38-1.22-.82-2.42-1.47-3.58-.72-1.44-2.05-2.55-3.37-3.53-1.46-1.09-3.12-1.96-4.88-2.5-1.07-.3-2.2-.51-3.35-.54-1.73-.07-3.53.09-5.14.7-1.26.47-2.32,1.29-3.2,2.16-.2.19-.34.42-.54.6-.67.72-.99.82-1.9.43-.2-.09-.42-.16-.62-.26-.65-.32-.85-1.11-.31-2,.8-1.29,1.99-2.37,3.32-3.15,1.34-.79,2.82-1.31,4.33-1.61,2.24-.46,4.55-.43,6.8.02v.08Z"/><path class="cls-4" d="M379.76,190.69l-.45.32-.39.38c-.26.26-.53.5-.78.76-.42.59-.93,1.13-1.23,1.8-.4.62-.61,1.33-.88,2.02-.15.72-.38,1.44-.4,2.19-.02.27-.05.55-.05.82l.07.82c.02.55.15,1.08.23,1.63.33,1.91,1.14,3.76,2.38,5.3,1.23,1.56,2.92,2.73,4.8,3.52,1.68.68,3.57.86,5.38.68,2.35-.29,4.54-1.11,6.79-2.1.81-.17.75-.15.47.61-.27.74-1.02,2.06-2.46,2.85-.31.17-.63.35-.96.5-.32.16-.65.31-1,.4-.68.23-1.39.39-2.11.51-1.43.24-2.9.29-4.36.11-2.94-.33-5.74-1.79-7.79-3.89-.33-.29-.61-.63-.89-.98-.28-.34-.57-.67-.84-1.02-.46-.75-1.03-1.45-1.38-2.27-.86-1.56-1.34-3.32-1.56-5.07-.21-1.94.07-3.91.63-5.76.56-1.87,1.64-3.54,2.88-4.99l1.26-1.24,1.42-1.04c.47-.35,1.03-.59,1.54-.88.53-.26,1.09-.43,1.63-.65,1.69-.52,3.43-.73,5.16-.72,1.73.06,3.44.37,5.09.91,2.51.88,5,2.4,6.5,4.91.27.57.57,1.12.8,1.72.62,2.31.19,3.09-.58,3.52-.19.1-.37.23-.56.27-.66.15-1.15-.68-1.48-1.89-.56-1.82-1.65-3.25-3.16-4.28-1.5-1.03-3.42-1.69-5.42-1.86-1.48-.14-3-.02-4.43.31-.73.15-1.39.43-2.05.7l-.92.5-.87.66-.05-.06Z"/><path class="cls-4" d="M425.05,276.45c-3.17-.16-6.2-1.45-8.41-3.67-.4-.41-.79-.83-1.14-1.28-.32-.46-.65-.93-.92-1.42-.9-1.79-1.26-3.83-1.1-5.76.16-1.93.82-3.77,1.85-5.33.43-.71.98-1.33,1.51-1.97.59-.57,1.18-1.16,1.86-1.62.87-.59,1.84-1.06,2.86-1.34,1.03-.25,2.12-.21,3.11.13.62.19.51.21.01.51-.25.16-.59.41-.95.73-.36.34-.74.65-1.15.89-.35.25-.73.38-1.07.6-.32.25-.67.45-.97.72-.61.51-1.23,1.01-1.73,1.63-1.03,1.22-1.77,2.69-2.21,4.28-.57,1.95.16,4.06,1.31,5.69,1.21,1.85,3.33,3.12,5.62,3.56,1.41.27,2.89.23,4.26-.18,2.08-.66,4.13-1.97,5.37-3.79.51-.69.79-1.49.98-2.25.03-.39.14-.77.09-1.15l-.02-.55-.11-.53c-.02-.31-.24-.58-.3-.88-.41-1.06-.43-1.51.16-2.32.13-.18.25-.39.39-.56.24-.28.56-.38.97-.27.2.05.42.16.66.32.24.15.48.37.68.68,1.29,1.73,1.61,4.37.93,6.56-.68,2.2-2.05,4.01-3.66,5.42-1.21,1.04-2.59,1.86-4.11,2.43-1.51.58-3.19.86-4.79.82v-.09Z"/><path class="cls-4" d="M408.71,235.96s.09.09.14.06l.06-.02s.01,0,.14-.06c.2-.09.4-.16.61-.22l1.24-.38c.85-.18,1.69-.35,2.56-.4,1.72-.12,3.49.05,5.19.65,1.45.48,2.91,1.35,3.93,2.66l.34.43c.1.15.18.32.27.47.16.32.36.63.48.97.22.68.45,1.36.48,2.05.19,1.38-.05,2.69-.35,3.92-.36,1.24-.87,2.45-1.63,3.46-.71,1.04-1.6,1.93-2.57,2.7-1.73,1.34-3.76,2.32-5.94,2.61-1.4.15-2.83.05-4.18-.39-.63-.31-1.31-.53-1.85-.96-.28-.2-.57-.39-.84-.6-.25-.24-.46-.51-.69-.76-.54-.65-.33-.67.4-.5.38.07.86.21,1.43.32.28.06.57.13.86.22.29.08.62.11.92.21,2.19.62,4.48.24,6.43-.89.96-.57,1.87-1.27,2.63-2.11.76-.84,1.36-1.8,1.87-2.79l.36-.94.21-1.02c.1-.35.05-.68.08-1.02,0-.17.02-.34,0-.5l-.08-.48c-.2-1.28-.88-2.35-1.89-3.1-1.1-.85-2.61-1.34-4.18-1.41-1.57-.09-3.2.18-4.71.75l-.83.37-.52.16c-.17.05-.34.12-.52.09-.36-.04-.69-.2-1.01-.38-.32-.18-.62-.41-.91-.65-.23-.19-.42-.37-.62-.57-.76-.78-1.42-1.63-1.96-2.56-.92-1.57-1.49-3.36-1.61-5.18-.13-1.83.19-3.63.79-5.31,1.02-2.66,2.74-4.87,5.04-6.51.51-.36,1.02-.71,1.61-.97,1.09-.5,1.92-.63,2.51-.56.59.08.93.35,1.17.76.11.19.24.37.29.55.13.63-.64,1.09-1.76,1.59-1.71.76-3.3,2.14-4.5,3.71-.6.79-1.09,1.65-1.39,2.48-.33.9-.53,1.9-.57,2.84-.07,1.41.2,2.82.82,4.12.3.65.68,1.28,1.13,1.85.22.28.46.56.71.81.13.12.25.24.38.35.06.06.03.03.05.05l-.03.08Z"/><path class="cls-4" d="M404.56,222.04c-.89-.09-1.77-.22-2.63-.45-.86-.2-1.68-.49-2.55-.87-.6-.3-1.24-.54-1.78-.95-1.9-1.44-3.17-3.47-3.81-5.62-.24-.96-.5-1.94-.46-2.95.02-.64.08-1.29.27-1.91.09-.31.21-.61.4-.88.19-.27.48-.48.7-.69.31-.26.38-.13.5.28.06.21.16.49.28.79.06.15.17.33.21.47.02.14.03.27,0,.4-.12.94.12,1.84.27,2.75.19.91.53,1.82.99,2.72.55,1.1,1.64,1.85,2.69,2.44.6.32,1.18.6,1.88.8.69.22,1.41.35,2.13.46.89.1,1.8.16,2.69.07,1.36-.12,2.73-.42,3.9-1.09.92-.5,1.6-1.31,2.19-2.09.15-.16.23-.36.37-.53.51-.61.79-.7,1.64-.35.19.08.39.14.57.23.62.29.85.93.56,1.7-.48,1.1-1.24,2.13-2.24,2.91-.99.78-2.14,1.36-3.33,1.77-1.78.59-3.64.77-5.45.67v-.08Z"/><path class="cls-4" d="M438.45,261.92c-1.56.59-3.24.82-4.9.72-1.66-.13-3.29-.63-4.66-1.4-1.02-.55-1.99-1.15-2.83-1.93-1.47-1.36-2.66-3.02-3.4-4.91-.35-.95-.59-1.96-.63-2.99-.05-1.05.12-2.01.35-2.96.41-1.67,1.03-3.28,2.01-4.67.61-.9,1.34-1.75,2.29-2.36.46-.31.97-.57,1.51-.73.27-.08.54-.15.83-.14.28-.01.55-.03.82.03.67.11.55.08.03.28-.26.08-.6.32-.92.63-.15.18-.33.31-.5.48-.16.19-.34.35-.5.55-.31.33-.57.7-.81,1.09-.11.21-.24.38-.36.57l-.34.59c-.43.81-.73,1.69-1.08,2.53-.32.86-.57,1.75-.68,2.63-.12.9-.11,1.67.06,2.56.4,2.11,2.13,4.01,3.97,5.34,2.05,1.53,4.54,2.25,7.01,1.75,1.5-.31,2.97-.98,4.13-2.01,1.8-1.51,2.84-3.85,3.14-6.29.23-1.89-.12-3.79-.73-5.48-.12-.38-.33-.71-.46-1.08-.56-1.32-.66-1.74-.17-2.51.11-.17.2-.37.32-.53.21-.26.51-.33.89-.2.4.13.85.48,1.28,1.04,1.24,1.69,1.87,3.79,2.07,5.89.2,2.12-.04,4.31-.78,6.42-.54,1.55-1.42,3.13-2.66,4.35-1.21,1.24-2.67,2.18-4.25,2.8l-.03-.07Z"/><path class="cls-4" d="M476.51,282.96c-.11.37-.29.68-.46,1.01-.18.32-.33.65-.53.95-.41.62-.88,1.19-1.41,1.7-1.05,1.01-2.3,1.77-3.62,2.25-.96.34-1.93.67-2.95.72-1.78.09-3.59-.21-5.16-1.02-1.6-.79-2.85-2-3.84-3.33-.86-1.19-1.61-2.5-1.97-3.94-.25-.91-.38-1.89-.27-2.86,0-.49.18-.96.38-1.4l.35-.63c.12-.21.33-.37.51-.53.54-.35.39-.31.49.24.09.57.53,1.49.62,2.24.02.69.18,1.37.41,2.02l.19.49c.08.16.17.32.23.48.14.32.3.64.48.95.72,1.24,1.71,2.39,2.87,3.22,1.41,1.01,3.4,1.17,5.15.8,1.94-.38,3.78-1.49,4.78-3.23.66-1.08,1-2.29.94-3.51-.05-.92-.28-1.86-.77-2.7-.2-.44-.52-.82-.8-1.22-.35-.35-.65-.75-1.05-1.05-1.18-1.01-2.67-1.56-4.12-1.9-.32-.06-.64-.13-.96-.19-1.19-.29-1.54-.49-1.78-1.36-.05-.19-.13-.39-.17-.58-.12-.63.5-1.14,1.68-1.24,1.75-.16,3.54.33,5.21,1.12,1.67.81,3.22,2.03,4.36,3.69.84,1.22,1.52,2.65,1.73,4.22.21,1.55.11,3.19-.46,4.61l-.08-.02Z"/><path class="cls-4" d="M447.78,274.53c-.7-.63-1.31-1.4-1.85-2.21-.24-.44-.49-.86-.67-1.33-.17-.48-.35-.96-.43-1.39-.15-.64-.34-1.26-.39-1.9-.22-2.25.1-4.51.9-6.6.38-.92.76-1.85,1.38-2.65.2-.25.42-.49.63-.74.22-.23.48-.44.73-.64.55-.33,1.12-.67,1.79-.67.41-.02.36.05.2.42-.08.18-.16.49-.28.73-.11.27-.22.58-.38.81l-.42.61c-.13.2-.23.43-.35.64-.2.44-.35.9-.56,1.34-.37.9-.64,1.9-.86,2.95-.29,1.26-.09,2.65.16,3.94.12.72.33,1.43.55,1.99.29.58.64,1.16,1.14,1.67.57.65,1.29,1.21,2.06,1.68,1.17.7,2.49,1.27,3.86,1.48,1.06.18,2.14-.02,3.1-.25.22-.04.42-.12.62-.18.39-.08.64-.09.85.01.22.11.41.35.64.74.11.18.23.35.33.54.33.61.13,1.28-.63,1.72-1.11.57-2.38.85-3.63.83-1.25-.02-2.49-.28-3.68-.66-1.76-.6-3.4-1.55-4.85-2.81l.05-.06Z"/><path class="cls-4" d="M464.02,254.23c2.55-1.48,4.72-3.87,5.35-6.68.22-1.02.15-2.08-.03-3.14-.3-1.88-1.19-3.73-2.51-5.25-1.33-1.53-3.08-2.77-5-3.65-1.72-.78-3.56-1.21-5.41-1.26-1.19-.05-2.35.16-3.46.45-1.12.26-2.24.71-3.19,1.48-.6.48-.61.38-.35-.29.26-.64.9-2.03,2.37-2.95.32-.18.65-.39.99-.52.35-.11.7-.24,1.06-.31.72-.19,1.44-.28,2.17-.34,1.45-.1,2.9,0,4.3.35,2.77.74,5.32,2.06,7.43,4.04,2.49,2.32,4.63,5.53,4.92,9.21.16,2.01-.27,4.07-1.15,5.83-.88,1.77-2.11,3.31-3.58,4.53-1.79,1.53-3.91,2.62-6.13,3.28-3.36,1-7.09.91-10.38-.45-2.55-1.07-4.84-2.77-6.4-5.18-.34-.53-.68-1.06-.9-1.67-.41-1.13-.5-1.94-.38-2.51.11-.57.42-.9.91-1.14.22-.11.44-.25.66-.3.77-.16,1.33.61,1.83,1.73.8,1.66,1.9,3.16,3.35,4.3,1.43,1.15,3.11,1.89,5.01,2.15,2.79.39,5.92-.24,8.46-1.79l.05.07Z"/><path class="cls-4" d="M456.16,223.79c.3,2.99-.31,6.01-1.78,8.57-.54.93-1.13,1.85-1.89,2.61-2.7,2.71-6.53,3.84-10.03,3.49-1.56-.15-3.13-.44-4.53-1.15-.9-.44-1.75-.99-2.48-1.68-.4-.31-.66-.75-.95-1.15-.15-.2-.27-.41-.37-.64-.09-.23-.24-.43-.28-.69-.02-.69-.04-.56.6-.41.33.06.68.21,1.09.36.21.07.44.13.66.21.11.04.21.09.33.12.09.06.19.12.27.19,2.71,1.63,5.8,2.15,8.95,1.51.96-.13,1.84-.61,2.66-1.14.77-.6,1.49-1.27,2.05-2.05,1.33-1.65,2.02-3.86,2.04-6.08,0-1.37-.22-2.76-.74-4.04-.75-1.93-2.21-3.58-4.12-4.45-1.48-.69-3.15-.71-4.71-.61-.35.02-.69.09-1.03.13-.32.02-.59.05-.82.05-.23,0-.43-.07-.6-.13-.34-.13-.58-.38-.84-.78-.12-.18-.26-.36-.35-.54-.31-.59.14-1.36,1.29-1.87,3.41-1.4,8-.76,11.34,2.02,1.23,1.02,2.25,2.32,2.97,3.74.7,1.39,1.15,2.88,1.38,4.39l-.09.02Z"/><path class="cls-4" d="M438.98,207.69c-.81-1.54-2.22-2.86-3.93-3.72-.63-.31-1.31-.48-1.99-.68-2.38-.71-5.05-.72-7.54.17-1.09.41-2.12,1-3.02,1.73-.58.47-1.09,1.01-1.63,1.53-.24.28-.53.54-.76.84-.11.15-.26.29-.41.42l-.4.45c-.35.37-.37.31-.4-.17,0-.24-.07-.61-.07-1.06.02-.43.12-.92.35-1.39.74-1.72,2.18-2.99,3.69-4.03,1.58-.95,3.38-1.51,5.21-1.69,2.18-.21,4.49-.18,6.62.5,2.33.74,4.49,2.13,6.05,4.07.96,1.19,1.66,2.57,2.08,4.02.65,2.2.54,4.63-.36,6.77-.68,1.65-1.66,3.2-3.15,4.37-.32.26-.65.51-1.03.7-.71.34-1.25.42-1.64.35-.39-.06-.65-.35-.86-.76-.1-.19-.21-.36-.26-.54-.17-.6.22-1.3.82-1.72,1.76-1.32,3.19-3.11,3.5-5.21.25-1.57-.06-3.38-.95-4.91l.07-.04Z"/><path class="cls-4" d="M442.47,447.29c-2.23.22-4.46.46-6.74.61-1.14.08-2.3.13-3.5.11-.6,0-1.23-.06-1.88-.14l-.55-.11c-.24-.05-.49-.09-.71-.21-.44-.2-.89-.39-1.29-.69-.35-.56-.65-1.15-.7-1.87l-.04-.26-.02-.16-.04-.3-.08-.61-.29-2.41c-.25-2.21-.61-4.4-.84-6.6-.83-7.77-1.7-15.54-2.85-23.26-.52-3.42-1.11-6.86-1.8-10.22-.9-4.32-1.98-8.59-2.92-12.87-.18-1.37.02-1.27.85-.32.81.96,2.07,2.88,2.82,5.36,1.23,4.41,2.19,8.86,3.03,13.34.79,4.48,1.39,9,1.89,13.54.59,5.43,1.49,11.04,2.16,16.58l.5,4.45.25,2.22.12.96c.04.15-.01.33.12.41.12.1.26.14.42.18.19.05.61.11.94.14.71.07,1.47.07,2.22.05,1.53-.04,3.08-.17,4.64-.3,3.76-.37,7.51-.74,11.27-1.11,5.71-.53,11.49-.81,17.2-.77,4.44.06,8.83.15,13.23.77.97.13,1.92.24,2.89.44,3.6.73,4.66,1.34,5.15,2.36.11.23.28.48.32.68.13.71-1.41.77-3.93.3-7.49-1.37-15.52-1.83-23.64-1.59-6.03.17-12.1.71-18.21,1.36l-.02-.07Z"/><path class="cls-4" d="M434.22,333.35c.21-.17.51-.14.78-.06.09.03.17.19.12.26-.09.13-.17.28-.26.42-.03.03-.28.36-.6.69-.33.33-.75.7-1,.89-.47.37-1.08.63-1.67.76-1.24.32-2.45.15-3.51-.11-.24-.06-.46-.14-.67-.25-.71-.38-1.41-.63-2.09-.76-.11-.02-.22-.06-.35,0-.11.05-.59-.02-1.03-.05-.45-.03-.81-.04-.89-.06-.43-.16-.92-.15-1.37-.08-.06.01-.1.07-.21,0-.25-.14-.36-.03-.49.03-.18.09-.35.2-.54.32-.1.06-.27.08-.41.15-.14.06-.43-.11-.45-.17-.05-.16-.24-.13-.38-.17-.05-.01-.11-.03-.14-.05-.04-.02-.04-.57.19-1.15.21-.58.61-1.14.72-1.18.02-.03.7-.52,1.5-.8.79-.3,1.67-.38,1.86-.39.19-.03.36.05.53.11.04.01.65.03,1.22.13.57.09,1.1.22,1.14.24.4.17.82.23,1.11.58.06.07.14.09.21.11.64.21,1.19.51,1.75.73.29.11.58.15.86.2.05,0,.1.05.15.07.06.02.12.07.19.08.66.13,1.31.23,1.93-.02.13-.03.97-.2,1.16-.34.1-.07.58-.04.66-.12Z"/><path class="cls-4" d="M405.82,380.85c.49.34.71.83.85,1.28.05.14-.11.26-.25.18-.27-.17-.56-.3-.85-.44-.09-.04-.77-.46-1.62-.73-.85-.27-1.76-.54-2.26-.59-.93-.14-1.86-.22-2.78-.24-1.87-.12-3.77.17-5.64.64-.42.11-.84.19-1.27.25-1.47.23-2.94.66-4.47,1.22-.26.09-.53.15-.75.34-.18.15-1.36.56-2.69.83-1.32.28-2.78.29-3.11.23-1.72-.25-3.33-.82-4.72-1.78-.2-.13-.45-.23-.55-.47-.25-.53-.65-.82-1-1.21-.47-.54-.85-1.18-1.03-1.88-.09-.35-.04-.73,0-1.07.03-.31.45-.25.52-.18.2.22.32-.05.47-.11.05-.02.12-.05.17-.05.05,0,.51.65,1.18,1,.6.42,1.33.6,1.44.7.02,0,.22.14.56.3.34.15.82.33,1.33.44,1.03.23,2.1.13,2.36.08.24-.04.5.01.76.03.06,0,.94-.16,1.84-.44.9-.27,1.84-.63,1.92-.64.78-.19,1.53-.56,2.42-.54.18,0,.34-.06.5-.11,1.42-.44,2.94-.6,4.45-.72.77-.06,1.55-.14,2.33-.15.14,0,.28.03.42.05.18.02.36.06.53.06,1.86,0,3.71.49,5.44,1.12.43.12,2.16,1.23,2.51,1.57.23.16.78.9.97,1.04Z"/><path class="cls-4" d="M220.71,296.35c-1.63.42-3.2,1.02-4.78,1.64-.85.34-1.81.78-3.11.88-.65.04-1.42-.04-2.12-.39-.66-.33-1.27-.84-1.67-1.53-.29-.48-.45-1.07-.5-1.54-.06-.49-.04-.92,0-1.32.08-.8.26-1.49.46-2.14.35-1.13.74-2.16.91-3.08.08-.45.11-.87.05-1.15-.05-.28-.15-.47-.38-.66-.2-.16-.43-.26-.8-.25-.36,0-.79.11-1.23.29-.9.36-1.74.98-2.68,1.66-1.62,1.17-3.18,2.41-4.54,3.78-.88.88-1.66,1.83-2.36,2.81-.7.99-1.31,2.01-1.94,3.06-.38.65-.82.45-1.11-.4-.15-.43-.22-1.01-.2-1.71.06-.67.3-1.42.73-2.11,1.55-2.45,3.59-4.41,5.68-6.12,1.06-.87,2.11-1.61,3.26-2.41.62-.41,1.28-.79,2.03-1.1.76-.29,1.61-.55,2.63-.48.6.04,1.25.22,1.81.56.55.34,1,.78,1.34,1.35.68,1.16.62,2.36.51,3.27-.27,1.86-.89,3.41-1.14,4.77-.07.36-.1.71-.08.97.02.27.06.37.15.51.22.27.53.44,1.14.36.62-.08,1.36-.41,2.19-.76.85-.34,1.69-.71,2.56-.99,2.13-.75,4.31-1.33,6.52-1.72,3.34-.64,6.76-.78,10.12-.71,2.61.07,5.2.18,7.78.62.57.1,1.14.14,1.69.35,1.04.31,1.66.69,2.07,1.02.41.33.6.64.7,1.02.05.17.13.35.13.5.03.49-.92.62-2.43.54-1.13-.03-2.22-.17-3.31-.33-1.1-.14-2.2-.29-3.32-.37-2.23-.2-4.49-.28-6.76-.19-3.36.17-6.74.61-9.98,1.6l-.03-.07Z"/><path class="cls-4" d="M372.96,230.46c.1-.47.22-.73.35-1.04.13-.29.26-.55.4-.82.28-.52.58-1.01.9-1.5.23-.35.42-.74.7-1.08.12-.15.25-.3.38-.45l.21-.22c.09-.09.2-.21.31-.3.43-.37.91-.77,1.46-.62.25.04.51.16.76.27.13.06.25.13.37.2l.23.14.88.59c.52.35,1.06.65,1.6.95.35.19.7.37,1.02.61.33.22.64.48.9.82.17.21.11.24-.16.3-.2.05-.4.1-.56.14-.22.04-.46.04-.69-.01-.83-.15-1.54-.52-2.28-.83-.37-.16-.73-.34-1.08-.52-.17-.1-.35-.17-.52-.29-.07-.05-.2-.13-.21-.15-.01-.03-.03-.05-.05-.08-.04-.06-.11-.15-.19-.13-.07.02-.13.07-.19.13-.02.02-.2.25-.32.41l-.38.56c-.56.84-1.09,1.77-1.46,2.68-.05.14-.1.27-.14.4l-.04.15v.02s.06.01-.09,0c-.18,0-.38.03-.47.05-.12.04-.13.08-.13.07h0c.08-.3-.17.67.17-.67h0s0,0,0,0h0s0,0,0,0h.02s.04.03.09.02c.09,0,.18,0,.3-.05.73-.21,1.57-.81,2.19-1.5.49-.55.85-1.2,1.16-1.83.07-.14.11-.29.18-.42.24-.5.44-.56,1.05-.47.13.02.26.02.38.05.37.05.74.5.62,1.06-.35,1.64-1.28,3.05-2.64,4.1-.5.4-1.06.76-1.78,1.06-.36.14-.78.27-1.32.3-.12.01-.28,0-.44-.02l-.23-.03-.12-.02h-.06s-.06-.03-.06-.03c-.06-.02-.13-.04-.19-.07-.25-.1-.49-.31-.6-.45-.12-.13-.26-.39-.27-.47-.04-.1-.07-.21-.09-.32-.02-.1-.02-.13-.02-.21,0-.14,0-.22,0-.3,0-.09.02-.15.03-.21h.06Z"/><path class="cls-4" d="M370,251.1c-.68.49-1.41.93-2.18,1.26.17-.07-.28.1-.36.13-.19.07-.38.13-.58.18s-.39.1-.58.14c-.1.02-.19.04-.29.05-.27.05.05,0-.11.02-.39.04-.77.06-1.16.04-.1,0-.19-.01-.29-.02-.03,0-.31-.04-.16-.01s-.13-.03-.15-.03c-.09-.02-.19-.04-.28-.06-.19-.04-.37-.1-.55-.16-.09-.03-.18-.06-.27-.1-.23-.09.18.09-.04-.02-.38-.18-.74-.4-1.09-.64-.64-.46-1.7-.13-2.05.54-.41.77-.15,1.56.54,2.05,3.39,2.42,7.94,1.53,11.13-.77.66-.47.98-1.31.54-2.05-.38-.65-1.39-1.01-2.05-.54h0Z"/><path class="cls-4" d="M387.08,216.18c-.8-1.01-1.71-1.9-2.76-2.65-1.22-.88-2.66-1.47-4.12-1.81-.76-.18-1.66.24-1.85,1.05s.23,1.65,1.05,1.85c.36.09.72.19,1.08.3.17.06.35.12.52.19l.09.04q.12.05,0,0c-.12-.05-.12-.05,0,0l.09.04c.57.26,1.12.58,1.63.94.06.04.11.08.17.13.15.11-.27-.22-.07-.05.11.09.21.17.32.26.21.19.42.38.62.58.4.4.76.83,1.11,1.27.22.28.72.44,1.06.44.37,0,.81-.16,1.06-.44s.46-.66.44-1.06c-.02-.42-.18-.73-.44-1.06h0Z"/><path class="cls-4" d="M414.32,140.85c-.15.48-.43.94-.76,1.31-.29.32-.63.59-.99.8-.69.4-1.41.58-2.07.66-1.33.15-2.52.01-3.74-.3-.87-.24-1.76-.53-2.55-1.04-.34-.23-.67-.5-.97-.79-.28-.32-.55-.64-.82-.96-.23-.36-.43-.75-.63-1.12-.12-.42-.28-.83-.34-1.26-.25-1.75.45-3.41,1.47-4.57.92-1.03,2.06-1.86,3.33-2.28.4-.16.82-.25,1.25-.32.42-.11.86-.08,1.28-.07.85.05,1.68.29,2.42.64.47.21.34.33-.12.44-.23.06-.54.13-.88.19-.35.11-.74.23-1.13.29-.69.2-1.34.35-1.94.63-.3.15-.6.28-.86.47l-.42.23-.38.29c-1.04.76-1.73,1.87-1.89,3.01-.07.69.2,1.39.66,2,.3.27.54.58.88.8.33.23.68.44,1.06.62.82.4,1.77.63,2.73.71.96.07,1.93-.03,2.53-.42.1-.07.2-.14.28-.23.08-.08.12-.13.17-.21.09-.15.14-.34.11-.52-.05-.29-.29-.51-.57-.61-.65-.25-1.6-.16-2.04.3-.53.49-.69,1.33-.46,2.12.33,1.24,1.53,2.11,2.71,2.56.26.11.54.17.81.26.99.34,1.31.65,1.56,1.17.06.12.14.24.17.36.13.36-.4.79-1.54.92-1.67.07-3.39-.69-4.66-2.06-1.26-1.33-2.17-3.61-1.15-5.85.35-.71.82-1.29,1.58-1.76.72-.43,1.45-.59,2.17-.61.36,0,.72.02,1.07.1.18.04.36.08.54.15.22.07.43.17.64.28.82.43,1.42,1.2,1.63,2.08.11.53.09,1.09-.07,1.61h-.06Z"/><path class="cls-4" d="M302.59,64.69c-.4.39-.71.76-.92,1.19-.21.42-.3.84-.28,1.16.03.32.14.57.38.8.25.23.67.42,1.16.5.35.06.74.04,1.1-.03.36-.06.69-.2,1.08-.36,2.6-1.11,4.64-4.54,3.91-7.68-.24-1.44-.93-2.84-1.86-3.94-.61-.71-1.36-1.25-2.15-1.68-.79-.46-1.7-.72-2.66-.75-.6-.05-.59-.25-.07-.58.26-.18.66-.39,1.19-.5.27-.08.56-.13.88-.12.32,0,.67,0,1.01.1,1.25.25,2.3,1.02,3.18,1.85.87.85,1.57,1.85,2.1,2.92.54,1.07.88,2.25.97,3.48.04.62.04,1.25-.07,1.9-.09.63-.26,1.2-.47,1.78-.51,1.35-1.23,2.65-2.23,3.77-1,1.12-2.29,2.02-3.85,2.43-.86.21-1.75.24-2.63.09-.88-.16-1.78-.53-2.51-1.23-.73-.7-1.17-1.72-1.19-2.68-.03-.97.24-1.84.63-2.59.24-.46.54-.9.88-1.27.33-.37.66-.73,1.06-1.04.77-.64,1.67-1.13,2.62-1.41,1.44-.45,2.97-.45,4.37-.13,1.41.31,2.73.87,3.93,1.6,1.87,1.16,3.49,2.56,4.77,4.42.28.41.55.82.76,1.29.71,1.77.47,2.5-.21,2.93-.16.1-.32.22-.48.28-.57.18-1.04-.41-1.52-1.32-.73-1.35-1.67-2.61-2.89-3.73-1.18-1.11-2.52-1.97-4.01-2.45-2.2-.74-4.46-.47-5.92,1.07l-.05-.05Z"/><path class="cls-4" d="M38.71,255.45c.03.23.12.47.73.55.6.06,1.4-.22,1.93-.63.44-.35.76-.87,1.04-1.4,1.04-1.89.79-4.8-1.1-6.27-.41-.33-.89-.59-1.4-.75-.51-.18-1.05-.3-1.6-.32-1.39,0-2.83.21-4.11,1-.4.24-.49.1-.34-.36.14-.46.59-1.32,1.52-1.88.81-.48,1.74-.8,2.7-.83.95-.05,1.95.03,2.87.39.92.35,1.8.9,2.5,1.64.7.74,1.21,1.63,1.5,2.56.66,2.2.67,4.72-.59,6.82-.35.57-.76,1.07-1.3,1.54-.54.46-1.16.78-1.81,1-.65.21-1.34.32-2.07.27-.72-.06-1.51-.29-2.13-.83-.77-.63-1.2-1.64-1.2-2.55-.01-.92.28-1.76.78-2.47.79-1.11,1.98-1.66,3.11-1.9,1.15-.23,2.28-.2,3.37,0,1.69.29,3.35.86,4.77,1.92.31.23.62.46.9.75,1,1.08,1.03,1.66.53,2.27-.12.14-.22.3-.36.41-.47.37-1.09.16-1.71-.33-.93-.75-1.95-1.31-3-1.74-1.05-.41-2.2-.62-3.25-.54-.78.06-1.42.29-1.79.62-.31.23-.51.84-.44,1.07l-.07.02Z"/><path class="cls-4" d="M206.25,82.49c-.69,2.65-4.9,5.32-6.84,2.23-1.92-3.05,1.98-6.53,5.1-5.29,1.66.66,2.06,1.86,1.75,3.06Z"/><path class="cls-2" d="M233.64,99.44c-.02.78-.36,1.6-1.13,2.25-3.21,2.73-6.87-1.82-3.12-4.42,2.31-1.6,4.31.18,4.25,2.17Z"/><path class="cls-2" d="M475.42,133.52c.01,1.6-.98,3.19-3.04,3.19-2.68,0-4.18-3.24-2.41-5.28,1.97-2.27,5.42-.77,5.45,2.09Z"/><path class="cls-4" d="M447.59,153.02c0,1.33-1.07,2.4-2.4,2.4-6.7,0,2.4-9.22,2.4-2.4Z"/><path class="cls-4" d="M119.39,228.92c.02.36,0,.74-.05,1.13-.96,6.63-10.88,1.59-6.72-3.94,2.47-3.28,6.54-.92,6.77,2.81Z"/><path class="cls-2" d="M61.54,217.35c.57,1.33.14,2.63-2.62,2.64-1.46,0-2.65-1.19-2.65-2.65,0-4.8,4.24-2.36,5.27.01Z"/><path class="cls-2" d="M253.21,336.75c.08.34.29,1.78.05,2.17-1.49,2.46-6.35,2.54-6.67-.07-.43-3.51,6.15-4.09,6.61-2.1Z"/><path class="cls-4" d="M261.38,349.63c.06.25.22,1.32.04,1.6-1.16,1.82-4.93,1.88-5.18-.05-.34-2.59,4.78-3.02,5.14-1.55Z"/></svg>