<?xml version="1.0" encoding="UTF-8"?><svg id="Layer_1" xmlns="http://www.w3.org/2000/svg" width="520" height="520" viewBox="0 0 520 520"><defs><style>.cls-1{opacity:.25;}.cls-1,.cls-2,.cls-3{fill:#231f20;stroke-width:0px;}.cls-2{opacity:.6;}</style></defs><path class="cls-3" d="M253.33,152.2c-1.14,7.66,8.48,11.46,14.75,10.84.94-.09,1.75-.74,1.75-1.75,0-.87-.8-1.84-1.75-1.75-.66.07-1.33.08-2,.04-.35-.02-.71-.05-1.06-.09.42.05-.23-.04-.31-.05-.16-.03-.31-.05-.46-.09-.73-.14-1.45-.34-2.16-.57-.35-.12-.7-.25-1.04-.39.34.15-.25-.12-.3-.15-.16-.08-.33-.16-.49-.25-.32-.17-.63-.35-.93-.54-.15-.09-.29-.19-.44-.29-.08-.06-.16-.12-.24-.18.14.11.16.12.06.05-.26-.21-.51-.44-.75-.68-.11-.12-.23-.24-.33-.36-.06-.07-.12-.14-.18-.21.12.16.14.18.07.08-.18-.26-.33-.53-.49-.81-.22-.39.04.19-.07-.13-.05-.15-.1-.29-.15-.44s-.07-.3-.11-.46c-.08-.34,0,.32-.01-.14,0-.16-.01-.33,0-.49,0-.09.07-.7,0-.26.14-.93-.23-1.88-1.22-2.15-.83-.23-2.01.28-2.15,1.22h0Z"/><path class="cls-1" d="M274.54,398.89c-.39-2.36-8-10.36-27.57-18.76-19.57-8.4-55.68-24.17-62.47-34.13-2.48-3.64-3.69-8.81-3.69-8.81l5.34.63,19.15,3.76c2.77.54,5.44-.73,7.16-2.96.3-.39.63-.58.98-.4,1.41.71,3.95-2.78,5.58-7.48,1.63-4.7,3.98-11.31,5.95-11.46,6.81-.52,18.68,13.81,18.68,13.81,0,0,10.07,8.2,12.05,8.13s-.63-5.5-.63-5.5l-4.81-12.09,12.81,5.86s10.84,3.02,13.05,2.77,1.69-1.52-.85-4.46c-2.54-2.94-9.4-9.33-9.4-9.33,0,0,6.85-1.31,9.4-1.03s9.4-2.34,7.52-4.61c-1.88-2.28-16.93-4.61-16.93-4.61,0,0,5.72-3.27,8.02-3.71,2.3-.44,5.9-6.33,5.76-7.88-.14-1.55-19.95,2.39-19.95,2.39,0,0-11.08.75-12.75.2s1.62-3.69,3.24-5.82,5.53-11.04,4.87-13.77-6.28,3.05-6.28,3.05c0,0-12.91,13.5-15.25,15.3s-9.37,2.08-14.52,1.03-5.58,2.27-5.58,2.27l3.48-10.05-22.14-4.4s-28.54-7.64-32.67-9.34-10.7-8.9-11.45-12.49-2.54-20.43-2.76-24.43c-.22-4,5.39-20.05,20.94-35.76s41.04-12,50.18-10.91c18.6,2.21,44.98,21.91,48.2,23.51,3.23,1.6,25.87-15.47,25.87-15.47,57.33-8.2,72.55,40.19,70.91,46.12,0,0-9.52.69-8.34,3.24s3.98,5.28,3.98,5.28c0,0,6.39,3.19,4.45,4.54-1.94,1.35-16.3-4.41-14.76-1.37,1.55,3.03,7.1,10.14,7.1,10.14,0,0-13.5-1.06-12.85.8.65,1.86,16.09,8.04,16.09,8.04,0,0-.72,6.47-3.03,8.1-2.31,1.63-7.3,6.56-2.19,7.56,2.19.43-5.11,31.14-58.91,69.38-28.2,20.05-21.02,35.12-21.02,35.12Z"/><path class="cls-3" d="M160.3,272.52c1.89,1.41,4.06,2.66,6.19,3.84.78.42,1.6.77,2.4,1.16,2.82,1.4,5.76,2.59,8.77,3.62,1.34.45,2.71.83,4.06,1.18.87.22,1.74.48,2.61.73.86.28,1.71.64,2.55.97.53.22.42.32-.09.42-.51.08-1.46.27-2.53.22-.93-.12-1.84-.28-2.76-.47-.9-.23-1.8-.47-2.7-.73-1.79-.52-3.57-1.13-5.32-1.84-2.09-.86-4.32-1.59-6.43-2.56-2.32-1.09-4.53-2.27-6.72-3.6-1.34-.82-2.64-1.75-3.86-2.79-1.82-1.6-3.37-3.55-4.54-5.65-.94-1.61-1.73-3.27-2.38-5-.13-.38-.28-.75-.41-1.14-.39-1.46-.27-1.98.27-2.41.13-.1.25-.22.38-.29.44-.23.97.27,1.38,1.24,1.16,2.89,2.32,5.83,4.15,8.28,1.33,1.84,3.05,3.38,4.98,4.78l-.03.05Z"/><path class="cls-3" d="M184.76,338.31c1.4.61,2.82,1.18,4.25,1.73.53.19,1.07.32,1.6.51,1.86.65,3.75,1.27,5.65,1.84.85.24,1.71.43,2.57.6,1.1.2,2.19.52,3.28.85.34.11.28.21-.04.31-.32.1-.9.27-1.57.29-1.18.04-2.33-.12-3.48-.33-1.15-.19-2.29-.45-3.41-.79-1.33-.45-2.77-.71-4.14-1.13-1.51-.45-3-.97-4.47-1.55-.9-.36-1.8-.72-2.69-1.11-1.36-.56-2.68-1.23-4.01-1.83-1.03-.48-2.11-.83-3.12-1.33-.22-.11-.45-.2-.67-.33-.8-.48-.97-.77-.86-1.32.02-.12.04-.26.08-.37.14-.38.63-.48,1.28-.28,1.94.53,3.71,1.5,5.58,2.34,1.39.63,2.77,1.29,4.2,1.85l-.02.05Z"/><path class="cls-3" d="M276.66,415.78c-.24.31-.55.62-.8.83-.26.22-.52.42-.77.62-.19.14-.34.32-.53.46-.64.5-1.35.91-1.98,1.4-.28.22-.52.47-.75.73-.29.34-.54.69-.82,1.04-.09.11-.2.05-.27-.13-.07-.17-.13-.47-.02-.74.4-.94.99-1.76,1.72-2.39.43-.39.84-.81,1.24-1.21.45-.42.95-.85,1.3-1.24.21-.25.39-.53.51-.83.18-.46.29-.97.18-1.46-.1-.37-.3-.7-.51-.99-.05-.06-.1-.13-.15-.19-.13-.27-.06-.46.16-.75l.15-.2c.17-.2.45-.25.81-.12.48.24.84.67,1.14,1.16.29.5.31,1.11.29,1.68-.06.86-.4,1.67-.87,2.34l-.04-.02Z"/><path class="cls-3" d="M266.36,390.39c1.05,1.03,2.01,2.15,2.95,3.28.33.43.72.79,1.03,1.25.56.77,1.05,1.6,1.48,2.48.22.43.41.9.57,1.39.16.52.25,1,.3,1.48.04.44.09.89.03,1.38-.04.48-.2,1.03-.56,1.43-.45.52-.99.79-1.46,1.02-.48.23-.92.4-1.44.53-.31.09-.36-.01-.26-.36.05-.18.13-.42.26-.71.14-.26.36-.48.61-.65.45-.29.83-.57.96-.8.12-.21.16-.37.19-.76,0-.38-.05-.83-.14-1.3-.09-.45-.2-.82-.39-1.29-.44-1.09-1.32-2.06-2.07-3.06-.86-1.1-1.8-2.15-2.77-3.17-.61-.62-1.24-1.23-1.88-1.81-.99-.87-1.99-1.74-3.1-2.45-.43-.28-.86-.53-1.32-.73-.45-.23-.9-.43-1.36-.61-.2-.09-.4-.16-.6-.26-.74-.31-.92-.53-.92-1.03,0-.11-.01-.23,0-.34.05-.36.48-.5,1.12-.36,1.92.42,3.7,1.44,5.34,2.58,1.23.85,2.37,1.81,3.44,2.84l-.03.04Z"/><path class="cls-3" d="M198.19,327.68c-.14.16-.29.31-.41.47-.04.06,0,.13-.06.18-.18.2-.41.39-.56.6-.07.09-.05.19-.04.29.02.13.15.28-.16.36-.19.05-2.57-.37-2.65-.53-.13-.28.02-.52.42-.73.24-.12.13-.3.2-.45.08-.17.18-.33.28-.49.06-.1.12-.2.17-.3.08-.15.2-.3.19-.47,0-.13-.22-.28-.25-.41,0-.03-.03-.06-.02-.08.05-.1.26-.1.89-.04l.43.04c.48.06.89.15,1.1.26.74.32.69.55.72.8,0,.18-.08.34-.17.51h-.07Z"/><path class="cls-3" d="M309.7,373c-1.85,1.19-3.68,2.39-5.48,3.66-.66.45-1.27.98-1.92,1.44-2.34,1.59-4.67,3.21-6.9,4.95-1,.77-1.99,1.55-2.96,2.34l-1.85,1.54c-.64.49-1.32.93-1.99,1.39-.43.28-.41.19-.2-.21.22-.39.56-1.17,1.1-1.96,1.1-1.24,2.25-2.44,3.43-3.6.58-.6,1.24-1.09,1.89-1.61.65-.51,1.32-1.01,2.01-1.49,1.63-1.15,3.17-2.54,4.82-3.74,1.81-1.32,3.66-2.59,5.52-3.83l3.46-2.26c1.75-1.14,3.54-2.22,5.27-3.35,1.35-.88,2.6-1.84,3.92-2.75.29-.2.56-.42.86-.6,1.16-.62,1.61-.67,2.14-.32.12.08.25.15.35.23.31.28.05.9-.67,1.55-2.16,1.88-4.69,3.39-7.18,5.03-1.86,1.19-3.73,2.38-5.57,3.62l-.04-.05Z"/><path class="cls-3" d="M320.93,372.57s.38-3.96-2.91-5.2c-2.44-.92-10.85,3.46-13.37,5.55-4.53,3.75,16.28-11.7,16.28-11.7v11.34Z"/><path class="cls-3" d="M353,264.1c.36.57.76,1.11,1.24,1.62.17.19.39.32.57.5.63.65,1.28,1.35,2.03,1.93.33.26.7.47,1.07.67.23.15.46.28.69.43.2.19.39.41.55.69.09.18.03.26-.21.39-.24.14-.67.38-1.05.4-.3-.05-.56-.15-.84-.23-.27-.1-.51-.26-.76-.41-.49-.3-.96-.65-1.38-1.07-.5-.5-1.17-.83-1.69-1.34-.58-.55-1.12-1.16-1.6-1.81-.3-.4-.57-.81-.82-1.24-.39-.64-.7-1.33-1.01-2.01-.25-.52-.55-1.04-.75-1.61-.05-.12-.11-.25-.13-.38-.1-.49.05-.67.59-.8.12-.03.25-.07.37-.09.42-.06.79.09.95.34.52.77.86,1.49,1.23,2.27.29.57.6,1.15.99,1.69l-.04.03Z"/><path class="cls-3" d="M362.91,256.5c1.12.77,2.31,1.49,3.52,2.18.44.25.91.46,1.36.72,1.56.92,3.14,1.86,4.64,2.94.66.49,1.32.98,1.96,1.5.8.67,1.58,1.46,1.96,2.48.13.31.05.3-.24.19-.21-.08-.42-.16-.59-.22-.26-.07-.53-.18-.74-.35-.83-.56-1.62-1.13-2.45-1.68-.85-.52-1.68-1.11-2.52-1.72-1.01-.73-2.21-1.25-3.34-1.87-1.24-.68-2.49-1.38-3.71-2.14-.75-.47-1.49-.96-2.21-1.5-1.09-.8-2.12-1.74-2.99-2.81-.68-.83-1.3-1.74-1.67-2.8-.08-.23-.18-.46-.22-.7-.1-.92.11-1.22.46-1.41.08-.04.16-.1.24-.12.25-.08.55.26.76.78.37.76.65,1.48,1.12,2.13.46.65.96,1.29,1.57,1.89.9.89,1.96,1.72,3.11,2.46l-.02.04Z"/><path class="cls-3" d="M351.19,275.99c1.13.52,2.29.98,3.48,1.4.43.16.88.26,1.32.41,1.54.53,3.09,1.02,4.66,1.52.69.22,1.4.42,2.1.61.45.13.91.23,1.34.42.22.09.44.18.65.29l.32.16c.1.07.19.17.28.26.19.29.2.17-.09.23-.31.11-.81.21-1.33.13-.92-.13-1.81-.42-2.73-.63-.91-.23-1.82-.5-2.72-.83-1.08-.39-2.25-.63-3.37-.98-1.23-.38-2.46-.81-3.67-1.29-.74-.29-1.48-.62-2.21-.96-1.1-.53-2.17-1.15-3.17-1.88-.77-.57-1.57-1.17-2.13-2.06-.12-.2-.23-.4-.33-.61-.3-.84-.16-1.16.21-1.36.09-.05.18-.1.27-.12.32-.08.58.19.79.59.31.61.77,1.09,1.29,1.59.52.49,1.13.97,1.81,1.39,1,.63,2.11,1.19,3.25,1.69v.04Z"/><path class="cls-3" d="M359.86,285.27c-1.04.3-2.06.63-3.06,1.01-.37.13-.71.32-1.07.46-1.28.5-2.54,1.07-3.64,1.84-.51.31-.97.71-1.35,1.15-.47.58-.87,1.17-1.21,1.89-.11.23-.13.2-.21-.02-.08-.22-.29-.71-.19-1.25.2-.95.78-1.71,1.37-2.38.59-.69,1.37-1.14,2.14-1.52.93-.45,1.82-1.01,2.77-1.43,1.03-.47,2.11-.83,3.17-1.18l1.98-.61c1-.3,2.01-.55,3-.86.77-.24,1.5-.54,2.25-.79.17-.06.32-.13.5-.17.65-.1.88,0,1.1.32.05.08.11.15.15.22.12.25-.08.55-.49.82-1.26.74-2.64,1.19-4.05,1.6-1.04.31-2.09.6-3.13.94l-.02-.04Z"/><path class="cls-3" d="M272.55,305.66c.73-.36,1.44-.76,2.14-1.19.26-.15.48-.35.74-.51.89-.56,1.77-1.17,2.58-1.86.38-.29.71-.63,1.04-.96.38-.47.89-.82,1.36-1.23.16-.12.2-.05.19.15,0,.2-.04.56-.18.91-.23.64-.68,1.11-1.09,1.61-.41.5-.92.91-1.45,1.28-.63.45-1.21,1.01-1.84,1.48-.7.52-1.44.96-2.2,1.38-.47.26-.94.5-1.41.74-.72.36-1.46.67-2.18,1.02-.56.26-1.08.59-1.64.87-.12.06-.24.14-.37.19-.47.19-.66.13-.89-.24-.05-.09-.11-.17-.15-.26-.14-.3-.03-.63.27-.83.9-.6,1.9-1.02,2.88-1.49.74-.34,1.48-.69,2.19-1.08l.02.03Z"/><path class="cls-3" d="M273.45,317.59c.98,0,1.96-.01,2.94-.09.36-.02.71-.11,1.07-.14,1.26-.14,2.54-.2,3.75-.49.54-.13,1.05-.34,1.52-.6.62-.32,1.12-.76,1.69-1.19.19-.12.25-.05.27.2.04.27-.04.73-.36,1.08-1.14,1.25-2.76,1.82-4.27,2.09-.91.16-1.83.39-2.76.52-1.02.14-2.04.22-3.07.27-.63.03-1.26.04-1.89.05-.95.01-1.91-.02-2.86-.03-.73-.01-1.46.06-2.19.05-.16,0-.32.01-.48,0-.6-.05-.78-.19-.86-.63-.02-.1-.04-.2-.05-.3-.02-.34.25-.58.69-.65,1.28-.18,2.6-.27,3.91-.24.98.02,1.96.06,2.95.03v.04Z"/><path class="cls-3" d="M268.07,319.46c1.04.75,2.05,1.53,3.04,2.33.36.29.75.55,1.1.85,1.23,1.08,2.41,2.23,3.49,3.47.46.57.92,1.14,1.33,1.75.5.78,1.05,1.64,1.02,2.66-.01.32-.17.25-.36.03-.17-.22-.48-.54-.7-.94-.41-.73-1.04-1.36-1.68-1.96-.67-.58-1.24-1.27-1.89-1.91-.76-.79-1.72-1.42-2.62-2.07-1-.73-2.01-1.43-3.06-2.1-.65-.4-1.28-.82-1.94-1.21-1-.58-2-1.17-3.06-1.62-.82-.36-1.68-.56-2.52-.79-.18-.06-.37-.09-.55-.16-.67-.24-.84-.44-.82-.99,0-.13,0-.25.01-.37.05-.41.45-.63,1.02-.59,1.72.1,3.32.84,4.87,1.61,1.15.59,2.26,1.26,3.34,1.96l-.02.04Z"/><path class="cls-3" d="M213.25,308.57c-.17.72-.32,1.46-.45,2.19-.15.73-.27,1.47-.39,2.22-.09.54-.08,1.09-.15,1.63-.26,1.92-.42,3.86-.41,5.8-.03.87.07,1.72.16,2.57.2,1.08.28,2.17.31,3.29,0,.35-.19.36-.51.13-.3-.23-.81-.68-1.1-1.3-.49-1.1-.62-2.28-.81-3.45-.07-.58-.12-1.17-.14-1.76-.01-.59.04-1.18.08-1.77.12-1.41.03-2.86.13-4.29.11-1.57.32-3.14.62-4.68.2-.95.38-1.9.62-2.84.32-1.43.77-2.84,1.18-4.24.33-1.09.53-2.21.92-3.29.09-.24.15-.48.27-.71.46-.84.76-1.03,1.39-.89.14.03.29.05.42.1.44.17.61.69.48,1.32-.11.46-.2.94-.29,1.41-.13.46-.27.91-.4,1.38-.27.94-.55,1.88-.83,2.82-.37,1.43-.77,2.87-1.04,4.34h-.06Z"/><path class="cls-3" d="M216.94,321.33s-2.64,16.56-4.89,16.19c-2.26-.38-3.69-15.88-3.69-15.88l8.58-.31Z"/><path class="cls-3" d="M179.27,337.19s-1.2,0-4.06,2.05c-2.68,1.93-2.84,5.66-3.12,6.28-.94,2.07.22-11.78.22-11.78l6.95,3.44Z"/><path class="cls-3" d="M185.5,321.33s-2.45,13.93-.69,15.52c1.24,1.12,3.33-.84,3.33-.84l-2.64-14.68Z"/><path class="cls-3" d="M146.85,255.59s-.34,8.52,1.07,11.24c1.41,2.72,4.81,5.45,4.81,5.45l-5.88-16.69Z"/><path class="cls-3" d="M243.18,202.56l-3.89-2.56c-.47-.31-.97-.57-1.44-.89-1.66-1.12-3.3-2.36-4.8-3.74-.65-.63-1.33-1.25-1.87-1.99-.68-.93-1.37-1.99-1.35-3.2-.02-.36-.03-.31.14-.04.09.13.22.31.4.5.1.09.22.19.32.29.09.11.16.23.25.36.59.9,1.42,1.61,2.21,2.36.79.75,1.66,1.46,2.54,2.16,1.06.86,2.34,1.5,3.54,2.26l3.95,2.52,2.44,1.55c1.24.78,2.45,1.61,3.67,2.41.95.62,1.92,1.17,2.86,1.82.21.14.42.27.62.42.74.57.88.87.72,1.34-.04.11-.06.23-.12.32-.18.32-.65.3-1.21-.05-1.67-1.02-3.34-2.18-5.07-3.31-1.29-.84-2.59-1.69-3.92-2.51l.02-.04Z"/><path class="cls-3" d="M255.94,207.51s6.92,4.95,11.3,5.38c4.38.44,8.38-3.56,11.15-4.08,6.92-1.3-11.15,8.61-11.15,8.61l-11.3-9.91Z"/><path class="cls-3" d="M226.06,177.42c-.65,1.55,2.79,7.64-.35,12.2-1.88,2.73-7.48,1.07-9.53.98-6.78-.31,16.33,6.35,16.33,6.35l-5.05-11.57-1.4-7.95Z"/><path class="cls-3" d="M231.09,157.33c-3.05,2.21-28.93-13.07-26.16-35.65,0,0,.79-6.17,6.92-11.34,6.12-5.17,12.01-9.73,15.62-9.67,3.61.06,18.62.35,21.34-.46,2.73-.81,10.47-5.32,13.1-8.9,2.63-3.58,11.6-12.71,14.96-13.98,3.36-1.27,18.64-3.49,24.67-1,6.03,2.49,13.83,6.46,17.12,11.5,3.29,5.04,9.18,18.02,13.31,23.08s12.13,6.03,14.75,6.39,20.48,4.33,23.35,10.69c2.87,6.36,4.47,18.9,4,24.16s-10.01,16.42-9.54,19.91c.47,3.49.97,9,.26,11.76-4.24,16.38-19.2,12.48-29.18,10.16-8.42-1.96-18.61-7.6-20.42-16.64-1.81-9.04,1.96-23.55,1.96-23.55,0,0-13.16-4.89-13.02-13.16.14-8.26,2.04-14.01,2.04-14.01,0,0-18.61.4-22.49-.67-3.88-1.07-15.72-5.12-15.72-5.12,0,0-14.24,8.01-16.7,8.22-2.46.22-4.4-6.27-6.28-7.04s-9.03-.46-10.7,3.06c-1.67,3.52-2.81,11.5-2.73,14.38.08,2.88,2.49,10.71,2.49,10.71l-2.94,7.19Z"/><path class="cls-3" d="M322.96,366.63c-.15,1.06-.29,2.13-.36,3.21-.03.39.04.78.01,1.17-.12,1.39-.29,2.79-.28,4.2,0,.62,0,1.25.06,1.86.09.79.22,1.57.14,2.39-.03.26-.33.28-.7.14-.36-.15-.85-.46-1.03-.9-.31-.79-.57-1.59-.83-2.4-.15-.4-.15-.82-.18-1.24-.03-.42-.02-.84,0-1.27.07-1.01-.21-2.04-.21-3.07-.01-1.13.04-2.26.11-3.39l.15-2.08c.07-1.05.22-2.09.24-3.13.02-.81-.17-1.62-.21-2.44-.01-.18-.06-.36-.05-.54.06-.66.34-.84,1.24-.85.21,0,.41-.02.62,0,.69.04,1.22.37,1.4.86.52,1.45.42,2.86.28,4.29-.1,1.06-.25,2.13-.34,3.2h-.08Z"/><path class="cls-3" d="M280.35,309.46l.29.1c.09.02.2.08.39.14l.99.36c.62.28,1.24.58,1.73.93,1.03.7,1.64,1.52,1.86,2.55.04.25.06.53.08.8-.07.27-.12.53-.2.77-.19.46-.44.85-.86,1.17-.79.66-2.01,1.15-3.31,1.44-1.1.26-1.5.31-2.1.43-.57.1-1.13.19-1.7.23-3.98.34-7.89.22-11.79.1-1.73-.06-3.47-.07-5.18-.1-1.1-.02-2.21-.07-3.31-.16-.55-.06-1.11-.09-1.65-.22-.54-.16-1.09-.26-1.62-.5-.64-.47-.55-.39.07-.8.31-.22.74-.42,1.25-.66.25-.11.53-.25.82-.33.29-.06.59-.1.9-.1l3.3-.08,3.3.04c2.21.02,4.42.06,6.64.13,2.66.07,5.42-.29,8.04-.67l1.66-.27c.27-.05.57-.11.86-.23.14-.07.29-.15.38-.29.08-.15.04-.31-.03-.44-.15-.26-.42-.44-.71-.58-.18-.09-.37-.17-.58-.25-.3-.1-.81-.25-1.21-.35-.87-.22-1.75-.43-2.65-.6-2.72-.53-5.52-.97-8.31-1.25-2.17-.22-4.32-.22-6.5-.37-.48-.03-.96-.03-1.43-.11-.89-.14-1.47-.3-1.85-.56-.37-.29-.56-.62-.67-1.05-.05-.19-.13-.39-.15-.56-.03-.29.16-.52.52-.73.36-.21.9-.41,1.54-.41,3.84-.15,7.84.23,11.93.69,1.52.18,3.04.4,4.59.66,1.54.27,3.09.56,4.69,1.06l-.02.09Z"/><path class="cls-3" d="M316.21,170.85c.22,2.33.7,4.67,1.54,6.91.3.82.74,1.57,1.1,2.37,1.32,2.76,3.05,5.41,5.36,7.49,1.02.92,2.14,1.73,3.35,2.34.79.36,1.58.68,2.38,1.01.4.14.81.32,1.23.43.21.06.42.15.63.23l.64.2c.54.19.49.39-.02.73-.25.16-.63.43-1.11.61-.47.17-1.06.31-1.66.25-1.07-.05-2.13-.28-3.1-.71-.98-.4-1.9-.9-2.78-1.46-1.75-1.14-3.15-2.69-4.35-4.33-1.4-1.98-2.92-3.96-3.99-6.18-1.18-2.42-1.99-5.01-2.44-7.65-.3-1.62-.41-3.27-.46-4.9-.05-2.49.28-4.97.74-7.37.1-.47.18-.94.26-1.41l.3-1.4c.18-.94.44-1.86.75-2.76.15-.39.26-.79.43-1.18.08-.18.15-.35.23-.49.09-.14.19-.26.28-.36.18-.21.35-.37.52-.49.34-.23.69-.27,1.13-.21.2.03.4.03.57.08.56.16.8,1,.62,2.06-.65,3.11-1.56,6.05-1.98,9.17-.3,2.31-.37,4.67-.08,7.01l-.09.02Z"/><path class="cls-3" d="M229.63,131.67c.52-2.58,1.38-5.19,2.99-7.5.59-.83,1.21-1.68,2.01-2.36.72-.58,1.49-1.1,2.33-1.48.41-.2.83-.38,1.26-.51.41-.16.89-.26,1.38-.36,1.94-.37,3.92.17,5.45,1.11,1.33.89,2.52,1.97,3.25,3.34.48.86.86,1.78,1.04,2.74.15.97.17,1.96-.09,2.88-.15.58-.4.43-.74-.04-.32-.48-.86-1.23-1.29-1.97-.67-1.4-1.87-2.33-2.83-3.21-1.07-.79-2.13-1.47-3.4-1.63-.19,0-.38-.05-.58-.02l-.59.1c-.43.14-.87.3-1.27.53-.81.44-1.52,1.03-2.17,1.7-1.43,1.47-2.4,3.54-2.96,5.75-.35,1.36-.58,2.78-.67,4.22-.15,2.18-.11,4.42.24,6.59.27,1.69.86,3.28,1.43,4.85.13.34.3.67.4,1.02.4,1.29.3,1.77-.43,2.37-.17.14-.32.29-.49.41-.55.37-1.36.04-1.97-.92-.92-1.42-1.45-3.03-1.9-4.67-.43-1.65-.69-3.36-.82-5.09-.21-2.57-.09-5.2.33-7.83h.09Z"/><path class="cls-3" d="M305.19,146.28l-.62-1.32-.5-1.37c-.37-.89-.57-1.85-.82-2.77-.2-.67-.35-1.36-.47-2.05-.11-.61-.13-1.23-.14-1.85,0-.62-.06-1.23.02-1.85.06-.62.1-1.23.17-1.83.13-.6.23-1.21.39-1.8.09-.53.33-1.03.47-1.55.18-.51.26-1.04.51-1.52.26-.63.54-1.26.89-1.85.2-.28.41-.55.64-.81.21-.27.53-.46.79-.69.36-.26.52-.06.69.46.09.26.19.61.29,1,.08.37.07.72-.03,1.05-.22.56-.2,1.2-.43,1.73-.22.53-.27,1.12-.41,1.67-.06.28-.15.55-.19.84-.04.29-.06.57-.14.85l-.23.85-.15.88c-.06.35-.1.72-.13,1.08.01.37.06.73.1,1.1.05.37.07.74.16,1.1.09.36.18.73.25,1.09.11.81.42,1.58.63,2.39.27.78.59,1.55.92,2.32.47.91.92,1.85,1.53,2.68.86,1.31,1.88,2.53,3.08,3.52.96.73,2.07,1.21,3.16,1.59.24.09.47.17.72.24.88.3,1.03.66.86,1.73-.04.24-.06.49-.12.73-.18.81-.82,1.26-1.7,1.13-2.6-.4-4.99-1.97-6.83-3.9-.67-.74-1.32-1.49-1.89-2.3-.53-.84-1.11-1.64-1.54-2.54l.08-.05Z"/><path class="cls-3" d="M184.97,322.06c.11-2.27.3-4.52.59-6.76.08-.82.11-1.64.25-2.46.21-1.44.53-2.86.83-4.27.36-1.41.72-2.81,1.12-4.19.33-1.24.66-2.48.99-3.7.51-1.54.85-3.17,1.91-4.51.32-.15.47-.21.52-.19.06.03.05.16.25.46.21.3.3.65.43,1.07.12.42.17.88.07,1.32-.49,3.2-1.33,6.24-2.17,9.38-.55,1.87-.66,3.9-.89,5.86-.13,1.08-.22,2.17-.33,3.26-.06,1.09-.17,2.18-.2,3.28l-.07,2.02v2.02c.05,2.04.15,4.1.43,6.11.26,1.56.7,3.06,1.12,4.55.1.33.19.65.29.98.18.61.11,1.06.01,1.38-.1.33-.36.56-.73.79-.16.1-.31.22-.46.29-.46.24-1.24-.13-1.71-1.03-1.31-2.68-1.92-5.72-2.15-8.79-.11-1.14-.13-2.29-.18-3.43,0-1.15-.03-2.29,0-3.44h.08Z"/><path class="cls-3" d="M257.3,301.61c-1.56.21-3.15.37-4.79.42-.82.02-1.66,0-2.52-.06l-.92-.09c-.36-.04-.7-.1-1.02-.19l-.99-.25c-.31-.11-.6-.24-.91-.36-.34-.18-.55-.44-.8-.67-.27-.21-.43-.53-.54-.9-.16-.7-.08-1.38.22-2.13.34-.74.8-1.48,1.31-2.2l.52-.7.46-.59c1.22-1.55,2.4-3.04,3.47-4.57,1.35-1.99,2.55-4.1,2.98-6.07.14-.57.16-1.1.12-1.59-.03-.27-.03-.26-.06-.39-.03-.09-.06-.2-.12-.28-.06-.12-.13-.28-.29-.26-.13,0-.26.07-.38.14l-.18.11-.09.06-.23.18c-.33.27-.66.57-.99.87-1.31,1.22-2.6,2.56-3.88,3.91-2.56,2.7-5.1,5.47-7.83,8.1-1.45,1.39-2.94,2.77-4.58,4.03-.82.63-1.68,1.23-2.63,1.74-.47.26-.97.49-1.5.69-.55.2-1.07.31-1.6.42-2.7.52-5.34.36-7.93.02-2.58-.39-5.16-1-7.48-2.36-.71-.45-.94-.78-.83-.92.11-.15.56-.14,1.27-.16.75,0,1.71-.02,2.81-.04,1.13,0,2.4.09,3.77.25,2.42.31,4.9.28,7.13.05l.81-.13.74-.18c.42-.13.89-.34,1.37-.6.95-.52,1.92-1.22,2.86-1.97,3.78-3.09,7.25-6.94,10.89-10.65,1.35-1.38,2.69-2.82,4.15-4.25.37-.36.74-.71,1.14-1.06l.69-.6c.32-.26.65-.51,1-.72.69-.43,1.41-.71,2.13-.7.36,0,.75.1,1.06.28.3.2.54.49.81.72.28.4.51.83.77,1.24.17.47.38.93.51,1.41.09.49.16.81.17,1.22.03.39.02.77-.01,1.14-.12,1.49-.57,2.83-1.11,4.04-1.23,2.73-2.98,4.97-4.67,7.15l-1.28,1.61-1.08,1.38c-.16.22-.33.45-.46.71-.05.12-.1.3.03.39.12.06.24.14.38.17.15.06.3.1.46.13.08.02.16.03.24.04l.35.04c.71.04,1.43.06,2.16.03,4.13-.18,8.36-1.07,12.56-1.92,3.2-.65,6.39-1.36,9.74-1.75.84-.09,1.69-.16,2.59-.13.45,0,.91.05,1.41.15.27.07.59.12.83.27l.39.19.34.27c.87.79,1.4,1.92,1.28,3.09-.06.28-.11.57-.2.84-.12.25-.22.53-.35.75-.27.45-.58.82-.91,1.16-1.03,1.03-2.16,1.75-3.3,2.41-1.14.65-2.3,1.21-3.48,1.72-2.35,1.01-4.75,1.85-7.2,2.55-1.08.31-2.14.62-3.26.8-2.07.36-3.48.44-4.47.35-.5-.05-.89-.13-1.23-.26-.33-.16-.59-.34-.83-.55-.21-.19-.48-.35-.6-.5-.37-.45,1.21-1.25,4.02-1.92,4.15-1.2,8.47-2.36,12.49-4.1,1-.43,1.98-.89,2.88-1.41.89-.51,1.74-1.07,2.32-1.6.27-.25.5-.54.5-.6.04-.04.03-.02.02-.03-.02,0,.02,0,0,0,0,0,.01.01-.02-.01-.03-.03.02.02.02.02,0,0-.01.01,0,0,.01,0-.02-.01.03.01-.04-.04-.31-.04-.46-.07-1.29-.07-3,.15-4.64.41-1.67.27-3.36.6-5.07.95-3.43.68-6.89,1.42-10.47,1.94l-.02-.08Z"/><path class="cls-3" d="M252.84,338.52c.3.19.58.29.85.42.05.01.17.05.15.05,0,0,0,0,.01.01l.07.02c.08.02.23.05.29-.05.05-.1.03-.2,0-.34l-.15-.44-.2-.53c-.14-.36-.3-.72-.47-1.09-.67-1.46-1.47-2.93-2.28-4.4-.41-.73-.81-1.48-1.25-2.21-.27-.47-1.37-2.12-1.99-3.37-.31-.65-.56-1.28-.69-1.83-.12-.55-.14-1.01-.08-1.4.08-.4.1-.76.52-1.19.38-.32.71-.37,1.13-.46.44-.01.93-.03,1.48.06l.9.24c.31.09.64.23.95.34.43.15.88.34,1.32.52l1.24.51,1.51.67,2.99,1.35c1.98.9,3.96,1.79,5.95,2.64,1.98.85,3.98,1.65,5.98,2.33.5.17.99.34,1.49.47l.58.16c.12.03.24.06.36.08.24.05.5.07.75.05.26-.02.5-.2.57-.44.09-.46-.23-.87-.52-1.21-.17-.21-1.02-1.02-1.71-1.56-1.45-1.17-3.03-2.22-4.65-3.2-2.07-1.26-4.25-2.37-6.42-3.48l-3.27-1.65c-1.11-.5-2.11-1.27-3.16-1.94-1.27-.95-1.14-.75.24-.71.69.02,1.7,0,2.91.07,1.18.13,2.47.53,3.81,1.08,2.38.99,4.65,2.2,6.91,3.47,2.25,1.31,4.45,2.69,6.55,4.49.27.22.51.47.79.72.4.42.87.87,1.21,1.35.78.93,1.2,1.95,1.27,2.87.11.92-.28,1.92-.96,2.62-.35.33-.75.57-1.19.73-.23.07-.43.17-.68.22l-.77.08c-.25.04-.55-.01-.83-.01-.28-.03-.55,0-.84-.07l-.86-.17c-.14-.02-.3-.07-.41-.07l-.25-.07c-.67-.17-1.32-.37-1.95-.57-1.26-.42-2.47-.93-3.65-1.45-2.74-1.2-5.54-2.42-8.35-3.66-1.39-.6-2.79-1.2-4.19-1.8l-1.08-.45c-.23-.09-.46-.19-.71-.27l-.15-.04c-.12-.04-.36-.09-.34.1,0,.14.05.27.1.4.1.26.23.52.37.78l.24.46c.2.37.38.76.6,1.12l1.28,2.23c.85,1.5,1.69,3.02,2.44,4.64.19.41.36.82.53,1.25.09.24.15.38.25.71.1.31.2.64.27.96.27,1.26.25,2.6-.74,3.4-.28.25-.66.32-1.01.45-.34.15-.75.13-1.12.2-.38.04-.78-.06-1.17-.08-.37-.04-.84-.23-1.1-.3-1.17-.44-2.14-1.07-3.05-1.72-1.81-1.32-3.35-2.82-4.86-4.33-2.28-2.29-4.4-4.68-6.58-6.99-2.17-2.3-4.39-4.56-6.8-6.43-.94-.71-1.91-1.37-2.92-1.83-.5-.23-1-.41-1.5-.53-.52-.1-1.05-.2-1.59-.22-2.17-.13-4.42.42-6.73,1.03-1.02.27-2.02.59-3.08.85-3.97.99-5.44.75-6.38-.16-.21-.18-.48-.33-.61-.47-.21-.25.1-.51.76-.94.66-.46,1.7-.81,3.06-1.18,2.03-.55,4.07-1.24,6.3-1.85,2.21-.59,4.68-1.13,7.42-.86.34.02.68.09,1.02.15.34.06.68.12,1.04.24.73.2,1.37.48,1.99.77,1.23.59,2.28,1.31,3.28,2.06,2,1.49,3.71,3.15,5.37,4.81,2.46,2.48,4.75,5.04,7.07,7.48,1.16,1.22,2.33,2.4,3.52,3.5,1.19,1.09,2.43,2.1,3.63,2.75l-.04.08Z"/><path class="cls-3" d="M357.65,261.81c-1.13-.42-2.27-.82-3.37-1.03-.75-.15-.61-.13-.78-.17-.12-.02-.27-.04-.41,0-.13.05-.23.19-.2.33.01.13.11.25.2.35l.6.62c1.28,1.29,2.85,2.49,4.44,3.63,1.6,1.14,3.28,2.2,5,3.2,1.52.9,3.14,1.63,4.73,2.37,1,.51,2.08.86,3.03,1.49.97.6,1.96,1.15,2.91,1.82.59.43.48.51-.21.65-.7.17-2,.45-3.4.3l-.91-.13c-.3-.05-.62-.08-.89-.19-.57-.19-1.13-.39-1.69-.6-1.14-.38-2.17-.98-3.23-1.53-2.1-1.14-4.13-2.4-6.06-3.85-1.16-.86-2.38-1.68-3.59-2.56-.61-.44-1.22-.89-1.81-1.39-.3-.24-.59-.51-.88-.77l-.46-.45c-.21-.2-.39-.44-.58-.67-.7-.83-1.18-1.76-1.3-2.66-.02-.23-.02-.46-.02-.69.06-.23.06-.46.16-.68l.13-.33.21-.28c.13-.2.28-.36.45-.52,1-.82,2.45-.96,3.91-.76l.55.09c.13.02.25.05.37.08l.72.17,1.39.4c1.93.58,3.76,1.32,5.58,2.06,2.75,1.12,5.43,2.38,8.13,3.48,2.1.85,4.23,1.52,6.34,2.17.46.13.92.26,1.38.39.82.35,1.34.58,1.66.88.31.36.47.68.6,1.03.06.16.16.32.19.45.06.22-.1.39-.51.59-.41.19-1.07.42-1.79.31-1.1-.05-2.12-.33-3.14-.63-1.01-.3-2.01-.64-3-1-1.98-.73-3.93-1.55-5.88-2.38-2.88-1.22-5.74-2.5-8.61-3.51l.02-.08Z"/><path class="cls-3" d="M339.6,345.09c-4.96,4.95-10.17,9.6-15.48,14.09-1.94,1.64-3.81,3.34-5.78,4.94-6.93,5.62-14.05,10.96-20.82,16.65-2.98,2.54-5.89,5.2-8.5,8.01-.83.91-1.64,1.84-2.39,2.8-.78.94-1.5,1.91-2.18,2.9-.67.99-1.27,2.02-1.76,3.08-.25.53-.45,1.07-.64,1.62-.06.28-.21.54-.31.82-.1.28-.18.56-.27.85-.36,1.44-.47,1.36-1.02-.03-.19-.68-.65-1.8-.49-3.09.09-1.29.46-2.78,1.17-4.19.63-1.26,1.36-2.42,2.12-3.55.78-1.12,1.65-2.15,2.53-3.15,1.76-2.01,3.63-3.87,5.55-5.65,3.91-3.49,7.99-6.69,12.14-9.81,4.97-3.72,9.84-7.93,14.68-11.98,5.32-4.45,10.55-9,15.53-13.8,3.07-2.95,6.04-6.01,8.86-9.18,4.27-4.81,8.29-9.9,11.64-15.33,2.6-4.22,4.63-8.65,6.37-13.18.36-1.01.72-1.99,1.06-3.01.68-1.87,1.11-3.11,1.62-3.92.46-.82.93-1.24,1.55-1.51.28-.12.58-.31.84-.36.43-.08.69.32.76,1.13.07.8-.02,2.02-.4,3.51-1.12,4.41-2.86,8.78-4.97,13.02-2.15,4.22-4.67,8.32-7.48,12.2-4.16,5.78-8.89,11.13-13.83,16.19l-.08-.06Z"/><path class="cls-3" d="M237.26,373.63c8.02,3.33,16.18,6.5,23.98,10.83,2.84,1.58,5.63,3.37,8.16,5.58,2.23,1.92,4.38,4.15,5.8,6.96l.46,1.08.3.71c.12.25.19.54.25.81.26,1.13-.2,2.29-.97,3.13-.21.2-.4.42-.63.6l-.34.27-.26.18c-.34.24-.68.44-1.01.64-.66.38-1.29.71-1.91,1.03-.61.32-1.21.63-1.75.96-.27.17-.54.33-.78.49l-.35.25-.19.15c-.2.18-.4.4-.47.68-.09.27-.01.61.24.77.24.16.53.23.83.28l.39.06.48.04,1,.06c1.36.07,2.77.07,4.24.21,1.3.14,2.66.27,4.11,1.02,1.48.69,2.73,2.82,2.09,4.61-.13.45-.39.86-.66,1.22-.28.35-.55.62-.83.86-.55.48-1.11.86-1.65,1.21-1.07.7-2.11,1.31-2.93,1.99-.24.2-.27.23-.37.34-.09.1-.17.2-.24.31-.14.22-.22.46-.24.72.02.13,0,.28.08.4.07.12.22.18.35.21.28.06.55.03.82.02h.2s.5,0,.5,0c.34,0,.69.02,1.04.04.36.02.72.07,1.09.13.36.09.74.17,1.11.31,1.5.47,2.88,1.7,3.49,3.1.31.69.52,1.4.63,2.1.06.71.12,1.39.04,2.07-.13,1.03-.29,1.46-.39,1.43-.12-.03-.22-.52-.58-1.32-.34-.78-.89-1.9-1.67-2.81-.39-.45-.84-.8-1.31-.98-.47-.19-.96-.28-1.62-.31-.42,0-.88-.06-1.4-.03l-2.48.09c-1.22.02-2.25-.29-2.97-.86-.73-.57-1.3-1.55-1.31-2.55-.09-1.12.2-2.3.86-3.36.18-.26.37-.52.56-.77.22-.24.43-.48.66-.71l.38-.34c.08-.07.16-.14.24-.2.16-.13.32-.26.48-.37,1.26-.92,2.47-1.55,3.41-2.18.46-.3.88-.64,1.01-.79.07-.06.05-.04.07-.08,0-.04.03-.03-.04-.11-.08-.09-.37-.28-.8-.42-.87-.29-2.09-.42-3.34-.5-1.26-.09-2.59-.12-4.03-.26l-.55-.06-.29-.03c-.13-.01-.3-.03-.44-.06-.6-.11-1.21-.22-1.73-.45-.55-.2-1-.52-1.41-.87-.37-.38-.69-.82-.88-1.33-.33-1.03-.26-2.16.21-3.18.22-.51.56-.98.95-1.41.37-.42.89-.89,1.16-1.06.94-.72,1.88-1.19,2.78-1.67.89-.47,1.76-.9,2.5-1.35.36-.22.75-.5.79-.54.12-.1.22-.22.27-.38.04-.16,0-.3-.09-.47l-.48-1.08c-1.65-3.13-4.43-5.83-7.61-7.93-3.48-2.35-7.3-4.35-11.21-6.2-3.91-1.84-7.93-3.52-11.97-5.18-4.97-2.04-9.98-4.04-14.96-6.12-3.77-1.58-7.53-3.24-11.24-5-3.7-1.77-7.35-3.65-10.92-5.63-5.52-3.13-10.86-6.45-15.73-10.57-1.11-.87-2.07-1.85-3.1-2.83-.96-.9-1.62-1.79-2.22-2.48-.58-.71-1.03-1.29-1.31-1.85-.59-1.09-.76-1.84-.71-2.56.02-.33,0-.72.08-.96.32-.82,2.01.5,4.6,3.04,3.88,3.75,8.21,7.19,12.89,10.32,4.68,3.12,9.71,5.92,14.91,8.46,7.72,3.78,15.78,7.1,23.92,10.33l-.03.1Z"/><path class="cls-3" d="M172.84,343.12c-.15,1.28-.29,2.58-.35,3.88-.03.47.05.95.02,1.42-.15,1.68-.29,3.38-.3,5.08,0,.75.03,1.51.09,2.25.07.96.26,1.9,0,2.89-.07.31-.34.3-.71.08-.19-.11-.41-.26-.63-.46-.23-.19-.41-.43-.48-.7-.25-.96-.48-1.92-.64-2.9-.17-.97-.19-1.97-.17-2.97.06-1.2-.25-2.42-.3-3.64-.04-1.34-.03-2.7.02-4.04l.11-2.49c.05-1.26.19-2.51.21-3.76.01-.97-.18-1.93-.26-2.91-.01-.21-.05-.42-.03-.64.06-.79.34-1.01,1.3-1.08.22-.01.43-.04.65-.04.72,0,1.29.39,1.49.97.14.43.25.86.35,1.29.06.43.1.86.11,1.29.04.86,0,1.72-.04,2.59-.1,1.28-.26,2.57-.35,3.87h-.09Z"/><path class="cls-2" d="M172.45,443.75c-.86-1.25-2.46-7.64-.98-13.14,2.92-10.81-2.57-17.14-10.38-12.28-6.47,4.02-5.44-1.92-5.44-1.92,0,0-8.41,1.6-10.05,4.99-1.64,3.39-4.07,7.45-1.74,10.09s9.39,7.59,9.39,7.59l12.05,2.1,7.15,2.57Z"/><path class="cls-3" d="M147.98,429.9c.26.71.67,1.36,1.09,2,.23.3.46.61.75.89.27.29.54.57.86.82.43.39.97.66,1.45,1,1.79,1.12,3.85,1.92,5.98,2.6.95.3,1.91.59,2.86.95.61.22,1.23.46,1.81.79l.44.25c.14.1.26.23.39.34.26.22.48.48.68.77.25.35.11.36-.26.27-.19-.04-.41-.13-.72-.16-.3-.06-.63-.06-.94-.19-1.09-.43-2.32-.68-3.57-.96-1.22-.37-2.49-.75-3.73-1.27-1.48-.62-3.1-1.15-4.55-2.07-1.56-1-3.03-2.33-3.94-4.01-.57-1.02-.99-2.12-1.2-3.27-.36-1.73-.17-3.54.35-5.2.41-1.29.97-2.52,1.75-3.63.18-.23.38-.45.59-.66.81-.76,1.22-.82,1.68-.6.11.05.23.09.32.16.3.22.18.74-.22,1.34-.53.94-1.12,1.76-1.54,2.67-.43.9-.76,1.83-.89,2.81-.16,1.45-.02,2.99.6,4.37l-.05.02Z"/><path class="cls-3" d="M143.26,421.77c.82-1.56,1.99-2.93,3.39-4.01,1.43-1.04,3.07-1.71,4.75-2.05,1.7-.3,3.4-.21,5.02.13.4.11.79.23,1.18.36l.59.19.55.25.55.26c.27.12.11.06.2.1l.2.14h0c.11.07.2.15.3.23.09.07.22.21.19,0,.01-.25.04-.48.12-.7,0,.03.21-.67.39-1.11.19-.48.41-.96.67-1.43.51-.94,1.18-1.83,1.99-2.59,1.64-1.55,3.87-2.36,5.92-2.49.52-.04,1.02-.05,1.53-.03.55.07,1.11.07,1.65.24,1.09.24,2.09.77,2.95,1.39,1.73,1.27,2.88,2.98,3.7,4.73.73,1.56,1.18,3.21,1.44,4.89.28,1.69.18,3.43-.05,5.03-.64,4.12-1.76,8.13-4.09,11.54-.83,1.01-.87.79-.95-.39-.12-1.2-.26-3.29.26-5.44,1.01-3.77,1.75-7.65,1.01-10.86-.69-3.35-2.71-6.63-5.38-7.18-.21-.03-.4-.08-.64-.11-.26-.02-.51-.03-.77-.02-.5,0-1,.06-1.47.18-.94.22-1.76.66-2.43,1.31-.67.65-1.2,1.51-1.58,2.49-.09.24-.18.5-.26.75-.1.32-.25.94-.33,1.45-.1.53-.12,1.13-.21,1.67-.07.24-.1.52-.25.63l-.44.23c-.25.14-.44.27-.59.4l-.11.09-.03.02h0s0,0,0,0h0c.56,1.25.16.35.28.63h0s0,0,0,0h-.03s-.11-.01-.11-.01l-.42-.04-.85-.08-.21-.02c-.1-.05-.23-.15-.34-.23l-.69-.48-1.15-.82c-.19-.14-.38-.27-.58-.38-.07-.05-.26-.13-.33-.16l-.16-.07c-.42-.19-.83-.4-1.27-.5l-.65-.2c-.22-.05-.44-.07-.67-.11-.22-.03-.44-.08-.67-.1h-.67c-1.78-.02-3.55.59-4.88,1.76-1.06.9-1.86,2.12-2.32,3.5-.42,1.38-.6,2.94-.4,4.38.28,2.19,1.61,4.05,3.6,5.34,1.98,1.3,4.35,2.17,6.76,2.82,3.77,1.04,7.66,1.49,11.6,2.62.87.25,1.73.5,2.6.86,3.24,1.39,4.01,2.72,3.8,3.92-.04.28-.06.59-.16.8-.18.36-.62.42-1.19.27-.57-.14-1.33-.42-2.28-.85-2.85-1.23-6.28-1.88-9.83-2.64-3.56-.77-7.3-1.57-11.13-3.24-1.42-.64-2.85-1.47-4.16-2.62-1.31-1.14-2.47-2.69-3.12-4.44-.66-1.75-.83-3.55-.71-5.23.03-.43.06-.85.1-1.27l.27-1.28c.05-.21.09-.43.15-.64l.23-.62c.17-.41.31-.83.51-1.23l.1.04Z"/><path class="cls-3" d="M379.17,383.84c.19-.83-1.92-6.98-5.18-4.92s-4.91,4.44-5.14,6.48c-.23,2.04,1.8,14.36,1.8,14.36,0,0,1.12,3.03,1.69,1.9s-1.29-2.55-.29-2.57c11.03-.22,18.73-11.91,10.07-12.07-3.84-.07-2.95-3.18-2.95-3.18Z"/><path class="cls-3" d="M372.2,384.24c-.62,1.04-.98,2.38-1.15,3.75-.06.53-.02.97-.01,1.42.06,1.64.65,3.47,1.25,5.31.26.82.6,1.63.81,2.5.13.55.25,1.12.27,1.71.05.58-.03,1.19-.34,1.73-.17.33-.22.26-.41-.05-.1-.16-.23-.37-.43-.59-.18-.23-.27-.47-.36-.74-.66-1.84-1.5-3.74-2.15-5.99-.37-1.32-.93-2.75-.93-4.35.04-1.64.31-3.2.9-4.75.38-.94.91-1.85,1.65-2.62.56-.58,1.26-1.04,2-1.33.75-.3,1.5-.45,2.31-.49.62-.02,1.28.04,1.93.29.65.24,1.23.69,1.65,1.22.2.23.35.47.49.73.43.99.19,1.37-.26,1.66-.11.07-.22.15-.33.19-.38.16-.79-.13-1.16-.56-.52-.66-.98-1.02-1.43-1.11-.45-.1-1.13-.1-1.86.11-.99.29-1.79.91-2.37,1.99l-.05-.02Z"/><path class="cls-3" d="M380.6,400.71c-1.29.16-2.55.34-3.75.61-.61.13-1.2.29-1.77.47l-.43.14-.22.08c-.08.03-.11.03-.28.11-.56.24-1.12.49-1.67.8-.14.06-.28.15-.41.2l-.36.07-.36.07c-.13.03-.24.05-.31.01l-.51-.1h-.03s-.02,0-.02,0c0,.02.07-.16.03-.08h-.01s-.01,0-.01,0h-.08c-.05-.02-.1-.02-.14-.05-.08-.06-.15-.12-.22-.19-.29-.27-.56-.69-.74-1.22-.18-.54-.32-1.12-.45-1.69l-.6-2.55c-.17-.72-.33-1.45-.46-2.18-.23-1.29-.44-2.59-.59-3.92-.17-1.33-.21-2.8-.08-4.19.13-1.4.43-2.8.96-4.16.53-1.35,1.35-2.69,2.57-3.69,1.08-.9,2.36-1.47,3.77-1.67,1.41-.16,2.82.09,4.07.74.8.42,1.55,1.04,2.11,1.83.27.4.47.88.59,1.31.12.41.2.83.26,1.25.1.84.1,1.69-.1,2.51-.1.41-.24.81-.41,1.19-.18.38-.47.71-.74,1.02-.36.38-.58.47-.64.41-.08-.07-.02-.31-.07-.75-.01-.43-.27-1.05-.45-1.62-.1-.3-.24-.6-.36-.9-.1-.3-.21-.6-.3-.91-.08-.27-.18-.54-.3-.78-.06-.13-.12-.24-.18-.36-.06-.11-.11-.14-.16-.21-.23-.23-.41-.5-.75-.7-.66-.42-1.68-.59-2.43-.41-.91.24-1.71.63-2.38,1.47-.69.81-1.2,1.98-1.54,3.24-.21.76-.31,1.57-.34,2.4-.03.83.03,1.63.15,2.51.25,1.75.62,3.55.97,5.32l.34,1.61.13.6.06.3c.04.2.08.42.15.63.01.09.08,0,.12,0l.13-.07c.09-.04.19-.09.29-.13l.25-.1.42-.16c.44-.17.91-.32,1.37-.46.92-.27,1.84-.49,2.76-.67,2.55-.5,5.03-.65,7.37-1.14,1.77-.37,3.51-.88,4.97-1.72.71-.43,1.34-.94,1.8-1.54.43-.6.69-1.33.73-2.02.05-1.06-.55-1.95-1.54-2.54-.97-.6-2.2-.91-3.37-1-.51-.05-.88.02-1.33.1-.81.15-1.3.4-1.74.44-.47.02-.87-.04-1.37-.2-.22-.07-.47-.09-.67-.17-.33-.12-.47-.46-.32-1.05.15-.57.61-1.43,1.62-2,.73-.44,1.54-.76,2.42-.93.44-.08.89-.13,1.35-.13.47,0,.84.02,1.26.08,1.61.25,3.22.79,4.72,1.95.74.58,1.46,1.33,1.97,2.31.51.98.76,2.15.7,3.25-.03,1.12-.38,2.04-.81,2.98-.25.43-.52.88-.82,1.26-.32.35-.63.76-.99,1.04-1.03.94-2.15,1.54-3.25,2-1.1.46-2.19.8-3.26,1.05-2.14.53-4.27.79-6.22,1.05l-.02-.09Z"/><path class="cls-3" d="M79.15,349.4c.74-2.66,1.69-17.81-3.58-14.51-3.14,1.97-2.07,2.44-2.07,2.44,0,0-5.16-1.58-7.15,2.01-2,3.59.38,4.76,3.2,6.07,2.82,1.32,9.61,3.98,9.61,3.98Z"/><path class="cls-3" d="M75.1,345.7c.9.26,1.82.55,2.73.91.46.18.91.37,1.36.59l.31.15.05.04.1.08.16.14.09.08s.04-.03.06-.05c.06-.1.13-.22.2-.36l.04-.09.11-.34.24-.8.47-1.6c.29-.93.57-1.87.8-2.77.23-.88.35-1.73.37-2.62.06-1.75-.32-3.52-1.35-4.55-.43-.45-1.1-.77-1.68-.87-.61-.1-1.3.02-1.83.3-1.25.63-1.67,2.57-1.85,4.62-.03.69-.04.7-.72.32-.31-.2-.91-.53-1.28-1.13-.43-.58-.73-1.39-.68-2.25.01-.38.06-.77.13-1.15.08-.39.15-.73.36-1.24.4-.94,1.18-1.63,1.95-2.13,1.6-.97,3.39-1.21,5.18-.73,1.67.45,3.11,1.71,3.9,3.11.8,1.41,1.07,2.87,1.12,4.22.04,1.62-.09,3.22-.42,4.76-.32,1.48-.7,2.89-1.14,4.27l-.48,1.47c-.24.71-.52,1.57-.81,2.29-.17.33-.3.76-.59.83l-.38.16-.17.08-.09.04s-.03.01-.05.02h0s0,0,0,0h0c.05.14-.12-.32.11.32h-.01s-.02,0-.02,0c-.42.07-1.09-.08-1.82-.57-.39-.24-.78-.5-1.17-.68l-.29-.15-.17-.08-.34-.16c-.46-.21-.95-.39-1.44-.57-1.71-.61-3.58-.98-5.52-1.53-1.45-.43-2.92-.92-4.33-1.74-.69-.42-1.39-.89-1.98-1.55-.59-.65-1.08-1.46-1.34-2.36-.4-1.57.15-3.13.99-4.25.85-1.14,2.08-2.04,3.55-2.4.65-.15,1.35-.23,2.05-.12,1.31.22,2.03.78,2.37,1.25.31.53.3.99.12,1.47-.08.22-.15.45-.27.61-.2.28-.53.37-.92.41-.4.03-.88.07-1.27,0-.61-.06-1.08.09-1.54.36-.51.24-.92.58-1.21,1-.14.2-.23.4-.27.54-.03.14-.02.2-.01.24.06.3.29.69.8,1.13.75.66,2.01,1.25,3.33,1.71,1.35.46,2.8.78,4.41,1.2l-.02.09Z"/><path class="cls-3" d="M335.56,106.17c-1.58.03-4.65-12.12-1.12-12.91,3.81-.85,4.31,3.74,3.74,6.71-.4,2.09-1.11,6.17-2.62,6.2Z"/><path class="cls-3" d="M338.38,107.59c-.22-1.44,9.84-5.57,10.93-2.44,1.18,3.38-2.66,4.35-5.25,4.17-1.82-.13-5.47-.36-5.68-1.73Z"/><path class="cls-3" d="M326.34,109.8c-1.2-2.11-1.99-4.26-2.71-6.33-.72-2.08-1.37-4.08-2.13-6-.77-1.94-1.57-3.77-2.63-5.46-1.05-1.7-2.27-3.3-3.64-4.77-5.51-5.87-13.34-9.62-21.44-10.5-5.92-.67-11.99.33-17.25,2.92-2.32,1.14-4.47,2.62-6.37,4.36-1.9,1.73-3.51,3.85-5.16,6.06-1.65,2.21-3.39,4.56-5.62,6.56-1.11,1-2.36,1.87-3.66,2.63-1.32.71-2.71,1.34-4.15,1.75-2.89.85-5.84,1.05-8.66,1.04-2.84,0-5.59-.18-8.28-.13-5.35.05-10.64,1.33-15.25,3.94-2.05,1.13-3.91,2.6-5.56,4.26-1.64,1.67-3.09,3.53-4.19,5.61-1.1,2.06-1.99,4.25-2.53,6.53-.5,2.27-.82,4.59-.74,6.94.04,3,.45,6.02,1.3,8.92.85,2.89,1.93,5.73,3.46,8.32,1.5,2.6,3.24,5.05,5.32,7.2,1.08,1.02,2.13,2.1,3.37,2.94,1.15.99,2.54,1.55,3.79,2.43,1.63.97,2.39,1.45,2.3,1.53-.09.09-.99-.13-2.74-.3-.45,0-.9-.14-1.4-.3-.5-.15-1.05-.32-1.62-.5-.59-.17-1.15-.49-1.78-.77-.61-.31-1.32-.56-1.93-1-2.67-1.49-5.39-3.96-7.59-7.16-1.95-2.84-3.39-5.98-4.43-9.22-1.03-3.25-1.77-6.61-1.92-10.04-.18-3.42.11-6.93,1-10.31.9-3.35,2.36-6.57,4.37-9.44,3.99-5.77,10.12-9.87,16.72-11.72,3.29-.95,6.74-1.36,10.1-1.38,3.34-.03,6.56.26,9.65.21,3.7-.02,7.24-.72,10.26-2.63,3.05-1.85,5.33-4.82,7.63-8.04,1.16-1.6,2.37-3.26,3.76-4.82,1.38-1.58,2.99-3,4.68-4.23,1.69-1.26,3.53-2.3,5.45-3.15,1.91-.87,3.9-1.54,5.93-1.99,4.46-1.04,9.08-1.16,13.56-.5,4.49.63,8.84,2.11,12.85,4.2,3.97,2.16,7.64,4.95,10.58,8.43,1.47,1.73,2.78,3.6,3.88,5.6,1.08,2.02,1.93,4.08,2.7,6.15.94,2.55,1.73,5.1,2.71,7.48.96,2.39,2.22,4.54,4,6.16,1.76,1.64,4.03,2.74,6.46,3.44,2.51.72,5.15,1.42,7.71,2.19,3.9,1.15,7.78,2.38,11.62,3.73.96.34,1.92.68,2.88,1.04l2.9,1.25c.94.47,1.84,1.04,2.76,1.56.91.55,1.72,1.25,2.58,1.88.83.67,1.55,1.47,2.32,2.2.7.8,1.34,1.67,1.99,2.51.53.93,1.13,1.82,1.58,2.78l.63,1.47.31.73.23.76c1.29,4.05,1.47,8.36.9,12.47-.47,3.2-1.34,6.31-2.55,9.27-.67,1.45-1.27,2.93-2.12,4.33-.82,1.38-1.68,2.67-2.5,3.95-.82,1.28-1.59,2.56-2.23,3.86-.63,1.29-1.11,2.62-1.22,3.83-.05.31,0,.59,0,.88.05.33.07.66.15.99.12.66.32,1.34.53,2.03.45,1.37,1.04,2.79,1.56,4.34.45,1.36.83,2.84.91,4.42.02.39,0,.8,0,1.2-.05.42-.08.87-.18,1.26-.17.8-.41,1.53-.69,2.25-1.07,2.62-2.41,4.5-3.7,5.94-1.28,1.45-2.57,2.41-3.71,3.07-2.32,1.29-4,1.35-5.22,1.03-.56-.15-1.25-.39-1.53-.6-.98-1.03,3.3-.63,7.58-6,.77-.97,1.47-2.02,2.04-3.12.56-1.1,1.03-2.27,1.24-3.33.21-.92.11-2.07-.16-3.21-.26-1.15-.73-2.38-1.22-3.7-.5-1.32-1.04-2.76-1.4-4.37-.07-.42-.17-.81-.21-1.25l-.08-.64-.02-.74c-.01-1,.17-1.9.38-2.76.46-1.7,1.17-3.15,1.92-4.51.75-1.35,1.56-2.61,2.35-3.82.79-1.21,1.58-2.39,2.23-3.52l.45-.83.42-.92c.27-.61.59-1.21.83-1.84,1.03-2.49,1.74-5.09,2.19-7.72.43-2.63.42-5.29.05-7.85-.13-.63-.18-1.29-.37-1.9l-.54-1.84c-.49-1.17-.95-2.37-1.66-3.42-1.94-3.23-4.9-5.81-8.45-7.53l-2.73-1.18-3.02-1.09c-2.02-.71-4.06-1.39-6.11-2.04-4.11-1.31-8.21-2.48-12.44-3.65-2.29-.64-4.6-1.62-6.69-3.09-2.09-1.46-3.82-3.49-5.03-5.62l.07-.07Z"/><path class="cls-3" d="M282.12,128.01c-3.22-.99-6.34-2.2-9.39-3.47-1.11-.46-2.26-.83-3.33-1.29l-.69-.29-.3-.12-.1-.05c-.14-.09-.28-.05-.44,0-.23.09-.68.36-1.04.6-.4.28-.79.56-1.21.88-1.65,1.28-3.54,2.6-5.56,3.54-1.79.84-3.66,1.54-5.55,1.98-.6.18-1.21.27-1.82.41-.61.13-1.22.26-1.84.26-.62.01-1.24.05-1.85,0-.31,0-.62-.1-.92-.2-.31-.1-.61-.18-.91-.3-.75-.35-.64-.41-.03-.98.38-.36.8-.76,1.23-1.18.25-.24.52-.34.81-.5.28-.15.58-.28.89-.36.28-.07.55-.16.83-.21.28-.03.56-.08.83-.14l1.63-.33,1.59-.42,1.54-.52c2.02-.76,3.92-1.68,5.89-2.97.59-.38,1.18-.82,1.81-1.29.31-.24.63-.48,1-.72.36-.26.7-.44,1.22-.74.27-.13.57-.23.87-.33l.44-.14c.15.02.31-.02.46,0l.46.03.45.12c.15.04.31.08.45.13l.31.11c.76.26,1.46.54,2.15.82,3.03,1.24,6.03,2.45,9.1,3.44,1.89.61,3.8,1.16,5.73,1.59,2.92.64,5.91,1.12,8.86,1.05,2.29-.05,4.49-.56,6.56-1.25.45-.16.88-.37,1.33-.52.41-.16.75-.29,1.06-.36.31-.06.58-.05.81-.04.46.04.82.24,1.21.58.18.15.38.29.52.44.23.26.24.6.03,1.03-.1.22-.26.45-.47.69-.21.24-.47.51-.8.7-2,1.14-4.28,1.85-6.62,2.21-2.34.36-4.72.38-7.06.19-3.48-.27-6.85-1.04-10.13-1.95l.02-.09Z"/><path class="cls-3" d="M225.31,172.47c.29-3.48.92-6.94,2.06-10.31.41-1.2.75-2.38,1.22-3.53,1.67-4.06,3.65-8,6.02-11.68,1.06-1.63,2.05-3.31,3.18-4.87.74-.99,1.46-2,2.3-2.92.85-.91,1.76-1.76,2.81-2.47.64-.45.74-.21.64.56-.12.76-.26,2.17-.94,3.36-1.23,2.1-2.44,4.15-3.79,6.14-1.31,2.01-2.54,4.07-3.81,6.16-1.52,2.51-2.53,5.4-3.59,8.21-.58,1.58-1.12,3.06-1.49,4.63l-.29,1.18-.23,1.2c-.17.8-.27,1.6-.37,2.41-.26,1.99-.37,4.02-.35,6.04.04,3.06.29,6.16,1,9.12.54,2.3,1.49,4.43,2.54,6.43.24.43.46.88.72,1.29.89,1.6,1.03,2.14.56,3.02-.11.2-.19.42-.31.59-.39.56-1.35.25-2.44-.93-1.54-1.79-2.6-3.93-3.41-6.15-.83-2.23-1.33-4.56-1.7-6.9-.52-3.49-.62-7.03-.41-10.55h.09Z"/><path class="cls-3" d="M220.76,191.72c8.53,2.02,16.65,5.3,24.33,9.31,3.82,2.04,7.54,4.25,11.15,6.62,1.79,1.21,3.58,2.42,5.31,3.7.88.62,1.74,1.28,2.59,1.93l1.28.99,1.11.88.06.05c.12.17.34.12.5.04l.22-.1.45-.24c.3-.16.62-.35.93-.53,1.26-.74,2.53-1.57,3.81-2.39,2.56-1.65,5.15-3.31,7.79-4.87,9.49-5.62,19.64-10.46,30.51-13.12,10.81-2.71,22.45-2.93,33.2.36,4.74,1.45,9.37,3.45,13.57,6.19,4.19,2.73,7.93,6.08,11.11,9.87,4.08,4.87,7.25,10.56,9.13,16.68.28.75.41,1.55.61,2.32l.53,2.34.31,2.38c.09.79.24,1.58.21,2.39l.02,2.4c0,.4.01.8,0,1.19l-.11,1.19c-.17,1.59-.43,3.15-.88,4.68-1.06,3.8-1.02,3.2-1.16-.09-.05-.82-.06-1.81-.31-2.93-.33-1.13-.22-2.36-.53-3.7-.12-.67-.24-1.36-.36-2.08-.06-.36-.12-.72-.18-1.09-.1-.36-.19-.73-.26-1.11-.16-.75-.31-1.52-.45-2.31-.17-.79-.42-1.58-.61-2.39-.3-1.46-.86-2.85-1.34-4.26-.21-.71-.56-1.38-.86-2.06-.31-.68-.6-1.37-.92-2.04-1.41-2.63-2.93-5.21-4.81-7.54-3.61-4.77-8.21-8.79-13.33-11.84-.63-.41-1.31-.7-1.96-1.06-.66-.34-1.31-.7-2.01-.99-1.37-.63-2.78-1.18-4.21-1.69-2.85-1.02-5.79-1.77-8.78-2.28-5.98-1.04-12.16-1.02-18.28-.18-7.33,1-14.63,3.39-21.62,6.56-7.01,3.17-13.68,7.14-20.22,11.31-1.57.99-3.13,2-4.75,2.98-.82.49-1.63.98-2.56,1.45-.59.29-1.38.64-2.08.72-.36.04-.74.05-1.08-.08-.34-.11-.64-.35-.96-.52l-2.25-1.77-1.98-1.5c-1.34-.97-2.67-1.96-4.04-2.89-1.36-.94-2.73-1.87-4.14-2.74-1.38-.91-2.81-1.75-4.23-2.59-5.71-3.34-11.68-6.25-17.87-8.52-4.88-1.75-9.88-3.16-14.98-4.05-5.11-.79-10.28-1.18-15.43-.85-7.75.46-15.38,2.92-22.24,6.65-6.86,3.75-13.04,8.81-17.7,14.98-3.64,4.76-6.1,10.31-7.82,15.99-1.68,5.7-2.59,11.63-2.58,17.53.01,2.6.24,5.13.66,7.68.78,4.74,1.98,7.65,2.76,9.69.77,2.07,1.23,3.29,1.47,4.43.13.5.38,1.13.43,1.47.08.57-.66.19-2.08-1.13-1.41-1.31-3.27-3.81-4.61-7.46-1.99-5.4-2.67-11.23-2.52-17.02.18-5.8,1.2-11.59,2.97-17.22,1.78-5.61,4.29-11.13,7.95-16.02,1.78-2.45,3.82-4.7,5.99-6.79,2.15-2.12,4.53-3.98,6.96-5.75,7.3-5.15,15.68-8.84,24.59-10.4,8.97-1.42,17.95-.75,26.6,1.15v.1Z"/><path class="cls-3" d="M183.09,286.63c-4.06-1.07-8.09-2.29-12.06-3.68-1.44-.53-2.93-.93-4.35-1.54-5.03-2.04-9.92-4.57-14.35-7.82-1.93-1.49-3.81-3.08-5.48-4.88-1.05-1.17-1.99-2.46-2.77-3.84-.79-1.38-1.25-2.93-1.54-4.47-.19-.96.15-.89.83-.29.34.3.77.73,1.23,1.23.26.24.54.49.81.77.14.14.26.28.41.42.11.16.22.32.33.48l1.34,1.65c.49.52,1.02,1,1.48,1.53.49.51,1.02.99,1.52,1.49.51.49,1.1.93,1.63,1.4.53.48,1.16.87,1.72,1.32.56.47,1.17.88,1.76,1.32.59.44,1.2.87,1.83,1.27.63.4,1.23.85,1.89,1.22,3.07,1.92,6.66,3.22,10.16,4.51,3.86,1.42,7.81,2.66,11.81,3.74,2.46.67,4.94,1.29,7.44,1.85,3.78.84,7.6,1.65,11.41,2.25,2.96.47,5.91.69,8.88,1.05.66.08,1.3.13,1.96.24.61.11,1.12.21,1.54.33.42.13.75.29,1.02.44.53.29.78.75.91,1.27.06.23.16.47.17.66.03.61-1.08,1.12-2.81,1-5.21-.38-10.79-1.12-16.35-2.15-4.13-.75-8.27-1.67-12.38-2.68l.02-.09Z"/><path class="cls-3" d="M118.86,295.59c-1.22-3.56-1.74-7.22-1.88-10.83-.14-3.62.1-7.2.55-10.72.91-7.06,2.73-13.91,5.02-20.56,1.68-4.85,3.56-9.63,5.78-14.24,3.94-8.12,8.6-15.88,13.97-23.13,5.41-7.21,11.48-13.95,18.46-19.73,3.09-2.56,6.33-4.92,9.66-7.13,3.32-2.23,6.74-4.28,10.24-6.16,4.49-2.41,9.12-4.62,13.99-6.27,4.85-1.64,9.95-2.89,15.13-2.76,1.62.18,2.3.33,2.25.47-.04.15-.82.34-2.12.78-2.6.84-7.11,2.42-12.43,4.26-9.43,3.33-18.44,8.11-26.76,13.83-4.18,2.85-8.19,5.92-11.88,9.35-3.72,3.43-7.21,7.15-10.49,11.07-3.94,4.68-7.49,9.86-10.69,15.28-3.21,5.41-6.03,11.1-8.5,16.87-1.36,3.17-2.61,6.39-3.69,9.66-1.11,3.26-2.08,6.57-2.85,9.92-1.58,6.68-2.52,13.57-2.06,20.34.12,2.08.45,4.14.92,6.14.5,2,1.2,3.91,2.13,5.77,1.85,3.7,4.41,7.07,7.32,10.1,4.43,4.59,9.6,8.51,15.05,11.95,5.46,3.43,11.21,6.4,17.08,8.98,9.15,3.99,18.51,6.99,28.07,9.28,2.11.5,4.18.91,6.31,1.33,3.95.77,6.55,1.11,8.35,1.44,1.8.35,2.8.63,3.68.95.4.15.93.22,1.24.28.26.07.29.22.01.5-.28.28-.86.58-1.66.78-1.59.44-4.07.61-7.11.25-4.52-.49-9-1.38-13.48-2.47-4.47-1.09-8.93-2.41-13.37-3.91-8.86-3.02-17.63-6.78-25.99-11.44-6.19-3.49-12.19-7.47-17.56-12.34-2.68-2.44-5.21-5.09-7.41-8.05-2.2-2.96-4.1-6.19-5.36-9.8l.08-.05Z"/><path class="cls-3" d="M206.51,329.63c-.32-3.76-.03-7.41.44-10.99.18-1.31.29-2.62.55-3.91.92-4.54,2.16-9.01,3.86-13.29.75-1.9,1.42-3.84,2.26-5.69.55-1.18,1.11-2.36,1.76-3.5.64-1.14,1.32-2.26,2.24-3.22.73-.51.58-.47.61.33.01.79.01,2.18-.47,3.55-.85,2.44-1.46,4.93-2.42,7.29-.89,2.4-1.66,4.84-2.6,7.26-1.08,2.92-1.61,6.12-2.14,9.23-.59,3.43-.97,6.9-.92,10.34.03,2.11.24,4.22.82,6.17.11.36.25.71.38,1.07.17.32.3.69.5.97l.28.45.32.38c.15.2.33.33.52.47.19.13.44.18.66.11.22-.07.41-.22.57-.39.09-.09.15-.16.24-.29.11-.15.21-.29.31-.46.21-.31.4-.66.58-1,1.14-2.19,1.87-4.63,3.01-7.01.25-.53.48-1.06.8-1.58,1.19-1.92,2.08-2.35,3.04-1.94.22.09.46.16.63.28.29.21.36.56.31.98-.04.44-.26.9-.58,1.49-.97,1.75-1.8,3.8-2.75,5.94-.48,1.07-.95,2.18-1.55,3.32-.3.57-.64,1.16-1.08,1.78l-.17.24-.28.34c-.19.23-.4.43-.62.62-.42.42-.93.69-1.45.9-.78.3-1.67.28-2.45-.02-.19-.09-.39-.14-.57-.26l-.52-.39c-.33-.27-.74-.49-.99-.82-.27-.3-.43-.49-.63-.74l-.47-.73c-.3-.49-.52-.98-.75-1.48-.8-1.97-1.15-3.91-1.36-5.81h.08Z"/><path class="cls-3" d="M355.53,274.52c2.55,1.05,5.15,2.1,7.78,3.09l2.27.84.81.3.87.34c.6.22,1.1.48,1.62.72.15.06.24.13.32.2l.25.22c.18.15.34.29.44.43l.35.41.17.2.09.23c.02.07.07.18.05.28.02.12.03.23.01.34-.03.21-.09.37-.17.54-.15.32-.36.63-.66.94-.87.92-2.73,1.71-4.3,2.37l-1.56.63-1.45.55c-1.71.6-3.4,1.24-5.04,1.92-.82.34-1.64.68-2.43,1.04-.38.16-.84.37-1.13.51-.15.06-.29.13-.44.21-.15.08-.3.17-.44.29-.13.11-.29.27-.24.45.18.28.47.51.82.64.17.07.36.11.55.15l.52.06c.19.03.4.03.6.03.82.03,1.67-.03,2.53-.13,1.53-.18,3.08-.49,4.65-.83,1.57-.33,3.14-.73,4.85-.93,2.2-.26,4.52.1,6.54.92,1.02.39,1.96.89,2.85,1.44l1.32.82c.43.28.83.62,1.25.92,1.02.79.82.84-.35.77-1.19-.01-3.38-.29-5.44-.96-1.82-.65-3.55-.88-5.3-.7-1.71.14-3.75.71-5.82,1.16-2.08.46-4.23.89-6.63.89l-.9-.02-.95-.1c-.42,0-.92-.19-1.35-.31-.44-.15-.93-.22-1.28-.47-.37-.22-.77-.4-1.11-.64l-.86-.81c-.25-.28-.36-.62-.54-.93-.21-.28-.23-.7-.19-1.07.14-.87.64-1.55,1.39-2.21.38-.32.82-.62,1.27-.9l.71-.4c.22-.12.53-.29.64-.34,1.22-.61,2.45-1.09,3.67-1.57,2.42-.94,4.85-1.88,7.26-2.82l1.04-.4c.23-.09.47-.19.71-.32.12-.06.24-.13.33-.24.13-.13-.06-.22-.14-.27-.22-.12-.45-.22-.69-.32l-.38-.15-.53-.2-2-.72-4.02-1.44c-3.3-1.21-6.57-2.53-9.77-4.21-.6-.33-1.2-.68-1.8-1.06-.3-.2-.73-.54-1.09-.8-.33-.33-.73-.62-.98-.98-.59-.68-.93-1.48-.86-2.34.01-.21.1-.42.16-.62.09-.19.22-.37.33-.55.1-.19.27-.32.41-.48.18-.11.34-.24.53-.34.72-.42,1.67-.57,2.6-.62l.7-.02.53.02c.35,0,.69.04,1.04.06,1.37.12,2.7.32,4.02.57,2.04.4,4.03.85,6.01,1.34,1.99.45,3.96.94,5.92,1.51.87.25,1.72.48,2.58.77,1.6.54,2.63,1,3.28,1.51.62.56.92,1.02,1.08,1.52.07.23.19.47.2.65.02.3-.32.38-.96.38-.64-.01-1.63-.02-2.75-.39-3.38-1.01-6.9-2-10.47-2.88-1.8-.37-3.62-.7-5.42-.96-.9-.1-1.79-.29-2.67-.38-.43-.05-.87-.1-1.29-.12-.21-.01-.43-.04-.63-.03h-.47s0-.02-.02-.02c0,0-.01,0-.01.02,0,0-.01,0,.02.02l.04.04h.01s.1.07.1.07l.2.12c2.11,1.32,4.71,2.44,7.28,3.46l-.03.09Z"/><path class="cls-3" d="M393.87,280.22l-.13-1.22-.2-1.06c-.04-.35-.19-.71-.3-1.06-.12-.36-.21-.72-.38-1.07-.55-1.43-1.37-2.83-2.23-4.2-1.79-2.71-3.96-5.27-6.3-7.66-1.71-1.74-3.59-3.33-5.46-4.85-1.57-1.28-3.46-2.4-5.32-3.5-1.88-1.09-3.79-2.13-5.74-3.08-1.95-.94-3.93-1.85-5.93-2.42-.25-.06-.5-.14-.74-.19l-.44-.1c-.24-.04-.49-.08-.74-.05-.25.03-.49.19-.58.43-.09.24.02.5.15.71.12.19.27.37.44.54l.15.15.25.23c.17.15.35.3.52.45.72.58,1.5,1.13,2.3,1.66,1.6,1.05,3.28,2,4.98,2.93l.83.46c.27.14.65.39.87.55l1.54,1.06c1.02.72,2.05,1.41,3.08,2.18,1.03.75,2.12,1.73,2.89,2.75.4.51.77,1.01,1.14,1.52l.55.76.27.38.14.19s.08.03.04.12l.04.12c.27.79.37,1.16.29,1.2-.09.05-.4-.19-1.11-.44-.72-.24-1.54-.78-2.53-1.42-.48-.32-1-.68-1.48-1.03-.48-.36-.93-.69-1.45-1.06-.93-.66-2.03-1.35-3.1-2.04l-1.61-1.04-.79-.55-.17-.12-.12-.08-.36-.22c-2.16-1.25-4.46-2.57-6.64-4.14-.55-.4-1.09-.81-1.63-1.26-.27-.23-.54-.46-.8-.71-.08-.07-.11-.1-.22-.21l-.32-.33c-.21-.21-.42-.43-.6-.67-.77-.93-1.21-1.95-1.22-2.92.01-.49.12-.99.35-1.45.25-.44.6-.83.99-1.13.8-.58,1.84-.79,3.01-.7l.87.12c.14.01.29.06.43.09l.35.09c.36.09.68.2,1.02.31,1.31.46,2.54.97,3.76,1.5,2.88,1.31,5.71,2.73,8.53,4.27,1.41.77,2.8,1.56,4.18,2.45,1.43.94,2.67,1.96,3.9,3,2.67,2.32,5.17,4.81,7.45,7.54,1.14,1.36,2.22,2.78,3.19,4.3,1,1.49,1.83,3.13,2.52,4.84.18.55.38,1.08.54,1.64.12.57.26,1.15.36,1.71.13,1.09.29,2.17.34,3.26.17,2.18.17,4.38-.03,6.57-.27,3.32-1.07,6.6-2.27,9.71-1.23,3.09-2.87,6.01-4.83,8.65-3.02,4.14-6.75,7.69-11.09,10.39-.96.59-1.9,1.17-2.92,1.67-3.81,1.84-5.36,1.57-6.4,1.06-.24-.13-.54-.23-.69-.36-.26-.22-.02-.55.58-1.04.6-.5,1.55-1.16,2.81-1.8,3.74-1.94,7.38-4.23,10.49-7.17,3.1-2.9,5.74-6.43,7.64-10.31,2.82-5.75,3.77-12.34,3-18.88l.09-.02Z"/><path class="cls-3" d="M199.23,327.66c-.04.42-.09.72-.2,1.19-.12.57-.36,1.1-.71,1.5-.26.29-.55.57-.92.7-1.28.43-2.79-.39-3.15-1.62l-.03-.12c-.15-.58-.11-1.07-.04-1.51.1-.57.3-1.13.77-1.46.15-.1.41.14.64.44.23.3.48.65.46.84-.03.23-.03.44,0,.6.01.08.03.16.04.2-.02.01-.04.03-.06.05-.03.05-.07.14-.05.27.06.26.32.23.48.15.1-.04.19-.12.25-.23.03-.06.06-.11.08-.18.03-.12.05-.27.07-.41.05-.35.07-.69.03-.99-.03-.22-.08-.43-.17-.58-.07-.15-.25-.28-.27-.25-.12,0-.35.27-.31.36,0,0,.02.02,0,0-.02-.02-.05-.03-.07-.05-.06-.03-.08-.06-.14-.07-.15-.06-.19-.03-.13-.04.01,0,.03-.01.05-.02-.08.03-.19.1-.32.18-.11.07-.22.16-.33.25-.18.14-.37.24-.59.19-.21-.03-.47-.26-.53-.65-.1-.59.13-1.13.39-1.5.27-.38.61-.66,1.03-.84.42-.16.94-.24,1.51-.11.29.06.59.2.83.37.19.13.36.28.51.44.45.49.68,1.06.79,1.55.11.5.12.94.11,1.35h-.06Z"/><path class="cls-3" d="M273.77,144.05c1.9,3.31,1.98,7.33.94,10.74l-.68,1.84c-.27.59-.59,1.16-.91,1.72-1.26,1.9-2.86,3.53-4.68,4.79-1.79,1.27-3.75,2.18-5.76,2.91-1.79.63-3.61,1.15-5.47,1.49-.59.12-1.19.19-1.8.28-.61.04-1.21.07-1.82.04-1.22-.02-2.44-.24-3.57-.74-.67-.51-.55-.46.13-.87.34-.21.79-.39,1.31-.64.26-.11.53-.23.82-.33.29-.09.58-.14.89-.17.54-.08,1.08-.14,1.62-.26l1.61-.23c1.07-.18,2.13-.43,3.18-.72,2.1-.61,4.13-1.46,6.08-2.49,2.31-1.27,4.14-3.37,5.28-5.7.6-1.29,1.08-2.66,1.17-4.08.12-.71.04-1.41.01-2.13,0-.36-.13-.7-.18-1.05-.07-.35-.12-.7-.27-1.03-.51-1.68-1.55-3.19-2.9-4.36-.26-.21-.48-.48-.78-.66l-.86-.57c-.55-.42-1.22-.65-1.84-.96l-.47-.22c-.16-.06-.34-.1-.5-.16l-1.01-.3c-.33-.1-.7-.22-.93-.23-.04,0-.13-.02-.14,0-.01,0-.02,0-.03,0-.02-.05-.01-.23-.06-.33-.02-.06-.06-.13-.07-.17,0-.03-.02-.07-.04-.1-.01-.03-.06-.07-.07-.08,0,0,0-.01-.01-.02-.03,0,.13.04.3-.03.06-.03.17-.05.25-.09.07-.03.19-.12.17-.09.01,0,0,.02.04.04.04.04.1.1.17.14.14.1.33.19.51.25.41.12.9.24,1.42.28,1.04.11,2.15.1,3.37.21.53.04,1.11.1,1.71.26,1.14.31,2.04,1.11,2.26,1.79.21.69.05,1.14-.34,1.45-.17.15-.34.3-.52.36-.31.11-.64-.02-.91-.15-.28-.15-.52-.22-.78-.27-.42-.12-1.29-.2-2.25-.2-.98,0-2.07.02-3.31-.13-.64-.09-1.26-.18-2.06-.51-.41-.18-.8-.39-1.19-.7-.2-.16-.38-.31-.59-.55-.1-.11-.2-.23-.31-.4l-.16-.25c-.06-.12-.12-.24-.17-.36l-.07-.19c-.03-.08-.05-.19-.07-.28-.04-.21-.07-.37-.07-.63.01-.59.2-1.18.65-1.7.05-.06.11-.12.16-.18l.13-.12c.09-.07.19-.14.29-.21.2-.13.44-.24.54-.27.26-.09.61-.17.75-.17.8-.06,1.13.05,1.56.12l1.76.51c1.74.52,3.4,1.41,4.93,2.5,1.46,1.2,2.84,2.57,3.74,4.28l-.07.05Z"/><path class="cls-3" d="M273.25,163.95c-.45,3.37.87,6.47,3.7,8.37,2.38,1.6,5.41,2.14,8.22,2.31,1.2.08,2.41.07,3.61-.03.94-.08,1.75-.75,1.75-1.75,0-.88-.8-1.83-1.75-1.75s-1.86.1-2.79.07c-.6-.02-1.19-.06-1.79-.12-.14-.02-.29-.04-.43-.05-.2-.02.15.02.15.02-.08-.01-.17-.02-.25-.04-.32-.05-.63-.1-.95-.17-.61-.12-1.22-.28-1.81-.47-.28-.09-.56-.2-.84-.31.33.13.04.02-.1-.05s-.3-.14-.45-.22c-.26-.14-.51-.28-.75-.44-.12-.08-.23-.16-.35-.24.38.26-.03-.03-.12-.11-.21-.19-.41-.38-.6-.6-.08-.09-.36-.5-.11-.12-.09-.14-.19-.27-.27-.41s-.16-.29-.24-.43c-.03-.06-.05-.11-.08-.17-.09-.19.1.32,0,0-.1-.34-.22-.67-.28-1.02-.02-.09-.03-.18-.05-.27.02.15.02.24.01.04-.01-.22-.03-.45-.03-.67,0-.46.04-.92.1-1.38.12-.94-.89-1.75-1.75-1.75-1.05,0-1.62.81-1.75,1.75h0Z"/><path class="cls-3" d="M248.7,187.26c2.75,4.28,8.91,5.78,13.26,3.04.81-.51,1.2-1.65.65-2.5s-1.63-1.2-2.5-.65c-.2.13-.4.24-.61.35-.1.05-.21.1-.32.15-.19.1.31-.1-.02,0-.45.14-.88.27-1.35.35s.4-.02-.07,0c-.09,0-.19.02-.28.02-.23.01-.47.02-.7.01s-.47-.04-.7-.05c.47.02.03,0-.07-.02-.12-.02-.23-.04-.34-.07-.23-.05-.46-.11-.68-.18-.11-.03-.22-.07-.33-.11-.05-.02-.43-.15-.17-.06s-.15-.07-.17-.08c-.11-.05-.21-.1-.31-.16-.21-.11-.41-.23-.6-.35-.1-.06-.19-.13-.29-.19-.29-.19.14.14-.02,0-.17-.16-.35-.3-.52-.46s-.31-.35-.47-.51c-.15-.15.17.26-.02-.02-.08-.12-.16-.23-.24-.35-.52-.8-1.64-1.2-2.5-.65-.8.52-1.21,1.64-.65,2.5h0Z"/><path class="cls-3" d="M300.49,159.16c.37-2.7-2.04-4.81-4.04-6.22-2.34-1.65-5.47-2.91-8.39-2.57-.58.07-1.1.17-1.54.6-.59.58-.71,1.53-.28,2.23s1.25,1,1.97,1.3,1.48.57,2.22.85c.47.18.93.36,1.4.55.11.05.23.09.34.14.36.15-.26-.11.02,0,.24.11.49.21.73.32,1.03.47,2.06.99,2.99,1.64.1.07.2.15.31.22.18.12-.29-.24-.13-.1.06.05.12.09.18.14.18.15.35.3.51.47.08.08.14.17.22.24.15.15-.24-.36-.04-.04.11.18.42.84.17.22.34.85,1.18,1.54,2.15,1.22.82-.27,1.59-1.24,1.22-2.15-.74-1.84-2.32-3.04-4.01-3.98s-3.56-1.68-5.39-2.37c-.65-.25-1.3-.49-1.95-.75-.29-.11.38.17.17.07-.05-.02-.1-.04-.14-.06-.09-.04-.19-.09-.28-.14s-.33-.23,0,.02c.55.42.89,1.45.24,2.27-.2.24-.38.39-.63.49-.33.14-.21.09-.12.06.34-.12-.55.04-.1.01.31-.02.63-.03.94-.02.15,0,.29.02.44.03.1,0,.19.02.29.03-.15-.02-.22-.04-.03,0,.66.13,1.3.29,1.92.52.14.05.28.11.42.16.19.07-.05-.02-.08-.03.09.04.18.08.27.12.29.13.57.28.85.43.62.34,1.21.74,1.78,1.15.16.12-.08-.06-.09-.07.08.07.17.14.26.21.12.1.23.2.34.3.23.2.45.42.65.64.1.11.21.22.3.34.04.04.07.08.11.13.16.19-.03-.07-.08-.1.16.11.3.44.39.61.04.07.21.45.08.14-.13-.3,0,0,.02.08.05.17.05.48,0-.13.01.17-.04.48.05-.16-.12.9.22,1.92,1.22,2.15.82.19,2.02-.25,2.15-1.22h0Z"/><path class="cls-3" d="M86.73,162.76c-.14-.13-.1-.33.02-.57.04-.08.23-.18.28-.15.11.05.22.11.32.17.06.04.76.82,1.02,1.07.25.25.43.54.61.82l1.09,1.75c.08.13.14.27.19.41.16.5.41.95.71,1.38.05.07.08.15.18.2.16.07.88,1.26.93,1.44.12.44.29.86.43,1.29.02.06.08.1.04.2-.1.21,0,.31.06.44.08.18.17.35.2.55.02.1-.03.24-.06.37-.03.12-.3.23-.34.22-.12-.03-.21.11-.31.18-.03.02-.08.05-.11.07-.08.04-1.1-.67-1.14-.79-.01-.02-.89-1.39-1.01-1.58-.06-.08-.06-.19-.08-.29-.03-.05-.69-1.18-.72-1.22-.1-.26-.27-.47-.25-.79,0-.06-.03-.11-.05-.16-.22-.41-.36-.86-.53-1.29-.09-.22-.2-.42-.3-.64-.02-.04-.02-.09-.03-.13-.01-.05-.02-.11-.05-.16-.25-.5-.45-1.02-.74-1.5-.06-.11-.21-.73-.29-.86-.04-.07-.02-.4-.08-.45Z"/><path class="cls-3" d="M85.66,170.2c-.11.15-.35,0-.55-.1-.07-.04-.15-.2-.13-.26.05-.14.09-.27.12-.37.04-.06.75-.72.98-.97.22-.24.47-.44.75-.59l1.63-.97c.12-.07.25-.12.39-.16.47-.12.89-.34,1.29-.61.07-.04.14-.07.18-.17.06-.16,1.17-.8,1.34-.84.42-.08.81-.21,1.22-.31.06-.01.1-.07.19-.02.21.12.3.03.42-.02.16-.07.33-.13.53-.13.1,0,.23.06.36.11.12.05.21.3.21.35-.02.12.1.21.17.31.02.03.05.08.06.11.02.04-.12.33-.27.62-.17.26-.37.5-.42.53-.02.01-1.29.8-1.47.91-.07.05-.18.05-.27.06-.05.03-1.09.63-1.13.65-.24.08-.44.24-.74.2-.06,0-.1.02-.15.04-.38.19-.8.31-1.2.45-.21.07-.4.18-.59.26-.04.02-.08.01-.12.02-.05,0-.1.01-.15.03-.46.22-.95.39-1.41.61-.11.05-.7.13-.81.21-.07.03-.39-.03-.43.03Z"/><path class="cls-3" d="M84.08,166.77c-.19,0-.29-.17-.36-.42-.02-.08.05-.29.11-.31.11-.03.23-.07.34-.09.07,0,1.05.07,1.39.06.33,0,.65.03.96.08l1.94.23c.14.02.28.05.42.1.47.18.96.27,1.46.34.08.01.16.04.26-.01.15-.08,1.49.18,1.66.27.4.22.81.4,1.21.61.06.03.13.02.16.12.08.22.22.23.35.27.18.07.36.13.51.28.08.07.13.21.19.32.06.1-.07.36-.1.38-.11.06-.08.21-.1.33,0,.04-.02.09-.03.12-.01.02-.32.14-.63.19-.3.05-.62.1-.67.08-.01,0-.4-.07-.8-.15-.41-.07-.83-.14-.92-.14-.09,0-.17-.07-.25-.12-.04-.02-1.27-.19-1.32-.2-.24-.09-.51-.08-.72-.3-.04-.05-.09-.05-.14-.07-.43-.11-.85-.31-1.27-.47-.21-.09-.44-.14-.66-.21-.04-.01-.07-.05-.11-.07-.05-.03-.09-.06-.14-.08-.52-.15-1.02-.38-1.55-.51-.12-.03-.66-.35-.8-.38-.08-.02-.28-.26-.36-.26Z"/><path class="cls-3" d="M88.92,172.04c.02.2-.19.29-.51.34-.1.01-.37-.07-.4-.14-.05-.12-.1-.24-.14-.36-.01-.07.01-1.08-.02-1.44,0-.33.05-.65.12-.97.13-.65.23-1.3.34-1.95.02-.14.07-.28.13-.42.22-.46.31-.96.37-1.46.01-.08.04-.17-.01-.26-.08-.15.17-1.5.26-1.66.22-.41.38-.82.57-1.24.03-.06.01-.13.11-.17.22-.09.21-.23.25-.36.06-.18.12-.36.22-.54.05-.09.18-.15.29-.23.1-.07.38.04.41.07.08.1.23.06.35.08.04,0,.1.01.13.02.07.02.36,1.19.33,1.31,0,.01-.05.42-.09.85-.05.43-.09.87-.09.96,0,.1-.07.18-.11.27-.02.04-.14,1.33-.16,1.38-.07.26-.08.53-.31.75-.04.04-.05.1-.06.15-.09.45-.27.88-.43,1.31-.08.22-.12.45-.19.68-.01.04-.05.08-.07.11-.03.05-.06.09-.07.15-.13.54-.37,1.05-.47,1.6-.02.13-.41.65-.44.8-.02.08-.32.27-.31.35Z"/><path class="cls-3" d="M448.98,98.08c-.08-.21.07-.4.31-.58.08-.06.33-.07.37-.01.08.12.17.23.24.35.04.07.36,1.26.5,1.67.13.39.16.79.21,1.19l.22,2.43c.01.18,0,.36-.02.54-.09.61-.07,1.22,0,1.83.01.1,0,.2.08.3.12.16.25,1.8.21,2.01-.1.53-.15,1.06-.22,1.59-.01.08.03.15-.06.23-.21.17-.16.33-.16.49,0,.23,0,.45-.08.69-.03.11-.16.24-.25.35-.09.11-.42.08-.46.05-.11-.09-.26,0-.4.02-.05,0-.11.02-.15.01-.04,0-.26-.32-.43-.66-.17-.34-.32-.7-.32-.78,0-.03-.2-1.95-.22-2.2-.02-.11.03-.23.06-.35,0-.07-.1-1.61-.11-1.67.03-.32-.03-.64.15-.96.03-.06.03-.13.03-.19-.01-.55.07-1.09.12-1.64.03-.28,0-.56.02-.83,0-.05.02-.1.03-.15.01-.06.03-.13.03-.19,0-.66.06-1.31.01-1.97,0-.15.16-.88.14-1.05,0-.1.19-.43.15-.52Z"/><path class="cls-3" d="M443.89,105.33c-.19.1-.37-.17-.53-.39-.05-.07-.05-.28,0-.33.12-.12.24-.23.33-.31.07-.04,1.17-.35,1.55-.49.36-.14.73-.2,1.1-.22l2.23-.16c.16,0,.33,0,.49.04.56.12,1.12.11,1.68.04.09-.01.19,0,.28-.08.15-.13,1.66-.22,1.85-.17.48.13.97.2,1.45.31.07.02.14-.02.21.08.15.23.3.18.45.19.21,0,.42.04.63.15.11.05.21.18.32.3.1.11.06.42.03.46-.09.11,0,.27.01.4,0,.05.01.11,0,.14,0,.05-.3.27-.62.49-.32.18-.66.32-.72.32-.03,0-1.79.16-2.03.18-.11.02-.21-.04-.32-.08-.07,0-1.48.08-1.53.09-.29-.04-.59.02-.88-.18-.06-.04-.12-.03-.18-.03-.5,0-1-.09-1.5-.16-.26-.03-.51-.02-.77-.04-.05,0-.09-.03-.14-.04-.06-.02-.12-.04-.17-.04-.6-.01-1.21-.09-1.81-.09-.14,0-.8-.22-.96-.21-.09,0-.39-.23-.47-.19Z"/><path class="cls-3" d="M443.74,100.6c-.23-.12-.28-.38-.24-.7.01-.1.19-.27.27-.25.15.04.31.08.45.14.08.04,1.25.8,1.67,1.03.4.23.78.48,1.14.75l2.27,1.6c.17.12.32.25.46.4.49.51,1.04.95,1.61,1.37.1.07.18.15.32.17.23.02,1.73,1.23,1.88,1.43.38.51.79.98,1.19,1.48.06.07.15.11.15.23,0,.29.16.39.29.53.18.2.37.39.49.65.06.13.07.31.09.48.02.15-.25.34-.3.34-.16,0-.19.17-.28.28-.03.04-.07.08-.1.11-.02.02-.46-.08-.85-.23-.4-.15-.8-.33-.86-.38-.02-.01-.46-.35-.92-.71-.47-.36-.96-.72-1.06-.79-.11-.07-.18-.2-.25-.31-.04-.05-1.47-1.09-1.52-1.14-.26-.26-.59-.44-.74-.83-.03-.08-.09-.12-.14-.17-.47-.42-.88-.91-1.31-1.38-.22-.24-.47-.45-.7-.68-.04-.04-.07-.1-.1-.15-.04-.06-.08-.13-.14-.18-.56-.52-1.07-1.11-1.65-1.61-.13-.12-.64-.82-.8-.95-.09-.08-.23-.48-.32-.53Z"/><path class="cls-3" d="M445.41,110.94c-.12.25-.42.27-.8.18-.12-.03-.35-.26-.33-.35.03-.17.07-.35.12-.51.1-.17.83-1.37,1.1-1.82.27-.42.58-.79.9-1.15l1.94-2.23c.14-.16.3-.31.48-.45.61-.46,1.1-1.01,1.57-1.6.08-.1.17-.18.2-.32.04-.23,1.39-1.74,1.6-1.9.54-.38,1.04-.81,1.55-1.22.07-.06.11-.15.24-.16.3,0,.4-.18.54-.32.19-.2.4-.39.63-.56.11-.08.3-.11.47-.15.15-.04.38.22.38.28,0,.17.2.19.32.26.04.03.09.06.12.09.07.07-.53,1.72-.66,1.85-.03.03-1.46,1.93-1.64,2.17-.08.12-.21.19-.33.27-.05.04-1.22,1.56-1.28,1.61-.28.27-.51.6-.93.75-.08.03-.13.09-.18.15-.46.5-.99.93-1.5,1.37-.26.23-.49.49-.73.73-.04.04-.11.07-.16.1-.07.04-.14.08-.19.14-.57.59-1.21,1.1-1.74,1.72-.12.14-.93.6-1.07.77-.08.09-.55.19-.6.29Z"/><path class="cls-3" d="M397.81,197.79c-.12-.11-.08-.28.02-.48.03-.06.2-.16.24-.13.09.05.19.09.27.14.05.03.65.68.87.9.22.21.36.45.52.69l.92,1.47c.07.11.12.23.16.35.14.42.35.8.59,1.16.04.06.07.13.15.16.13.06.74,1.06.79,1.21.1.37.24.72.36,1.09.02.05.07.09.03.17-.08.18,0,.26.05.37.07.15.14.29.17.46.01.08-.03.2-.06.31-.02.1-.26.2-.29.19-.11-.02-.18.09-.26.15-.03.02-.07.05-.09.06-.07.04-.93-.56-.97-.66-.01-.02-.74-1.16-.85-1.33-.05-.07-.05-.16-.07-.24-.03-.05-.59-.99-.61-1.03-.08-.22-.22-.4-.21-.66,0-.05-.02-.09-.04-.13-.18-.35-.3-.72-.44-1.08-.07-.19-.17-.36-.26-.54-.02-.03-.02-.07-.02-.11-.01-.04-.02-.09-.04-.13-.21-.42-.38-.86-.62-1.26-.05-.1-.17-.62-.24-.72-.03-.06-.01-.34-.06-.38Z"/><path class="cls-3" d="M396.92,204.05c-.09.13-.3,0-.47-.09-.06-.03-.13-.17-.11-.22.04-.12.08-.23.1-.31.1-.1.62-.62.82-.82.19-.21.4-.37.63-.5l1.37-.82c.1-.06.21-.1.33-.13.4-.1.75-.29,1.09-.51.06-.04.12-.06.15-.15.05-.14.98-.68,1.12-.71.35-.07.69-.17,1.03-.26.05-.01.08-.06.16-.02.18.11.25.03.35-.01.14-.06.28-.11.45-.1.08,0,.2.05.31.1.1.04.18.26.18.3-.02.1.09.18.14.26.02.03.04.07.05.09.02.04-.1.28-.23.53-.14.22-.31.43-.35.45-.02.01-1.07.67-1.23.77-.06.05-.15.04-.23.05-.05.03-.91.53-.95.55-.2.07-.37.2-.62.16-.05,0-.09.02-.12.04-.32.16-.67.26-1.01.37-.17.06-.33.15-.5.22-.03.01-.07,0-.1.02-.04,0-.09,0-.12.03-.39.18-.8.33-1.18.52-.09.04-.59.11-.69.17-.06.03-.33-.03-.36.02Z"/><path class="cls-3" d="M396.67,201.16c-.14.01-.21-.13-.25-.34-.01-.07.05-.24.09-.26.09-.03.17-.07.26-.09.13,0,.79.02,1.05.03.25,0,.49.03.73.07l1.46.22c.11.02.21.05.31.1.34.16.7.24,1.07.31.06,0,.12.03.19,0,.12-.07,1.1.17,1.21.24.28.19.57.34.86.51.04.02.1.01.12.09.05.19.15.19.24.22.13.06.26.1.37.22.06.05.09.17.13.26.04.09-.06.31-.09.33-.08.06-.07.18-.09.28,0,.03-.02.08-.03.1,0,.02-.25.13-.49.18-.24.05-.48.09-.52.08,0,0-.3-.06-.61-.12-.31-.06-.63-.12-.69-.12-.07,0-.13-.06-.19-.11-.03-.02-.95-.17-.99-.19-.18-.08-.38-.08-.52-.27-.03-.04-.07-.05-.1-.06-.32-.1-.61-.27-.91-.42-.15-.08-.32-.12-.47-.18-.03-.01-.05-.04-.08-.06-.03-.02-.06-.05-.1-.06-.38-.13-.74-.33-1.13-.43-.09-.03-.47-.28-.58-.31-.06-.02-.2-.22-.26-.21Z"/><path class="cls-3" d="M399.66,205.63c.02.15-.16.22-.43.25-.09,0-.31-.07-.34-.12-.05-.1-.09-.19-.12-.29-.01-.05,0-.86-.03-1.14,0-.26.04-.51.1-.76l.3-1.52c.02-.11.06-.22.11-.32.19-.36.27-.74.32-1.13,0-.06.03-.13-.01-.2-.07-.12.15-1.16.22-1.29.18-.31.32-.63.48-.95.02-.05,0-.1.09-.13.19-.07.18-.18.21-.28.05-.14.1-.28.18-.41.04-.07.15-.12.24-.17.08-.05.33.03.35.06.07.08.2.05.3.07.04,0,.08.01.11.02.07.02.32.95.3,1.04,0,.02-.13,1.24-.15,1.42,0,.08-.06.14-.1.21,0,.05-.13,1.04-.14,1.08-.06.2-.07.41-.27.58-.04.03-.04.08-.05.12-.08.35-.23.68-.37,1.01-.07.17-.11.35-.16.53,0,.03-.04.06-.06.09-.02.04-.05.07-.06.11-.12.42-.31.81-.39,1.24-.02.1-.34.5-.37.61-.02.06-.27.21-.26.27Z"/><path class="cls-3" d="M436.83,302.79c-.17-.16-.12-.4.02-.69.05-.09.27-.22.34-.19.13.07.27.13.39.21.07.05.92.99,1.24,1.3.31.3.52.65.74,1l1.33,2.13c.1.16.17.33.23.5.2.61.5,1.16.86,1.68.06.09.1.19.22.24.19.09,1.07,1.53,1.13,1.75.15.54.35,1.04.52,1.57.03.07.1.13.05.24-.11.26,0,.38.08.53.1.21.21.42.24.67.02.12-.04.29-.07.45-.03.14-.36.27-.41.26-.15-.03-.25.13-.37.21-.04.03-.09.07-.13.08-.03.01-.39-.17-.71-.4-.32-.23-.63-.5-.66-.56-.02-.03-1.09-1.7-1.23-1.92-.07-.1-.08-.23-.1-.35-.04-.06-.84-1.43-.87-1.48-.12-.31-.32-.58-.31-.95,0-.07-.03-.13-.06-.19-.26-.5-.44-1.04-.65-1.56-.1-.27-.25-.52-.37-.78-.02-.05-.02-.1-.04-.16-.02-.06-.03-.13-.06-.19-.31-.6-.55-1.24-.9-1.82-.07-.14-.25-.89-.35-1.04-.05-.09-.02-.48-.1-.55Z"/><path class="cls-3" d="M435.52,311.82c-.13.19-.42.01-.67-.12-.08-.04-.18-.23-.15-.31.06-.17.11-.33.15-.44.04-.07.91-.87,1.2-1.17.27-.3.58-.53.91-.71l1.98-1.18c.15-.09.3-.15.47-.19.57-.15,1.09-.42,1.57-.74.08-.05.17-.09.22-.21.08-.19,1.42-.97,1.62-1.01.51-.1.99-.26,1.48-.38.07-.02.12-.09.23-.03.25.15.36.03.51-.03.2-.09.4-.16.65-.15.12,0,.28.07.44.13.14.06.25.36.25.42-.03.15.12.25.2.37.03.04.06.09.08.13.02.05-.15.39-.33.75-.21.31-.45.61-.51.64-.03.02-1.57.97-1.78,1.1-.09.07-.21.06-.33.08-.06.03-1.32.76-1.37.79-.29.1-.53.29-.89.24-.07-.01-.12.02-.18.05-.46.24-.97.38-1.46.55-.25.09-.48.22-.72.32-.04.02-.1.01-.15.02-.06.01-.13.01-.18.04-.56.27-1.15.48-1.71.75-.13.06-.85.16-.99.25-.08.04-.47-.03-.52.04Z"/><path class="cls-3" d="M435.22,307.66c-.22,0-.35-.2-.42-.5-.02-.1.06-.34.13-.37.13-.04.27-.08.4-.11.08,0,1.25.09,1.66.08.39,0,.77.05,1.15.11l2.31.31c.17.02.34.07.5.13.55.22,1.13.34,1.72.44.1.01.19.05.31,0,.18-.1,1.77.25,1.96.36.47.27.95.49,1.42.75.07.04.15.02.19.14.09.27.25.27.41.33.21.09.42.16.6.33.09.08.16.25.23.38.07.12-.08.43-.12.46-.13.08-.09.26-.13.39-.01.05-.02.11-.04.14-.01.03-.39.17-.75.23-.36.06-.74.11-.8.09-.02,0-.47-.09-.96-.18-.48-.09-.99-.18-1.1-.18-.11,0-.2-.09-.3-.15-.04-.03-1.51-.25-1.57-.27-.29-.11-.61-.11-.85-.38-.05-.06-.11-.07-.17-.08-.51-.14-1-.39-1.49-.6-.25-.11-.52-.17-.77-.26-.05-.02-.09-.06-.13-.08-.06-.03-.11-.07-.17-.09-.62-.19-1.21-.48-1.83-.64-.14-.04-.77-.42-.94-.46-.09-.02-.33-.32-.42-.31Z"/><path class="cls-3" d="M439.46,314.11c.03.22-.23.32-.61.37-.12.01-.44-.09-.47-.16-.06-.14-.13-.28-.17-.41-.02-.08,0-1.24-.03-1.64,0-.38.07-.74.15-1.1.16-.73.29-1.46.43-2.19.03-.16.09-.32.16-.47.27-.51.38-1.07.46-1.63.01-.09.05-.18-.01-.29-.1-.18.22-1.68.32-1.86.26-.45.46-.91.68-1.37.03-.07.01-.15.13-.19.26-.1.25-.26.3-.4.07-.2.14-.41.26-.6.06-.1.21-.17.34-.25.12-.07.46.05.49.09.09.12.27.07.42.09.05,0,.12.02.15.03.09.03.44,1.36.41,1.5,0,.02-.05.47-.11.96-.06.48-.11.99-.12,1.09,0,.11-.08.2-.14.3-.02.05-.18,1.5-.2,1.56-.09.29-.11.6-.38.84-.05.05-.06.11-.07.17-.11.51-.34.98-.53,1.47-.1.25-.15.51-.23.76-.01.05-.06.08-.08.13-.03.05-.08.1-.09.16-.17.6-.45,1.17-.57,1.79-.03.14-.49.72-.52.88-.02.09-.38.3-.37.39Z"/><path class="cls-3" d="M224.44,397.5c-.12-.11-.08-.28.02-.48.03-.06.2-.16.24-.13.09.05.19.09.27.14.05.03.65.68.87.9.22.21.36.45.52.69l.92,1.47c.07.11.12.23.16.35.14.42.35.8.59,1.16.04.06.07.13.15.16.13.06.74,1.06.79,1.21.1.37.24.72.36,1.09.02.05.07.09.03.17-.08.18,0,.26.05.37.07.15.14.29.17.46.01.08-.03.2-.06.31-.02.1-.26.2-.29.19-.11-.02-.18.09-.26.15-.03.02-.07.05-.09.06-.07.04-.93-.56-.97-.66-.01-.02-.74-1.16-.85-1.33-.05-.07-.05-.16-.07-.24-.03-.05-.59-.99-.61-1.03-.08-.22-.22-.4-.21-.66,0-.05-.02-.09-.04-.13-.18-.35-.3-.72-.44-1.08-.07-.19-.17-.36-.26-.54-.02-.03-.02-.07-.02-.11-.01-.04-.02-.09-.04-.13-.21-.42-.38-.86-.62-1.26-.05-.1-.17-.62-.24-.72-.03-.06-.01-.34-.06-.38Z"/><path class="cls-3" d="M223.55,403.76c-.09.13-.3,0-.47-.09-.06-.03-.13-.17-.11-.22.04-.12.08-.23.1-.31.1-.1.62-.62.82-.82.19-.21.4-.37.63-.5l1.37-.82c.1-.06.21-.1.33-.13.4-.1.75-.29,1.09-.51.06-.04.12-.06.15-.15.05-.14.98-.68,1.12-.71.35-.07.69-.17,1.03-.26.05-.01.08-.06.16-.02.18.11.25.03.35-.01.14-.06.28-.11.45-.1.08,0,.2.05.31.1.1.04.18.26.18.3-.02.1.09.18.14.26.02.03.04.07.05.09.02.04-.1.28-.23.53-.14.22-.31.43-.35.45-.02.01-1.07.67-1.23.77-.06.05-.15.04-.23.05-.05.03-.91.53-.95.55-.2.07-.37.2-.62.16-.05,0-.09.02-.12.04-.32.16-.67.26-1.01.38-.17.06-.33.15-.5.22-.03.01-.07,0-.1.02-.04,0-.09,0-.12.03-.39.18-.8.33-1.18.52-.09.04-.59.11-.69.17-.06.03-.33-.03-.36.02Z"/><path class="cls-3" d="M223.29,400.87c-.14.01-.21-.13-.25-.34-.01-.07.05-.24.09-.26.09-.03.17-.07.26-.09.13,0,.79.02,1.05.03.25,0,.49.03.73.06l1.46.22c.11.02.21.05.31.1.34.16.7.24,1.07.31.06,0,.12.03.19,0,.12-.07,1.1.17,1.21.24.28.19.57.34.86.51.04.02.1.01.12.09.05.19.15.19.24.22.13.06.26.1.37.22.06.05.09.17.13.26.04.09-.06.31-.09.33-.08.06-.07.18-.09.28,0,.03-.02.08-.03.1,0,.02-.25.13-.49.18-.24.05-.48.09-.52.08,0,0-.3-.06-.61-.12-.31-.06-.63-.12-.69-.12-.07,0-.13-.06-.19-.11-.03-.02-.95-.17-.99-.19-.18-.08-.38-.08-.52-.27-.03-.04-.07-.05-.1-.06-.32-.1-.61-.27-.91-.42-.15-.08-.32-.12-.47-.18-.03-.01-.05-.04-.08-.06-.03-.02-.06-.05-.1-.06-.38-.13-.74-.33-1.13-.43-.09-.03-.47-.28-.58-.31-.06-.02-.2-.22-.26-.21Z"/><path class="cls-3" d="M226.28,405.34c.02.15-.16.22-.43.25-.09,0-.31-.07-.34-.12-.05-.1-.09-.19-.12-.29-.01-.05,0-.86-.03-1.14,0-.26.04-.51.1-.76l.3-1.52c.02-.11.06-.22.11-.32.19-.36.27-.74.32-1.13,0-.06.03-.13-.01-.2-.07-.12.15-1.16.22-1.29.18-.31.32-.63.48-.95.02-.04,0-.1.09-.13.19-.07.18-.18.21-.28.05-.14.1-.28.18-.41.04-.07.15-.12.24-.17.08-.05.33.03.35.06.07.08.2.05.3.07.04,0,.08.01.11.02.07.02.32.95.3,1.04,0,.02-.13,1.24-.15,1.42,0,.08-.06.14-.1.21,0,.05-.13,1.04-.14,1.08-.06.2-.07.41-.27.58-.04.03-.04.08-.05.12-.08.35-.23.68-.37,1.01-.07.17-.11.35-.16.53,0,.03-.04.06-.06.09-.02.04-.05.07-.06.11-.12.42-.31.81-.39,1.24-.02.1-.34.5-.37.61-.02.06-.27.21-.26.27Z"/><path class="cls-3" d="M185.19,206.76c1.66-.75,3.33-1.44,5.06-1.97.63-.19,1.22-.49,1.88-.62,2.26-.56,4.61-.74,6.9-.74,1.02-.05,2.05.06,3.05.15.65.08,1.28.24,1.91.39.32.06.61.23.92.32.3.1.6.2.92.3.38.14.27.29-.11.41-.38.14-1,.14-1.72.19-.64.04-1.27.18-1.87.15-.61.05-1.22.12-1.82.16-.6.03-1.21.05-1.82.08-.61.05-1.22.09-1.84.14-.74.04-1.48.25-2.22.43-.73.24-1.46.48-2.19.7-1.59.54-3.18,1.11-4.7,1.87-.95.43-1.86.95-2.77,1.47l-2.02,1.26c-.64.47-1.29.93-1.89,1.44-.46.41-.88.85-1.29,1.29l-1.16,1.39c-.18.2-.32.42-.49.62-.63.75-.97.87-1.64.59-.15-.06-.31-.11-.45-.19-.47-.26-.53-.86-.14-1.55,1.15-2.06,2.88-3.87,4.82-5.39.7-.6,1.48-1.09,2.23-1.61.79-.47,1.61-.9,2.41-1.34l.04.06Z"/><path class="cls-3" d="M268.94,281.76c0,.28-.31.4-.75.43-.14,0-.49-.15-.52-.24-.05-.18-.1-.35-.13-.52,0-.09.18-1.53.19-2.04.02-.49.1-.95.2-1.41.21-.93.32-1.9.59-2.82.05-.21.14-.4.25-.59.39-.64.6-1.34.74-2.06.02-.12.08-.24,0-.38-.12-.24.41-2.17.57-2.4.39-.55.71-1.12,1.09-1.68.05-.08.04-.19.2-.22.38-.07.39-.28.49-.46.14-.25.3-.48.53-.7.11-.11.34-.16.53-.23.18-.06.6.19.64.25.1.17.35.17.55.24.07.02.15.05.2.08.09.06.44,1.82.35,1.96,0,.02-.16.57-.32,1.15-.16.58-.31,1.2-.33,1.33-.02.14-.14.24-.23.35-.04.05-.46,1.84-.49,1.91-.17.34-.2.73-.59,1-.08.05-.09.13-.11.2-.19.63-.52,1.21-.82,1.8-.13.32-.26.62-.39.93-.03.06-.08.1-.12.15-.05.06-.11.12-.14.19-.3.74-.74,1.43-.99,2.19-.07.17-.64.9-.71,1.11-.04.11-.48.36-.47.48Z"/><path class="cls-3" d="M273.44,285.38c-.15.16-.37-.05-.63-.45-.08-.13-.19-.55-.16-.63.07-.15.15-.3.23-.42.05-.07,1.05-.65,1.38-.87.33-.22.67-.35,1.02-.46.71-.22,1.42-.5,2.15-.64.16-.04.33-.04.5-.01.58.09,1.14,0,1.69-.14.09-.02.19-.02.27-.14.13-.2,1.66-.43,1.86-.36.51.17,1.01.27,1.51.42.07.02.14-.03.21.1.16.3.31.24.46.26.21.02.42.07.63.17.1.05.21.22.31.36.09.13.05.59.02.64-.09.15-.01.36,0,.55,0,.06,0,.15,0,.2-.02.11-1.14.93-1.25.94,0,0-.11.02-.28.05-.16.03-.37.08-.59.12-.44.1-.89.2-.98.23-.1.03-.2-.03-.3-.07-.05-.02-1.35.3-1.4.3-.28-.02-.54.11-.84-.12-.06-.04-.11-.03-.17-.02-.47.08-.95.03-1.43.03-.25,0-.48.06-.73.07-.04,0-.09-.03-.14-.04-.06-.02-.12-.04-.17-.03-.57.07-1.17.02-1.72.18-.13.03-.81-.11-.95-.05-.08.03-.44-.24-.5-.17Z"/></svg>