<?xml version="1.0" encoding="UTF-8"?><svg id="Layer_1" xmlns="http://www.w3.org/2000/svg" width="520" height="520" viewBox="0 0 520 520"><defs><style>.cls-1{opacity:.15;}.cls-1,.cls-2{fill:#231f20;stroke-width:0px;}</style></defs><path class="cls-2" d="M236.31,217.69c-.43.46-.86.93-1.28,1.4-.16.17-.23.38-.4.55-.58.58-1.22,1.18-1.67,1.79-.22.26-.38.55-.49.84-.08.18-.08.38-.2.55-.16.17-.28.35-.5.56-.14.13-.18.13-.41.01-.24-.11-.72-.38-.94-.76-.34-1.27.07-2.42.76-3.09.43-.42.55-1.01.83-1.52.3-.56.7-1.07,1.06-1.6.22-.32.46-.64.67-.97.31-.5.69-.97.92-1.51.18-.42.17-.94.25-1.42.01-.11.03-.21.08-.3.19-.32.47-.29,1.27.09l.54.26c.59.31,1.01.74,1.12,1.11.06.26.16.55.14.77,0,.23-.04.44-.1.64-.11.41-.29.78-.48,1.14-.3.54-.73,1-1.09,1.51l-.08-.04Z"/><path class="cls-2" d="M328.24,171.08c-.99-.5-2.04-.88-3.13-1.05-1.21-.2-2.37-.2-3.58-.03-.32.04-.67.37-.82.63-.17.29-.25.73-.14,1.06s.31.65.63.82c.35.18.67.19,1.06.14-.41.06.04,0,.12,0,.1,0,.2-.02.29-.02.23-.01.46-.02.69-.02s.46.02.69.04c.04,0,.44.03.21.02s.16.03.21.03c.45.08.9.19,1.34.33.21.07.46.12.65.24l-.15-.06c.06.03.12.05.18.08.12.05.24.11.35.17.64.32,1.52.19,1.88-.49.33-.63.19-1.53-.49-1.88h0Z"/><path class="cls-2" d="M329.59,199.19c.02.09.04.17.05.26l-.05-.37c.03.22.03.44,0,.66l.05-.37c-.03.22-.09.43-.18.63l.14-.33c-.1.24-.24.46-.39.67l.22-.28c-.21.27-.46.51-.73.72l.28-.22c-.32.24-.67.44-1.04.6l.33-.14c-.42.17-.85.29-1.29.36l.37-.05c-.06,0-.12.01-.17.02-.37.04-.7.13-.97.4-.24.24-.42.63-.4.97s.13.72.4.97c.25.23.62.44.97.4,1.44-.14,2.83-.69,3.87-1.72s1.57-2.49,1.21-3.94c-.17-.7-1-1.18-1.69-.96s-1.14.94-.96,1.69h0Z"/><path class="cls-2" d="M119,464.27s26.61-.62,32.1-2.34c7.62-2.39-12.07-4.7-12.07-4.7l-20.02,7.04Z"/><path class="cls-1" d="M209.27,35.68c-2.75.1,49.7,85.54,43.13,95.39-6.97,10.45-18.38,12.88-20.93,16.35-1.85,2.52.76,19.41.76,19.41,0,0-5.77-7.35-8.12-5.66s-3.57,16.75-3.86,21.27-5.33,14.95,1.53,19.21c7.82,4.85,8.9,110.32-29.59,187.01-44.73,89.12-147.73,71.87-167.98,72.03-2.38.02-3.53.11-1.8-1.52.59-.56,1.24-1.06,1.92-1.44,3.06-1.69,2.5-9.32,2.5-9.32,0,0,46.16,2.5,64.94-5.08,18.79-7.59,42.83-19.19,51.67-32.75,8.84-13.56,18.28-29.41,23.19-43.57,4.92-14.17,14.25-52.19,14.25-52.19l7.25-39.76.4-51.39-1.26-50.32-31.13,14.14s-4.86-1.45-1.86-8.31c3-6.85,29.75-73.1,29.75-73.1l25.22-70.4Z"/><path class="cls-2" d="M113.43,433.53s17.87-10.53,18.92-17.71c.44-3.02-15.26,3.1-15.26,3.1l25.96-14.22,8.22-6.6s-10.24,16.39-14,19.63c-3.76,3.23-23.84,15.79-23.84,15.79Z"/><path class="cls-2" d="M187.78,185.33s.36-6.15,2.12-9.86c1.01-2.12,5.1-4.81,5.1-4.81l-9.2,3.55,1.97,11.11Z"/><path class="cls-2" d="M438.64,291.85c-.78.02-1.57.06-2.36.12-.29.04-.57.12-.86.15-1.02.14-2.05.3-3.06.59-.23.06-.44.14-.66.22-.22.07-.45.13-.66.21-.56.2-1.11.41-1.71.54-.19.04-.23-.09-.16-.3.07-.21.22-.56.5-.8.51-.38,1.02-.81,1.6-1.07.59-.22,1.21-.4,1.84-.5.75-.13,1.49-.43,2.25-.59.84-.18,1.69-.31,2.55-.36.53-.03,1.06-.04,1.59-.04.8,0,1.61.06,2.41.14.62.06,1.26,0,1.88.21.14.04.27.05.41.11.49.23.59.41.53.8-.01.09-.02.18-.05.26-.08.28-.37.43-.72.44-.51-.02-1.03.1-1.51.05-.48-.05-.98-.08-1.49-.11-.75-.04-1.53-.06-2.31-.01v-.05Z"/><path class="cls-2" d="M358.94,489.43s8.07-.83,6.36,1.03c-1.24,1.34-11.35,2.99-11.35,2.99l5-4.02Z"/><path class="cls-2" d="M468.16,484.03s6.17.75,6.73,2.02c.56,1.27-12.8,2.03-12.8,2.03l6.07-4.05Z"/><path class="cls-2" d="M358.95,472.06c-.64-.07-1.29-.14-1.93-.21-.23-.02-.47,0-.7-.02-.83-.1-1.65-.2-2.48-.32-.37-.07-.73-.1-1.1-.13-.47-.02-.93-.17-1.39-.34-.14-.06-.12-.12.01-.23.13-.1.37-.31.64-.42.48-.22.95-.27,1.42-.31.47-.07.94-.02,1.41.09.57.12,1.16.03,1.74.05.64.02,1.28.05,1.93.07.4.01.79.03,1.19.04.6,0,1.2.04,1.8,0,.46-.03.92-.17,1.38-.25.1-.02.2-.06.3-.07.38-.06.5.18.58.62.02.11.04.21.05.31.04.34-.12.65-.39.83-.81.34-1.66.41-2.53.42-.64-.01-1.29-.07-1.94-.1v-.04Z"/><path class="cls-2" d="M472.73,455.33c-.74.13-1.48.27-2.22.4-.27.04-.52.15-.8.19-.97.11-1.91.31-2.89.37-.43.04-.85.14-1.26.23-.52.17-1.09.13-1.66.12-.18-.01-.17-.05-.06-.19.11-.13.29-.45.55-.69.44-.46.97-.63,1.47-.88.51-.22,1.02-.45,1.6-.46.68-.06,1.31-.36,1.97-.53.72-.2,1.46-.34,2.2-.5.45-.1.91-.2,1.36-.3.68-.16,1.37-.3,2.03-.53.51-.18.97-.47,1.46-.72.11-.05.2-.13.31-.17.21-.08.35-.1.48-.02.14.11.25.28.38.53.06.11.12.22.16.33.08.18.1.36.07.56-.02.2-.09.42-.23.51-.8.65-1.76.98-2.73,1.26-.72.21-1.46.36-2.2.54l-.02-.05Z"/><polygon class="cls-2" points="331.38 281.41 342.13 276.67 339.77 285.35 327.91 289.55 331.38 281.41"/><polygon class="cls-2" points="324.43 298.79 338.42 293.38 337.32 302.72 324.43 307.21 324.43 298.79"/><path class="cls-2" d="M371.01,314.38s-5.44,41.09-8.58,51.32c-3.14,10.22-22.05,66.92-22.05,66.92l-7.84,26.92s.08,8.29,6.47,9.07c6.4.78,38.38.29,42.91-2.33,4.53-2.62,14.46-34.62,14.46-34.62,0,0,7.52-23.61,6.04-34.26-.21-1.48-20.98-40.65-21.13-48.94s1.4-5.4,1.4-5.4l42.45,85.39,17.38,30.63s30.62-6.06,42.2-11.85c11.58-5.79,16.35-10.03,16.35-10.03l-36.12-65.13-17.98-40.41-9-24.82-8.24-16.3s-36.7,8.25-50.57,18.67c-6.41,4.81-8.17,5.17-8.17,5.17Z"/><path class="cls-2" d="M325.45,311.96c-.24-1.08-.45-2.17-.65-3.26-.08-.4-.18-.79-.23-1.19-.19-1.41-.34-2.83-.48-4.24-.08-.62-.13-1.26-.2-1.87-.04-.4-.08-.8-.11-1.2,0-.4.07-.82.1-1.22.03-.25.02-.22.12-.02.08.2.36.56.58.99.23.79.42,1.57.61,2.36.16.79.24,1.6.33,2.41.09.97.38,1.95.59,2.92.22,1.07.43,2.15.67,3.22.15.66.3,1.32.48,1.97.26.99.53,1.98.87,2.94.27.74.63,1.43.97,2.14l.23.46c.26.58.21.82-.13,1.1-.08.06-.15.14-.23.19-.26.17-.64.03-.9-.38-.77-1.22-1.3-2.63-1.76-4.06-.34-1.07-.62-2.15-.89-3.24h.04Z"/><path class="cls-2" d="M219.12,176.5c-.02-.57-.07-1.15-.16-1.6-.03-.24-.13-.38-.11-.42.12-.07.23-.16.31-.29.05-.06.08-.08.1-.15,0-.03-.02.06,0,.07h0s0,.01,0,.01h0c0-.86,0-.24,0-.43h0s0,0,0,0h0s.02.07.04.08c.05.09.16.2.35.36.04.03.09.06.14.09l.14.1s0,0,0,0c-.03.05-.07.12-.1.23-.07.21-.14.47-.19.74-.11.55-.18,1.14-.23,1.74-.07.88-.04,1.77-.07,2.67-.04,1.58-.03,3.18.03,4.77.04,1.6.12,3.19.27,4.78.14,1.41.37,2.82.69,4.18.19.88.48,1.72.69,2.57.11.42.23.84.37,1.24.17.38.11.87.26,1.29.21.48.23.47-.29.26-.24-.12-.7-.26-1.17-.55-.43-.31-.74-.77-.99-1.28-.45-.91-.71-1.86-.92-2.8-.22-.94-.39-1.89-.54-2.83-.28-1.89-.44-3.79-.47-5.7-.02-2.28-.22-4.64-.14-7,.06-1.3.13-2.58.41-3.94.08-.34.16-.69.32-1.07.08-.19.17-.4.36-.64.09-.12.23-.26.42-.38.12-.06.22-.12.36-.15.13-.03.31-.05.38-.03.37.02.7.17.96.39.1.1.2.21.29.32.08.11.13.21.19.31.21.41.29.78.37,1.13.29,1.71.19,3.27.15,4.85-.1,2.38-.32,4.74-.4,7.07-.08,1.81.05,3.59.08,5.36.02.39.03.77.05,1.16.04,1.44-.07,1.9-.54,2.26-.11.08-.21.19-.31.24-.34.19-.78-.39-1-1.5-.69-3.29-.5-6.74-.34-10.13.12-2.51.34-5.05.24-7.42h.06Z"/><path class="cls-2" d="M240.75,206.16c-.36.61-.69,1.23-1.07,1.83-.13.22-.23.46-.37.68-.5.76-1.01,1.52-1.5,2.27-.21.34-.4.69-.57,1.05-.12.22-.2.47-.34.68-.16.2-.32.41-.55.57-.23.05-.25.02-.42-.22-.16-.24-.32-.6-.28-.91.33-.99.83-1.87,1.42-2.73.37-.51.56-1.13.83-1.7.3-.63.63-1.24.96-1.86.2-.38.4-.76.58-1.15.28-.59.58-1.17.79-1.78.16-.47.22-.98.31-1.47.02-.11.02-.22.05-.33.11-.39.28-.47.8-.37.12.02.24.04.36.07.4.11.65.38.65.7,0,.96-.31,1.86-.69,2.74-.28.65-.61,1.29-.92,1.92l-.04-.02Z"/><path class="cls-2" d="M382.84,198.34c1.61.75,2.92,1.79,4.1,2.86.43.39.9.74,1.3,1.16,1.43,1.46,2.58,3.14,3.7,4.81.48.75,1.02,1.46,1.45,2.24.52,1.01.99,2.07,1.19,3.21.07.35-.06.35-.36.16-.29-.2-.8-.54-1.24-1-1.63-1.57-2.69-3.39-4-5.19-.77-1.08-1.81-1.99-2.78-2.9-1.07-1.01-2.21-1.96-3.43-2.65-.75-.42-1.56-.75-2.41-.96-1.28-.31-2.66-.4-3.99-.21-1.04.15-2.01.56-2.97.96-.21.1-.41.19-.63.27-.8.29-1.11.25-1.53-.25-.09-.11-.2-.22-.28-.33-.26-.39-.07-.9.51-1.31,1.72-1.22,3.94-1.85,6.27-1.94,1.73-.03,3.52.33,5.14,1.02l-.02.06Z"/><path class="cls-2" d="M291.33,127.85c-1.62,1.32-6.95,6.33-6.95,13.8,0,9.48,6.95,13.49,11.02,14.26l1.08,1.82s-4.19,10.03,1.83,14.91c4.59,3.72,10.22,3.43,12.67,2.58,0,0,7.72-1.45,14.12-9.44,6.4-8,12.05-7.05,12.05-7.05,0,0,4.24,12.55,6.03,15.49,1.79,2.94,5.13,5.54,6.97,5.13s4.32-5.13,4.32-5.13c0,0,1.68-5.78,4.52-4.58,2.84,1.2,4.91,1.27,6.48,3.48,1.88,2.64,7.2,10.77,15.93,10.59,8.8-.18,12.04-10.56,10.15-11.28s-10.4-8.03-10.4-8.03c0,0,3.03-7.24,3.77-9.49.74-2.25,1.29-11.11.06-13.25-1.23-2.14-6.43-7.21-8.5-7.4-2.07-.19-14.88-.91-14.88-.91,0,0-4.61-14.12-8.08-15.09-3.47-.98-11.86-3.87-16.38-2.88-4.52,1-9.99,4.06-11.81,6.13s-5.96,11.13-5.96,11.13c0,0-7.5-8.32-12.84-7.68-5.34.64-15.2,2.9-15.2,2.9Z"/><path class="cls-2" d="M117.61,420.74c-6.58,2.41-13.34,4.31-20.17,5.75-1.24.29-2.5.52-3.74.77-1.25.26-2.5.5-3.76.68-8.88,1.38-17.87,1.84-26.83,1.53-3.97-.2-7.96-.41-11.88-.91-1.26-.14-2.52-.27-3.78-.48-1.25-.21-2.52-.33-3.76-.64-1.24-.3-2.47-.6-3.7-.92-1.22-.35-2.43-.76-3.62-1.2-1.48-.56-1.19-.78.21-.91,1.41-.15,3.9-.18,6.74.15,9.98,1.61,20.07,2.32,30.31,2.15,6.13-.1,12.47-1.01,18.63-2.13,6.78-1.24,13.5-2.93,20.05-5.11,4.02-1.38,8.01-2.86,11.86-4.66,5.86-2.65,11.54-5.81,16.66-9.6,4-2.93,7.45-6.37,10.59-10.03.72-.79,1.28-1.67,1.96-2.49,2.36-3.17,3.02-4.23,4.08-4.64.23-.1.5-.26.69-.29.32-.06.37.32.19,1.09-.19.75-.57,1.92-1.37,3.24-2.26,3.97-5.21,7.73-8.73,10.91-3.49,3.22-7.39,6.05-11.46,8.57-6.07,3.7-12.52,6.76-19.15,9.25l-.04-.07Z"/><path class="cls-2" d="M472.76,481.17c-.69.89-1.39,1.79-2.13,2.68-.37.45-.76.89-1.18,1.34-.46.45-.83.89-1.57,1.38-1.2.75-2.41,1.14-3.61,1.43-1.2.27-2.4.42-3.6.47-1.75.07-3.49.02-5.28-.35-.79-.18-1.58-.42-2.4-.85-.2-.1-.41-.24-.61-.37l-.36-.28c-.13-.09-.22-.21-.33-.32-.41-.45-.74-.98-.85-1.58-.03-.3-.09-.59-.04-.91.02-.3.05-.52.11-.77.1-.49.27-.93.48-1.34.42-.81.94-1.47,1.49-2.05,2.2-2.27,4.64-3.78,6.86-5.54.99-.77,1.93-1.57,2.76-2.45.83-.86,1.6-1.77,2.09-2.77.66-1.26.81-2.69.47-3.97-.19-.63-.51-1.28-.85-2.04-.34-.76-.72-1.61-.79-2.51,0-.57.11-.81.22-.81.12,0,.29.23.64.56.35.33.77.75,1.32,1.21.27.23.57.49.89.82.16.16.31.35.49.55.14.22.29.46.4.73.93,1.95.87,4.28.12,6.21-.78,1.91-1.95,3.46-3.26,4.69-2.61,2.46-5.51,4.2-7.96,6.17-.72.58-1.39,1.22-1.86,1.89-.23.33-.42.67-.54.98-.07.16-.1.31-.13.47l-.02.14s0,.08,0,.12c.03.16.16.3.28.38.25.19.62.37,1.01.52.8.3,1.73.5,2.67.6,2.07.2,4.24.07,6.22-.45.49-.13.98-.29,1.43-.49.43-.19.92-.44,1.18-.66.7-.6,1.42-1.47,2.1-2.31,1.69-2.12,3.29-4.39,4.94-6.62,1.23-1.7,2.58-3.39,3.91-4.99,1.3-1.61,2.69-3.23,3.14-4.92.16-.66.21-1.42.18-2.12-.07-.71-.18-1.41-.43-2.1-.44-1.38-1.21-2.69-1.99-4.07-.35-.61-.68-1.22-1-1.89-.56-1.25-.86-2.13-.88-2.82.02-.69.2-1.13.46-1.49.12-.17.22-.37.34-.47.2-.17.47-.02.83.35.18.19.38.42.64.7.13.14.23.29.33.47.11.17.22.36.33.55,1.34,2.31,3.18,4.65,4.14,8.09.47,1.71.55,3.62.09,5.48-.55,2.05-1.65,3.43-2.59,4.7-1.46,1.86-2.88,3.46-4.2,5.23l-4.03,5.41-.06-.04Z"/><path class="cls-2" d="M327.74,492.37s.02.05.05.07c.02.01,0,.02.05.04l.25.11c.38.16.87.29,1.36.41,1.01.22,2.12.35,3.23.44,2.23.18,4.53.16,6.81.05,1.67-.08,3.33-.32,4.99-.51,2.92-.31,5.86-.76,8.6-1.59,1.34-.42,2.74-.96,3.61-1.72.12-.09.22-.18.29-.28.08-.09.16-.16.26-.34.19-.31.39-.6.57-.92.37-.62.7-1.27,1.03-1.93,1.13-2.34,1.97-4.86,2.61-7.38.42-1.62.66-3.28.97-4.92.17-.82.32-1.64.46-2.47.11-.83.4-1.65.54-2.49.26-1.05.3-.92.64,0,.18.46.42,1.11.69,1.92.14.41.19.84.25,1.31.05.47.1.96.07,1.47-.02.45-.01.91-.06,1.36l-.2,1.34c-.16.89-.33,1.77-.54,2.65-.41,1.76-.91,3.49-1.55,5.19-.64,1.7-1.38,3.36-2.29,4.98-.22.4-.47.8-.72,1.2l-.19.3c-.08.12-.2.26-.3.38-.11.13-.21.26-.32.38l-.33.29c-.89.75-1.79,1.21-2.69,1.57-2.13.86-4.26,1.44-6.42,1.94-2.16.49-4.34.89-6.52,1.1-2.4.23-4.8.36-7.22.34-2.42-.04-4.84-.14-7.33-.72-.38-.08-.78-.22-1.17-.34-.2-.07-.4-.17-.6-.25-.2-.07-.46-.26-.69-.4-.47-.29-.83-.71-1.09-1.19-.11-.25-.15-.52-.23-.78-.04-.27-.04-.54-.04-.81.05-.27.09-.54.18-.79.11-.25.22-.5.36-.73.35-.5.62-.75.96-1.06.66-.54,1.34-.95,2.02-1.32,2.07-1.07,4.18-1.78,6.27-2.51,2.09-.72,4.17-1.41,6.16-2.23,1.54-.64,3.04-1.35,4.36-2.22.67-.42,1.26-.91,1.77-1.42.26-.25.46-.52.65-.79l.22-.4c.08-.13.16-.34.24-.51.27-.62.44-1.22.56-1.8.19-1.05.23-2.11.49-2.75.24-.66.58-1,1.06-1.21.22-.1.44-.23.65-.26.35-.05.59.22.73.73.14.52.21,1.22.23,2.22.01.74-.02,1.68-.25,2.59-.22.92-.54,1.7-.92,2.5-1.05,1.95-2.6,3-4.05,3.92-2.97,1.75-6.04,2.8-9.04,3.87-2.23.78-4.45,1.52-6.47,2.4-.99.44-1.96.93-2.58,1.46-.11.12-.29.25-.33.35-.01-.01-.02,0-.03.01-.02.02-.02.06,0,.09l-.07.04Z"/><path class="cls-2" d="M280.46,136.13c1.51-4.04,4.58-7.59,8.35-9.58,1.32-.76,2.68-1.45,4.12-1.95,2.54-.88,5.21-1.26,7.85-1.32,2.65-.05,5.3.25,7.82,1.02,2.22.71,4.42,1.59,6.36,2.87.64.38,1.21.87,1.82,1.31.6.44,1.11,1.01,1.66,1.52.29.24.49.57.71.88l.64.93c.1.16.22.3.29.48l.18.55.34,1.08c.24.9.22.76-.45.29-.34-.23-.86-.53-1.49-.82-.62-.3-1.22-.71-1.77-1.21-1.91-1.84-4.17-3.26-6.64-4.21-2.48-.93-5.11-1.59-7.85-1.77-3.29-.27-6.72.64-9.79,1.97-.87.32-1.67.78-2.5,1.22-.82.43-1.54.95-2.25,1.51-1.4,1.14-2.58,2.56-3.48,4.15-1.13,1.96-1.84,4.17-2.13,6.45-.42,3.44.13,7.1,1.85,10.07,1.35,2.3,3.43,4.03,5.8,4.89.51.21,1.05.32,1.59.47,2.02.45,2.68.58,3.14,1.39.11.18.25.36.32.53.11.29-.07.55-.52.76-.22.1-.52.19-.87.27-.35.07-.77.05-1.23.04-2.76-.14-5.66-1.31-7.9-3.32-2.23-2.02-3.79-4.73-4.6-7.57-1.23-4.24-.96-8.79.55-12.9l.07.02Z"/><path class="cls-2" d="M328.38,203c1.58.9,3.24,1.66,4.98,2.21.64.19,1.29.3,1.94.45,1.14.3,2.31.48,3.49.64,1.18.11,2.38.21,3.59.2,1.07,0,2.15-.13,3.2-.3,1.37-.16,2.69-.55,4.15-.43.49.16.44.19.17.65-.13.24-.34.49-.61.78-.13.14-.27.3-.44.42-.17.11-.35.2-.55.27-.7.25-1.41.46-2.12.67-.72.17-1.46.28-2.2.36-1.48.17-3,.22-4.5,0-1.79-.24-3.67-.3-5.48-.7-1.98-.45-3.9-1.15-5.72-2.01-1.11-.53-2.21-1.11-3.27-1.82-1.59-1.07-2.97-2.39-4.22-3.78-.97-1.08-1.96-2.14-2.79-3.37-.18-.27-.37-.53-.53-.81-.25-.55-.39-.93-.34-1.25.06-.33.23-.56.51-.8.13-.11.24-.23.37-.31.22-.14.47-.14.75-.04.29.1.61.3.85.61,1.46,1.85,2.82,3.71,4.53,5.32,1.28,1.19,2.62,2.21,4.25,2.99l-.03.07Z"/><path class="cls-2" d="M396.02,212.22c3.59,6.98,6.86,14.04,10.45,20.91,1.31,2.5,2.72,4.94,4.13,7.37,2.49,4.28,5.09,8.46,8.33,12.12,3.2,3.76,6.73,7.25,10.41,10.61,3.26,3,6.71,5.84,9.95,8.93,2.03,2.03,4.07,4.13,5.65,6.66.4.62.72,1.3,1.08,1.95l.23.51.18.54.34,1.07c.27.7.34,1.45.46,2.18.13.73.22,1.46.11,2.2-.15.92-.23,1.3-.26,1.27-.04-.02-.1-.46-.41-1.18-.2-.35-.28-.78-.5-1.25-.24-.46-.51-.97-.8-1.52-.07-.13-.14-.27-.21-.41-.09-.13-.19-.27-.28-.41-.18-.27-.37-.55-.57-.84-.2-.28-.35-.59-.62-.86-.19-.3-.39-.61-.59-.93-1.43-2.24-3.33-4.25-5.35-6.18-2.04-1.93-4.16-3.85-6.32-5.76-4.34-3.83-8.71-7.8-12.65-12.23-1.17-1.34-2.35-2.67-3.5-4.08-1.17-1.41-2.23-2.89-3.29-4.38-2.08-3-3.98-6.11-5.73-9.25-3.84-6.91-7.21-14.03-10.71-21.03-2.17-4.3-4.33-8.61-6.87-12.62-.97-1.51-1.98-3-3.12-4.32-1.12-1.3-2.47-2.49-3.82-2.78-1.56-.26-3.23.11-4.82.76-1.6.67-3.14,1.56-4.66,2.51-4.7,2.99-9.19,6.52-14.74,8.5-1.22.41-2.43.82-3.73,1.04-2.41.44-4.06.33-5.17.14-.56-.12-.99-.27-1.33-.44-.34-.2-.6-.42-.82-.67-.2-.23-.46-.46-.55-.66-.16-.34.25-.57,1.08-.72.82-.15,2.06-.2,3.61-.35,4.64-.43,9.03-2.52,13.3-5.18,2.15-1.32,4.27-2.8,6.54-4.24,2.29-1.41,4.68-2.91,7.78-3.67,1.14-.27,2.41-.39,3.68-.22.16.02.31.03.49.07l.55.15c.36.1.74.21,1.02.37.3.15.61.31.9.47l.76.54c1.93,1.48,3.18,3.17,4.39,4.85,2.35,3.39,4.26,6.9,6.12,10.4l-.07.05Z"/><path class="cls-2" d="M303.11,239.11c9.53.43,19.09.78,28.69,1.83,3.51.43,7.03.8,10.59,1.93.39.13.78.26,1.18.43.39.16.79.32,1.19.54.77.36,1.64.98,2.31,1.72l1.52,1.99c.45.68.83,1.39,1.25,2.08.43.69.75,1.41,1.1,2.12.33.72.7,1.42,1,2.15.56,1.46,1.21,2.9,1.68,4.38,2.06,5.88,3.52,11.9,4.76,17.94,1.1,5.36,2.02,10.79,2.75,16.17.23,1.73.43,3.46.6,5.2.2,1.74.34,3.48.45,5.22.06.87.13,1.74.16,2.62l.02,2.62c0,.87.03,1.75-.02,2.62-.05.87-.19,1.75-.29,2.62-.37,2.17-.22,1.87-.67.05-.53-1.83-1.43-5.14-1.85-9.07-1.56-13.93-3.61-27.89-7.53-41.43-1.21-4.01-2.69-8.08-4.78-11.72-.54-.89-1.05-1.82-1.71-2.56l-.47-.59c-.15-.18-.32-.44-.45-.52-.24-.24-.61-.48-1.01-.7-1.65-.86-3.77-1.35-5.83-1.76-4.6-.86-9.37-1.26-14.13-1.6-4.77-.33-9.56-.55-14.36-.76-5.91-.25-11.83-.49-17.73-.74-4.48-.2-8.97-.44-13.45-.74-4.5-.32-8.96-.78-13.39-1.28-3.44-.4-6.86-.79-10.25-1.25-3.4-.45-6.79-.96-10.18-1.64-1.49-.28-2.96-.6-4.46-.96-2.77-.74-4.58-1.41-5.78-2.07-.6-.35-1.05-.66-1.39-.97-.34-.33-.56-.69-.72-1.03-.14-.32-.35-.67-.37-.91.02-.85,1.93-.03,5.76,1.01,5.72,1.53,11.88,2.5,18.12,3.39,6.24.88,12.62,1.61,19,2.16,9.46.75,19.11,1.08,28.72,1.44v.08Z"/><path class="cls-2" d="M229.65,167.85c.27,1.07.56,2.13.71,3.23.07.39.19.78.23,1.18.13,1.42.2,2.84.08,4.25-.04.62-.08,1.24-.13,1.85-.04.39-.06.78-.12,1.17-.1.38-.24.76-.39,1.13-.1.23-.24.17-.43-.06-.17-.23-.47-.64-.56-1.07-.07-.75-.14-1.49-.21-2.24-.03-.36-.07-.73-.1-1.1,0-.37,0-.74,0-1.12.04-.91-.29-1.81-.5-2.7-.25-.98-.5-1.98-.79-2.97-.18-.61-.38-1.22-.6-1.82-.34-.91-.67-1.83-1.13-2.69-.36-.67-.84-1.26-1.27-1.88-.09-.14-.21-.26-.29-.41-.31-.54-.23-.79.37-1.23.13-.1.26-.2.4-.29.45-.28,1.02-.28,1.36.06,1.03,1,1.75,2.24,2.3,3.59.43.99.77,2.04,1.11,3.09l-.06.02Z"/><path class="cls-2" d="M234.57,181.87c-.23,2.09-.57,4.24-.62,6.19-.04.74.09,1.44.11,2.16.11,1.24.29,2.45.71,3.58.42,1.13,1.1,2.15,2,3.02.81.77,1.8,1.4,2.81,1.96.65.36,1.34.67,2.02,1.02.34.17.66.39.98.6l.49.32c.16.12.29.29.44.43.35.39.26.43-.24.57-.53.2-1.45.41-2.35.19-1.51-.55-3.02-1.21-4.47-2.16-1.42-.98-2.75-2.33-3.56-3.98-.95-1.96-1.56-4.08-1.64-6.15-.05-.57-.03-1.13-.01-1.69,0-.55.04-1.13.09-1.67l.33-3.21.42-3.91c.09-.98.19-1.98.25-2.94.05-.95.02-1.91-.09-2.86-.17-1.48-.61-2.9-1.06-4.29-.11-.3-.22-.6-.33-.9-.18-.57-.27-.95-.21-1.26.06-.31.26-.54.56-.79.13-.11.25-.24.37-.32.21-.14.44-.12.77.02.34.13.62.43.84.87,1.29,2.59,1.89,5.57,1.95,8.67.01,1.19-.09,2.27-.18,3.35l-.3,3.2h-.07Z"/><path class="cls-2" d="M332.62,315.6c-.44.64-.88,1.28-1.3,1.94l-.16.24c-.09.13-.19.32-.29.48l-.57.99c-.38.65-.76,1.31-1.12,2.02l-.85.94c-.22.11-.4.1-.6.16-.18.02-.39.15-.63.04-.2-.07-.39-.17-.6-.37-.19-.22-.42-.43-.61-.83-.19-.38-.35-.88-.5-1.39-.3-1.01-.57-2.09-.83-3.1-.56-2.33-1.08-4.65-1.57-6.99l-.7-3.45c-.11-.58-.22-1.16-.3-1.76-.04-.3-.08-.61-.11-.93-.02-.33-.07-.64-.01-1.17l.21-.95.23-.77c.15-.51.32-1.01.48-1.49l1.01-2.91,2.09-5.76,4.2-11.49c1.22-3.4,2.41-6.84,3.51-10.25,1.44-4.38,2.65-8.83,4.6-13.03.44-.62.65-.88.71-.85.07.04.02.39.13,1.06.11.67.12,1.58.12,2.67-.05,1.08-.21,2.32-.55,3.62-2.61,9.1-5.85,17.94-9.33,26.78-1.04,2.64-2.01,5.37-2.94,8.12-.46,1.37-.92,2.76-1.32,4.12-.19.69-.42,1.35-.39,1.69.03.59.15,1.32.26,2.01.5,2.98,1.16,5.99,1.85,8.97l.74,3.08.13.49.08.25.04.12s.05.11.07.04c.15-.27.3-.55.47-.84l.15-.25,1.19-1.84c.56-.83,1.13-1.65,1.71-2.45,1.16-1.61,2.38-3.19,3.6-4.73.37-.47.86-1.08.97-1.29.03-.08.04-.17.06-.26l.05-.47.1-.98.2-1.99c.13-1.33.27-2.66.44-3.98.33-2.65.67-5.29,1.07-7.92.68-4.57,1.34-9.07,2.42-13.55.25-.98.48-1.95.76-2.94,1.15-3.64,1.86-4.71,2.99-5.1.24-.1.49-.25.67-.29.31-.06.42.31.46,1.05.09.76-.27,1.72-.57,3.04-2.09,7.65-3.44,15.99-4.46,24.43-.19,1.58-.37,3.16-.56,4.74l-.29,2.39-.15,1.22-.09.64c0,.09-.06.32-.11.51l-.14.58c-.19.35-.39.65-.61.95l-.4.5-.77.93-1.49,1.83c-.98,1.22-1.92,2.46-2.79,3.74l-.06-.03Z"/><path class="cls-2" d="M449.06,456.97c4.36-.75,8.77-2,13.12-3.34,4.36-1.36,8.68-2.88,12.96-4.51,4.27-1.64,8.51-3.38,12.65-5.29,2.07-.96,4.11-1.95,6.09-3.02.99-.54,1.96-1.09,2.88-1.68.89-.58,1.83-1.23,2.39-1.84.14-.14.16-.17.19-.29,0-.14.02-.09-.08-.49-.14-.63-.44-1.38-.73-2.1-.63-1.46-1.4-2.93-2.18-4.39-1.59-2.91-3.3-5.8-4.99-8.7-6.01-10.21-12.11-20.42-17.88-30.81-5.79-10.38-11.32-20.91-16.51-31.61-4.7-9.5-8.46-19.49-11.94-29.34-2.24-6.34-4.44-12.68-6.84-18.92-1.18-3.13-2.48-6.2-3.81-9.25-1.32-3.06-2.79-6.02-4.21-9.04-.88-1.89-1.26-2.73-1.18-2.72.09.01.68.84,1.9,2.17,2.44,2.64,6.52,8.09,9.38,15.39,5.18,12.85,9.17,25.95,14.27,38.56.62,1.58,1.32,3.13,1.97,4.7.67,1.56,1.4,3.09,2.1,4.63,1.46,3.09,2.97,6.17,4.49,9.24,3.05,6.14,6.21,12.25,9.45,18.33,3.89,7.27,8.07,14.57,12.4,21.85,4.31,7.3,8.82,14.52,13.01,21.93,1.14,2.05,2.27,4.1,3.27,6.31.26.54.48,1.13.7,1.71.22.62.4,1.17.54,2,.05.48.08.95-.04,1.41-.14.45-.38.87-.68,1.24-.55.67-1.01,1.03-1.52,1.45-2,1.53-4.07,2.67-6.16,3.78-2.09,1.1-4.21,2.12-6.34,3.08-8.55,3.85-17.29,7.15-26.24,9.91-3.04.93-6.11,1.78-9.25,2.46-1.57.34-3.16.64-4.79.81-.82.09-1.65.16-2.51.14-.43,0-.88-.04-1.34-.1-.43-.07-1.1-.23-1.6-.5-.35-.3-.75-.64-.97-1.01-.21-.29-.41-.58-.57-.85-.36-.56-.7-1.12-1.03-1.67-.67-1.11-1.31-2.23-1.95-3.35-1.28-2.24-2.52-4.48-3.76-6.73-8.34-15.21-16.37-30.66-24.36-45.9-6.2-11.85-12.38-23.42-18.43-35.18-1.33-2.59-2.63-5.13-3.97-7.74-4.85-9.75-6.15-12.98-6.31-15.49-.05-.57-.18-1.28-.15-1.64.08-1.19,2.62,2.51,6.25,9.59,10.9,20.94,22.38,43.04,34.05,65.14,3.81,7.2,7.64,14.4,11.53,21.57,1.95,3.59,3.9,7.17,5.89,10.72,1,1.77,2,3.55,3.01,5.29.51.88,1.02,1.74,1.54,2.59l.78,1.23.3.43s.02.02.03.04c.02,0,0,0,.06.02.12.03.35.05.54.08.44.02.91.03,1.42,0,1.01-.05,2.08-.2,3.15-.38l.04.08Z"/><path class="cls-2" d="M346.89,419.27c-2.29,6.74-4.55,13.48-6.73,20.24-2.16,6.76-4.34,13.55-6.07,20.36-.28,1.25-.53,2.5-.72,3.71-.05.3-.08.6-.11.89l-.04.42c-.01.13,0,.13-.01.2,0,.09,0,.16.03.24.04.06.1.12.16.16.04.02,0,0,.1.06.07.06.19.11.31.16.24.1.44.22.72.3l.81.26.86.22c1.17.27,2.4.48,3.64.64,4.4.58,8.94.72,13.47.74,4.53,0,9.08-.14,13.6-.46,2.26-.16,4.52-.36,6.76-.63,1.12-.13,2.23-.3,3.33-.47,1.09-.17,2.2-.37,3.17-.66.26-.06.46-.15.63-.22.14-.07.24-.1.3-.22.08-.1.44-.73.67-1.17.5-.98,1-1.99,1.47-3.03.93-2.07,1.8-4.17,2.65-6.29,3.02-7.51,5.65-15.23,8.05-22.9,1.55-4.93,2.93-9.91,4.29-14.9l.99-3.75c.37-1.24.7-2.49,1.03-3.74.68-2.5,1.33-4.99,2.18-7.45,1.14-3.05.9-2.67.82.11.02,2.79-.24,7.93-1.68,13.76-2.6,10.31-5.73,20.48-9.3,30.51-1.79,5.02-3.68,9.99-5.82,14.93l-.79,1.86-.84,1.87-.48.96-.25.48-.07.12-.12.18c-.07.12-.17.24-.26.36-.3.53-.85.87-1.34,1.17-.47.22-.85.37-1.21.48-1.46.46-2.8.71-4.17.95-1.36.19-2.71.36-4.06.48-6.44.61-12.98.92-19.59.98-3.3.02-6.62-.04-9.95-.27-1.66-.11-3.33-.28-5.01-.53-1.68-.25-3.36-.57-5.09-1.2-.48-.2-.96-.39-1.47-.69-.25-.18-.68-.4-.9-.66l-.72-.81c-.31-.65-.39-1.41-.32-2.11.03-.65.12-1.03.2-1.53.35-1.86.83-3.6,1.29-5.36.91-3.51,1.93-6.96,2.98-10.4,2.1-6.88,4.32-13.71,6.58-20.52,2.78-8.39,5.63-16.75,8.47-25.11,2.17-6.32,4.34-12.66,6.5-18.99,1.07-3.17,2.14-6.33,3.21-9.49,1.08-3.16,1.99-6.29,2.77-9.5,2.36-9.99,3.87-19.99,5.27-30.06.28-2.22.56-4.39.85-6.63,1.08-8.3,1.47-10.9,2.58-12.61.24-.39.48-.91.7-1.14.68-.77,1.17,2.75.57,8.9-.84,9.13-2.14,18.43-3.79,27.84-.84,4.7-1.78,9.42-2.91,14.16-.56,2.36-1.21,4.75-1.95,7.11-.76,2.3-1.52,4.6-2.28,6.9-4.62,13.57-9.25,27.2-13.88,40.8h-.08Z"/><path class="cls-2" d="M272.16,192.06c2.89.97,5.79,1.91,8.71,2.77,1.06.32,2.16.54,3.22.85,3.76,1.1,7.54,2.18,11.36,3.09,1.69.42,3.42.7,5.11,1.04,2.18.42,4.41.56,6.48,1.67.65.32.53.45-.11.75-.41.19-.87.4-1.34.61-.55.2-1.17.31-1.82.31-2.28-.26-4.55-.54-6.79-1.05-2.24-.51-4.46-1.09-6.67-1.78-2.64-.82-5.46-1.35-8.18-2.08-2.99-.81-5.96-1.69-8.92-2.61-1.82-.57-3.64-1.15-5.45-1.74-2.74-.89-5.47-1.88-8.2-2.74-2.12-.68-4.25-1.19-6.37-1.82-.47-.13-.93-.24-1.4-.4-1.74-.53-2.14-1.11-2.24-1.94-.02-.19-.07-.39-.06-.56.02-.29.24-.47.63-.59.39-.11.96-.18,1.62-.05,3.85.82,7.75,2.1,11.68,3.35,2.91.94,5.84,1.88,8.76,2.82l-.02.08Z"/><path class="cls-2" d="M254.7,90.72c4.47,9.02,8.81,18.11,12.46,27.59,1.31,3.48,2.66,6.93,3.34,10.79.18.83.23,1.77.27,2.69,0,1.21-.46,2.32-.98,3.17-1.09,1.66-2.41,2.8-3.74,3.86-2.68,2.08-5.51,3.72-8.34,5.32l-8.48,4.66c-1.4.78-2.79,1.57-4.13,2.41-1.33.84-2.66,1.71-3.75,2.7-.49.43-.9.91-1.16,1.34-.04.1-.08.2-.13.3,0,.1,0,.19-.01.28v.98c.08,1.4.19,2.82.3,4.25.22,2.85.45,5.71.62,8.56.22,3.66.33,7.34.23,11.03-.03,1.84-.17,3.69-.44,5.53-.23,1.83-.55,3.68-1.27,5.42-.47,1.08-.68,1.53-.71,1.48-.04-.04.05-.6.02-1.59-.12-1.99-.44-5.49-.47-9.61.05-3.65-.12-7.33-.34-11.01-.18-3.69-.47-7.36-.74-11.1-.07-.93-.13-1.88-.17-2.85v-.78c-.01-.15-.02-.23-.01-.43.02-.22.04-.44.07-.65.04-.46.24-.78.39-1.15.17-.34.36-.58.55-.86,1.55-1.88,3.18-2.88,4.8-3.97,3.26-2.07,6.6-3.79,9.89-5.58,3.91-2.14,7.93-4.37,11.33-7.14.84-.69,1.63-1.43,2.26-2.2.63-.76,1.06-1.59,1.08-2.17l.02-.11-.02-.19-.03-.37-.06-.74-.3-1.57c-.27-1.06-.52-2.13-.87-3.2-1.45-4.7-3.34-9.37-5.34-13.97-2-4.61-4.14-9.16-6.35-13.69-2.72-5.57-5.54-11.1-8.46-16.57-4.42-8.29-9-16.56-13.82-24.54-3.75-6.21-7.72-12.11-11.8-17.97-.92-1.27-1.82-2.52-2.74-3.81-3.42-4.76-4.4-6.29-4.45-7.88-.01-.36-.09-.8-.03-1.07.17-.92,2.3.53,5.06,3.95,8.11,10.17,15.22,21.77,22.05,33.58,5.06,8.78,9.86,17.75,14.47,26.8l-.07.05Z"/><path class="cls-2" d="M174.55,123.88c3.43-8.15,6.82-16.31,10.18-24.48,1.24-2.98,2.35-6,3.56-8.99,4.32-10.51,8.49-21.07,12.42-31.71,1.73-4.72,3.44-9.5,4.88-14.27l1.43-4.59c.43-1.54.81-3.1,1.29-4.63,1.01-3.06,1.74-6.15,2.71-9.22.69-1.91.6-1.66.62.07,0,.93.02,2.16.03,3.6,0,.75-.06,1.56-.12,2.42-.12.84-.26,1.73-.45,2.65-.6,3.27-1.48,6.47-2.41,9.64-.92,3.17-1.82,6.36-2.89,9.48-1.06,3.13-2.02,6.3-3.25,9.37-1.21,3.08-2.42,6.16-3.63,9.25-1.52,3.67-2.97,7.44-4.41,11.25-1.47,3.79-2.95,7.6-4.42,11.38-3.31,8.28-6.73,16.51-10.16,24.74-2.12,5.06-4.23,10.12-6.35,15.18-3.19,7.66-6.44,15.35-9.49,23-2.37,5.95-4.48,11.86-6.62,17.81-.46,1.31-.9,2.6-1.37,3.92-.92,2.43-1.48,4.03-2.05,5.1-.62,1.05-1.13,1.61-1.69,2.01-.26.18-.53.45-.74.54-.35.15-.46-.31-.41-1.3.06-.98.22-2.51.8-4.35,3.33-10.91,7.79-22,12.26-33.12,3.38-8.23,6.78-16.5,10.17-24.76l.08.02Z"/><path class="cls-2" d="M210.95,382.25c-7.45,17.58-17.3,34.39-30.43,48.44-4.8,5.1-9.92,9.91-15.47,14.19-9.88,7.55-21.31,12.84-33.12,16.24-11.84,3.42-24.05,5.07-36.24,5.87-10.82.68-21.72.8-32.44.68-13.79-.13-27.6-.55-41.32-1.04-4.28-.33-3.71-.68-.08-1.36,3.63-.67,10.35-1.26,18.29-1.15,14.06.23,28.08.71,42.08.36,13.98-.35,27.99-1.39,41.67-4.43,4.09-.9,8.15-2.07,12.18-3.42,4-1.43,7.96-3.04,11.79-4.95,3.8-1.95,7.54-4.07,11.04-6.53.9-.57,1.74-1.25,2.6-1.88.85-.65,1.73-1.25,2.54-1.96,1.64-1.39,3.34-2.7,4.92-4.14,14.09-12.51,25.14-28.22,33.55-45.15,5.12-10.46,9.4-21.36,12.89-32.5,5.32-16.87,9.11-34.33,11.86-51.7,2.16-13.51,3.49-26.87,4.7-40.35.24-2.97.48-5.88.72-8.87.55-5.54.93-9.2,1.35-11.75.44-2.55.86-4.01,1.36-5.17.22-.53.45-1.23.64-1.54.32-.51.49.37.62,2.41.13,2.04.19,5.24-.03,9.32-.24,6.07-.7,12.2-1.23,18.4-.54,6.2-1.16,12.45-1.92,18.74-1.47,12.58-3.47,25.3-5.99,37.95-3.81,18.77-8.98,37.46-16.44,55.28h-.09Z"/><path class="cls-2" d="M182.29,319.77c-3.85,18.8-9.24,37.34-16.8,55.03-2.79,6.44-5.72,12.84-9.23,18.93-3.1,5.37-6.47,10.59-10.25,15.53-3.78,4.93-7.98,9.59-12.76,13.64l-1.81,1.5c-.61.49-1.27.93-1.9,1.4-1.26.96-2.57,1.77-3.87,2.6l-3.9,2.51-4.01,2.33c-2.64,1.61-5.45,2.93-8.19,4.36-1.38.69-2.82,1.27-4.23,1.92l-2.12.94c-.71.31-1.45.56-2.17.84l-3.86,1.46c-1.3.45-2.62.84-3.93,1.26-2.6.9-5.3,1.47-7.96,2.19-5.37,1.16-10.78,2.13-16.2,2.61-6.95.69-13.94,1.03-20.91,1.03-3.48.02-6.97-.03-10.44-.12-3.48-.09-6.95-.3-10.41-.57-4.31-.51-3.73-.6-.06-1.13,1.84-.29,4.44-.53,7.58-.84,1.57-.14,3.27-.19,5.08-.27,1.81-.07,3.72-.12,5.71-.12,7.05-.07,14.08-.29,21.05-.92,6.97-.62,13.85-1.79,20.59-3.52,6.73-1.74,13.32-4.07,19.65-7.07,6.31-3.03,12.44-6.49,18.35-10.38,3.52-2.26,6.74-4.92,9.78-7.91,2.98-3.04,5.81-6.28,8.39-9.75,5.22-6.89,9.59-14.48,13.49-22.2,8.54-17.03,14.55-35.32,19.06-53.89,2.74-11.45,4.92-23.05,6.53-34.73,2.49-17.68,3.85-35.61,4.25-53.34.28-13.79-.14-27.31-.87-40.91-.2-2.99-.4-5.92-.6-8.94-.31-5.6-.55-9.29-.54-11.89,0-2.6.22-4.12.63-5.36.18-.57.35-1.31.54-1.64.61-1.13,1.68,3.38,2.52,11.6,2.32,24.38,2.8,50.3,1.25,76.24-.65,9.63-1.43,19.27-2.7,28.88-.54,4.81-1.34,9.59-2.04,14.39-.84,4.77-1.62,9.56-2.61,14.3h-.1Z"/><path class="cls-2" d="M298.75,176.63c.71.5,1.49.88,2.3,1.2.4.16.83.24,1.25.38.44.1.91.16,1.37.25,1.84.26,3.7.22,5.5-.19,1.31-.32,2.55-.88,3.76-1.51,4.3-2.31,7.75-6.33,11.24-10.25,1.56-1.76,3.13-3.55,4.91-5.17,1.14-1.03,2.37-2.04,3.82-2.75.73-.34,1.48-.63,2.28-.8.78-.2,1.6-.3,2.4-.08.99.3.82.25.09.77-.18.15-.39.27-.62.49-.21.27-.48.38-.74.58-.53.39-1.1.8-1.74,1.2-2.28,1.35-4.34,3.31-6.3,5.52-1.99,2.18-4,4.5-6.25,6.7-2.67,2.6-5.53,5.52-9.28,7.16-2.04.89-4.27,1.39-6.49,1.43l-.83.02-.82-.05c-.55-.03-1.1-.08-1.63-.18-.54-.09-1.07-.15-1.63-.31-.55-.14-1.1-.28-1.61-.51-2.62-.97-4.8-2.82-6.4-5-2.42-3.33-3.42-7.65-2.63-11.68.16-.79.34-1.54.59-2.28.24-.74.53-1.47.88-2.18.69-1.43,1.69-2.74,2.84-3.84.52-.47,1.03-.94,1.6-1.34,1.06-.75,1.84-1.08,2.42-1.22.58-.14,1-.04,1.4.19.18.11.4.2.53.33.46.45-.25,1.28-1.58,2.27-2,1.47-3.66,3.15-4.61,5.24-.24.52-.46,1.07-.64,1.64-.2.58-.34,1.18-.44,1.72-.19,1.12-.27,2.28-.12,3.44.35,3.45,2.3,6.85,5.21,8.76l-.04.07Z"/><path class="cls-2" d="M349.1,177.41c.56.19,1.05.22,1.48.11.46-.13.66-.26.96-.7.29-.44.55-1.18.84-2.02.29-.84.66-1.83,1.3-2.76.46-.69,1.08-1.31,1.76-1.82.66-.42,1.36-.82,2.15-1.02,1.38-.4,2.87-.35,4.17.03,1.31.38,2.46,1.04,3.44,1.84.5.41.93.83,1.35,1.34.44.5.78,1.08,1.07,1.67.55,1.2.79,2.5.73,3.77-.08,2.24-1.07,4.41-2.54,5.95-.94,1.01-2.1,1.87-3.41,2.34-1.31.44-2.71.61-4.02.31-.81-.47-.67-.25-.02-.66.66-.41,1.73-1.11,2.79-1.69.24-.12.47-.28.7-.41.23-.13.46-.26.67-.41.43-.3.82-.64,1.18-1.01.35-.38.67-.8.95-1.24.27-.42.46-.88.62-1.35.62-1.89.31-4.02-.99-5.46-.87-.98-2.03-1.76-3.25-2.03-1.22-.29-2.4-.08-3.46.54-.59.34-1,.68-1.38,1.25-.37.55-.65,1.27-.94,2.08-.31.81-.59,1.75-1.28,2.69-.68.96-1.84,1.63-2.93,1.81-1.39.27-2.72-.09-3.81-.59-1.11-.52-2.05-1.22-2.91-1.98-1.3-1.15-2.37-2.48-3.33-3.86-.96-1.39-1.78-2.84-2.51-4.34-1.13-2.32-2.1-4.72-2.53-7.35-.1-.58-.18-1.16-.2-1.76-.01-.56.02-1.03.11-1.42.06-.39.18-.7.3-.94.23-.49.57-.72.98-.84.19-.06.38-.14.56-.14.6,0,.78.87.9,2.18.14,1.97.63,3.98,1.37,5.96.74,1.98,1.67,3.94,2.81,5.77.86,1.34,1.81,2.64,2.89,3.73,1.06,1.09,2.3,2.03,3.43,2.36l-.02.08Z"/><path class="cls-2" d="M362.28,131.19c.43.22,1.19.37,2.03.42.85.06,1.78.04,2.75.02,1.93-.05,3.98-.15,6.11,0,2.12.15,4.36.57,6.45,1.59,1.04.5,2.03,1.15,2.9,1.9.9.76,1.61,1.65,2.27,2.49,1.9,2.53,3.31,5.68,3.47,8.95.21,3.43-.69,6.69-1.94,9.6-.62,1.46-1.35,2.85-2.08,4.19l-1.07,1.95-.35.69c-.06.13-.12.26-.14.41-.02.21.11.38.26.51.07.07.16.13.24.19.05.03.32.2.51.3l2.72,1.43c1.88,1.03,3.81,2.35,5.2,4.22,1.54,2.04,2.34,4.51,2.51,6.99.07,1.26-.08,2.57-.51,3.78-.42,1.22-1.09,2.34-1.92,3.28-2.15,2.44-5.19,3.78-8.26,4.18-1.54.17-3.12.17-4.63-.21-1.5-.39-2.96-1.01-4.17-1.96-.74-.62-.93-1.01-.82-1.11.13-.12.59.04,1.36.17.77.14,1.81.32,3.01.32.6.01,1.24-.04,1.9-.08.66-.03,1.34-.06,2.05-.14,2.5-.24,4.96-1.27,6.55-2.91,1.62-1.63,2.21-3.74,1.74-6.02-.43-2.42-1.67-4.26-3.59-5.81-.97-.78-2.11-1.44-3.39-2.12-.65-.35-1.29-.68-2.09-1.18-1.11-.68-2.09-1.63-2.31-2.86-.03-.14-.07-.27-.07-.42,0-.73.19-1.45.51-2.14.07-.17.16-.36.23-.5l.17-.32.33-.61c.42-.77.85-1.54,1.28-2.32.82-1.52,1.53-3.06,2.08-4.63,1.09-3.14,1.42-6.45.48-9.44-.48-1.67-1.38-3.22-2.5-4.64-1.07-1.43-2.41-2.44-4-3.13-1.59-.68-3.41-.97-5.28-1.07-1.88-.1-3.83,0-5.85.04-1.02,0-2.05.01-3.15-.13-1.12-.17-2.23-.35-3.47-1.29-.19-.19-.36-.41-.54-.62-.18-.19-.28-.49-.39-.67-.21-.42-.3-.75-.46-1.13l-.71-2.07c-.47-1.34-.99-2.63-1.6-3.88-1.58-3.12-3.91-5.86-7.01-7.42l-1.16-.57-1.23-.43c-.81-.31-1.66-.51-2.52-.66-1.72-.3-3.48-.34-5.21-.17-5.4.58-10.37,3.47-13.67,7.49-.71.9-1.3,1.85-1.85,2.86-.99,1.88-1.41,3.23-1.84,4.15-.37.94-.79,1.46-1.28,1.88-.23.19-.46.46-.66.57-.34.19-.57-.2-.74-1.11-.17-.92-.06-2.35.45-4.12,3.08-10.84,16.23-17.88,27.9-14.38,2.07.61,4.08,1.58,5.89,2.86,1.77,1.33,3.31,2.94,4.53,4.72,1.23,1.78,2.15,3.7,2.88,5.6.36.95.7,1.9,1,2.78l.23.65.22.57c.18.39.12.29.15.33.01.02-.01,0,.13.07l-.03.08Z"/><path class="cls-2" d="M312.33,198.51c-.45-.26-.77-.64-1.01-1-.22-.36-.37-.73-.46-1.06-.19-.68-.23-1.29-.25-1.88-.01-.43-.04-.84,0-1.25.2-1.44.55-2.77.96-4.08.2-.58.36-1.16.53-1.73.17-.75.56-1.45,1.02-2.1.15-.2.23-.13.32.12.08.24.26.68.29,1.13.08.8-.09,1.52-.16,2.26-.05.37-.09.74-.17,1.1-.1.35-.2.71-.31,1.08-.27.86-.22,1.8-.22,2.66-.02.93.05,1.93.39,2.43.1.16.19.24.33.31.06.04.16.05.24.07.07,0,.14.02.25-.02.65-.13,1.51-.67,2.16-1.28.52-.49.91-1.12,1.32-1.72.09-.13.16-.28.26-.4.37-.47.62-.5,1.22-.13.14.08.28.16.41.25.43.31.6.79.4,1.23-.6,1.3-1.6,2.4-2.92,3.36-.49.35-1.05.69-1.79.94-.37.12-.82.23-1.39.21-.5-.03-.99-.16-1.45-.43l.03-.05Z"/><path class="cls-2" d="M222.91,172.4c-.64,4.24-1.16,8.52-1.49,12.79-.12,1.56-.12,3.11-.14,4.63,0,2.67.18,5.38,1.1,7.71.95,2.27,2.75,4.32,4.78,6.12,1.79,1.63,3.81,3.07,5.74,4.63,1.25.98,2.5,2.02,3.66,3.19,1.11,1.2,2.02,2.77,2.29,4.45.16,1.04.06.87-.55.24-.16-.15-.33-.34-.58-.52-.26-.17-.55-.36-.87-.54-.3-.2-.62-.4-.95-.61-.32-.22-.65-.46-1-.7-2.1-2.06-4.77-3.84-7.26-5.93-2.48-2.11-5.09-4.38-6.88-7.56-1.07-1.93-1.67-4.06-1.95-6.13-.3-2.08-.36-4.16-.29-6.19.21-4.44.71-8.79,1.29-13.15.37-2.68.79-5.35,1.31-8.02.12-.62.2-1.03.42-1.96.19-.83.41-1.64.68-2.35.27-.7.57-1.23.91-1.64.18-.2.35-.39.63-.51.32-.14.65.07.85.22.63.56,1.07,1.35,1.43,2.46.18.55.33,1.13.46,1.73l.18.9.12.65c.54,3.16.87,6.27.87,9.45,0,.7,0,1.39-.06,2.1-.23,2.64-.83,3.45-1.51,3.84-.16.09-.33.21-.47.24-.23.06-.36-.2-.43-.67-.08-.48-.13-1.19-.1-2.08.08-2.66-.05-5.43-.36-8.22-.16-1.39-.32-2.79-.54-4.16-.04-.29-.15-.85-.13-.71h0s0,0,0,0h0s0-.02,0-.02c0,0,0,0-.01,0h0s0,.04,0,.04l-.07.31c-.39,1.93-.71,3.92-.99,5.91h-.07Z"/><path class="cls-2" d="M258.64,197.94c5.99,2.22,11.92,4.5,17.92,6.51,2.19.74,4.41,1.35,6.61,2,1.94.59,3.89,1.12,5.84,1.6,1.94.46,3.93.88,5.94,1.25,4,.77,8.03,1.46,12.07,2.06,3.58.54,7.21.91,10.79,1.28,2.3.2,4.61.41,6.92.61,2.31.17,4.6.52,6.87,1.23.7.33,1,.5.97.57-.03.08-.38.11-1.02.38-.64.27-1.53.53-2.61.87-.54.16-1.12.21-1.74.29-.31.02-.62.05-.95.08-.32,0-.65-.02-.98-.04-9.47-.65-18.92-1.9-28.32-3.87-2.81-.6-5.67-1.09-8.6-1.74-2.9-.66-5.79-1.4-8.6-2.28-6.18-1.9-12.23-4.14-18.25-6.36-3.71-1.36-7.41-2.76-11.12-3.92-.7-.19-1.41-.43-2.1-.59l-.98-.23c-.2-.04-.4-.05-.6-.08-.23-.07-.32.22-.42.36l-.13.27-.16.36c-.29.66-.55,1.36-.81,2.06-1.04,2.8-2.06,5.62-3.17,8.4-1.72,4.32-3.47,8.57-5.85,12.61-.52.89-1.04,1.76-1.64,2.62-2.35,3.1-3.51,3.78-4.63,3.81-.26,0-.55.05-.74,0-.65-.17.11-1.55,1.6-3.73,4.42-6.51,7.73-14.25,10.65-22.29.55-1.5,1.1-2.99,1.71-4.58l.12-.33c.06-.19.15-.37.22-.56.16-.37.35-.72.55-1.05.22-.32.46-.59.75-.8.15-.1.31-.2.48-.26.17-.04.37-.02.55-.03l1.12-.02h.56c.21,0,.36.05.53.09l1.32.3c3.29.89,6.3,2,9.35,3.07l-.02.08Z"/><path class="cls-2" d="M398.96,297.5c2.45-.97,4.92-1.89,7.44-2.74,1.24-.42,2.59-.84,3.85-1.16l3.81-1c1.85-.48,3.69-1.03,5.56-1.46,3.3-.76,6.63-1.43,10-1.93,3.38-.47,6.8-.86,10.33-.54,1.55.14,3.16.46,4.69,1.17.38.2.77.34,1.11.64l.52.4.26.2.24.27c.69.72.99,1.62,1.2,2.46.41,2.19.02,4.3-.84,6.19-.46.94-1.02,1.83-1.74,2.61-.38.38-.78.74-1.28.98-.46.28-.98.47-1.49.6-1.38.07-1.07-.04-.32-.74.17-.21.35-.45.55-.71.17-.31.36-.61.5-.99.34-.68.67-1.47,1.04-2.31.61-1.5.95-3.22.78-4.63-.07-.71-.34-1.25-.62-1.51-.03-.08-.24-.18-.35-.27-.14-.09-.24-.2-.4-.29-.34-.13-.62-.33-1-.44-1.46-.51-3.25-.67-5.07-.71-1.83-.04-3.72.05-5.62.23-4.56.4-9.25,1.66-13.86,2.81-2.54.63-5.07,1.31-7.6,2-2.45.67-4.91,1.58-7.36,2.5-3.01,1.14-5.99,2.36-8.94,3.65-4.47,1.96-8.92,4.03-13.15,6.38-3.28,1.83-6.34,3.91-9.22,6.14-.62.5-1.22,1.01-1.82,1.54-.57.47-1.01.88-1.41,1.19-.37.33-.7.58-.99.75-.62.32-1.07.45-1.53.5-.22.02-.46.1-.63.09-.29-.01-.33-.32-.18-.96.15-.64.53-1.59,1.36-2.47,2.4-2.64,5.28-4.73,8.26-6.66,2.99-1.93,6.14-3.65,9.32-5.28,4.74-2.41,9.61-4.56,14.54-6.57l.04.07Z"/><path class="cls-2" d="M170.17,180.72c2.12-.99,4.24-2.03,6.35-3.1.77-.39,1.5-.86,2.27-1.25,2.72-1.38,5.51-2.66,8.31-3.93l1.85-.88c.63-.27,1.25-.54,1.87-.81.81-.32,1.61-.67,2.44-.95.83-.26,1.7-.45,2.55-.65.53-.11.51.04.17.43-.35.37-.97,1.07-1.79,1.62-.72.53-1.48.94-2.22,1.4-.75.45-1.45.97-2.24,1.34-1.55.78-3.12,1.53-4.74,2.26-1.92.87-3.79,2.05-5.7,3.08-2.1,1.13-4.22,2.24-6.37,3.32-1.32.67-2.65,1.31-3.98,1.95-2.02.98-4.1,1.84-6.15,2.74-1.61.67-3.13,1.47-4.77,2.09-.36.14-.69.32-1.07.42-1.39.41-1.89.3-2.35-.39-.11-.16-.23-.31-.31-.47-.25-.53.18-1.2,1.09-1.62,2.69-1.25,5.52-2.39,8.37-3.7,2.12-.94,4.27-1.9,6.38-2.96l.04.06Z"/><path class="cls-2" d="M318.28,186.02c1.43,1.68,4.21,1.59,5.83.27,1.49-1.22,2.36-3.1,2.64-4.98.11-.7.14-1.41.2-2.11.05-.65-.61-1.28-1.25-1.25-.72.03-1.19.55-1.25,1.25-.04.45-.05.89-.1,1.34,0,.08-.02.16-.03.23,0,.02.05-.3.02-.16,0,.04-.01.07-.02.11-.03.17-.06.34-.09.51-.08.36-.17.71-.29,1.05-.03.08-.06.16-.09.24-.04.13.04-.1.04-.1-.01.05-.05.11-.07.16-.08.18-.17.35-.27.52s-.21.34-.32.51c-.07.09-.18.21-.04.05-.09.1-.17.2-.26.3-.15.16-.31.31-.47.46,0,0-.09.08-.1.08-.02,0,.23-.15.1-.08-.09.04-.17.11-.26.16-.06.03-.23.16-.1.05.1-.08.07-.03,0,0-.04.01-.08.03-.12.04-.09.03-.18.05-.28.08-.04,0-.08.02-.12.03-.06.01-.2.08-.04.01.13-.05.07,0,0,0s-.14,0-.21.01c-.1,0-.2,0-.29,0-.04,0-.08,0-.13,0-.15,0,.27.06.04,0-.09-.02-.19-.04-.28-.07-.04-.01-.08-.03-.12-.04-.22-.06.16.09.03.02-.08-.05-.17-.09-.25-.14-.03-.02-.07-.05-.1-.07-.12-.06.2.2.03.02-.08-.08-.16-.16-.23-.24-.43-.5-1.34-.47-1.77,0-.49.53-.45,1.24,0,1.77h0Z"/><path class="cls-2" d="M376.75,114.9c.17.24.01.52-.31.82-.1.09-.46.18-.54.12-.15-.12-.29-.24-.41-.37-.06-.08-.75-1.45-1.03-1.89-.26-.44-.46-.89-.65-1.35-.36-.94-.84-1.84-1.26-2.76-.1-.2-.16-.42-.2-.64-.12-.77-.44-1.47-.75-2.19-.05-.12-.08-.25-.23-.33-.25-.13-.99-2.12-.99-2.41,0-.71-.09-1.4-.12-2.1,0-.1-.08-.19.03-.31.27-.29.15-.48.12-.68-.05-.29-.08-.58-.05-.89.04-.16.2-.35.33-.53.11-.16.61-.23.68-.2.19.08.4-.08.6-.15.07-.02.16-.05.21-.06.19-.03,1.48,1.31,1.5,1.48,0,.02.22.59.45,1.19.23.6.47,1.22.54,1.34.07.13.03.29.02.44,0,.07.75,1.85.76,1.93.07.4.3.74.11,1.22-.03.09,0,.17.02.25.18.67.23,1.38.32,2.08.05.36.15.7.22,1.05.01.06,0,.14,0,.2,0,.08-.01.17,0,.25.21.82.31,1.66.57,2.46.06.19.06,1.15.14,1.35.04.12-.14.59-.07.69Z"/><path class="cls-2" d="M385.31,115.59c-.03.29-.4.26-.96.03-.18-.07-.6-.44-.63-.54-.05-.2-.09-.39-.11-.56.01-.1.43-1.26.49-1.68.08-.4.23-.76.39-1.12.32-.72.59-1.49.91-2.26.07-.17.17-.33.3-.48.44-.51.71-1.11.92-1.76.04-.11.1-.21.04-.36-.13-.24.72-1.99.94-2.17.26-.22.49-.45.73-.67.26-.21.51-.42.77-.63.08-.06.1-.16.26-.14.38.05.45-.13.59-.26.19-.19.42-.34.67-.47.13-.06.35-.03.54-.02.17,0,.47.39.49.45.04.19.26.28.41.41.05.04.12.1.15.14.04.05,0,.46-.06.86-.05.4-.08.81-.13.86-.04.01-.82,1.67-.87,1.88-.03.11-.15.17-.25.24-.06.02-.54,1.49-.57,1.55-.18.27-.22.62-.61.81-.08.04-.09.1-.12.17-.21.54-.56,1.03-.89,1.55-.17.26-.27.56-.42.83-.03.05-.09.08-.14.12-.05.05-.12.1-.16.16-.34.66-.86,1.24-1.19,1.92-.07.17-.81.68-.9.86-.05.11-.6.15-.61.26Z"/><path class="cls-2" d="M390.68,126.62c-.17.15-.41-.01-.68-.31-.09-.1-.19-.44-.15-.51.08-.14.15-.28.24-.4.06-.06,1.05-.78,1.36-1.07.31-.29.65-.46,1.01-.61l2.14-.96c.16-.07.33-.11.5-.13.61-.05,1.16-.26,1.7-.54.09-.05.19-.07.24-.2.09-.23,1.6-.78,1.82-.78.55.02,1.08-.03,1.62-.04.08,0,.14-.07.24.03.24.24.38.14.54.11.22-.04.45-.07.69-.04.12.01.28.15.43.25.13.09.23.55.22.61-.05.17.1.36.17.54.02.06.05.14.07.19.03.12-.93,1.27-1.07,1.3-.01,0-.45.21-.9.42-.45.21-.93.44-1.02.49-.1.06-.22.03-.34.02-.06,0-1.4.68-1.47.66-.31.05-.58.22-.95.07-.07-.03-.13,0-.19.02-.5.17-1.05.22-1.58.3-.27.04-.52.14-.79.21-.05.01-.11,0-.16,0-.07,0-.13-.01-.19,0-.62.17-1.26.29-1.88.47-.14.04-.91-.03-1.07.03-.09.03-.49-.17-.55-.1Z"/></svg>