<svg xmlns="http://www.w3.org/2000/svg" xml:space="preserve" viewBox="100.98 157.38 296.26 296.82">  <path fill="#6EC5E3" d="M133.197 214.08c1.105-1.667 1.791-3.232 2.882-4.428 15.996-17.53 34.197-31.845 56.51-40.845 14.31-5.771 28.96-9.032 44.207-10.693 24.738-2.695 48.242 2.192 70.814 11.558 14.105 5.853 26.827 14.234 38.44 24.496 13.124 11.596 23.683 24.996 32.488 39.956a40.768 40.768 0 0 1 2.428 4.892c1.773 4.223 3.953 7.528 8.904 9.129 5.991 1.938 8.616 8.46 6.805 14.15-1.634 5.133-7.546 8.45-13.61 7.635-5.179-.696-9.37-5.818-8.945-11.945.668-9.609-4.92-16.868-9.375-24.155-9.227-15.095-21.093-28.098-35.736-38.28-5.008-3.482-10.209-6.72-15.517-9.722-3.992-2.259-5.382-1.296-5.405 3.281-.051 9.999.166 20.003-.143 29.993-.073 2.36-1.26 5.163-2.862 6.911-5.4 5.892-11.125 11.497-16.916 17.012-2.716 2.587-2.558 4.754-.773 7.865 3.075 5.36 6.798 7.894 13.464 7.548 12.63-.655 25.322-.068 37.985-.262 3.906-.06 5.333 1.165 5.18 5.142-.264 6.823.043 13.666-.123 20.494-.077 3.144.829 4.482 4.212 4.426 10.33-.173 20.666.039 30.993-.203 1.41-.033 3.445-1.49 4.046-2.809 2.153-4.724 6.75-2.47 9.971-3.96.945 2.08 2.546 4.107 2.719 6.25.655 8.102 1.282 16.249 1.132 24.364-.517 27.95-9.422 53.352-24.882 76.395-5.609 8.36-11.857 16.522-19.009 23.56-11.608 11.422-24.878 20.853-39.716 27.894-17.743 8.42-36.316 13.09-55.998 14.211-27.187 1.549-52.73-3.95-76.816-16.296-17.326-8.88-32.313-21.038-44.798-35.863-11.018-13.082-19.29-28.007-25.627-43.983-1.17-2.95-3.547-5.526-5.733-7.944-4.012-4.438-4.552-11.145-.917-15.395 4.343-5.077 10.785-5.996 15.972-2.278 4.26 3.053 6.122 9.235 3.59 13.921-2.304 4.263-2.003 8.12.07 12.212.972 1.919 1.63 3.994 2.5 5.967 3.76 8.522 4.69 8.542 11.633 2.238 8.11-7.362 16.7-14.197 24.724-21.646 2.037-1.891 3.73-5.199 3.845-7.929.441-10.48.34-20.994.091-31.487-.096-4.028.914-5.605 5.23-5.442 8.488.32 16.998-.03 25.493.155 3.38.074 4.853-.85 4.68-4.476-.254-5.32-.172-10.664-.045-15.994.067-2.817-1.038-3.843-3.823-3.769-5.163.138-10.337-.102-15.496.087-3.098.113-4.099-1.076-3.996-4.079.171-4.993-.124-10.003.074-14.994.145-3.642-1.137-5-4.89-4.96-14.997.16-29.998.168-44.994-.01-3.433-.04-5.076 1.222-6.211 4.325-6.34 17.326-9.811 35.103-9.088 53.624.073 1.879.014 4.967-.98 5.451-2.704 1.319-5.927 1.678-8.99 2.044-.42.05-1.52-1.988-1.59-3.104-1.5-24.136 2.686-47.29 12.637-69.314 4.982-11.027 10.643-21.713 19.285-30.92M274.47 440.161c2.427-.513 4.889-.9 7.276-1.558 20.729-5.716 39.654-14.71 55.917-29.197 4.134-3.682 3.438-5.29.048-8.237-8.777-7.63-17.509-15.315-26.092-23.162-9.692-8.86-6.795-10.761-18.392 1.484-1.686 1.78-4.523 3.252-6.93 3.42-6.632.465-13.32.24-19.984.136-4.152-.064-5.742 1.725-5.167 5.846.74 5.313-.014 6.13-5.364 6.143-13.664.031-27.329.009-40.993.005-13.466-.003-13.379-.006-13.646-13.356-.046-2.316-.488-5.255-1.93-6.806-6.803-7.318-13.915-14.364-21.196-21.208-1.108-1.042-4.43-1.432-5.467-.583-11.048 9.044-21.848 18.392-32.702 27.674-2.337 1.999-2.247 3.94-.37 6.46 8.725 11.71 18.942 21.948 30.854 30.296 31.216 21.876 65.82 28.947 104.138 22.643M233.5 336.022c7.498 0 15 .16 22.491-.067 3.995-.122 5.288 1.442 5.158 5.287-.215 6.324-.061 12.661-.059 18.992.004 9.835-.003 9.893 9.382 11.142 2.788.37 5.712.783 8.43.325 2.812-.472 6.048-1.323 8.054-3.153 6.763-6.17 13.137-12.775 19.47-19.395 1.248-1.304 2.271-3.395 2.334-5.16.26-7.322.05-14.659.143-21.989.038-2.938-1.06-4.272-4.108-4.172-4.16.137-8.33.045-12.495.018-8.3-.053-7.321.83-7.347-7.6-.037-11.83.093-23.66-.101-35.487-.039-2.35-.784-4.931-1.96-6.97-2.482-4.304-5.214-8.524-8.357-12.357-1.364-1.664-3.961-3.146-6.06-3.234-8.65-.362-17.327.025-25.983-.245-3.917-.122-4.915 1.395-4.693 4.97.248 3.983.07 7.994.061 11.992-.015 6.868-.284 7.137-6.912 7.114-3.998-.014-8.012.197-11.991-.088-4.064-.29-5.203 1.451-5.116 5.259.193 8.493-.018 16.994.096 25.49.052 3.808-1.391 5.336-5.338 5.235-8.658-.221-17.328.04-25.989-.122-3.501-.064-4.774 1.302-4.653 4.714.17 4.826-.23 9.687.186 14.483.196 2.249 1.24 4.83 2.75 6.486 5.827 6.393 11.987 12.484 18.069 18.643.362.367 1.12.344 2.271.662 0-5.409.206-10.387-.064-15.34-.22-4.055 1.082-5.645 5.342-5.51 8.655.274 17.325.08 26.989.078m-7.012-119.048c1.83-.002 3.682.17 5.488-.04 4.65-.543 6.286 1.438 5.957 6.015-.322 4.47.038 8.987-.118 13.476-.108 3.142 1.016 4.382 4.294 4.544 29.563 1.462 29.56 1.505 50.218-19.667.464-.476 1.14-.865 1.368-1.435 1.135-2.822 2.946-5.658 3.067-8.55.388-9.305-.057-18.642.218-27.955.127-4.321-1.571-6.458-5.605-7.367-5.805-1.307-11.505-3.245-17.368-4.098-8.669-1.26-17.462-2.642-26.164-2.43-9.54.234-19.02 2.394-28.562 3.357-4.06.41-5.472 2.198-5.418 6.07.124 8.82.035 17.643.04 26.465.008 11.627.011 11.627 12.585 11.615m145.145 148.144c9.791-19.177 14.06-39.556 13.418-61.037-.087-2.901-1.061-4.233-4.118-4.207-11.161.093-22.323.077-33.485.007-2.526-.016-3.67.878-3.578 3.492.116 3.327-.15 6.673.067 9.991.234 3.587-1.339 4.668-4.718 4.543-5.157-.19-10.33.05-15.49-.087-2.792-.074-3.863.968-3.805 3.78.13 6.327-.378 12.696.163 18.98.561 6.527-1.262 11.74-6.25 15.813-3.672 3-3.271 5.428.203 8.413 11.336 9.742 22.526 19.656 33.7 29.583 2.055 1.825 3.652 2.162 5.269-.343 6.083-9.426 12.175-18.845 18.624-28.928M186.297 184.797c-1.37.597-2.826 1.052-4.1 1.812-15.127 9.024-28.273 20.458-39.72 33.753-4.069 4.725-7.103 10.355-10.483 15.652-1.884 2.953-1.738 4.954 2.612 4.925 12.986-.087 25.973-.092 38.958.011 3.178.025 4.565-1.083 4.471-4.348-.144-4.99.079-9.992-.076-14.982-.108-3.464 1.327-4.781 4.747-4.668 4.989.165 9.989-.014 14.982.064 2.546.04 4.196-.64 4.185-3.575-.039-10.323.006-20.645-.038-30.967-.014-3.207-1.45-4.184-4.487-2.719-3.421 1.65-6.93 3.117-11.051 5.042m39.554 58.715c-.007-3.662-.005-7.324-.022-10.985-.014-2.955-1.077-4.53-4.471-4.461-8.938.182-17.883.126-26.823.003-3.106-.043-4.621.952-4.587 4.267.096 9.486.088 18.974-.004 28.46-.03 3.043 1.292 4.113 4.217 4.085 8.986-.087 17.975-.08 26.962-.013 3.415.026 4.802-1.575 4.753-4.883-.075-5.158-.022-10.318-.025-16.473m72.226 26.67c-.648 1.222-1.839 2.434-1.859 3.666-.152 9.328-.083 18.66-.063 27.991.006 3.137 1.607 4.357 4.738 4.317 8.996-.113 17.996-.137 26.992.01 3.267.053 4.406-1.176 4.36-4.388-.13-9.163-.153-18.33.014-27.492.06-3.245-1.005-4.404-4.29-4.346-9.662.17-19.328.08-29.892.243M213.9 376.368c0 7.554 0 7.546 7.693 7.536 7.497-.009 14.996-.126 22.488.056 3.535.086 5.166-.905 5.08-4.762-.203-9.158-.182-18.326-.023-27.485.061-3.542-1.359-4.654-4.742-4.595-8.494.148-16.996.207-25.486-.022-4.044-.11-5.187 1.503-5.08 5.313.217 7.657.068 15.324.07 23.96z"></path></svg>