<?xml version="1.0" standalone="no"?>
<!DOCTYPE svg PUBLIC "-//W3C//DTD SVG 20010904//EN"
 "http://www.w3.org/TR/2001/REC-SVG-20010904/DTD/svg10.dtd">
<svg version="1.0" xmlns="http://www.w3.org/2000/svg"
 width="1138.000000pt" height="1138.000000pt" viewBox="0 0 1138.000000 1138.000000"
 preserveAspectRatio="xMidYMid meet">
<metadata>
Created by potrace 1.14, written by Peter Selinger 2001-2017
</metadata>
<g transform="translate(0.000000,1138.000000) scale(0.100000,-0.100000)"
fill="#000000" stroke="none">
<path d="M1310 5693 l0 -5688 753 0 752 0 1 2623 c0 1442 4 2625 7 2629 4 3
1294 7 2867 7 2536 1 2860 -1 2861 -14 0 -8 1 -1192 2 -2630 l2 -2615 748 0
747 0 1 45 c0 58 0 11289 0 11313 -1 16 -44 17 -750 17 l-748 0 0 -2440 c0
-1342 -2 -2443 -5 -2445 -7 -7 -5719 -7 -5726 0 -3 2 -5 1102 -6 2442 l-1
2438 -752 3 -753 2 0 -5687z"/>
</g>
</svg>
